G04 #@! TF.GenerationSoftware,KiCad,Pcbnew,5.1.5+dfsg1-2build2*
G04 #@! TF.CreationDate,2021-04-24T23:58:55+01:00*
G04 #@! TF.ProjectId,alarm_sensors,616c6172-6d5f-4736-956e-736f72732e6b,rev?*
G04 #@! TF.SameCoordinates,Original*
G04 #@! TF.FileFunction,Legend,Top*
G04 #@! TF.FilePolarity,Positive*
%FSLAX46Y46*%
G04 Gerber Fmt 4.6, Leading zero omitted, Abs format (unit mm)*
G04 Created by KiCad (PCBNEW 5.1.5+dfsg1-2build2) date 2021-04-24 23:58:55*
%MOMM*%
%LPD*%
G04 APERTURE LIST*
%ADD10C,0.150000*%
%ADD11C,0.300000*%
%ADD12C,0.152400*%
%ADD13C,0.200000*%
%ADD14C,0.120000*%
%ADD15C,0.254000*%
G04 APERTURE END LIST*
D10*
X184234314Y-80258180D02*
X184234314Y-79591514D01*
X184234314Y-79781990D02*
X184281933Y-79686752D01*
X184329552Y-79639133D01*
X184424790Y-79591514D01*
X184520028Y-79591514D01*
X184996219Y-80258180D02*
X184900980Y-80210561D01*
X184853361Y-80162942D01*
X184805742Y-80067704D01*
X184805742Y-79781990D01*
X184853361Y-79686752D01*
X184900980Y-79639133D01*
X184996219Y-79591514D01*
X185139076Y-79591514D01*
X185234314Y-79639133D01*
X185281933Y-79686752D01*
X185329552Y-79781990D01*
X185329552Y-80067704D01*
X185281933Y-80162942D01*
X185234314Y-80210561D01*
X185139076Y-80258180D01*
X184996219Y-80258180D01*
X185758123Y-79591514D02*
X185758123Y-80448657D01*
X185710504Y-80543895D01*
X185615266Y-80591514D01*
X185567647Y-80591514D01*
X185758123Y-79258180D02*
X185710504Y-79305800D01*
X185758123Y-79353419D01*
X185805742Y-79305800D01*
X185758123Y-79258180D01*
X185758123Y-79353419D01*
X186615266Y-80210561D02*
X186520028Y-80258180D01*
X186329552Y-80258180D01*
X186234314Y-80210561D01*
X186186695Y-80115323D01*
X186186695Y-79734371D01*
X186234314Y-79639133D01*
X186329552Y-79591514D01*
X186520028Y-79591514D01*
X186615266Y-79639133D01*
X186662885Y-79734371D01*
X186662885Y-79829609D01*
X186186695Y-79924847D01*
X187091457Y-80258180D02*
X187091457Y-79591514D01*
X187091457Y-79781990D02*
X187139076Y-79686752D01*
X187186695Y-79639133D01*
X187281933Y-79591514D01*
X187377171Y-79591514D01*
X188329552Y-79781990D02*
X188281933Y-79734371D01*
X188186695Y-79686752D01*
X188091457Y-79686752D01*
X187996219Y-79734371D01*
X187948600Y-79781990D01*
X187900980Y-79877228D01*
X187900980Y-79972466D01*
X187948600Y-80067704D01*
X187996219Y-80115323D01*
X188091457Y-80162942D01*
X188186695Y-80162942D01*
X188281933Y-80115323D01*
X188329552Y-80067704D01*
X188329552Y-79686752D02*
X188329552Y-80067704D01*
X188377171Y-80115323D01*
X188424790Y-80115323D01*
X188520028Y-80067704D01*
X188567647Y-79972466D01*
X188567647Y-79734371D01*
X188472409Y-79591514D01*
X188329552Y-79496276D01*
X188139076Y-79448657D01*
X187948600Y-79496276D01*
X187805742Y-79591514D01*
X187710504Y-79734371D01*
X187662885Y-79924847D01*
X187710504Y-80115323D01*
X187805742Y-80258180D01*
X187948600Y-80353419D01*
X188139076Y-80401038D01*
X188329552Y-80353419D01*
X188472409Y-80258180D01*
X188996219Y-80258180D02*
X188996219Y-79591514D01*
X188996219Y-79781990D02*
X189043838Y-79686752D01*
X189091457Y-79639133D01*
X189186695Y-79591514D01*
X189281933Y-79591514D01*
X189758123Y-80258180D02*
X189662885Y-80210561D01*
X189615266Y-80162942D01*
X189567647Y-80067704D01*
X189567647Y-79781990D01*
X189615266Y-79686752D01*
X189662885Y-79639133D01*
X189758123Y-79591514D01*
X189900980Y-79591514D01*
X189996219Y-79639133D01*
X190043838Y-79686752D01*
X190091457Y-79781990D01*
X190091457Y-80067704D01*
X190043838Y-80162942D01*
X189996219Y-80210561D01*
X189900980Y-80258180D01*
X189758123Y-80258180D01*
X190520028Y-79591514D02*
X190520028Y-80448657D01*
X190472409Y-80543895D01*
X190377171Y-80591514D01*
X190329552Y-80591514D01*
X190520028Y-79258180D02*
X190472409Y-79305800D01*
X190520028Y-79353419D01*
X190567647Y-79305800D01*
X190520028Y-79258180D01*
X190520028Y-79353419D01*
X191377171Y-80210561D02*
X191281933Y-80258180D01*
X191091457Y-80258180D01*
X190996219Y-80210561D01*
X190948600Y-80115323D01*
X190948600Y-79734371D01*
X190996219Y-79639133D01*
X191091457Y-79591514D01*
X191281933Y-79591514D01*
X191377171Y-79639133D01*
X191424790Y-79734371D01*
X191424790Y-79829609D01*
X190948600Y-79924847D01*
X191853361Y-80258180D02*
X191853361Y-79591514D01*
X191853361Y-79781990D02*
X191900980Y-79686752D01*
X191948600Y-79639133D01*
X192043838Y-79591514D01*
X192139076Y-79591514D01*
X192472409Y-80162942D02*
X192520028Y-80210561D01*
X192472409Y-80258180D01*
X192424790Y-80210561D01*
X192472409Y-80162942D01*
X192472409Y-80258180D01*
X192948600Y-80258180D02*
X192948600Y-79591514D01*
X192948600Y-79686752D02*
X192996219Y-79639133D01*
X193091457Y-79591514D01*
X193234314Y-79591514D01*
X193329552Y-79639133D01*
X193377171Y-79734371D01*
X193377171Y-80258180D01*
X193377171Y-79734371D02*
X193424790Y-79639133D01*
X193520028Y-79591514D01*
X193662885Y-79591514D01*
X193758123Y-79639133D01*
X193805742Y-79734371D01*
X193805742Y-80258180D01*
X194662885Y-80210561D02*
X194567647Y-80258180D01*
X194377171Y-80258180D01*
X194281933Y-80210561D01*
X194234314Y-80115323D01*
X194234314Y-79734371D01*
X194281933Y-79639133D01*
X194377171Y-79591514D01*
X194567647Y-79591514D01*
X194662885Y-79639133D01*
X194710504Y-79734371D01*
X194710504Y-79829609D01*
X194234314Y-79924847D01*
X201428000Y-125714780D02*
X201618476Y-125714780D01*
X201713714Y-125762400D01*
X201808952Y-125857638D01*
X201856571Y-126048114D01*
X201856571Y-126381447D01*
X201808952Y-126571923D01*
X201713714Y-126667161D01*
X201618476Y-126714780D01*
X201428000Y-126714780D01*
X201332761Y-126667161D01*
X201237523Y-126571923D01*
X201189904Y-126381447D01*
X201189904Y-126048114D01*
X201237523Y-125857638D01*
X201332761Y-125762400D01*
X201428000Y-125714780D01*
X202285142Y-125714780D02*
X202285142Y-126524304D01*
X202332761Y-126619542D01*
X202380380Y-126667161D01*
X202475619Y-126714780D01*
X202666095Y-126714780D01*
X202761333Y-126667161D01*
X202808952Y-126619542D01*
X202856571Y-126524304D01*
X202856571Y-125714780D01*
X203189904Y-125714780D02*
X203761333Y-125714780D01*
X203475619Y-126714780D02*
X203475619Y-125714780D01*
X194665190Y-126727480D02*
X194665190Y-125727480D01*
X195141380Y-126727480D02*
X195141380Y-125727480D01*
X195712809Y-126727480D01*
X195712809Y-125727480D01*
X190252000Y-125727480D02*
X190442476Y-125727480D01*
X190537714Y-125775100D01*
X190632952Y-125870338D01*
X190680571Y-126060814D01*
X190680571Y-126394147D01*
X190632952Y-126584623D01*
X190537714Y-126679861D01*
X190442476Y-126727480D01*
X190252000Y-126727480D01*
X190156761Y-126679861D01*
X190061523Y-126584623D01*
X190013904Y-126394147D01*
X190013904Y-126060814D01*
X190061523Y-125870338D01*
X190156761Y-125775100D01*
X190252000Y-125727480D01*
X191109142Y-125727480D02*
X191109142Y-126537004D01*
X191156761Y-126632242D01*
X191204380Y-126679861D01*
X191299619Y-126727480D01*
X191490095Y-126727480D01*
X191585333Y-126679861D01*
X191632952Y-126632242D01*
X191680571Y-126537004D01*
X191680571Y-125727480D01*
X192013904Y-125727480D02*
X192585333Y-125727480D01*
X192299619Y-126727480D02*
X192299619Y-125727480D01*
X183489190Y-126740180D02*
X183489190Y-125740180D01*
X183965380Y-126740180D02*
X183965380Y-125740180D01*
X184536809Y-126740180D01*
X184536809Y-125740180D01*
X178949000Y-125740180D02*
X179139476Y-125740180D01*
X179234714Y-125787800D01*
X179329952Y-125883038D01*
X179377571Y-126073514D01*
X179377571Y-126406847D01*
X179329952Y-126597323D01*
X179234714Y-126692561D01*
X179139476Y-126740180D01*
X178949000Y-126740180D01*
X178853761Y-126692561D01*
X178758523Y-126597323D01*
X178710904Y-126406847D01*
X178710904Y-126073514D01*
X178758523Y-125883038D01*
X178853761Y-125787800D01*
X178949000Y-125740180D01*
X179806142Y-125740180D02*
X179806142Y-126549704D01*
X179853761Y-126644942D01*
X179901380Y-126692561D01*
X179996619Y-126740180D01*
X180187095Y-126740180D01*
X180282333Y-126692561D01*
X180329952Y-126644942D01*
X180377571Y-126549704D01*
X180377571Y-125740180D01*
X180710904Y-125740180D02*
X181282333Y-125740180D01*
X180996619Y-126740180D02*
X180996619Y-125740180D01*
X172186190Y-126752880D02*
X172186190Y-125752880D01*
X172662380Y-126752880D02*
X172662380Y-125752880D01*
X173233809Y-126752880D01*
X173233809Y-125752880D01*
X155180890Y-126765580D02*
X155180890Y-125765580D01*
X155657080Y-126765580D02*
X155657080Y-125765580D01*
X156228509Y-126765580D01*
X156228509Y-125765580D01*
X161943700Y-125752880D02*
X162134176Y-125752880D01*
X162229414Y-125800500D01*
X162324652Y-125895738D01*
X162372271Y-126086214D01*
X162372271Y-126419547D01*
X162324652Y-126610023D01*
X162229414Y-126705261D01*
X162134176Y-126752880D01*
X161943700Y-126752880D01*
X161848461Y-126705261D01*
X161753223Y-126610023D01*
X161705604Y-126419547D01*
X161705604Y-126086214D01*
X161753223Y-125895738D01*
X161848461Y-125800500D01*
X161943700Y-125752880D01*
X162800842Y-125752880D02*
X162800842Y-126562404D01*
X162848461Y-126657642D01*
X162896080Y-126705261D01*
X162991319Y-126752880D01*
X163181795Y-126752880D01*
X163277033Y-126705261D01*
X163324652Y-126657642D01*
X163372271Y-126562404D01*
X163372271Y-125752880D01*
X163705604Y-125752880D02*
X164277033Y-125752880D01*
X163991319Y-126752880D02*
X163991319Y-125752880D01*
X150640700Y-125778280D02*
X150831176Y-125778280D01*
X150926414Y-125825900D01*
X151021652Y-125921138D01*
X151069271Y-126111614D01*
X151069271Y-126444947D01*
X151021652Y-126635423D01*
X150926414Y-126730661D01*
X150831176Y-126778280D01*
X150640700Y-126778280D01*
X150545461Y-126730661D01*
X150450223Y-126635423D01*
X150402604Y-126444947D01*
X150402604Y-126111614D01*
X150450223Y-125921138D01*
X150545461Y-125825900D01*
X150640700Y-125778280D01*
X151497842Y-125778280D02*
X151497842Y-126587804D01*
X151545461Y-126683042D01*
X151593080Y-126730661D01*
X151688319Y-126778280D01*
X151878795Y-126778280D01*
X151974033Y-126730661D01*
X152021652Y-126683042D01*
X152069271Y-126587804D01*
X152069271Y-125778280D01*
X152402604Y-125778280D02*
X152974033Y-125778280D01*
X152688319Y-126778280D02*
X152688319Y-125778280D01*
X143877890Y-126790980D02*
X143877890Y-125790980D01*
X144354080Y-126790980D02*
X144354080Y-125790980D01*
X144925509Y-126790980D01*
X144925509Y-125790980D01*
X139363100Y-125778280D02*
X139553576Y-125778280D01*
X139648814Y-125825900D01*
X139744052Y-125921138D01*
X139791671Y-126111614D01*
X139791671Y-126444947D01*
X139744052Y-126635423D01*
X139648814Y-126730661D01*
X139553576Y-126778280D01*
X139363100Y-126778280D01*
X139267861Y-126730661D01*
X139172623Y-126635423D01*
X139125004Y-126444947D01*
X139125004Y-126111614D01*
X139172623Y-125921138D01*
X139267861Y-125825900D01*
X139363100Y-125778280D01*
X140220242Y-125778280D02*
X140220242Y-126587804D01*
X140267861Y-126683042D01*
X140315480Y-126730661D01*
X140410719Y-126778280D01*
X140601195Y-126778280D01*
X140696433Y-126730661D01*
X140744052Y-126683042D01*
X140791671Y-126587804D01*
X140791671Y-125778280D01*
X141125004Y-125778280D02*
X141696433Y-125778280D01*
X141410719Y-126778280D02*
X141410719Y-125778280D01*
X132600290Y-126790980D02*
X132600290Y-125790980D01*
X133076480Y-126790980D02*
X133076480Y-125790980D01*
X133647909Y-126790980D01*
X133647909Y-125790980D01*
X121309990Y-126790980D02*
X121309990Y-125790980D01*
X121786180Y-126790980D02*
X121786180Y-125790980D01*
X122357609Y-126790980D01*
X122357609Y-125790980D01*
X128072800Y-125778280D02*
X128263276Y-125778280D01*
X128358514Y-125825900D01*
X128453752Y-125921138D01*
X128501371Y-126111614D01*
X128501371Y-126444947D01*
X128453752Y-126635423D01*
X128358514Y-126730661D01*
X128263276Y-126778280D01*
X128072800Y-126778280D01*
X127977561Y-126730661D01*
X127882323Y-126635423D01*
X127834704Y-126444947D01*
X127834704Y-126111614D01*
X127882323Y-125921138D01*
X127977561Y-125825900D01*
X128072800Y-125778280D01*
X128929942Y-125778280D02*
X128929942Y-126587804D01*
X128977561Y-126683042D01*
X129025180Y-126730661D01*
X129120419Y-126778280D01*
X129310895Y-126778280D01*
X129406133Y-126730661D01*
X129453752Y-126683042D01*
X129501371Y-126587804D01*
X129501371Y-125778280D01*
X129834704Y-125778280D02*
X130406133Y-125778280D01*
X130120419Y-126778280D02*
X130120419Y-125778280D01*
X111321500Y-125778280D02*
X111511976Y-125778280D01*
X111607214Y-125825900D01*
X111702452Y-125921138D01*
X111750071Y-126111614D01*
X111750071Y-126444947D01*
X111702452Y-126635423D01*
X111607214Y-126730661D01*
X111511976Y-126778280D01*
X111321500Y-126778280D01*
X111226261Y-126730661D01*
X111131023Y-126635423D01*
X111083404Y-126444947D01*
X111083404Y-126111614D01*
X111131023Y-125921138D01*
X111226261Y-125825900D01*
X111321500Y-125778280D01*
X112178642Y-125778280D02*
X112178642Y-126587804D01*
X112226261Y-126683042D01*
X112273880Y-126730661D01*
X112369119Y-126778280D01*
X112559595Y-126778280D01*
X112654833Y-126730661D01*
X112702452Y-126683042D01*
X112750071Y-126587804D01*
X112750071Y-125778280D01*
X113083404Y-125778280D02*
X113654833Y-125778280D01*
X113369119Y-126778280D02*
X113369119Y-125778280D01*
X104558690Y-126790980D02*
X104558690Y-125790980D01*
X105034880Y-126790980D02*
X105034880Y-125790980D01*
X105606309Y-126790980D01*
X105606309Y-125790980D01*
X93268390Y-126790980D02*
X93268390Y-125790980D01*
X93744580Y-126790980D02*
X93744580Y-125790980D01*
X94316009Y-126790980D01*
X94316009Y-125790980D01*
X100031200Y-125778280D02*
X100221676Y-125778280D01*
X100316914Y-125825900D01*
X100412152Y-125921138D01*
X100459771Y-126111614D01*
X100459771Y-126444947D01*
X100412152Y-126635423D01*
X100316914Y-126730661D01*
X100221676Y-126778280D01*
X100031200Y-126778280D01*
X99935961Y-126730661D01*
X99840723Y-126635423D01*
X99793104Y-126444947D01*
X99793104Y-126111614D01*
X99840723Y-125921138D01*
X99935961Y-125825900D01*
X100031200Y-125778280D01*
X100888342Y-125778280D02*
X100888342Y-126587804D01*
X100935961Y-126683042D01*
X100983580Y-126730661D01*
X101078819Y-126778280D01*
X101269295Y-126778280D01*
X101364533Y-126730661D01*
X101412152Y-126683042D01*
X101459771Y-126587804D01*
X101459771Y-125778280D01*
X101793104Y-125778280D02*
X102364533Y-125778280D01*
X102078819Y-126778280D02*
X102078819Y-125778280D01*
X88740900Y-125778280D02*
X88931376Y-125778280D01*
X89026614Y-125825900D01*
X89121852Y-125921138D01*
X89169471Y-126111614D01*
X89169471Y-126444947D01*
X89121852Y-126635423D01*
X89026614Y-126730661D01*
X88931376Y-126778280D01*
X88740900Y-126778280D01*
X88645661Y-126730661D01*
X88550423Y-126635423D01*
X88502804Y-126444947D01*
X88502804Y-126111614D01*
X88550423Y-125921138D01*
X88645661Y-125825900D01*
X88740900Y-125778280D01*
X89598042Y-125778280D02*
X89598042Y-126587804D01*
X89645661Y-126683042D01*
X89693280Y-126730661D01*
X89788519Y-126778280D01*
X89978995Y-126778280D01*
X90074233Y-126730661D01*
X90121852Y-126683042D01*
X90169471Y-126587804D01*
X90169471Y-125778280D01*
X90502804Y-125778280D02*
X91074233Y-125778280D01*
X90788519Y-126778280D02*
X90788519Y-125778280D01*
X81978090Y-126790980D02*
X81978090Y-125790980D01*
X82454280Y-126790980D02*
X82454280Y-125790980D01*
X83025709Y-126790980D01*
X83025709Y-125790980D01*
X166531604Y-78699380D02*
X167150652Y-78699380D01*
X166817319Y-79080333D01*
X166960176Y-79080333D01*
X167055414Y-79127952D01*
X167103033Y-79175571D01*
X167150652Y-79270809D01*
X167150652Y-79508904D01*
X167103033Y-79604142D01*
X167055414Y-79651761D01*
X166960176Y-79699380D01*
X166674461Y-79699380D01*
X166579223Y-79651761D01*
X166531604Y-79604142D01*
X167436366Y-78699380D02*
X167769700Y-79699380D01*
X168103033Y-78699380D01*
X168341128Y-78699380D02*
X168960176Y-78699380D01*
X168626842Y-79080333D01*
X168769700Y-79080333D01*
X168864938Y-79127952D01*
X168912557Y-79175571D01*
X168960176Y-79270809D01*
X168960176Y-79508904D01*
X168912557Y-79604142D01*
X168864938Y-79651761D01*
X168769700Y-79699380D01*
X168483985Y-79699380D01*
X168388747Y-79651761D01*
X168341128Y-79604142D01*
X167109395Y-86430500D02*
X167014157Y-86382880D01*
X166871300Y-86382880D01*
X166728442Y-86430500D01*
X166633204Y-86525738D01*
X166585585Y-86620976D01*
X166537966Y-86811452D01*
X166537966Y-86954309D01*
X166585585Y-87144785D01*
X166633204Y-87240023D01*
X166728442Y-87335261D01*
X166871300Y-87382880D01*
X166966538Y-87382880D01*
X167109395Y-87335261D01*
X167157014Y-87287642D01*
X167157014Y-86954309D01*
X166966538Y-86954309D01*
X167585585Y-87382880D02*
X167585585Y-86382880D01*
X168157014Y-87382880D01*
X168157014Y-86382880D01*
X168633204Y-87382880D02*
X168633204Y-86382880D01*
X168871300Y-86382880D01*
X169014157Y-86430500D01*
X169109395Y-86525738D01*
X169157014Y-86620976D01*
X169204633Y-86811452D01*
X169204633Y-86954309D01*
X169157014Y-87144785D01*
X169109395Y-87240023D01*
X169014157Y-87335261D01*
X168871300Y-87382880D01*
X168633204Y-87382880D01*
X166553800Y-84868280D02*
X166553800Y-83868280D01*
X167220466Y-83868280D02*
X167410942Y-83868280D01*
X167506180Y-83915900D01*
X167601419Y-84011138D01*
X167649038Y-84201614D01*
X167649038Y-84534947D01*
X167601419Y-84725423D01*
X167506180Y-84820661D01*
X167410942Y-84868280D01*
X167220466Y-84868280D01*
X167125228Y-84820661D01*
X167029990Y-84725423D01*
X166982371Y-84534947D01*
X166982371Y-84201614D01*
X167029990Y-84011138D01*
X167125228Y-83915900D01*
X167220466Y-83868280D01*
X168268085Y-83868280D02*
X168363323Y-83868280D01*
X168458561Y-83915900D01*
X168506180Y-83963519D01*
X168553800Y-84058757D01*
X168601419Y-84249233D01*
X168601419Y-84487328D01*
X168553800Y-84677804D01*
X168506180Y-84773042D01*
X168458561Y-84820661D01*
X168363323Y-84868280D01*
X168268085Y-84868280D01*
X168172847Y-84820661D01*
X168125228Y-84773042D01*
X168077609Y-84677804D01*
X168029990Y-84487328D01*
X168029990Y-84249233D01*
X168077609Y-84058757D01*
X168125228Y-83963519D01*
X168172847Y-83915900D01*
X168268085Y-83868280D01*
X167107780Y-82252080D02*
X166774447Y-81775890D01*
X166536352Y-82252080D02*
X166536352Y-81252080D01*
X166917304Y-81252080D01*
X167012542Y-81299700D01*
X167060161Y-81347319D01*
X167107780Y-81442557D01*
X167107780Y-81585414D01*
X167060161Y-81680652D01*
X167012542Y-81728271D01*
X166917304Y-81775890D01*
X166536352Y-81775890D01*
X167488733Y-82204461D02*
X167631590Y-82252080D01*
X167869685Y-82252080D01*
X167964923Y-82204461D01*
X168012542Y-82156842D01*
X168060161Y-82061604D01*
X168060161Y-81966366D01*
X168012542Y-81871128D01*
X167964923Y-81823509D01*
X167869685Y-81775890D01*
X167679209Y-81728271D01*
X167583971Y-81680652D01*
X167536352Y-81633033D01*
X167488733Y-81537795D01*
X167488733Y-81442557D01*
X167536352Y-81347319D01*
X167583971Y-81299700D01*
X167679209Y-81252080D01*
X167917304Y-81252080D01*
X168060161Y-81299700D01*
X168345876Y-81252080D02*
X168917304Y-81252080D01*
X168631590Y-82252080D02*
X168631590Y-81252080D01*
X167107733Y-77045080D02*
X166774400Y-76568890D01*
X166536304Y-77045080D02*
X166536304Y-76045080D01*
X166917257Y-76045080D01*
X167012495Y-76092700D01*
X167060114Y-76140319D01*
X167107733Y-76235557D01*
X167107733Y-76378414D01*
X167060114Y-76473652D01*
X167012495Y-76521271D01*
X166917257Y-76568890D01*
X166536304Y-76568890D01*
X167441066Y-76045080D02*
X168107733Y-77045080D01*
X168107733Y-76045080D02*
X167441066Y-77045080D01*
X166537895Y-73581280D02*
X167109323Y-73581280D01*
X166823609Y-74581280D02*
X166823609Y-73581280D01*
X167347419Y-73581280D02*
X168014085Y-74581280D01*
X168014085Y-73581280D02*
X167347419Y-74581280D01*
D11*
X88545842Y-68902042D02*
X89688700Y-68902042D01*
X89117271Y-69473471D02*
X89117271Y-68330614D01*
X91188700Y-69473471D02*
X90331557Y-69473471D01*
X90760128Y-69473471D02*
X90760128Y-67973471D01*
X90617271Y-68187757D01*
X90474414Y-68330614D01*
X90331557Y-68402042D01*
X91760128Y-68116328D02*
X91831557Y-68044900D01*
X91974414Y-67973471D01*
X92331557Y-67973471D01*
X92474414Y-68044900D01*
X92545842Y-68116328D01*
X92617271Y-68259185D01*
X92617271Y-68402042D01*
X92545842Y-68616328D01*
X91688700Y-69473471D01*
X92617271Y-69473471D01*
X93045842Y-67973471D02*
X93545842Y-69473471D01*
X94045842Y-67973471D01*
X89334642Y-62774400D02*
X89191785Y-62702971D01*
X88977500Y-62702971D01*
X88763214Y-62774400D01*
X88620357Y-62917257D01*
X88548928Y-63060114D01*
X88477500Y-63345828D01*
X88477500Y-63560114D01*
X88548928Y-63845828D01*
X88620357Y-63988685D01*
X88763214Y-64131542D01*
X88977500Y-64202971D01*
X89120357Y-64202971D01*
X89334642Y-64131542D01*
X89406071Y-64060114D01*
X89406071Y-63560114D01*
X89120357Y-63560114D01*
X90048928Y-64202971D02*
X90048928Y-62702971D01*
X90906071Y-64202971D01*
X90906071Y-62702971D01*
X91620357Y-64202971D02*
X91620357Y-62702971D01*
X91977500Y-62702971D01*
X92191785Y-62774400D01*
X92334642Y-62917257D01*
X92406071Y-63060114D01*
X92477500Y-63345828D01*
X92477500Y-63560114D01*
X92406071Y-63845828D01*
X92334642Y-63988685D01*
X92191785Y-64131542D01*
X91977500Y-64202971D01*
X91620357Y-64202971D01*
D10*
X184842252Y-81366380D02*
X184842252Y-82080666D01*
X184794633Y-82223523D01*
X184699395Y-82318761D01*
X184556538Y-82366380D01*
X184461300Y-82366380D01*
X185794633Y-82366380D02*
X185318442Y-82366380D01*
X185318442Y-81366380D01*
X186699395Y-82271142D02*
X186651776Y-82318761D01*
X186508919Y-82366380D01*
X186413680Y-82366380D01*
X186270823Y-82318761D01*
X186175585Y-82223523D01*
X186127966Y-82128285D01*
X186080347Y-81937809D01*
X186080347Y-81794952D01*
X186127966Y-81604476D01*
X186175585Y-81509238D01*
X186270823Y-81414000D01*
X186413680Y-81366380D01*
X186508919Y-81366380D01*
X186651776Y-81414000D01*
X186699395Y-81461619D01*
X187413680Y-81366380D02*
X187413680Y-82080666D01*
X187366061Y-82223523D01*
X187270823Y-82318761D01*
X187127966Y-82366380D01*
X187032728Y-82366380D01*
X188366061Y-82366380D02*
X187889871Y-82366380D01*
X187889871Y-81366380D01*
X189270823Y-82271142D02*
X189223204Y-82318761D01*
X189080347Y-82366380D01*
X188985109Y-82366380D01*
X188842252Y-82318761D01*
X188747014Y-82223523D01*
X188699395Y-82128285D01*
X188651776Y-81937809D01*
X188651776Y-81794952D01*
X188699395Y-81604476D01*
X188747014Y-81509238D01*
X188842252Y-81414000D01*
X188985109Y-81366380D01*
X189080347Y-81366380D01*
X189223204Y-81414000D01*
X189270823Y-81461619D01*
X189985109Y-81366380D02*
X189985109Y-82080666D01*
X189937490Y-82223523D01*
X189842252Y-82318761D01*
X189699395Y-82366380D01*
X189604157Y-82366380D01*
X190937490Y-82366380D02*
X190461300Y-82366380D01*
X190461300Y-81366380D01*
X191842252Y-82271142D02*
X191794633Y-82318761D01*
X191651776Y-82366380D01*
X191556538Y-82366380D01*
X191413680Y-82318761D01*
X191318442Y-82223523D01*
X191270823Y-82128285D01*
X191223204Y-81937809D01*
X191223204Y-81794952D01*
X191270823Y-81604476D01*
X191318442Y-81509238D01*
X191413680Y-81414000D01*
X191556538Y-81366380D01*
X191651776Y-81366380D01*
X191794633Y-81414000D01*
X191842252Y-81461619D01*
X192556538Y-81366380D02*
X192556538Y-82080666D01*
X192508919Y-82223523D01*
X192413680Y-82318761D01*
X192270823Y-82366380D01*
X192175585Y-82366380D01*
X193508919Y-82366380D02*
X193032728Y-82366380D01*
X193032728Y-81366380D01*
X194413680Y-82271142D02*
X194366061Y-82318761D01*
X194223204Y-82366380D01*
X194127966Y-82366380D01*
X193985109Y-82318761D01*
X193889871Y-82223523D01*
X193842252Y-82128285D01*
X193794633Y-81937809D01*
X193794633Y-81794952D01*
X193842252Y-81604476D01*
X193889871Y-81509238D01*
X193985109Y-81414000D01*
X194127966Y-81366380D01*
X194223204Y-81366380D01*
X194366061Y-81414000D01*
X194413680Y-81461619D01*
X184832733Y-77715119D02*
X184880352Y-77667500D01*
X184975590Y-77619880D01*
X185213685Y-77619880D01*
X185308923Y-77667500D01*
X185356542Y-77715119D01*
X185404161Y-77810357D01*
X185404161Y-77905595D01*
X185356542Y-78048452D01*
X184785114Y-78619880D01*
X185404161Y-78619880D01*
X186023209Y-77619880D02*
X186118447Y-77619880D01*
X186213685Y-77667500D01*
X186261304Y-77715119D01*
X186308923Y-77810357D01*
X186356542Y-78000833D01*
X186356542Y-78238928D01*
X186308923Y-78429404D01*
X186261304Y-78524642D01*
X186213685Y-78572261D01*
X186118447Y-78619880D01*
X186023209Y-78619880D01*
X185927971Y-78572261D01*
X185880352Y-78524642D01*
X185832733Y-78429404D01*
X185785114Y-78238928D01*
X185785114Y-78000833D01*
X185832733Y-77810357D01*
X185880352Y-77715119D01*
X185927971Y-77667500D01*
X186023209Y-77619880D01*
X186737495Y-77715119D02*
X186785114Y-77667500D01*
X186880352Y-77619880D01*
X187118447Y-77619880D01*
X187213685Y-77667500D01*
X187261304Y-77715119D01*
X187308923Y-77810357D01*
X187308923Y-77905595D01*
X187261304Y-78048452D01*
X186689876Y-78619880D01*
X187308923Y-78619880D01*
X188261304Y-78619880D02*
X187689876Y-78619880D01*
X187975590Y-78619880D02*
X187975590Y-77619880D01*
X187880352Y-77762738D01*
X187785114Y-77857976D01*
X187689876Y-77905595D01*
X189404161Y-77572261D02*
X188547019Y-78857976D01*
X189927971Y-77619880D02*
X190023209Y-77619880D01*
X190118447Y-77667500D01*
X190166066Y-77715119D01*
X190213685Y-77810357D01*
X190261304Y-78000833D01*
X190261304Y-78238928D01*
X190213685Y-78429404D01*
X190166066Y-78524642D01*
X190118447Y-78572261D01*
X190023209Y-78619880D01*
X189927971Y-78619880D01*
X189832733Y-78572261D01*
X189785114Y-78524642D01*
X189737495Y-78429404D01*
X189689876Y-78238928D01*
X189689876Y-78000833D01*
X189737495Y-77810357D01*
X189785114Y-77715119D01*
X189832733Y-77667500D01*
X189927971Y-77619880D01*
X191118447Y-77953214D02*
X191118447Y-78619880D01*
X190880352Y-77572261D02*
X190642257Y-78286547D01*
X191261304Y-78286547D01*
X192356542Y-77572261D02*
X191499400Y-78857976D01*
X192642257Y-77715119D02*
X192689876Y-77667500D01*
X192785114Y-77619880D01*
X193023209Y-77619880D01*
X193118447Y-77667500D01*
X193166066Y-77715119D01*
X193213685Y-77810357D01*
X193213685Y-77905595D01*
X193166066Y-78048452D01*
X192594638Y-78619880D01*
X193213685Y-78619880D01*
X194070828Y-77953214D02*
X194070828Y-78619880D01*
X193832733Y-77572261D02*
X193594638Y-78286547D01*
X194213685Y-78286547D01*
X188005761Y-76892680D02*
X187672428Y-76416490D01*
X187434333Y-76892680D02*
X187434333Y-75892680D01*
X187815285Y-75892680D01*
X187910523Y-75940300D01*
X187958142Y-75987919D01*
X188005761Y-76083157D01*
X188005761Y-76226014D01*
X187958142Y-76321252D01*
X187910523Y-76368871D01*
X187815285Y-76416490D01*
X187434333Y-76416490D01*
X188815285Y-76845061D02*
X188720047Y-76892680D01*
X188529571Y-76892680D01*
X188434333Y-76845061D01*
X188386714Y-76749823D01*
X188386714Y-76368871D01*
X188434333Y-76273633D01*
X188529571Y-76226014D01*
X188720047Y-76226014D01*
X188815285Y-76273633D01*
X188862904Y-76368871D01*
X188862904Y-76464109D01*
X188386714Y-76559347D01*
X189196238Y-76226014D02*
X189434333Y-76892680D01*
X189672428Y-76226014D01*
X190053380Y-76797442D02*
X190101000Y-76845061D01*
X190053380Y-76892680D01*
X190005761Y-76845061D01*
X190053380Y-76797442D01*
X190053380Y-76892680D01*
X191243857Y-75987919D02*
X191291476Y-75940300D01*
X191386714Y-75892680D01*
X191624809Y-75892680D01*
X191720047Y-75940300D01*
X191767666Y-75987919D01*
X191815285Y-76083157D01*
X191815285Y-76178395D01*
X191767666Y-76321252D01*
X191196238Y-76892680D01*
X191815285Y-76892680D01*
D12*
X92149800Y-134179399D02*
X102970200Y-134179399D01*
X102970200Y-134179399D02*
X102970200Y-127422999D01*
X102970200Y-127422999D02*
X92149800Y-127422999D01*
X92149800Y-127422999D02*
X92149800Y-134179399D01*
X90752800Y-130750000D02*
G75*
G03X90752800Y-130750000I-381000J0D01*
G01*
D13*
X93475100Y-70064900D02*
G75*
G02X93775100Y-70064900I150000J0D01*
G01*
X93575100Y-70064900D02*
G75*
G02X93675100Y-70064900I50000J0D01*
G01*
X93675100Y-70064900D02*
X93775100Y-70064900D01*
X93775100Y-70064900D02*
X93775100Y-70064900D01*
X93675100Y-70064900D02*
X93675100Y-70064900D01*
X94325100Y-68889900D02*
X94325100Y-76489900D01*
X113825100Y-68889900D02*
X94325100Y-68889900D01*
X113825100Y-76489900D02*
X113825100Y-68889900D01*
X94325100Y-76489900D02*
X113825100Y-76489900D01*
D14*
X128537400Y-75794921D02*
X128537400Y-76120479D01*
X129557400Y-75794921D02*
X129557400Y-76120479D01*
X122255000Y-77825100D02*
X122255000Y-77981100D01*
X122255000Y-75509100D02*
X122255000Y-75665100D01*
X124856130Y-77824937D02*
G75*
G02X122774039Y-77825100I-1041130J1079837D01*
G01*
X124856130Y-75665263D02*
G75*
G03X122774039Y-75665100I-1041130J-1079837D01*
G01*
X125487335Y-77823708D02*
G75*
G02X122255000Y-77980616I-1672335J1078608D01*
G01*
X125487335Y-75666492D02*
G75*
G03X122255000Y-75509584I-1672335J-1078608D01*
G01*
X162934500Y-72748100D02*
X164264500Y-72748100D01*
X162934500Y-74078100D02*
X162934500Y-72748100D01*
X162934500Y-75348100D02*
X165594500Y-75348100D01*
X165594500Y-75348100D02*
X165594500Y-88108100D01*
X162934500Y-75348100D02*
X162934500Y-88108100D01*
X162934500Y-88108100D02*
X165594500Y-88108100D01*
X201460000Y-88670000D02*
X199810000Y-88670000D01*
X201460000Y-106570000D02*
X201460000Y-88670000D01*
X196160000Y-106570000D02*
X201460000Y-106570000D01*
X196160000Y-88670000D02*
X196160000Y-106570000D01*
X197810000Y-88670000D02*
X196160000Y-88670000D01*
X199810000Y-88670000D02*
G75*
G02X197810000Y-88670000I-1000000J0D01*
G01*
X190210000Y-88670000D02*
X188560000Y-88670000D01*
X190210000Y-106570000D02*
X190210000Y-88670000D01*
X184910000Y-106570000D02*
X190210000Y-106570000D01*
X184910000Y-88670000D02*
X184910000Y-106570000D01*
X186560000Y-88670000D02*
X184910000Y-88670000D01*
X188560000Y-88670000D02*
G75*
G02X186560000Y-88670000I-1000000J0D01*
G01*
X178960000Y-88670000D02*
X177310000Y-88670000D01*
X178960000Y-106570000D02*
X178960000Y-88670000D01*
X173660000Y-106570000D02*
X178960000Y-106570000D01*
X173660000Y-88670000D02*
X173660000Y-106570000D01*
X175310000Y-88670000D02*
X173660000Y-88670000D01*
X177310000Y-88670000D02*
G75*
G02X175310000Y-88670000I-1000000J0D01*
G01*
X160310000Y-102503700D02*
G75*
G02X158310000Y-102503700I-1000000J0D01*
G01*
X158310000Y-102503700D02*
X156660000Y-102503700D01*
X156660000Y-102503700D02*
X156660000Y-120403700D01*
X156660000Y-120403700D02*
X161960000Y-120403700D01*
X161960000Y-120403700D02*
X161960000Y-102503700D01*
X161960000Y-102503700D02*
X160310000Y-102503700D01*
X149060000Y-102503700D02*
G75*
G02X147060000Y-102503700I-1000000J0D01*
G01*
X147060000Y-102503700D02*
X145410000Y-102503700D01*
X145410000Y-102503700D02*
X145410000Y-120403700D01*
X145410000Y-120403700D02*
X150710000Y-120403700D01*
X150710000Y-120403700D02*
X150710000Y-102503700D01*
X150710000Y-102503700D02*
X149060000Y-102503700D01*
X137810000Y-102503700D02*
G75*
G02X135810000Y-102503700I-1000000J0D01*
G01*
X135810000Y-102503700D02*
X134160000Y-102503700D01*
X134160000Y-102503700D02*
X134160000Y-120403700D01*
X134160000Y-120403700D02*
X139460000Y-120403700D01*
X139460000Y-120403700D02*
X139460000Y-102503700D01*
X139460000Y-102503700D02*
X137810000Y-102503700D01*
X126560000Y-102503700D02*
G75*
G02X124560000Y-102503700I-1000000J0D01*
G01*
X124560000Y-102503700D02*
X122910000Y-102503700D01*
X122910000Y-102503700D02*
X122910000Y-120403700D01*
X122910000Y-120403700D02*
X128210000Y-120403700D01*
X128210000Y-120403700D02*
X128210000Y-102503700D01*
X128210000Y-102503700D02*
X126560000Y-102503700D01*
X111460000Y-88670000D02*
X109810000Y-88670000D01*
X111460000Y-106570000D02*
X111460000Y-88670000D01*
X106160000Y-106570000D02*
X111460000Y-106570000D01*
X106160000Y-88670000D02*
X106160000Y-106570000D01*
X107810000Y-88670000D02*
X106160000Y-88670000D01*
X109810000Y-88670000D02*
G75*
G02X107810000Y-88670000I-1000000J0D01*
G01*
X100210000Y-88670000D02*
X98560000Y-88670000D01*
X100210000Y-106570000D02*
X100210000Y-88670000D01*
X94910000Y-106570000D02*
X100210000Y-106570000D01*
X94910000Y-88670000D02*
X94910000Y-106570000D01*
X96560000Y-88670000D02*
X94910000Y-88670000D01*
X98560000Y-88670000D02*
G75*
G02X96560000Y-88670000I-1000000J0D01*
G01*
X88960000Y-88670000D02*
X87310000Y-88670000D01*
X88960000Y-106570000D02*
X88960000Y-88670000D01*
X83660000Y-106570000D02*
X88960000Y-106570000D01*
X83660000Y-88670000D02*
X83660000Y-106570000D01*
X85310000Y-88670000D02*
X83660000Y-88670000D01*
X87310000Y-88670000D02*
G75*
G02X85310000Y-88670000I-1000000J0D01*
G01*
D12*
X170899800Y-134179399D02*
X181720200Y-134179399D01*
X181720200Y-134179399D02*
X181720200Y-127422999D01*
X181720200Y-127422999D02*
X170899800Y-127422999D01*
X170899800Y-127422999D02*
X170899800Y-134179399D01*
X87455299Y-71665100D02*
X87455299Y-60844700D01*
X87455299Y-60844700D02*
X80698899Y-60844700D01*
X80698899Y-60844700D02*
X80698899Y-71665100D01*
X80698899Y-71665100D02*
X87455299Y-71665100D01*
X120149800Y-127422999D02*
X120149800Y-134179399D01*
X130970200Y-127422999D02*
X120149800Y-127422999D01*
X130970200Y-134179399D02*
X130970200Y-127422999D01*
X120149800Y-134179399D02*
X130970200Y-134179399D01*
X80899800Y-134179399D02*
X91720200Y-134179399D01*
X91720200Y-134179399D02*
X91720200Y-127422999D01*
X91720200Y-127422999D02*
X80899800Y-127422999D01*
X80899800Y-127422999D02*
X80899800Y-134179399D01*
D14*
X129672021Y-73153000D02*
X129997579Y-73153000D01*
X129672021Y-72133000D02*
X129997579Y-72133000D01*
X186876800Y-67896000D02*
X186876800Y-66396000D01*
X185626800Y-63896000D02*
X181126800Y-63896000D01*
X179876800Y-66396000D02*
X179876800Y-67896000D01*
X181126800Y-70396000D02*
X185626800Y-70396000D01*
X157391800Y-87402721D02*
X157391800Y-87728279D01*
X158411800Y-87402721D02*
X158411800Y-87728279D01*
X194501200Y-116193621D02*
X194501200Y-116519179D01*
X195521200Y-116193621D02*
X195521200Y-116519179D01*
X187059000Y-116219021D02*
X187059000Y-116544579D01*
X188079000Y-116219021D02*
X188079000Y-116544579D01*
X175819500Y-116231721D02*
X175819500Y-116557279D01*
X176839500Y-116231721D02*
X176839500Y-116557279D01*
X156113421Y-97943400D02*
X156438979Y-97943400D01*
X156113421Y-96923400D02*
X156438979Y-96923400D01*
X149941221Y-97943400D02*
X150266779Y-97943400D01*
X149941221Y-96923400D02*
X150266779Y-96923400D01*
X133621721Y-97956100D02*
X133947279Y-97956100D01*
X133621721Y-96936100D02*
X133947279Y-96936100D01*
X124617421Y-97956100D02*
X124942979Y-97956100D01*
X124617421Y-96936100D02*
X124942979Y-96936100D01*
X108331700Y-116307821D02*
X108331700Y-116633379D01*
X109351700Y-116307821D02*
X109351700Y-116633379D01*
X97041400Y-116320621D02*
X97041400Y-116646179D01*
X98061400Y-116320621D02*
X98061400Y-116646179D01*
X88024400Y-116333321D02*
X88024400Y-116658879D01*
X89044400Y-116333321D02*
X89044400Y-116658879D01*
X158981800Y-94027700D02*
X159137800Y-94027700D01*
X156665800Y-94027700D02*
X156821800Y-94027700D01*
X158981637Y-91426570D02*
G75*
G02X158981800Y-93508661I-1079837J-1041130D01*
G01*
X156821963Y-91426570D02*
G75*
G03X156821800Y-93508661I1079837J-1041130D01*
G01*
X158980408Y-90795365D02*
G75*
G02X159137316Y-94027700I-1078608J-1672335D01*
G01*
X156823192Y-90795365D02*
G75*
G03X156666284Y-94027700I1078608J-1672335D01*
G01*
X197741200Y-123127600D02*
X197585200Y-123127600D01*
X200057200Y-123127600D02*
X199901200Y-123127600D01*
X197741363Y-125728730D02*
G75*
G02X197741200Y-123646639I1079837J1041130D01*
G01*
X199901037Y-125728730D02*
G75*
G03X199901200Y-123646639I-1079837J1041130D01*
G01*
X197742592Y-126359935D02*
G75*
G02X197585684Y-123127600I1078608J1672335D01*
G01*
X199899808Y-126359935D02*
G75*
G03X200056716Y-123127600I-1078608J1672335D01*
G01*
X186476300Y-123127600D02*
X186320300Y-123127600D01*
X188792300Y-123127600D02*
X188636300Y-123127600D01*
X186476463Y-125728730D02*
G75*
G02X186476300Y-123646639I1079837J1041130D01*
G01*
X188636137Y-125728730D02*
G75*
G03X188636300Y-123646639I-1079837J1041130D01*
G01*
X186477692Y-126359935D02*
G75*
G02X186320784Y-123127600I1078608J1672335D01*
G01*
X188634908Y-126359935D02*
G75*
G03X188791816Y-123127600I-1078608J1672335D01*
G01*
X175236800Y-123127600D02*
X175080800Y-123127600D01*
X177552800Y-123127600D02*
X177396800Y-123127600D01*
X175236963Y-125728730D02*
G75*
G02X175236800Y-123646639I1079837J1041130D01*
G01*
X177396637Y-125728730D02*
G75*
G03X177396800Y-123646639I-1079837J1041130D01*
G01*
X175238192Y-126359935D02*
G75*
G02X175081284Y-123127600I1078608J1672335D01*
G01*
X177395408Y-126359935D02*
G75*
G03X177552316Y-123127600I-1078608J1672335D01*
G01*
X158218800Y-123127600D02*
X158062800Y-123127600D01*
X160534800Y-123127600D02*
X160378800Y-123127600D01*
X158218963Y-125728730D02*
G75*
G02X158218800Y-123646639I1079837J1041130D01*
G01*
X160378637Y-125728730D02*
G75*
G03X160378800Y-123646639I-1079837J1041130D01*
G01*
X158220192Y-126359935D02*
G75*
G02X158063284Y-123127600I1078608J1672335D01*
G01*
X160377408Y-126359935D02*
G75*
G03X160534316Y-123127600I-1078608J1672335D01*
G01*
X146992000Y-123127600D02*
X146836000Y-123127600D01*
X149308000Y-123127600D02*
X149152000Y-123127600D01*
X146992163Y-125728730D02*
G75*
G02X146992000Y-123646639I1079837J1041130D01*
G01*
X149151837Y-125728730D02*
G75*
G03X149152000Y-123646639I-1079837J1041130D01*
G01*
X146993392Y-126359935D02*
G75*
G02X146836484Y-123127600I1078608J1672335D01*
G01*
X149150608Y-126359935D02*
G75*
G03X149307516Y-123127600I-1078608J1672335D01*
G01*
X135714400Y-123127600D02*
X135558400Y-123127600D01*
X138030400Y-123127600D02*
X137874400Y-123127600D01*
X135714563Y-125728730D02*
G75*
G02X135714400Y-123646639I1079837J1041130D01*
G01*
X137874237Y-125728730D02*
G75*
G03X137874400Y-123646639I-1079837J1041130D01*
G01*
X135715792Y-126359935D02*
G75*
G02X135558884Y-123127600I1078608J1672335D01*
G01*
X137873008Y-126359935D02*
G75*
G03X138029916Y-123127600I-1078608J1672335D01*
G01*
X124487600Y-123127600D02*
X124331600Y-123127600D01*
X126803600Y-123127600D02*
X126647600Y-123127600D01*
X124487763Y-125728730D02*
G75*
G02X124487600Y-123646639I1079837J1041130D01*
G01*
X126647437Y-125728730D02*
G75*
G03X126647600Y-123646639I-1079837J1041130D01*
G01*
X124488992Y-126359935D02*
G75*
G02X124332084Y-123127600I1078608J1672335D01*
G01*
X126646208Y-126359935D02*
G75*
G03X126803116Y-123127600I-1078608J1672335D01*
G01*
X107749000Y-123127600D02*
X107593000Y-123127600D01*
X110065000Y-123127600D02*
X109909000Y-123127600D01*
X107749163Y-125728730D02*
G75*
G02X107749000Y-123646639I1079837J1041130D01*
G01*
X109908837Y-125728730D02*
G75*
G03X109909000Y-123646639I-1079837J1041130D01*
G01*
X107750392Y-126359935D02*
G75*
G02X107593484Y-123127600I1078608J1672335D01*
G01*
X109907608Y-126359935D02*
G75*
G03X110064516Y-123127600I-1078608J1672335D01*
G01*
X96471400Y-123127600D02*
X96315400Y-123127600D01*
X98787400Y-123127600D02*
X98631400Y-123127600D01*
X96471563Y-125728730D02*
G75*
G02X96471400Y-123646639I1079837J1041130D01*
G01*
X98631237Y-125728730D02*
G75*
G03X98631400Y-123646639I-1079837J1041130D01*
G01*
X96472792Y-126359935D02*
G75*
G02X96315884Y-123127600I1078608J1672335D01*
G01*
X98630008Y-126359935D02*
G75*
G03X98786916Y-123127600I-1078608J1672335D01*
G01*
X85219200Y-123127600D02*
X85063200Y-123127600D01*
X87535200Y-123127600D02*
X87379200Y-123127600D01*
X85219363Y-125728730D02*
G75*
G02X85219200Y-123646639I1079837J1041130D01*
G01*
X87379037Y-125728730D02*
G75*
G03X87379200Y-123646639I-1079837J1041130D01*
G01*
X85220592Y-126359935D02*
G75*
G02X85063684Y-123127600I1078608J1672335D01*
G01*
X87377808Y-126359935D02*
G75*
G03X87534716Y-123127600I-1078608J1672335D01*
G01*
X199475200Y-67896000D02*
X199475200Y-66396000D01*
X198225200Y-63896000D02*
X193725200Y-63896000D01*
X192475200Y-66396000D02*
X192475200Y-67896000D01*
X193725200Y-70396000D02*
X198225200Y-70396000D01*
X126712600Y-68665579D02*
X126712600Y-68340021D01*
X125692600Y-68665579D02*
X125692600Y-68340021D01*
X129557400Y-68665579D02*
X129557400Y-68340021D01*
X128537400Y-68665579D02*
X128537400Y-68340021D01*
D12*
X152502800Y-130750000D02*
G75*
G03X152502800Y-130750000I-381000J0D01*
G01*
X153899800Y-127422999D02*
X153899800Y-134179399D01*
X164720200Y-127422999D02*
X153899800Y-127422999D01*
X164720200Y-134179399D02*
X164720200Y-127422999D01*
X153899800Y-134179399D02*
X164720200Y-134179399D01*
X193399800Y-134179399D02*
X204220200Y-134179399D01*
X204220200Y-134179399D02*
X204220200Y-127422999D01*
X204220200Y-127422999D02*
X193399800Y-127422999D01*
X193399800Y-127422999D02*
X193399800Y-134179399D01*
X192002800Y-130750000D02*
G75*
G03X192002800Y-130750000I-381000J0D01*
G01*
X182149800Y-134179399D02*
X192970200Y-134179399D01*
X192970200Y-134179399D02*
X192970200Y-127422999D01*
X192970200Y-127422999D02*
X182149800Y-127422999D01*
X182149800Y-127422999D02*
X182149800Y-134179399D01*
X180752800Y-130750000D02*
G75*
G03X180752800Y-130750000I-381000J0D01*
G01*
X130002800Y-130750000D02*
G75*
G03X130002800Y-130750000I-381000J0D01*
G01*
X131399800Y-127422999D02*
X131399800Y-134179399D01*
X142220200Y-127422999D02*
X131399800Y-127422999D01*
X142220200Y-134179399D02*
X142220200Y-127422999D01*
X131399800Y-134179399D02*
X142220200Y-134179399D01*
X103399800Y-134179399D02*
X114220200Y-134179399D01*
X114220200Y-134179399D02*
X114220200Y-127422999D01*
X114220200Y-127422999D02*
X103399800Y-127422999D01*
X103399800Y-127422999D02*
X103399800Y-134179399D01*
X102002800Y-130750000D02*
G75*
G03X102002800Y-130750000I-381000J0D01*
G01*
X141252800Y-130750000D02*
G75*
G03X141252800Y-130750000I-381000J0D01*
G01*
X142649800Y-127422999D02*
X142649800Y-134179399D01*
X153470200Y-127422999D02*
X142649800Y-127422999D01*
X153470200Y-134179399D02*
X153470200Y-127422999D01*
X142649800Y-134179399D02*
X153470200Y-134179399D01*
D14*
X122129700Y-70290200D02*
G75*
G03X122129700Y-70290200I-2620000J0D01*
G01*
X118469700Y-70290200D02*
X116929700Y-70290200D01*
X122089700Y-70290200D02*
X120549700Y-70290200D01*
X118469700Y-70330200D02*
X116929700Y-70330200D01*
X122089700Y-70330200D02*
X120549700Y-70330200D01*
X122088700Y-70370200D02*
X120549700Y-70370200D01*
X118469700Y-70370200D02*
X116930700Y-70370200D01*
X122087700Y-70410200D02*
X120549700Y-70410200D01*
X118469700Y-70410200D02*
X116931700Y-70410200D01*
X122085700Y-70450200D02*
X120549700Y-70450200D01*
X118469700Y-70450200D02*
X116933700Y-70450200D01*
X122082700Y-70490200D02*
X120549700Y-70490200D01*
X118469700Y-70490200D02*
X116936700Y-70490200D01*
X122078700Y-70530200D02*
X120549700Y-70530200D01*
X118469700Y-70530200D02*
X116940700Y-70530200D01*
X122074700Y-70570200D02*
X120549700Y-70570200D01*
X118469700Y-70570200D02*
X116944700Y-70570200D01*
X122070700Y-70610200D02*
X120549700Y-70610200D01*
X118469700Y-70610200D02*
X116948700Y-70610200D01*
X122065700Y-70650200D02*
X120549700Y-70650200D01*
X118469700Y-70650200D02*
X116953700Y-70650200D01*
X122059700Y-70690200D02*
X120549700Y-70690200D01*
X118469700Y-70690200D02*
X116959700Y-70690200D01*
X122052700Y-70730200D02*
X120549700Y-70730200D01*
X118469700Y-70730200D02*
X116966700Y-70730200D01*
X122045700Y-70770200D02*
X120549700Y-70770200D01*
X118469700Y-70770200D02*
X116973700Y-70770200D01*
X122037700Y-70810200D02*
X120549700Y-70810200D01*
X118469700Y-70810200D02*
X116981700Y-70810200D01*
X122029700Y-70850200D02*
X120549700Y-70850200D01*
X118469700Y-70850200D02*
X116989700Y-70850200D01*
X122020700Y-70890200D02*
X120549700Y-70890200D01*
X118469700Y-70890200D02*
X116998700Y-70890200D01*
X122010700Y-70930200D02*
X120549700Y-70930200D01*
X118469700Y-70930200D02*
X117008700Y-70930200D01*
X122000700Y-70970200D02*
X120549700Y-70970200D01*
X118469700Y-70970200D02*
X117018700Y-70970200D01*
X121989700Y-71011200D02*
X120549700Y-71011200D01*
X118469700Y-71011200D02*
X117029700Y-71011200D01*
X121977700Y-71051200D02*
X120549700Y-71051200D01*
X118469700Y-71051200D02*
X117041700Y-71051200D01*
X121964700Y-71091200D02*
X120549700Y-71091200D01*
X118469700Y-71091200D02*
X117054700Y-71091200D01*
X121951700Y-71131200D02*
X120549700Y-71131200D01*
X118469700Y-71131200D02*
X117067700Y-71131200D01*
X121937700Y-71171200D02*
X120549700Y-71171200D01*
X118469700Y-71171200D02*
X117081700Y-71171200D01*
X121923700Y-71211200D02*
X120549700Y-71211200D01*
X118469700Y-71211200D02*
X117095700Y-71211200D01*
X121907700Y-71251200D02*
X120549700Y-71251200D01*
X118469700Y-71251200D02*
X117111700Y-71251200D01*
X121891700Y-71291200D02*
X120549700Y-71291200D01*
X118469700Y-71291200D02*
X117127700Y-71291200D01*
X121874700Y-71331200D02*
X120549700Y-71331200D01*
X118469700Y-71331200D02*
X117144700Y-71331200D01*
X121857700Y-71371200D02*
X120549700Y-71371200D01*
X118469700Y-71371200D02*
X117161700Y-71371200D01*
X121838700Y-71411200D02*
X120549700Y-71411200D01*
X118469700Y-71411200D02*
X117180700Y-71411200D01*
X121819700Y-71451200D02*
X120549700Y-71451200D01*
X118469700Y-71451200D02*
X117199700Y-71451200D01*
X121799700Y-71491200D02*
X120549700Y-71491200D01*
X118469700Y-71491200D02*
X117219700Y-71491200D01*
X121777700Y-71531200D02*
X120549700Y-71531200D01*
X118469700Y-71531200D02*
X117241700Y-71531200D01*
X121756700Y-71571200D02*
X120549700Y-71571200D01*
X118469700Y-71571200D02*
X117262700Y-71571200D01*
X121733700Y-71611200D02*
X120549700Y-71611200D01*
X118469700Y-71611200D02*
X117285700Y-71611200D01*
X121709700Y-71651200D02*
X120549700Y-71651200D01*
X118469700Y-71651200D02*
X117309700Y-71651200D01*
X121684700Y-71691200D02*
X120549700Y-71691200D01*
X118469700Y-71691200D02*
X117334700Y-71691200D01*
X121658700Y-71731200D02*
X120549700Y-71731200D01*
X118469700Y-71731200D02*
X117360700Y-71731200D01*
X121631700Y-71771200D02*
X120549700Y-71771200D01*
X118469700Y-71771200D02*
X117387700Y-71771200D01*
X121604700Y-71811200D02*
X120549700Y-71811200D01*
X118469700Y-71811200D02*
X117414700Y-71811200D01*
X121574700Y-71851200D02*
X120549700Y-71851200D01*
X118469700Y-71851200D02*
X117444700Y-71851200D01*
X121544700Y-71891200D02*
X120549700Y-71891200D01*
X118469700Y-71891200D02*
X117474700Y-71891200D01*
X121513700Y-71931200D02*
X120549700Y-71931200D01*
X118469700Y-71931200D02*
X117505700Y-71931200D01*
X121480700Y-71971200D02*
X120549700Y-71971200D01*
X118469700Y-71971200D02*
X117538700Y-71971200D01*
X121446700Y-72011200D02*
X120549700Y-72011200D01*
X118469700Y-72011200D02*
X117572700Y-72011200D01*
X121410700Y-72051200D02*
X120549700Y-72051200D01*
X118469700Y-72051200D02*
X117608700Y-72051200D01*
X121373700Y-72091200D02*
X120549700Y-72091200D01*
X118469700Y-72091200D02*
X117645700Y-72091200D01*
X121335700Y-72131200D02*
X120549700Y-72131200D01*
X118469700Y-72131200D02*
X117683700Y-72131200D01*
X121294700Y-72171200D02*
X120549700Y-72171200D01*
X118469700Y-72171200D02*
X117724700Y-72171200D01*
X121252700Y-72211200D02*
X120549700Y-72211200D01*
X118469700Y-72211200D02*
X117766700Y-72211200D01*
X121208700Y-72251200D02*
X120549700Y-72251200D01*
X118469700Y-72251200D02*
X117810700Y-72251200D01*
X121162700Y-72291200D02*
X120549700Y-72291200D01*
X118469700Y-72291200D02*
X117856700Y-72291200D01*
X121114700Y-72331200D02*
X117904700Y-72331200D01*
X121063700Y-72371200D02*
X117955700Y-72371200D01*
X121009700Y-72411200D02*
X118009700Y-72411200D01*
X120952700Y-72451200D02*
X118066700Y-72451200D01*
X120892700Y-72491200D02*
X118126700Y-72491200D01*
X120828700Y-72531200D02*
X118190700Y-72531200D01*
X120760700Y-72571200D02*
X118258700Y-72571200D01*
X120687700Y-72611200D02*
X118331700Y-72611200D01*
X120607700Y-72651200D02*
X118411700Y-72651200D01*
X120520700Y-72691200D02*
X118498700Y-72691200D01*
X120424700Y-72731200D02*
X118594700Y-72731200D01*
X120314700Y-72771200D02*
X118704700Y-72771200D01*
X120186700Y-72811200D02*
X118832700Y-72811200D01*
X120027700Y-72851200D02*
X118991700Y-72851200D01*
X119793700Y-72891200D02*
X119225700Y-72891200D01*
X120984700Y-67485425D02*
X120984700Y-67985425D01*
X121234700Y-67735425D02*
X120734700Y-67735425D01*
X102854400Y-79882000D02*
G75*
G03X102854400Y-79882000I-2620000J0D01*
G01*
X100234400Y-78842000D02*
X100234400Y-77302000D01*
X100234400Y-82462000D02*
X100234400Y-80922000D01*
X100194400Y-78842000D02*
X100194400Y-77302000D01*
X100194400Y-82462000D02*
X100194400Y-80922000D01*
X100154400Y-82461000D02*
X100154400Y-80922000D01*
X100154400Y-78842000D02*
X100154400Y-77303000D01*
X100114400Y-82460000D02*
X100114400Y-80922000D01*
X100114400Y-78842000D02*
X100114400Y-77304000D01*
X100074400Y-82458000D02*
X100074400Y-80922000D01*
X100074400Y-78842000D02*
X100074400Y-77306000D01*
X100034400Y-82455000D02*
X100034400Y-80922000D01*
X100034400Y-78842000D02*
X100034400Y-77309000D01*
X99994400Y-82451000D02*
X99994400Y-80922000D01*
X99994400Y-78842000D02*
X99994400Y-77313000D01*
X99954400Y-82447000D02*
X99954400Y-80922000D01*
X99954400Y-78842000D02*
X99954400Y-77317000D01*
X99914400Y-82443000D02*
X99914400Y-80922000D01*
X99914400Y-78842000D02*
X99914400Y-77321000D01*
X99874400Y-82438000D02*
X99874400Y-80922000D01*
X99874400Y-78842000D02*
X99874400Y-77326000D01*
X99834400Y-82432000D02*
X99834400Y-80922000D01*
X99834400Y-78842000D02*
X99834400Y-77332000D01*
X99794400Y-82425000D02*
X99794400Y-80922000D01*
X99794400Y-78842000D02*
X99794400Y-77339000D01*
X99754400Y-82418000D02*
X99754400Y-80922000D01*
X99754400Y-78842000D02*
X99754400Y-77346000D01*
X99714400Y-82410000D02*
X99714400Y-80922000D01*
X99714400Y-78842000D02*
X99714400Y-77354000D01*
X99674400Y-82402000D02*
X99674400Y-80922000D01*
X99674400Y-78842000D02*
X99674400Y-77362000D01*
X99634400Y-82393000D02*
X99634400Y-80922000D01*
X99634400Y-78842000D02*
X99634400Y-77371000D01*
X99594400Y-82383000D02*
X99594400Y-80922000D01*
X99594400Y-78842000D02*
X99594400Y-77381000D01*
X99554400Y-82373000D02*
X99554400Y-80922000D01*
X99554400Y-78842000D02*
X99554400Y-77391000D01*
X99513400Y-82362000D02*
X99513400Y-80922000D01*
X99513400Y-78842000D02*
X99513400Y-77402000D01*
X99473400Y-82350000D02*
X99473400Y-80922000D01*
X99473400Y-78842000D02*
X99473400Y-77414000D01*
X99433400Y-82337000D02*
X99433400Y-80922000D01*
X99433400Y-78842000D02*
X99433400Y-77427000D01*
X99393400Y-82324000D02*
X99393400Y-80922000D01*
X99393400Y-78842000D02*
X99393400Y-77440000D01*
X99353400Y-82310000D02*
X99353400Y-80922000D01*
X99353400Y-78842000D02*
X99353400Y-77454000D01*
X99313400Y-82296000D02*
X99313400Y-80922000D01*
X99313400Y-78842000D02*
X99313400Y-77468000D01*
X99273400Y-82280000D02*
X99273400Y-80922000D01*
X99273400Y-78842000D02*
X99273400Y-77484000D01*
X99233400Y-82264000D02*
X99233400Y-80922000D01*
X99233400Y-78842000D02*
X99233400Y-77500000D01*
X99193400Y-82247000D02*
X99193400Y-80922000D01*
X99193400Y-78842000D02*
X99193400Y-77517000D01*
X99153400Y-82230000D02*
X99153400Y-80922000D01*
X99153400Y-78842000D02*
X99153400Y-77534000D01*
X99113400Y-82211000D02*
X99113400Y-80922000D01*
X99113400Y-78842000D02*
X99113400Y-77553000D01*
X99073400Y-82192000D02*
X99073400Y-80922000D01*
X99073400Y-78842000D02*
X99073400Y-77572000D01*
X99033400Y-82172000D02*
X99033400Y-80922000D01*
X99033400Y-78842000D02*
X99033400Y-77592000D01*
X98993400Y-82150000D02*
X98993400Y-80922000D01*
X98993400Y-78842000D02*
X98993400Y-77614000D01*
X98953400Y-82129000D02*
X98953400Y-80922000D01*
X98953400Y-78842000D02*
X98953400Y-77635000D01*
X98913400Y-82106000D02*
X98913400Y-80922000D01*
X98913400Y-78842000D02*
X98913400Y-77658000D01*
X98873400Y-82082000D02*
X98873400Y-80922000D01*
X98873400Y-78842000D02*
X98873400Y-77682000D01*
X98833400Y-82057000D02*
X98833400Y-80922000D01*
X98833400Y-78842000D02*
X98833400Y-77707000D01*
X98793400Y-82031000D02*
X98793400Y-80922000D01*
X98793400Y-78842000D02*
X98793400Y-77733000D01*
X98753400Y-82004000D02*
X98753400Y-80922000D01*
X98753400Y-78842000D02*
X98753400Y-77760000D01*
X98713400Y-81977000D02*
X98713400Y-80922000D01*
X98713400Y-78842000D02*
X98713400Y-77787000D01*
X98673400Y-81947000D02*
X98673400Y-80922000D01*
X98673400Y-78842000D02*
X98673400Y-77817000D01*
X98633400Y-81917000D02*
X98633400Y-80922000D01*
X98633400Y-78842000D02*
X98633400Y-77847000D01*
X98593400Y-81886000D02*
X98593400Y-80922000D01*
X98593400Y-78842000D02*
X98593400Y-77878000D01*
X98553400Y-81853000D02*
X98553400Y-80922000D01*
X98553400Y-78842000D02*
X98553400Y-77911000D01*
X98513400Y-81819000D02*
X98513400Y-80922000D01*
X98513400Y-78842000D02*
X98513400Y-77945000D01*
X98473400Y-81783000D02*
X98473400Y-80922000D01*
X98473400Y-78842000D02*
X98473400Y-77981000D01*
X98433400Y-81746000D02*
X98433400Y-80922000D01*
X98433400Y-78842000D02*
X98433400Y-78018000D01*
X98393400Y-81708000D02*
X98393400Y-80922000D01*
X98393400Y-78842000D02*
X98393400Y-78056000D01*
X98353400Y-81667000D02*
X98353400Y-80922000D01*
X98353400Y-78842000D02*
X98353400Y-78097000D01*
X98313400Y-81625000D02*
X98313400Y-80922000D01*
X98313400Y-78842000D02*
X98313400Y-78139000D01*
X98273400Y-81581000D02*
X98273400Y-80922000D01*
X98273400Y-78842000D02*
X98273400Y-78183000D01*
X98233400Y-81535000D02*
X98233400Y-80922000D01*
X98233400Y-78842000D02*
X98233400Y-78229000D01*
X98193400Y-81487000D02*
X98193400Y-78277000D01*
X98153400Y-81436000D02*
X98153400Y-78328000D01*
X98113400Y-81382000D02*
X98113400Y-78382000D01*
X98073400Y-81325000D02*
X98073400Y-78439000D01*
X98033400Y-81265000D02*
X98033400Y-78499000D01*
X97993400Y-81201000D02*
X97993400Y-78563000D01*
X97953400Y-81133000D02*
X97953400Y-78631000D01*
X97913400Y-81060000D02*
X97913400Y-78704000D01*
X97873400Y-80980000D02*
X97873400Y-78784000D01*
X97833400Y-80893000D02*
X97833400Y-78871000D01*
X97793400Y-80797000D02*
X97793400Y-78967000D01*
X97753400Y-80687000D02*
X97753400Y-79077000D01*
X97713400Y-80559000D02*
X97713400Y-79205000D01*
X97673400Y-80400000D02*
X97673400Y-79364000D01*
X97633400Y-80166000D02*
X97633400Y-79598000D01*
X103039175Y-81357000D02*
X102539175Y-81357000D01*
X102789175Y-81607000D02*
X102789175Y-81107000D01*
X133389400Y-85070400D02*
X133389400Y-85850400D01*
X133389400Y-85850400D02*
X134389400Y-85850400D01*
X151629400Y-85070400D02*
X151629400Y-85850400D01*
X151629400Y-85850400D02*
X150629400Y-85850400D01*
X133389400Y-60105400D02*
X151629400Y-60105400D01*
X151629400Y-60105400D02*
X151629400Y-66525400D01*
X133389400Y-60105400D02*
X133389400Y-66525400D01*
X133389400Y-66525400D02*
X133009400Y-66525400D01*
D10*
X97370466Y-132331480D02*
X97370466Y-133045766D01*
X97322847Y-133188623D01*
X97227609Y-133283861D01*
X97084752Y-133331480D01*
X96989514Y-133331480D01*
X97799038Y-132426719D02*
X97846657Y-132379100D01*
X97941895Y-132331480D01*
X98179990Y-132331480D01*
X98275228Y-132379100D01*
X98322847Y-132426719D01*
X98370466Y-132521957D01*
X98370466Y-132617195D01*
X98322847Y-132760052D01*
X97751419Y-133331480D01*
X98370466Y-133331480D01*
X94886323Y-120952280D02*
X95552990Y-120952280D01*
X94886323Y-121952280D01*
X95552990Y-121952280D01*
X96124419Y-120952280D02*
X96314895Y-120952280D01*
X96410133Y-120999900D01*
X96505371Y-121095138D01*
X96552990Y-121285614D01*
X96552990Y-121618947D01*
X96505371Y-121809423D01*
X96410133Y-121904661D01*
X96314895Y-121952280D01*
X96124419Y-121952280D01*
X96029180Y-121904661D01*
X95933942Y-121809423D01*
X95886323Y-121618947D01*
X95886323Y-121285614D01*
X95933942Y-121095138D01*
X96029180Y-120999900D01*
X96124419Y-120952280D01*
X96981561Y-121952280D02*
X96981561Y-120952280D01*
X97552990Y-121952280D01*
X97552990Y-120952280D01*
X98029180Y-121428471D02*
X98362514Y-121428471D01*
X98505371Y-121952280D02*
X98029180Y-121952280D01*
X98029180Y-120952280D01*
X98505371Y-120952280D01*
X99648228Y-121047519D02*
X99695847Y-120999900D01*
X99791085Y-120952280D01*
X100029180Y-120952280D01*
X100124419Y-120999900D01*
X100172038Y-121047519D01*
X100219657Y-121142757D01*
X100219657Y-121237995D01*
X100172038Y-121380852D01*
X99600609Y-121952280D01*
X100219657Y-121952280D01*
X93750000Y-130202380D02*
X93750000Y-130440476D01*
X93511904Y-130345238D02*
X93750000Y-130440476D01*
X93988095Y-130345238D01*
X93607142Y-130630952D02*
X93750000Y-130440476D01*
X93892857Y-130630952D01*
D15*
X102532957Y-73264423D02*
X102532957Y-71994423D01*
X103016766Y-71994423D01*
X103137719Y-72054900D01*
X103198195Y-72115376D01*
X103258671Y-72236328D01*
X103258671Y-72417757D01*
X103198195Y-72538709D01*
X103137719Y-72599185D01*
X103016766Y-72659661D01*
X102532957Y-72659661D01*
X103742480Y-73203947D02*
X103923909Y-73264423D01*
X104226290Y-73264423D01*
X104347242Y-73203947D01*
X104407719Y-73143471D01*
X104468195Y-73022519D01*
X104468195Y-72901566D01*
X104407719Y-72780614D01*
X104347242Y-72720138D01*
X104226290Y-72659661D01*
X103984385Y-72599185D01*
X103863433Y-72538709D01*
X103802957Y-72478233D01*
X103742480Y-72357280D01*
X103742480Y-72236328D01*
X103802957Y-72115376D01*
X103863433Y-72054900D01*
X103984385Y-71994423D01*
X104286766Y-71994423D01*
X104468195Y-72054900D01*
X105677719Y-73264423D02*
X104952004Y-73264423D01*
X105314861Y-73264423D02*
X105314861Y-71994423D01*
X105193909Y-72175852D01*
X105072957Y-72296804D01*
X104952004Y-72357280D01*
D10*
X130929780Y-76600557D02*
X130453590Y-76933890D01*
X130929780Y-77171985D02*
X129929780Y-77171985D01*
X129929780Y-76791033D01*
X129977400Y-76695795D01*
X130025019Y-76648176D01*
X130120257Y-76600557D01*
X130263114Y-76600557D01*
X130358352Y-76648176D01*
X130405971Y-76695795D01*
X130453590Y-76791033D01*
X130453590Y-77171985D01*
X130929780Y-75648176D02*
X130929780Y-76219604D01*
X130929780Y-75933890D02*
X129929780Y-75933890D01*
X130072638Y-76029128D01*
X130167876Y-76124366D01*
X130215495Y-76219604D01*
X129929780Y-75314842D02*
X129929780Y-74695795D01*
X130310733Y-75029128D01*
X130310733Y-74886271D01*
X130358352Y-74791033D01*
X130405971Y-74743414D01*
X130501209Y-74695795D01*
X130739304Y-74695795D01*
X130834542Y-74743414D01*
X130882161Y-74791033D01*
X130929780Y-74886271D01*
X130929780Y-75171985D01*
X130882161Y-75267223D01*
X130834542Y-75314842D01*
X122600714Y-74237480D02*
X122600714Y-73237480D01*
X122838809Y-73237480D01*
X122981666Y-73285100D01*
X123076904Y-73380338D01*
X123124523Y-73475576D01*
X123172142Y-73666052D01*
X123172142Y-73808909D01*
X123124523Y-73999385D01*
X123076904Y-74094623D01*
X122981666Y-74189861D01*
X122838809Y-74237480D01*
X122600714Y-74237480D01*
X124124523Y-74237480D02*
X123553095Y-74237480D01*
X123838809Y-74237480D02*
X123838809Y-73237480D01*
X123743571Y-73380338D01*
X123648333Y-73475576D01*
X123553095Y-73523195D01*
X124505476Y-73332719D02*
X124553095Y-73285100D01*
X124648333Y-73237480D01*
X124886428Y-73237480D01*
X124981666Y-73285100D01*
X125029285Y-73332719D01*
X125076904Y-73427957D01*
X125076904Y-73523195D01*
X125029285Y-73666052D01*
X124457857Y-74237480D01*
X125076904Y-74237480D01*
X122481666Y-80157480D02*
X122481666Y-79157480D01*
X122862619Y-79157480D01*
X122957857Y-79205100D01*
X123005476Y-79252719D01*
X123053095Y-79347957D01*
X123053095Y-79490814D01*
X123005476Y-79586052D01*
X122957857Y-79633671D01*
X122862619Y-79681290D01*
X122481666Y-79681290D01*
X123386428Y-79157480D02*
X123624523Y-80157480D01*
X123815000Y-79443195D01*
X124005476Y-80157480D01*
X124243571Y-79157480D01*
X125195952Y-80157480D02*
X124862619Y-79681290D01*
X124624523Y-80157480D02*
X124624523Y-79157480D01*
X125005476Y-79157480D01*
X125100714Y-79205100D01*
X125148333Y-79252719D01*
X125195952Y-79347957D01*
X125195952Y-79490814D01*
X125148333Y-79586052D01*
X125100714Y-79633671D01*
X125005476Y-79681290D01*
X124624523Y-79681290D01*
X163454976Y-71200480D02*
X163454976Y-71914766D01*
X163407357Y-72057623D01*
X163312119Y-72152861D01*
X163169261Y-72200480D01*
X163074023Y-72200480D01*
X164454976Y-72200480D02*
X163883547Y-72200480D01*
X164169261Y-72200480D02*
X164169261Y-71200480D01*
X164074023Y-71343338D01*
X163978785Y-71438576D01*
X163883547Y-71486195D01*
X164835928Y-71295719D02*
X164883547Y-71248100D01*
X164978785Y-71200480D01*
X165216880Y-71200480D01*
X165312119Y-71248100D01*
X165359738Y-71295719D01*
X165407357Y-71390957D01*
X165407357Y-71486195D01*
X165359738Y-71629052D01*
X164788309Y-72200480D01*
X165407357Y-72200480D01*
X162216880Y-89560480D02*
X162216880Y-88560480D01*
X162454976Y-88560480D01*
X162597833Y-88608100D01*
X162693071Y-88703338D01*
X162740690Y-88798576D01*
X162788309Y-88989052D01*
X162788309Y-89131909D01*
X162740690Y-89322385D01*
X162693071Y-89417623D01*
X162597833Y-89512861D01*
X162454976Y-89560480D01*
X162216880Y-89560480D01*
X163597833Y-89512861D02*
X163502595Y-89560480D01*
X163312119Y-89560480D01*
X163216880Y-89512861D01*
X163169261Y-89417623D01*
X163169261Y-89036671D01*
X163216880Y-88941433D01*
X163312119Y-88893814D01*
X163502595Y-88893814D01*
X163597833Y-88941433D01*
X163645452Y-89036671D01*
X163645452Y-89131909D01*
X163169261Y-89227147D01*
X164074023Y-89560480D02*
X164074023Y-88560480D01*
X164074023Y-88941433D02*
X164169261Y-88893814D01*
X164359738Y-88893814D01*
X164454976Y-88941433D01*
X164502595Y-88989052D01*
X164550214Y-89084290D01*
X164550214Y-89370004D01*
X164502595Y-89465242D01*
X164454976Y-89512861D01*
X164359738Y-89560480D01*
X164169261Y-89560480D01*
X164074023Y-89512861D01*
X165407357Y-88893814D02*
X165407357Y-89560480D01*
X164978785Y-88893814D02*
X164978785Y-89417623D01*
X165026404Y-89512861D01*
X165121642Y-89560480D01*
X165264500Y-89560480D01*
X165359738Y-89512861D01*
X165407357Y-89465242D01*
X166312119Y-88893814D02*
X166312119Y-89703338D01*
X166264500Y-89798576D01*
X166216880Y-89846195D01*
X166121642Y-89893814D01*
X165978785Y-89893814D01*
X165883547Y-89846195D01*
X166312119Y-89512861D02*
X166216880Y-89560480D01*
X166026404Y-89560480D01*
X165931166Y-89512861D01*
X165883547Y-89465242D01*
X165835928Y-89370004D01*
X165835928Y-89084290D01*
X165883547Y-88989052D01*
X165931166Y-88941433D01*
X166026404Y-88893814D01*
X166216880Y-88893814D01*
X166312119Y-88941433D01*
X197571904Y-87122380D02*
X197571904Y-87931904D01*
X197619523Y-88027142D01*
X197667142Y-88074761D01*
X197762380Y-88122380D01*
X197952857Y-88122380D01*
X198048095Y-88074761D01*
X198095714Y-88027142D01*
X198143333Y-87931904D01*
X198143333Y-87122380D01*
X199143333Y-88122380D02*
X198571904Y-88122380D01*
X198857619Y-88122380D02*
X198857619Y-87122380D01*
X198762380Y-87265238D01*
X198667142Y-87360476D01*
X198571904Y-87408095D01*
X199762380Y-87122380D02*
X199857619Y-87122380D01*
X199952857Y-87170000D01*
X200000476Y-87217619D01*
X200048095Y-87312857D01*
X200095714Y-87503333D01*
X200095714Y-87741428D01*
X200048095Y-87931904D01*
X200000476Y-88027142D01*
X199952857Y-88074761D01*
X199857619Y-88122380D01*
X199762380Y-88122380D01*
X199667142Y-88074761D01*
X199619523Y-88027142D01*
X199571904Y-87931904D01*
X199524285Y-87741428D01*
X199524285Y-87503333D01*
X199571904Y-87312857D01*
X199619523Y-87217619D01*
X199667142Y-87170000D01*
X199762380Y-87122380D01*
X186798095Y-87122380D02*
X186798095Y-87931904D01*
X186845714Y-88027142D01*
X186893333Y-88074761D01*
X186988571Y-88122380D01*
X187179047Y-88122380D01*
X187274285Y-88074761D01*
X187321904Y-88027142D01*
X187369523Y-87931904D01*
X187369523Y-87122380D01*
X187893333Y-88122380D02*
X188083809Y-88122380D01*
X188179047Y-88074761D01*
X188226666Y-88027142D01*
X188321904Y-87884285D01*
X188369523Y-87693809D01*
X188369523Y-87312857D01*
X188321904Y-87217619D01*
X188274285Y-87170000D01*
X188179047Y-87122380D01*
X187988571Y-87122380D01*
X187893333Y-87170000D01*
X187845714Y-87217619D01*
X187798095Y-87312857D01*
X187798095Y-87550952D01*
X187845714Y-87646190D01*
X187893333Y-87693809D01*
X187988571Y-87741428D01*
X188179047Y-87741428D01*
X188274285Y-87693809D01*
X188321904Y-87646190D01*
X188369523Y-87550952D01*
X175548095Y-87122380D02*
X175548095Y-87931904D01*
X175595714Y-88027142D01*
X175643333Y-88074761D01*
X175738571Y-88122380D01*
X175929047Y-88122380D01*
X176024285Y-88074761D01*
X176071904Y-88027142D01*
X176119523Y-87931904D01*
X176119523Y-87122380D01*
X176738571Y-87550952D02*
X176643333Y-87503333D01*
X176595714Y-87455714D01*
X176548095Y-87360476D01*
X176548095Y-87312857D01*
X176595714Y-87217619D01*
X176643333Y-87170000D01*
X176738571Y-87122380D01*
X176929047Y-87122380D01*
X177024285Y-87170000D01*
X177071904Y-87217619D01*
X177119523Y-87312857D01*
X177119523Y-87360476D01*
X177071904Y-87455714D01*
X177024285Y-87503333D01*
X176929047Y-87550952D01*
X176738571Y-87550952D01*
X176643333Y-87598571D01*
X176595714Y-87646190D01*
X176548095Y-87741428D01*
X176548095Y-87931904D01*
X176595714Y-88027142D01*
X176643333Y-88074761D01*
X176738571Y-88122380D01*
X176929047Y-88122380D01*
X177024285Y-88074761D01*
X177071904Y-88027142D01*
X177119523Y-87931904D01*
X177119523Y-87741428D01*
X177071904Y-87646190D01*
X177024285Y-87598571D01*
X176929047Y-87550952D01*
X158548095Y-100956080D02*
X158548095Y-101765604D01*
X158595714Y-101860842D01*
X158643333Y-101908461D01*
X158738571Y-101956080D01*
X158929047Y-101956080D01*
X159024285Y-101908461D01*
X159071904Y-101860842D01*
X159119523Y-101765604D01*
X159119523Y-100956080D01*
X159500476Y-100956080D02*
X160167142Y-100956080D01*
X159738571Y-101956080D01*
X147298095Y-100956080D02*
X147298095Y-101765604D01*
X147345714Y-101860842D01*
X147393333Y-101908461D01*
X147488571Y-101956080D01*
X147679047Y-101956080D01*
X147774285Y-101908461D01*
X147821904Y-101860842D01*
X147869523Y-101765604D01*
X147869523Y-100956080D01*
X148774285Y-100956080D02*
X148583809Y-100956080D01*
X148488571Y-101003700D01*
X148440952Y-101051319D01*
X148345714Y-101194176D01*
X148298095Y-101384652D01*
X148298095Y-101765604D01*
X148345714Y-101860842D01*
X148393333Y-101908461D01*
X148488571Y-101956080D01*
X148679047Y-101956080D01*
X148774285Y-101908461D01*
X148821904Y-101860842D01*
X148869523Y-101765604D01*
X148869523Y-101527509D01*
X148821904Y-101432271D01*
X148774285Y-101384652D01*
X148679047Y-101337033D01*
X148488571Y-101337033D01*
X148393333Y-101384652D01*
X148345714Y-101432271D01*
X148298095Y-101527509D01*
X136048095Y-100956080D02*
X136048095Y-101765604D01*
X136095714Y-101860842D01*
X136143333Y-101908461D01*
X136238571Y-101956080D01*
X136429047Y-101956080D01*
X136524285Y-101908461D01*
X136571904Y-101860842D01*
X136619523Y-101765604D01*
X136619523Y-100956080D01*
X137571904Y-100956080D02*
X137095714Y-100956080D01*
X137048095Y-101432271D01*
X137095714Y-101384652D01*
X137190952Y-101337033D01*
X137429047Y-101337033D01*
X137524285Y-101384652D01*
X137571904Y-101432271D01*
X137619523Y-101527509D01*
X137619523Y-101765604D01*
X137571904Y-101860842D01*
X137524285Y-101908461D01*
X137429047Y-101956080D01*
X137190952Y-101956080D01*
X137095714Y-101908461D01*
X137048095Y-101860842D01*
X124798095Y-100956080D02*
X124798095Y-101765604D01*
X124845714Y-101860842D01*
X124893333Y-101908461D01*
X124988571Y-101956080D01*
X125179047Y-101956080D01*
X125274285Y-101908461D01*
X125321904Y-101860842D01*
X125369523Y-101765604D01*
X125369523Y-100956080D01*
X126274285Y-101289414D02*
X126274285Y-101956080D01*
X126036190Y-100908461D02*
X125798095Y-101622747D01*
X126417142Y-101622747D01*
X108048095Y-87122380D02*
X108048095Y-87931904D01*
X108095714Y-88027142D01*
X108143333Y-88074761D01*
X108238571Y-88122380D01*
X108429047Y-88122380D01*
X108524285Y-88074761D01*
X108571904Y-88027142D01*
X108619523Y-87931904D01*
X108619523Y-87122380D01*
X109000476Y-87122380D02*
X109619523Y-87122380D01*
X109286190Y-87503333D01*
X109429047Y-87503333D01*
X109524285Y-87550952D01*
X109571904Y-87598571D01*
X109619523Y-87693809D01*
X109619523Y-87931904D01*
X109571904Y-88027142D01*
X109524285Y-88074761D01*
X109429047Y-88122380D01*
X109143333Y-88122380D01*
X109048095Y-88074761D01*
X109000476Y-88027142D01*
X96798095Y-87122380D02*
X96798095Y-87931904D01*
X96845714Y-88027142D01*
X96893333Y-88074761D01*
X96988571Y-88122380D01*
X97179047Y-88122380D01*
X97274285Y-88074761D01*
X97321904Y-88027142D01*
X97369523Y-87931904D01*
X97369523Y-87122380D01*
X97798095Y-87217619D02*
X97845714Y-87170000D01*
X97940952Y-87122380D01*
X98179047Y-87122380D01*
X98274285Y-87170000D01*
X98321904Y-87217619D01*
X98369523Y-87312857D01*
X98369523Y-87408095D01*
X98321904Y-87550952D01*
X97750476Y-88122380D01*
X98369523Y-88122380D01*
X85548095Y-87122380D02*
X85548095Y-87931904D01*
X85595714Y-88027142D01*
X85643333Y-88074761D01*
X85738571Y-88122380D01*
X85929047Y-88122380D01*
X86024285Y-88074761D01*
X86071904Y-88027142D01*
X86119523Y-87931904D01*
X86119523Y-87122380D01*
X87119523Y-88122380D02*
X86548095Y-88122380D01*
X86833809Y-88122380D02*
X86833809Y-87122380D01*
X86738571Y-87265238D01*
X86643333Y-87360476D01*
X86548095Y-87408095D01*
X175919966Y-132064780D02*
X175919966Y-132779066D01*
X175872347Y-132921923D01*
X175777109Y-133017161D01*
X175634252Y-133064780D01*
X175539014Y-133064780D01*
X176539014Y-132493352D02*
X176443776Y-132445733D01*
X176396157Y-132398114D01*
X176348538Y-132302876D01*
X176348538Y-132255257D01*
X176396157Y-132160019D01*
X176443776Y-132112400D01*
X176539014Y-132064780D01*
X176729490Y-132064780D01*
X176824728Y-132112400D01*
X176872347Y-132160019D01*
X176919966Y-132255257D01*
X176919966Y-132302876D01*
X176872347Y-132398114D01*
X176824728Y-132445733D01*
X176729490Y-132493352D01*
X176539014Y-132493352D01*
X176443776Y-132540971D01*
X176396157Y-132588590D01*
X176348538Y-132683828D01*
X176348538Y-132874304D01*
X176396157Y-132969542D01*
X176443776Y-133017161D01*
X176539014Y-133064780D01*
X176729490Y-133064780D01*
X176824728Y-133017161D01*
X176872347Y-132969542D01*
X176919966Y-132874304D01*
X176919966Y-132683828D01*
X176872347Y-132588590D01*
X176824728Y-132540971D01*
X176729490Y-132493352D01*
X173842223Y-121003080D02*
X174508890Y-121003080D01*
X173842223Y-122003080D01*
X174508890Y-122003080D01*
X175080319Y-121003080D02*
X175270795Y-121003080D01*
X175366033Y-121050700D01*
X175461271Y-121145938D01*
X175508890Y-121336414D01*
X175508890Y-121669747D01*
X175461271Y-121860223D01*
X175366033Y-121955461D01*
X175270795Y-122003080D01*
X175080319Y-122003080D01*
X174985080Y-121955461D01*
X174889842Y-121860223D01*
X174842223Y-121669747D01*
X174842223Y-121336414D01*
X174889842Y-121145938D01*
X174985080Y-121050700D01*
X175080319Y-121003080D01*
X175937461Y-122003080D02*
X175937461Y-121003080D01*
X176508890Y-122003080D01*
X176508890Y-121003080D01*
X176985080Y-121479271D02*
X177318414Y-121479271D01*
X177461271Y-122003080D02*
X176985080Y-122003080D01*
X176985080Y-121003080D01*
X177461271Y-121003080D01*
X178794604Y-121431652D02*
X178699366Y-121384033D01*
X178651747Y-121336414D01*
X178604128Y-121241176D01*
X178604128Y-121193557D01*
X178651747Y-121098319D01*
X178699366Y-121050700D01*
X178794604Y-121003080D01*
X178985080Y-121003080D01*
X179080319Y-121050700D01*
X179127938Y-121098319D01*
X179175557Y-121193557D01*
X179175557Y-121241176D01*
X179127938Y-121336414D01*
X179080319Y-121384033D01*
X178985080Y-121431652D01*
X178794604Y-121431652D01*
X178699366Y-121479271D01*
X178651747Y-121526890D01*
X178604128Y-121622128D01*
X178604128Y-121812604D01*
X178651747Y-121907842D01*
X178699366Y-121955461D01*
X178794604Y-122003080D01*
X178985080Y-122003080D01*
X179080319Y-121955461D01*
X179127938Y-121907842D01*
X179175557Y-121812604D01*
X179175557Y-121622128D01*
X179127938Y-121526890D01*
X179080319Y-121479271D01*
X178985080Y-121431652D01*
X83478280Y-67064423D02*
X84192566Y-67064423D01*
X84335423Y-67112042D01*
X84430661Y-67207280D01*
X84478280Y-67350138D01*
X84478280Y-67445376D01*
X84478280Y-66064423D02*
X84478280Y-66635852D01*
X84478280Y-66350138D02*
X83478280Y-66350138D01*
X83621138Y-66445376D01*
X83716376Y-66540614D01*
X83763995Y-66635852D01*
X84478280Y-65112042D02*
X84478280Y-65683471D01*
X84478280Y-65397757D02*
X83478280Y-65397757D01*
X83621138Y-65492995D01*
X83716376Y-65588233D01*
X83763995Y-65683471D01*
X84478280Y-67588233D02*
X83478280Y-67588233D01*
X83478280Y-67207280D01*
X83525900Y-67112042D01*
X83573519Y-67064423D01*
X83668757Y-67016804D01*
X83811614Y-67016804D01*
X83906852Y-67064423D01*
X83954471Y-67112042D01*
X84002090Y-67207280D01*
X84002090Y-67588233D01*
X83478280Y-66683471D02*
X84478280Y-66445376D01*
X83763995Y-66254900D01*
X84478280Y-66064423D01*
X83478280Y-65826328D01*
X84478280Y-64873947D02*
X84002090Y-65207280D01*
X84478280Y-65445376D02*
X83478280Y-65445376D01*
X83478280Y-65064423D01*
X83525900Y-64969185D01*
X83573519Y-64921566D01*
X83668757Y-64873947D01*
X83811614Y-64873947D01*
X83906852Y-64921566D01*
X83954471Y-64969185D01*
X84002090Y-65064423D01*
X84002090Y-65445376D01*
X125183466Y-132267980D02*
X125183466Y-132982266D01*
X125135847Y-133125123D01*
X125040609Y-133220361D01*
X124897752Y-133267980D01*
X124802514Y-133267980D01*
X126088228Y-132601314D02*
X126088228Y-133267980D01*
X125850133Y-132220361D02*
X125612038Y-132934647D01*
X126231085Y-132934647D01*
X124427923Y-120850680D02*
X125094590Y-120850680D01*
X124427923Y-121850680D01*
X125094590Y-121850680D01*
X126666019Y-121184014D02*
X126666019Y-121850680D01*
X126427923Y-120803061D02*
X126189828Y-121517347D01*
X126808876Y-121517347D01*
X86016666Y-132293380D02*
X86016666Y-133007666D01*
X85969047Y-133150523D01*
X85873809Y-133245761D01*
X85730952Y-133293380D01*
X85635714Y-133293380D01*
X87016666Y-133293380D02*
X86445238Y-133293380D01*
X86730952Y-133293380D02*
X86730952Y-132293380D01*
X86635714Y-132436238D01*
X86540476Y-132531476D01*
X86445238Y-132579095D01*
X83697623Y-121041180D02*
X84364290Y-121041180D01*
X83697623Y-122041180D01*
X84364290Y-122041180D01*
X84935719Y-121041180D02*
X85126195Y-121041180D01*
X85221433Y-121088800D01*
X85316671Y-121184038D01*
X85364290Y-121374514D01*
X85364290Y-121707847D01*
X85316671Y-121898323D01*
X85221433Y-121993561D01*
X85126195Y-122041180D01*
X84935719Y-122041180D01*
X84840480Y-121993561D01*
X84745242Y-121898323D01*
X84697623Y-121707847D01*
X84697623Y-121374514D01*
X84745242Y-121184038D01*
X84840480Y-121088800D01*
X84935719Y-121041180D01*
X85792861Y-122041180D02*
X85792861Y-121041180D01*
X86364290Y-122041180D01*
X86364290Y-121041180D01*
X86840480Y-121517371D02*
X87173814Y-121517371D01*
X87316671Y-122041180D02*
X86840480Y-122041180D01*
X86840480Y-121041180D01*
X87316671Y-121041180D01*
X89030957Y-122041180D02*
X88459528Y-122041180D01*
X88745242Y-122041180D02*
X88745242Y-121041180D01*
X88650004Y-121184038D01*
X88554766Y-121279276D01*
X88459528Y-121326895D01*
X129191942Y-71665380D02*
X128858609Y-71189190D01*
X128620514Y-71665380D02*
X128620514Y-70665380D01*
X129001466Y-70665380D01*
X129096704Y-70713000D01*
X129144323Y-70760619D01*
X129191942Y-70855857D01*
X129191942Y-70998714D01*
X129144323Y-71093952D01*
X129096704Y-71141571D01*
X129001466Y-71189190D01*
X128620514Y-71189190D01*
X130144323Y-71665380D02*
X129572895Y-71665380D01*
X129858609Y-71665380D02*
X129858609Y-70665380D01*
X129763371Y-70808238D01*
X129668133Y-70903476D01*
X129572895Y-70951095D01*
X131096704Y-71665380D02*
X130525276Y-71665380D01*
X130810990Y-71665380D02*
X130810990Y-70665380D01*
X130715752Y-70808238D01*
X130620514Y-70903476D01*
X130525276Y-70951095D01*
X182043466Y-63300761D02*
X182186323Y-63348380D01*
X182424419Y-63348380D01*
X182519657Y-63300761D01*
X182567276Y-63253142D01*
X182614895Y-63157904D01*
X182614895Y-63062666D01*
X182567276Y-62967428D01*
X182519657Y-62919809D01*
X182424419Y-62872190D01*
X182233942Y-62824571D01*
X182138704Y-62776952D01*
X182091085Y-62729333D01*
X182043466Y-62634095D01*
X182043466Y-62538857D01*
X182091085Y-62443619D01*
X182138704Y-62396000D01*
X182233942Y-62348380D01*
X182472038Y-62348380D01*
X182614895Y-62396000D01*
X182948228Y-62348380D02*
X183186323Y-63348380D01*
X183376800Y-62634095D01*
X183567276Y-63348380D01*
X183805371Y-62348380D01*
X184138704Y-62443619D02*
X184186323Y-62396000D01*
X184281561Y-62348380D01*
X184519657Y-62348380D01*
X184614895Y-62396000D01*
X184662514Y-62443619D01*
X184710133Y-62538857D01*
X184710133Y-62634095D01*
X184662514Y-62776952D01*
X184091085Y-63348380D01*
X184710133Y-63348380D01*
X183043466Y-71524571D02*
X183186323Y-71572190D01*
X183233942Y-71619809D01*
X183281561Y-71715047D01*
X183281561Y-71857904D01*
X183233942Y-71953142D01*
X183186323Y-72000761D01*
X183091085Y-72048380D01*
X182710133Y-72048380D01*
X182710133Y-71048380D01*
X183043466Y-71048380D01*
X183138704Y-71096000D01*
X183186323Y-71143619D01*
X183233942Y-71238857D01*
X183233942Y-71334095D01*
X183186323Y-71429333D01*
X183138704Y-71476952D01*
X183043466Y-71524571D01*
X182710133Y-71524571D01*
X183567276Y-71048380D02*
X184138704Y-71048380D01*
X183852990Y-72048380D02*
X183852990Y-71048380D01*
X184472038Y-72048380D02*
X184472038Y-71048380D01*
X185043466Y-72048380D01*
X185043466Y-71048380D01*
X159784180Y-88208357D02*
X159307990Y-88541690D01*
X159784180Y-88779785D02*
X158784180Y-88779785D01*
X158784180Y-88398833D01*
X158831800Y-88303595D01*
X158879419Y-88255976D01*
X158974657Y-88208357D01*
X159117514Y-88208357D01*
X159212752Y-88255976D01*
X159260371Y-88303595D01*
X159307990Y-88398833D01*
X159307990Y-88779785D01*
X159784180Y-87255976D02*
X159784180Y-87827404D01*
X159784180Y-87541690D02*
X158784180Y-87541690D01*
X158927038Y-87636928D01*
X159022276Y-87732166D01*
X159069895Y-87827404D01*
X158879419Y-86875023D02*
X158831800Y-86827404D01*
X158784180Y-86732166D01*
X158784180Y-86494071D01*
X158831800Y-86398833D01*
X158879419Y-86351214D01*
X158974657Y-86303595D01*
X159069895Y-86303595D01*
X159212752Y-86351214D01*
X159784180Y-86922642D01*
X159784180Y-86303595D01*
X196893580Y-116999257D02*
X196417390Y-117332590D01*
X196893580Y-117570685D02*
X195893580Y-117570685D01*
X195893580Y-117189733D01*
X195941200Y-117094495D01*
X195988819Y-117046876D01*
X196084057Y-116999257D01*
X196226914Y-116999257D01*
X196322152Y-117046876D01*
X196369771Y-117094495D01*
X196417390Y-117189733D01*
X196417390Y-117570685D01*
X196893580Y-116046876D02*
X196893580Y-116618304D01*
X196893580Y-116332590D02*
X195893580Y-116332590D01*
X196036438Y-116427828D01*
X196131676Y-116523066D01*
X196179295Y-116618304D01*
X195893580Y-115427828D02*
X195893580Y-115332590D01*
X195941200Y-115237352D01*
X195988819Y-115189733D01*
X196084057Y-115142114D01*
X196274533Y-115094495D01*
X196512628Y-115094495D01*
X196703104Y-115142114D01*
X196798342Y-115189733D01*
X196845961Y-115237352D01*
X196893580Y-115332590D01*
X196893580Y-115427828D01*
X196845961Y-115523066D01*
X196798342Y-115570685D01*
X196703104Y-115618304D01*
X196512628Y-115665923D01*
X196274533Y-115665923D01*
X196084057Y-115618304D01*
X195988819Y-115570685D01*
X195941200Y-115523066D01*
X195893580Y-115427828D01*
X189451380Y-116548466D02*
X188975190Y-116881800D01*
X189451380Y-117119895D02*
X188451380Y-117119895D01*
X188451380Y-116738942D01*
X188499000Y-116643704D01*
X188546619Y-116596085D01*
X188641857Y-116548466D01*
X188784714Y-116548466D01*
X188879952Y-116596085D01*
X188927571Y-116643704D01*
X188975190Y-116738942D01*
X188975190Y-117119895D01*
X189451380Y-116072276D02*
X189451380Y-115881800D01*
X189403761Y-115786561D01*
X189356142Y-115738942D01*
X189213285Y-115643704D01*
X189022809Y-115596085D01*
X188641857Y-115596085D01*
X188546619Y-115643704D01*
X188499000Y-115691323D01*
X188451380Y-115786561D01*
X188451380Y-115977038D01*
X188499000Y-116072276D01*
X188546619Y-116119895D01*
X188641857Y-116167514D01*
X188879952Y-116167514D01*
X188975190Y-116119895D01*
X189022809Y-116072276D01*
X189070428Y-115977038D01*
X189070428Y-115786561D01*
X189022809Y-115691323D01*
X188975190Y-115643704D01*
X188879952Y-115596085D01*
X178211880Y-116561166D02*
X177735690Y-116894500D01*
X178211880Y-117132595D02*
X177211880Y-117132595D01*
X177211880Y-116751642D01*
X177259500Y-116656404D01*
X177307119Y-116608785D01*
X177402357Y-116561166D01*
X177545214Y-116561166D01*
X177640452Y-116608785D01*
X177688071Y-116656404D01*
X177735690Y-116751642D01*
X177735690Y-117132595D01*
X177640452Y-115989738D02*
X177592833Y-116084976D01*
X177545214Y-116132595D01*
X177449976Y-116180214D01*
X177402357Y-116180214D01*
X177307119Y-116132595D01*
X177259500Y-116084976D01*
X177211880Y-115989738D01*
X177211880Y-115799261D01*
X177259500Y-115704023D01*
X177307119Y-115656404D01*
X177402357Y-115608785D01*
X177449976Y-115608785D01*
X177545214Y-115656404D01*
X177592833Y-115704023D01*
X177640452Y-115799261D01*
X177640452Y-115989738D01*
X177688071Y-116084976D01*
X177735690Y-116132595D01*
X177830928Y-116180214D01*
X178021404Y-116180214D01*
X178116642Y-116132595D01*
X178164261Y-116084976D01*
X178211880Y-115989738D01*
X178211880Y-115799261D01*
X178164261Y-115704023D01*
X178116642Y-115656404D01*
X178021404Y-115608785D01*
X177830928Y-115608785D01*
X177735690Y-115656404D01*
X177688071Y-115704023D01*
X177640452Y-115799261D01*
X156109533Y-96455780D02*
X155776200Y-95979590D01*
X155538104Y-96455780D02*
X155538104Y-95455780D01*
X155919057Y-95455780D01*
X156014295Y-95503400D01*
X156061914Y-95551019D01*
X156109533Y-95646257D01*
X156109533Y-95789114D01*
X156061914Y-95884352D01*
X156014295Y-95931971D01*
X155919057Y-95979590D01*
X155538104Y-95979590D01*
X156442866Y-95455780D02*
X157109533Y-95455780D01*
X156680961Y-96455780D01*
X149937333Y-96455780D02*
X149604000Y-95979590D01*
X149365904Y-96455780D02*
X149365904Y-95455780D01*
X149746857Y-95455780D01*
X149842095Y-95503400D01*
X149889714Y-95551019D01*
X149937333Y-95646257D01*
X149937333Y-95789114D01*
X149889714Y-95884352D01*
X149842095Y-95931971D01*
X149746857Y-95979590D01*
X149365904Y-95979590D01*
X150794476Y-95455780D02*
X150604000Y-95455780D01*
X150508761Y-95503400D01*
X150461142Y-95551019D01*
X150365904Y-95693876D01*
X150318285Y-95884352D01*
X150318285Y-96265304D01*
X150365904Y-96360542D01*
X150413523Y-96408161D01*
X150508761Y-96455780D01*
X150699238Y-96455780D01*
X150794476Y-96408161D01*
X150842095Y-96360542D01*
X150889714Y-96265304D01*
X150889714Y-96027209D01*
X150842095Y-95931971D01*
X150794476Y-95884352D01*
X150699238Y-95836733D01*
X150508761Y-95836733D01*
X150413523Y-95884352D01*
X150365904Y-95931971D01*
X150318285Y-96027209D01*
X133617833Y-96468480D02*
X133284500Y-95992290D01*
X133046404Y-96468480D02*
X133046404Y-95468480D01*
X133427357Y-95468480D01*
X133522595Y-95516100D01*
X133570214Y-95563719D01*
X133617833Y-95658957D01*
X133617833Y-95801814D01*
X133570214Y-95897052D01*
X133522595Y-95944671D01*
X133427357Y-95992290D01*
X133046404Y-95992290D01*
X134522595Y-95468480D02*
X134046404Y-95468480D01*
X133998785Y-95944671D01*
X134046404Y-95897052D01*
X134141642Y-95849433D01*
X134379738Y-95849433D01*
X134474976Y-95897052D01*
X134522595Y-95944671D01*
X134570214Y-96039909D01*
X134570214Y-96278004D01*
X134522595Y-96373242D01*
X134474976Y-96420861D01*
X134379738Y-96468480D01*
X134141642Y-96468480D01*
X134046404Y-96420861D01*
X133998785Y-96373242D01*
X124613533Y-96468480D02*
X124280200Y-95992290D01*
X124042104Y-96468480D02*
X124042104Y-95468480D01*
X124423057Y-95468480D01*
X124518295Y-95516100D01*
X124565914Y-95563719D01*
X124613533Y-95658957D01*
X124613533Y-95801814D01*
X124565914Y-95897052D01*
X124518295Y-95944671D01*
X124423057Y-95992290D01*
X124042104Y-95992290D01*
X125470676Y-95801814D02*
X125470676Y-96468480D01*
X125232580Y-95420861D02*
X124994485Y-96135147D01*
X125613533Y-96135147D01*
X110724080Y-116637266D02*
X110247890Y-116970600D01*
X110724080Y-117208695D02*
X109724080Y-117208695D01*
X109724080Y-116827742D01*
X109771700Y-116732504D01*
X109819319Y-116684885D01*
X109914557Y-116637266D01*
X110057414Y-116637266D01*
X110152652Y-116684885D01*
X110200271Y-116732504D01*
X110247890Y-116827742D01*
X110247890Y-117208695D01*
X109724080Y-116303933D02*
X109724080Y-115684885D01*
X110105033Y-116018219D01*
X110105033Y-115875361D01*
X110152652Y-115780123D01*
X110200271Y-115732504D01*
X110295509Y-115684885D01*
X110533604Y-115684885D01*
X110628842Y-115732504D01*
X110676461Y-115780123D01*
X110724080Y-115875361D01*
X110724080Y-116161076D01*
X110676461Y-116256314D01*
X110628842Y-116303933D01*
X99433780Y-116650066D02*
X98957590Y-116983400D01*
X99433780Y-117221495D02*
X98433780Y-117221495D01*
X98433780Y-116840542D01*
X98481400Y-116745304D01*
X98529019Y-116697685D01*
X98624257Y-116650066D01*
X98767114Y-116650066D01*
X98862352Y-116697685D01*
X98909971Y-116745304D01*
X98957590Y-116840542D01*
X98957590Y-117221495D01*
X98529019Y-116269114D02*
X98481400Y-116221495D01*
X98433780Y-116126257D01*
X98433780Y-115888161D01*
X98481400Y-115792923D01*
X98529019Y-115745304D01*
X98624257Y-115697685D01*
X98719495Y-115697685D01*
X98862352Y-115745304D01*
X99433780Y-116316733D01*
X99433780Y-115697685D01*
X90416780Y-116662766D02*
X89940590Y-116996100D01*
X90416780Y-117234195D02*
X89416780Y-117234195D01*
X89416780Y-116853242D01*
X89464400Y-116758004D01*
X89512019Y-116710385D01*
X89607257Y-116662766D01*
X89750114Y-116662766D01*
X89845352Y-116710385D01*
X89892971Y-116758004D01*
X89940590Y-116853242D01*
X89940590Y-117234195D01*
X90416780Y-115710385D02*
X90416780Y-116281814D01*
X90416780Y-115996100D02*
X89416780Y-115996100D01*
X89559638Y-116091338D01*
X89654876Y-116186576D01*
X89702495Y-116281814D01*
X155394180Y-93681985D02*
X154394180Y-93681985D01*
X154394180Y-93443890D01*
X154441800Y-93301033D01*
X154537038Y-93205795D01*
X154632276Y-93158176D01*
X154822752Y-93110557D01*
X154965609Y-93110557D01*
X155156085Y-93158176D01*
X155251323Y-93205795D01*
X155346561Y-93301033D01*
X155394180Y-93443890D01*
X155394180Y-93681985D01*
X155394180Y-92158176D02*
X155394180Y-92729604D01*
X155394180Y-92443890D02*
X154394180Y-92443890D01*
X154537038Y-92539128D01*
X154632276Y-92634366D01*
X154679895Y-92729604D01*
X155394180Y-91205795D02*
X155394180Y-91777223D01*
X155394180Y-91491509D02*
X154394180Y-91491509D01*
X154537038Y-91586747D01*
X154632276Y-91681985D01*
X154679895Y-91777223D01*
X160696109Y-92910561D02*
X160838966Y-92958180D01*
X161077061Y-92958180D01*
X161172300Y-92910561D01*
X161219919Y-92862942D01*
X161267538Y-92767704D01*
X161267538Y-92672466D01*
X161219919Y-92577228D01*
X161172300Y-92529609D01*
X161077061Y-92481990D01*
X160886585Y-92434371D01*
X160791347Y-92386752D01*
X160743728Y-92339133D01*
X160696109Y-92243895D01*
X160696109Y-92148657D01*
X160743728Y-92053419D01*
X160791347Y-92005800D01*
X160886585Y-91958180D01*
X161124680Y-91958180D01*
X161267538Y-92005800D01*
X161553252Y-91958180D02*
X162124680Y-91958180D01*
X161838966Y-92958180D02*
X161838966Y-91958180D01*
X162410395Y-92672466D02*
X162886585Y-92672466D01*
X162315157Y-92958180D02*
X162648490Y-91958180D01*
X162981823Y-92958180D01*
X163172300Y-91958180D02*
X163743728Y-91958180D01*
X163458014Y-92958180D02*
X163458014Y-91958180D01*
X164077061Y-91958180D02*
X164077061Y-92767704D01*
X164124680Y-92862942D01*
X164172300Y-92910561D01*
X164267538Y-92958180D01*
X164458014Y-92958180D01*
X164553252Y-92910561D01*
X164600871Y-92862942D01*
X164648490Y-92767704D01*
X164648490Y-91958180D01*
X165077061Y-92910561D02*
X165219919Y-92958180D01*
X165458014Y-92958180D01*
X165553252Y-92910561D01*
X165600871Y-92862942D01*
X165648490Y-92767704D01*
X165648490Y-92672466D01*
X165600871Y-92577228D01*
X165553252Y-92529609D01*
X165458014Y-92481990D01*
X165267538Y-92434371D01*
X165172300Y-92386752D01*
X165124680Y-92339133D01*
X165077061Y-92243895D01*
X165077061Y-92148657D01*
X165124680Y-92053419D01*
X165172300Y-92005800D01*
X165267538Y-91958180D01*
X165505633Y-91958180D01*
X165648490Y-92005800D01*
X194641866Y-63300761D02*
X194784723Y-63348380D01*
X195022819Y-63348380D01*
X195118057Y-63300761D01*
X195165676Y-63253142D01*
X195213295Y-63157904D01*
X195213295Y-63062666D01*
X195165676Y-62967428D01*
X195118057Y-62919809D01*
X195022819Y-62872190D01*
X194832342Y-62824571D01*
X194737104Y-62776952D01*
X194689485Y-62729333D01*
X194641866Y-62634095D01*
X194641866Y-62538857D01*
X194689485Y-62443619D01*
X194737104Y-62396000D01*
X194832342Y-62348380D01*
X195070438Y-62348380D01*
X195213295Y-62396000D01*
X195546628Y-62348380D02*
X195784723Y-63348380D01*
X195975200Y-62634095D01*
X196165676Y-63348380D01*
X196403771Y-62348380D01*
X197308533Y-63348380D02*
X196737104Y-63348380D01*
X197022819Y-63348380D02*
X197022819Y-62348380D01*
X196927580Y-62491238D01*
X196832342Y-62586476D01*
X196737104Y-62634095D01*
X195237104Y-72048380D02*
X194903771Y-71572190D01*
X194665676Y-72048380D02*
X194665676Y-71048380D01*
X195046628Y-71048380D01*
X195141866Y-71096000D01*
X195189485Y-71143619D01*
X195237104Y-71238857D01*
X195237104Y-71381714D01*
X195189485Y-71476952D01*
X195141866Y-71524571D01*
X195046628Y-71572190D01*
X194665676Y-71572190D01*
X196046628Y-72000761D02*
X195951390Y-72048380D01*
X195760914Y-72048380D01*
X195665676Y-72000761D01*
X195618057Y-71905523D01*
X195618057Y-71524571D01*
X195665676Y-71429333D01*
X195760914Y-71381714D01*
X195951390Y-71381714D01*
X196046628Y-71429333D01*
X196094247Y-71524571D01*
X196094247Y-71619809D01*
X195618057Y-71715047D01*
X196475200Y-72000761D02*
X196570438Y-72048380D01*
X196760914Y-72048380D01*
X196856152Y-72000761D01*
X196903771Y-71905523D01*
X196903771Y-71857904D01*
X196856152Y-71762666D01*
X196760914Y-71715047D01*
X196618057Y-71715047D01*
X196522819Y-71667428D01*
X196475200Y-71572190D01*
X196475200Y-71524571D01*
X196522819Y-71429333D01*
X196618057Y-71381714D01*
X196760914Y-71381714D01*
X196856152Y-71429333D01*
X197713295Y-72000761D02*
X197618057Y-72048380D01*
X197427580Y-72048380D01*
X197332342Y-72000761D01*
X197284723Y-71905523D01*
X197284723Y-71524571D01*
X197332342Y-71429333D01*
X197427580Y-71381714D01*
X197618057Y-71381714D01*
X197713295Y-71429333D01*
X197760914Y-71524571D01*
X197760914Y-71619809D01*
X197284723Y-71715047D01*
X198046628Y-71381714D02*
X198427580Y-71381714D01*
X198189485Y-71048380D02*
X198189485Y-71905523D01*
X198237104Y-72000761D01*
X198332342Y-72048380D01*
X198427580Y-72048380D01*
X125129742Y-68669466D02*
X125177361Y-68717085D01*
X125224980Y-68859942D01*
X125224980Y-68955180D01*
X125177361Y-69098038D01*
X125082123Y-69193276D01*
X124986885Y-69240895D01*
X124796409Y-69288514D01*
X124653552Y-69288514D01*
X124463076Y-69240895D01*
X124367838Y-69193276D01*
X124272600Y-69098038D01*
X124224980Y-68955180D01*
X124224980Y-68859942D01*
X124272600Y-68717085D01*
X124320219Y-68669466D01*
X124558314Y-67812323D02*
X125224980Y-67812323D01*
X124177361Y-68050419D02*
X124891647Y-68288514D01*
X124891647Y-67669466D01*
X127974542Y-68669466D02*
X128022161Y-68717085D01*
X128069780Y-68859942D01*
X128069780Y-68955180D01*
X128022161Y-69098038D01*
X127926923Y-69193276D01*
X127831685Y-69240895D01*
X127641209Y-69288514D01*
X127498352Y-69288514D01*
X127307876Y-69240895D01*
X127212638Y-69193276D01*
X127117400Y-69098038D01*
X127069780Y-68955180D01*
X127069780Y-68859942D01*
X127117400Y-68717085D01*
X127165019Y-68669466D01*
X127069780Y-68336133D02*
X127069780Y-67717085D01*
X127450733Y-68050419D01*
X127450733Y-67907561D01*
X127498352Y-67812323D01*
X127545971Y-67764704D01*
X127641209Y-67717085D01*
X127879304Y-67717085D01*
X127974542Y-67764704D01*
X128022161Y-67812323D01*
X128069780Y-67907561D01*
X128069780Y-68193276D01*
X128022161Y-68288514D01*
X127974542Y-68336133D01*
X159054366Y-132090180D02*
X159054366Y-132804466D01*
X159006747Y-132947323D01*
X158911509Y-133042561D01*
X158768652Y-133090180D01*
X158673414Y-133090180D01*
X159435319Y-132090180D02*
X160101985Y-132090180D01*
X159673414Y-133090180D01*
X157828923Y-120837980D02*
X158495590Y-120837980D01*
X157828923Y-121837980D01*
X158495590Y-121837980D01*
X159543209Y-120837980D02*
X160209876Y-120837980D01*
X159781304Y-121837980D01*
X155500000Y-130202380D02*
X155500000Y-130440476D01*
X155261904Y-130345238D02*
X155500000Y-130440476D01*
X155738095Y-130345238D01*
X155357142Y-130630952D02*
X155500000Y-130440476D01*
X155642857Y-130630952D01*
X198087876Y-132179080D02*
X198087876Y-132893366D01*
X198040257Y-133036223D01*
X197945019Y-133131461D01*
X197802161Y-133179080D01*
X197706923Y-133179080D01*
X199087876Y-133179080D02*
X198516447Y-133179080D01*
X198802161Y-133179080D02*
X198802161Y-132179080D01*
X198706923Y-132321938D01*
X198611685Y-132417176D01*
X198516447Y-132464795D01*
X199706923Y-132179080D02*
X199802161Y-132179080D01*
X199897400Y-132226700D01*
X199945019Y-132274319D01*
X199992638Y-132369557D01*
X200040257Y-132560033D01*
X200040257Y-132798128D01*
X199992638Y-132988604D01*
X199945019Y-133083842D01*
X199897400Y-133131461D01*
X199802161Y-133179080D01*
X199706923Y-133179080D01*
X199611685Y-133131461D01*
X199564066Y-133083842D01*
X199516447Y-132988604D01*
X199468828Y-132798128D01*
X199468828Y-132560033D01*
X199516447Y-132369557D01*
X199564066Y-132274319D01*
X199611685Y-132226700D01*
X199706923Y-132179080D01*
X195718033Y-120964980D02*
X196384700Y-120964980D01*
X195718033Y-121964980D01*
X196384700Y-121964980D01*
X196956128Y-120964980D02*
X197146604Y-120964980D01*
X197241842Y-121012600D01*
X197337080Y-121107838D01*
X197384700Y-121298314D01*
X197384700Y-121631647D01*
X197337080Y-121822123D01*
X197241842Y-121917361D01*
X197146604Y-121964980D01*
X196956128Y-121964980D01*
X196860890Y-121917361D01*
X196765652Y-121822123D01*
X196718033Y-121631647D01*
X196718033Y-121298314D01*
X196765652Y-121107838D01*
X196860890Y-121012600D01*
X196956128Y-120964980D01*
X197813271Y-121964980D02*
X197813271Y-120964980D01*
X198384700Y-121964980D01*
X198384700Y-120964980D01*
X198860890Y-121441171D02*
X199194223Y-121441171D01*
X199337080Y-121964980D02*
X198860890Y-121964980D01*
X198860890Y-120964980D01*
X199337080Y-120964980D01*
X201051366Y-121964980D02*
X200479938Y-121964980D01*
X200765652Y-121964980D02*
X200765652Y-120964980D01*
X200670414Y-121107838D01*
X200575176Y-121203076D01*
X200479938Y-121250695D01*
X201670414Y-120964980D02*
X201765652Y-120964980D01*
X201860890Y-121012600D01*
X201908509Y-121060219D01*
X201956128Y-121155457D01*
X202003747Y-121345933D01*
X202003747Y-121584028D01*
X201956128Y-121774504D01*
X201908509Y-121869742D01*
X201860890Y-121917361D01*
X201765652Y-121964980D01*
X201670414Y-121964980D01*
X201575176Y-121917361D01*
X201527557Y-121869742D01*
X201479938Y-121774504D01*
X201432319Y-121584028D01*
X201432319Y-121345933D01*
X201479938Y-121155457D01*
X201527557Y-121060219D01*
X201575176Y-121012600D01*
X201670414Y-120964980D01*
X195000000Y-130202380D02*
X195000000Y-130440476D01*
X194761904Y-130345238D02*
X195000000Y-130440476D01*
X195238095Y-130345238D01*
X194857142Y-130630952D02*
X195000000Y-130440476D01*
X195142857Y-130630952D01*
X187337266Y-132179080D02*
X187337266Y-132893366D01*
X187289647Y-133036223D01*
X187194409Y-133131461D01*
X187051552Y-133179080D01*
X186956314Y-133179080D01*
X187861076Y-133179080D02*
X188051552Y-133179080D01*
X188146790Y-133131461D01*
X188194409Y-133083842D01*
X188289647Y-132940985D01*
X188337266Y-132750509D01*
X188337266Y-132369557D01*
X188289647Y-132274319D01*
X188242028Y-132226700D01*
X188146790Y-132179080D01*
X187956314Y-132179080D01*
X187861076Y-132226700D01*
X187813457Y-132274319D01*
X187765838Y-132369557D01*
X187765838Y-132607652D01*
X187813457Y-132702890D01*
X187861076Y-132750509D01*
X187956314Y-132798128D01*
X188146790Y-132798128D01*
X188242028Y-132750509D01*
X188289647Y-132702890D01*
X188337266Y-132607652D01*
X184980123Y-121003080D02*
X185646790Y-121003080D01*
X184980123Y-122003080D01*
X185646790Y-122003080D01*
X186218219Y-121003080D02*
X186408695Y-121003080D01*
X186503933Y-121050700D01*
X186599171Y-121145938D01*
X186646790Y-121336414D01*
X186646790Y-121669747D01*
X186599171Y-121860223D01*
X186503933Y-121955461D01*
X186408695Y-122003080D01*
X186218219Y-122003080D01*
X186122980Y-121955461D01*
X186027742Y-121860223D01*
X185980123Y-121669747D01*
X185980123Y-121336414D01*
X186027742Y-121145938D01*
X186122980Y-121050700D01*
X186218219Y-121003080D01*
X187075361Y-122003080D02*
X187075361Y-121003080D01*
X187646790Y-122003080D01*
X187646790Y-121003080D01*
X188122980Y-121479271D02*
X188456314Y-121479271D01*
X188599171Y-122003080D02*
X188122980Y-122003080D01*
X188122980Y-121003080D01*
X188599171Y-121003080D01*
X189837266Y-122003080D02*
X190027742Y-122003080D01*
X190122980Y-121955461D01*
X190170600Y-121907842D01*
X190265838Y-121764985D01*
X190313457Y-121574509D01*
X190313457Y-121193557D01*
X190265838Y-121098319D01*
X190218219Y-121050700D01*
X190122980Y-121003080D01*
X189932504Y-121003080D01*
X189837266Y-121050700D01*
X189789647Y-121098319D01*
X189742028Y-121193557D01*
X189742028Y-121431652D01*
X189789647Y-121526890D01*
X189837266Y-121574509D01*
X189932504Y-121622128D01*
X190122980Y-121622128D01*
X190218219Y-121574509D01*
X190265838Y-121526890D01*
X190313457Y-121431652D01*
X183750000Y-130202380D02*
X183750000Y-130440476D01*
X183511904Y-130345238D02*
X183750000Y-130440476D01*
X183988095Y-130345238D01*
X183607142Y-130630952D02*
X183750000Y-130440476D01*
X183892857Y-130630952D01*
X136476666Y-132166380D02*
X136476666Y-132880666D01*
X136429047Y-133023523D01*
X136333809Y-133118761D01*
X136190952Y-133166380D01*
X136095714Y-133166380D01*
X137429047Y-132166380D02*
X136952857Y-132166380D01*
X136905238Y-132642571D01*
X136952857Y-132594952D01*
X137048095Y-132547333D01*
X137286190Y-132547333D01*
X137381428Y-132594952D01*
X137429047Y-132642571D01*
X137476666Y-132737809D01*
X137476666Y-132975904D01*
X137429047Y-133071142D01*
X137381428Y-133118761D01*
X137286190Y-133166380D01*
X137048095Y-133166380D01*
X136952857Y-133118761D01*
X136905238Y-133071142D01*
X135692823Y-120850680D02*
X136359490Y-120850680D01*
X135692823Y-121850680D01*
X136359490Y-121850680D01*
X137978538Y-120850680D02*
X137502347Y-120850680D01*
X137454728Y-121326871D01*
X137502347Y-121279252D01*
X137597585Y-121231633D01*
X137835680Y-121231633D01*
X137930919Y-121279252D01*
X137978538Y-121326871D01*
X138026157Y-121422109D01*
X138026157Y-121660204D01*
X137978538Y-121755442D01*
X137930919Y-121803061D01*
X137835680Y-121850680D01*
X137597585Y-121850680D01*
X137502347Y-121803061D01*
X137454728Y-121755442D01*
X133000000Y-130202380D02*
X133000000Y-130440476D01*
X132761904Y-130345238D02*
X133000000Y-130440476D01*
X133238095Y-130345238D01*
X132857142Y-130630952D02*
X133000000Y-130440476D01*
X133142857Y-130630952D01*
X108368666Y-132217180D02*
X108368666Y-132931466D01*
X108321047Y-133074323D01*
X108225809Y-133169561D01*
X108082952Y-133217180D01*
X107987714Y-133217180D01*
X108749619Y-132217180D02*
X109368666Y-132217180D01*
X109035333Y-132598133D01*
X109178190Y-132598133D01*
X109273428Y-132645752D01*
X109321047Y-132693371D01*
X109368666Y-132788609D01*
X109368666Y-133026704D01*
X109321047Y-133121942D01*
X109273428Y-133169561D01*
X109178190Y-133217180D01*
X108892476Y-133217180D01*
X108797238Y-133169561D01*
X108749619Y-133121942D01*
X106265523Y-120850680D02*
X106932190Y-120850680D01*
X106265523Y-121850680D01*
X106932190Y-121850680D01*
X107503619Y-120850680D02*
X107694095Y-120850680D01*
X107789333Y-120898300D01*
X107884571Y-120993538D01*
X107932190Y-121184014D01*
X107932190Y-121517347D01*
X107884571Y-121707823D01*
X107789333Y-121803061D01*
X107694095Y-121850680D01*
X107503619Y-121850680D01*
X107408380Y-121803061D01*
X107313142Y-121707823D01*
X107265523Y-121517347D01*
X107265523Y-121184014D01*
X107313142Y-120993538D01*
X107408380Y-120898300D01*
X107503619Y-120850680D01*
X108360761Y-121850680D02*
X108360761Y-120850680D01*
X108932190Y-121850680D01*
X108932190Y-120850680D01*
X109408380Y-121326871D02*
X109741714Y-121326871D01*
X109884571Y-121850680D02*
X109408380Y-121850680D01*
X109408380Y-120850680D01*
X109884571Y-120850680D01*
X110979809Y-120850680D02*
X111598857Y-120850680D01*
X111265523Y-121231633D01*
X111408380Y-121231633D01*
X111503619Y-121279252D01*
X111551238Y-121326871D01*
X111598857Y-121422109D01*
X111598857Y-121660204D01*
X111551238Y-121755442D01*
X111503619Y-121803061D01*
X111408380Y-121850680D01*
X111122666Y-121850680D01*
X111027428Y-121803061D01*
X110979809Y-121755442D01*
X105000000Y-130202380D02*
X105000000Y-130440476D01*
X104761904Y-130345238D02*
X105000000Y-130440476D01*
X105238095Y-130345238D01*
X104857142Y-130630952D02*
X105000000Y-130440476D01*
X105142857Y-130630952D01*
X147802166Y-132140980D02*
X147802166Y-132855266D01*
X147754547Y-132998123D01*
X147659309Y-133093361D01*
X147516452Y-133140980D01*
X147421214Y-133140980D01*
X148706928Y-132140980D02*
X148516452Y-132140980D01*
X148421214Y-132188600D01*
X148373595Y-132236219D01*
X148278357Y-132379076D01*
X148230738Y-132569552D01*
X148230738Y-132950504D01*
X148278357Y-133045742D01*
X148325976Y-133093361D01*
X148421214Y-133140980D01*
X148611690Y-133140980D01*
X148706928Y-133093361D01*
X148754547Y-133045742D01*
X148802166Y-132950504D01*
X148802166Y-132712409D01*
X148754547Y-132617171D01*
X148706928Y-132569552D01*
X148611690Y-132521933D01*
X148421214Y-132521933D01*
X148325976Y-132569552D01*
X148278357Y-132617171D01*
X148230738Y-132712409D01*
X146957723Y-120850680D02*
X147624390Y-120850680D01*
X146957723Y-121850680D01*
X147624390Y-121850680D01*
X149195819Y-120850680D02*
X149005342Y-120850680D01*
X148910104Y-120898300D01*
X148862485Y-120945919D01*
X148767247Y-121088776D01*
X148719628Y-121279252D01*
X148719628Y-121660204D01*
X148767247Y-121755442D01*
X148814866Y-121803061D01*
X148910104Y-121850680D01*
X149100580Y-121850680D01*
X149195819Y-121803061D01*
X149243438Y-121755442D01*
X149291057Y-121660204D01*
X149291057Y-121422109D01*
X149243438Y-121326871D01*
X149195819Y-121279252D01*
X149100580Y-121231633D01*
X148910104Y-121231633D01*
X148814866Y-121279252D01*
X148767247Y-121326871D01*
X148719628Y-121422109D01*
X144250000Y-130202380D02*
X144250000Y-130440476D01*
X144011904Y-130345238D02*
X144250000Y-130440476D01*
X144488095Y-130345238D01*
X144107142Y-130630952D02*
X144250000Y-130440476D01*
X144392857Y-130630952D01*
X123616842Y-70456866D02*
X123664461Y-70504485D01*
X123712080Y-70647342D01*
X123712080Y-70742580D01*
X123664461Y-70885438D01*
X123569223Y-70980676D01*
X123473985Y-71028295D01*
X123283509Y-71075914D01*
X123140652Y-71075914D01*
X122950176Y-71028295D01*
X122854938Y-70980676D01*
X122759700Y-70885438D01*
X122712080Y-70742580D01*
X122712080Y-70647342D01*
X122759700Y-70504485D01*
X122807319Y-70456866D01*
X122807319Y-70075914D02*
X122759700Y-70028295D01*
X122712080Y-69933057D01*
X122712080Y-69694961D01*
X122759700Y-69599723D01*
X122807319Y-69552104D01*
X122902557Y-69504485D01*
X122997795Y-69504485D01*
X123140652Y-69552104D01*
X123712080Y-70123533D01*
X123712080Y-69504485D01*
X100067733Y-83989142D02*
X100020114Y-84036761D01*
X99877257Y-84084380D01*
X99782019Y-84084380D01*
X99639161Y-84036761D01*
X99543923Y-83941523D01*
X99496304Y-83846285D01*
X99448685Y-83655809D01*
X99448685Y-83512952D01*
X99496304Y-83322476D01*
X99543923Y-83227238D01*
X99639161Y-83132000D01*
X99782019Y-83084380D01*
X99877257Y-83084380D01*
X100020114Y-83132000D01*
X100067733Y-83179619D01*
X101020114Y-84084380D02*
X100448685Y-84084380D01*
X100734400Y-84084380D02*
X100734400Y-83084380D01*
X100639161Y-83227238D01*
X100543923Y-83322476D01*
X100448685Y-83370095D01*
X131351780Y-85638495D02*
X132161304Y-85638495D01*
X132256542Y-85590876D01*
X132304161Y-85543257D01*
X132351780Y-85448019D01*
X132351780Y-85257542D01*
X132304161Y-85162304D01*
X132256542Y-85114685D01*
X132161304Y-85067066D01*
X131351780Y-85067066D01*
X132351780Y-84067066D02*
X132351780Y-84638495D01*
X132351780Y-84352780D02*
X131351780Y-84352780D01*
X131494638Y-84448019D01*
X131589876Y-84543257D01*
X131637495Y-84638495D01*
X131447019Y-83686114D02*
X131399400Y-83638495D01*
X131351780Y-83543257D01*
X131351780Y-83305161D01*
X131399400Y-83209923D01*
X131447019Y-83162304D01*
X131542257Y-83114685D01*
X131637495Y-83114685D01*
X131780352Y-83162304D01*
X132351780Y-83733733D01*
X132351780Y-83114685D01*
X134985590Y-87398971D02*
X135318923Y-87398971D01*
X135461780Y-87922780D02*
X134985590Y-87922780D01*
X134985590Y-86922780D01*
X135461780Y-86922780D01*
X135842733Y-87875161D02*
X135985590Y-87922780D01*
X136223685Y-87922780D01*
X136318923Y-87875161D01*
X136366542Y-87827542D01*
X136414161Y-87732304D01*
X136414161Y-87637066D01*
X136366542Y-87541828D01*
X136318923Y-87494209D01*
X136223685Y-87446590D01*
X136033209Y-87398971D01*
X135937971Y-87351352D01*
X135890352Y-87303733D01*
X135842733Y-87208495D01*
X135842733Y-87113257D01*
X135890352Y-87018019D01*
X135937971Y-86970400D01*
X136033209Y-86922780D01*
X136271304Y-86922780D01*
X136414161Y-86970400D01*
X136842733Y-87922780D02*
X136842733Y-86922780D01*
X137223685Y-86922780D01*
X137318923Y-86970400D01*
X137366542Y-87018019D01*
X137414161Y-87113257D01*
X137414161Y-87256114D01*
X137366542Y-87351352D01*
X137318923Y-87398971D01*
X137223685Y-87446590D01*
X136842733Y-87446590D01*
X137747495Y-86922780D02*
X138366542Y-86922780D01*
X138033209Y-87303733D01*
X138176066Y-87303733D01*
X138271304Y-87351352D01*
X138318923Y-87398971D01*
X138366542Y-87494209D01*
X138366542Y-87732304D01*
X138318923Y-87827542D01*
X138271304Y-87875161D01*
X138176066Y-87922780D01*
X137890352Y-87922780D01*
X137795114Y-87875161D01*
X137747495Y-87827542D01*
X138747495Y-87018019D02*
X138795114Y-86970400D01*
X138890352Y-86922780D01*
X139128447Y-86922780D01*
X139223685Y-86970400D01*
X139271304Y-87018019D01*
X139318923Y-87113257D01*
X139318923Y-87208495D01*
X139271304Y-87351352D01*
X138699876Y-87922780D01*
X139318923Y-87922780D01*
X139747495Y-87541828D02*
X140509400Y-87541828D01*
X140890352Y-86922780D02*
X141128447Y-87922780D01*
X141318923Y-87208495D01*
X141509400Y-87922780D01*
X141747495Y-86922780D01*
X142699876Y-87922780D02*
X142366542Y-87446590D01*
X142128447Y-87922780D02*
X142128447Y-86922780D01*
X142509400Y-86922780D01*
X142604638Y-86970400D01*
X142652257Y-87018019D01*
X142699876Y-87113257D01*
X142699876Y-87256114D01*
X142652257Y-87351352D01*
X142604638Y-87398971D01*
X142509400Y-87446590D01*
X142128447Y-87446590D01*
X143318923Y-86922780D02*
X143509400Y-86922780D01*
X143604638Y-86970400D01*
X143699876Y-87065638D01*
X143747495Y-87256114D01*
X143747495Y-87589447D01*
X143699876Y-87779923D01*
X143604638Y-87875161D01*
X143509400Y-87922780D01*
X143318923Y-87922780D01*
X143223685Y-87875161D01*
X143128447Y-87779923D01*
X143080828Y-87589447D01*
X143080828Y-87256114D01*
X143128447Y-87065638D01*
X143223685Y-86970400D01*
X143318923Y-86922780D01*
X144366542Y-86922780D02*
X144557019Y-86922780D01*
X144652257Y-86970400D01*
X144747495Y-87065638D01*
X144795114Y-87256114D01*
X144795114Y-87589447D01*
X144747495Y-87779923D01*
X144652257Y-87875161D01*
X144557019Y-87922780D01*
X144366542Y-87922780D01*
X144271304Y-87875161D01*
X144176066Y-87779923D01*
X144128447Y-87589447D01*
X144128447Y-87256114D01*
X144176066Y-87065638D01*
X144271304Y-86970400D01*
X144366542Y-86922780D01*
X145223685Y-87922780D02*
X145223685Y-86922780D01*
X145557019Y-87637066D01*
X145890352Y-86922780D01*
X145890352Y-87922780D01*
X146366542Y-87541828D02*
X147128447Y-87541828D01*
X147509399Y-86922780D02*
X148128447Y-86922780D01*
X147795114Y-87303733D01*
X147937971Y-87303733D01*
X148033209Y-87351352D01*
X148080828Y-87398971D01*
X148128447Y-87494209D01*
X148128447Y-87732304D01*
X148080828Y-87827542D01*
X148033209Y-87875161D01*
X147937971Y-87922780D01*
X147652257Y-87922780D01*
X147557019Y-87875161D01*
X147509399Y-87827542D01*
X148509399Y-87018019D02*
X148557019Y-86970400D01*
X148652257Y-86922780D01*
X148890352Y-86922780D01*
X148985590Y-86970400D01*
X149033209Y-87018019D01*
X149080828Y-87113257D01*
X149080828Y-87208495D01*
X149033209Y-87351352D01*
X148461780Y-87922780D01*
X149080828Y-87922780D01*
X149509399Y-87922780D02*
X149509399Y-86922780D01*
X149747495Y-86922780D01*
X149890352Y-86970400D01*
X149985590Y-87065638D01*
X150033209Y-87160876D01*
X150080828Y-87351352D01*
X150080828Y-87494209D01*
X150033209Y-87684685D01*
X149985590Y-87779923D01*
X149890352Y-87875161D01*
X149747495Y-87922780D01*
X149509399Y-87922780D01*
M02*
