M48
; DRILL file {KiCad 5.1.5+dfsg1-2build2} date Mon 12 Apr 2021 07:14:14
; FORMAT={-:-/ absolute / inch / decimal}
; #@! TF.CreationDate,2021-04-12T07:14:14+01:00
; #@! TF.GenerationSoftware,Kicad,Pcbnew,5.1.5+dfsg1-2build2
; #@! TF.FileFunction,Plated,1,2,PTH
FMAT,2
INCH
T1C0.0157
T2C0.0315
T3C0.0354
T4C0.0394
T5C0.0433
T6C0.0510
T7C0.1181
%
G90
G05
T1
X3.6151Y-4.8575
X4.0596Y-4.8575
X4.4956Y-4.857
X4.7056Y-3.415
X5.1641Y-4.8565
X5.3686Y-2.966
X5.4331Y-2.8135
X5.6041Y-4.8585
X6.0481Y-4.858
X6.0516Y-3.316
X6.0816Y-2.666
X6.2466Y-3.316
X6.4811Y-4.861
X7.1611Y-4.857
X7.6036Y-4.8575
X7.7851Y-4.4015
T2
X6.122Y-4.1474
X6.122Y-4.2474
X6.122Y-4.3474
X6.122Y-4.4474
X6.122Y-4.5474
X6.122Y-4.6474
X6.122Y-4.7474
X6.422Y-4.1474
X6.422Y-4.2474
X6.422Y-4.3474
X6.422Y-4.4474
X6.422Y-4.5474
X6.422Y-4.6474
X6.422Y-4.7474
X3.6909Y-3.5433
X3.6909Y-3.6433
X3.6909Y-3.7433
X3.6909Y-3.8433
X3.6909Y-3.9433
X3.6909Y-4.0433
X3.6909Y-4.1433
X3.9909Y-3.5433
X3.9909Y-3.6433
X3.9909Y-3.7433
X3.9909Y-3.8433
X3.9909Y-3.9433
X3.9909Y-4.0433
X3.9909Y-4.1433
X4.6274Y-2.8875
X4.7061Y-2.8875
X6.7913Y-3.5433
X6.7913Y-3.6433
X6.7913Y-3.7433
X6.7913Y-3.8433
X6.7913Y-3.9433
X6.7913Y-4.0433
X6.7913Y-4.1433
X7.0913Y-3.5433
X7.0913Y-3.6433
X7.0913Y-3.7433
X7.0913Y-3.8433
X7.0913Y-3.9433
X7.0913Y-4.0433
X7.0913Y-4.1433
X7.2343Y-3.5433
X7.2343Y-3.6433
X7.2343Y-3.7433
X7.2343Y-3.8433
X7.2343Y-3.9433
X7.2343Y-4.0433
X7.2343Y-4.1433
X7.5343Y-3.5433
X7.5343Y-3.6433
X7.5343Y-3.7433
X7.5343Y-3.8433
X7.5343Y-3.9433
X7.5343Y-4.0433
X7.5343Y-4.1433
X3.8091Y-3.1496
X3.8091Y-3.2283
X3.248Y-3.5433
X3.248Y-3.6433
X3.248Y-3.7433
X3.248Y-3.8433
X3.248Y-3.9433
X3.248Y-4.0433
X3.248Y-4.1433
X3.548Y-3.5433
X3.548Y-3.6433
X3.548Y-3.7433
X3.548Y-3.8433
X3.548Y-3.9433
X3.548Y-4.0433
X3.548Y-4.1433
X4.1339Y-3.5433
X4.1339Y-3.6433
X4.1339Y-3.7433
X4.1339Y-3.8433
X4.1339Y-3.9433
X4.1339Y-4.0433
X4.1339Y-4.1433
X4.4339Y-3.5433
X4.4339Y-3.6433
X4.4339Y-3.7433
X4.4339Y-3.8433
X4.4339Y-3.9433
X4.4339Y-4.0433
X4.4339Y-4.1433
X5.6791Y-4.1474
X5.6791Y-4.2474
X5.6791Y-4.3474
X5.6791Y-4.4474
X5.6791Y-4.5474
X5.6791Y-4.6474
X5.6791Y-4.7474
X5.9791Y-4.1474
X5.9791Y-4.2474
X5.9791Y-4.3474
X5.9791Y-4.4474
X5.9791Y-4.5474
X5.9791Y-4.6474
X5.9791Y-4.7474
X5.2362Y-4.1474
X5.2362Y-4.2474
X5.2362Y-4.3474
X5.2362Y-4.4474
X5.2362Y-4.5474
X5.2362Y-4.6474
X5.2362Y-4.7474
X5.5362Y-4.1474
X5.5362Y-4.2474
X5.5362Y-4.3474
X5.5362Y-4.4474
X5.5362Y-4.5474
X5.5362Y-4.6474
X5.5362Y-4.7474
X4.7933Y-4.1474
X4.7933Y-4.2474
X4.7933Y-4.3474
X4.7933Y-4.4474
X4.7933Y-4.5474
X4.7933Y-4.6474
X4.7933Y-4.7474
X5.0933Y-4.1474
X5.0933Y-4.2474
X5.0933Y-4.3474
X5.0933Y-4.4474
X5.0933Y-4.5474
X5.0933Y-4.6474
X5.0933Y-4.7474
X7.6772Y-3.5433
X7.6772Y-3.6433
X7.6772Y-3.7433
X7.6772Y-3.8433
X7.6772Y-3.9433
X7.6772Y-4.0433
X7.6772Y-4.1433
X7.9772Y-3.5433
X7.9772Y-3.6433
X7.9772Y-3.7433
X7.9772Y-3.8433
X7.9772Y-3.9433
X7.9772Y-4.0433
X7.9772Y-4.1433
T3
X6.2166Y-3.5905
X6.2166Y-3.6905
X7.8276Y-4.859
X7.8276Y-4.959
X3.8406Y-4.859
X3.8406Y-4.959
X7.3841Y-4.859
X7.3841Y-4.959
X6.2716Y-4.859
X6.2716Y-4.959
X5.3856Y-4.859
X5.3856Y-4.959
X4.2846Y-4.859
X4.2846Y-4.959
X5.8296Y-4.859
X5.8296Y-4.959
X6.9416Y-4.859
X6.9416Y-4.959
X4.9436Y-4.859
X4.9436Y-4.959
X3.3976Y-4.859
X3.3976Y-4.959
T4
X6.4711Y-3.591
X6.4711Y-3.691
X6.4696Y-2.925
X6.4696Y-3.025
X6.4696Y-3.125
X6.4696Y-3.225
X6.4696Y-3.325
T5
X7.5876Y-2.555
X7.5876Y-2.7321
X7.8435Y-2.555
X7.8435Y-2.7321
X7.0916Y-2.555
X7.0916Y-2.7321
X7.3475Y-2.555
X7.3475Y-2.7321
X4.0945Y-3.1496
X4.1945Y-3.1496
X4.2945Y-3.1496
T6
X3.3081Y-2.4585
X3.3081Y-2.5585
X3.3081Y-2.6585
X3.3081Y-2.7585
X3.6909Y-5.1476
X3.7909Y-5.1476
X3.8909Y-5.1476
X3.9909Y-5.1476
X7.2343Y-5.1476
X7.3343Y-5.1476
X7.4343Y-5.1476
X7.5343Y-5.1476
X4.7933Y-5.1476
X4.8933Y-5.1476
X4.9933Y-5.1476
X5.0933Y-5.1476
X5.6791Y-5.1476
X5.7791Y-5.1476
X5.8791Y-5.1476
X5.9791Y-5.1476
X4.1339Y-5.1476
X4.2339Y-5.1476
X4.3339Y-5.1476
X4.4339Y-5.1476
X6.122Y-5.1476
X6.222Y-5.1476
X6.322Y-5.1476
X6.422Y-5.1476
X5.2362Y-5.1476
X5.3362Y-5.1476
X5.4362Y-5.1476
X5.5362Y-5.1476
X6.7913Y-5.1476
X6.8913Y-5.1476
X6.9913Y-5.1476
X7.0913Y-5.1476
X7.6772Y-5.1476
X7.7772Y-5.1476
X7.8772Y-5.1476
X7.9772Y-5.1476
X3.248Y-5.1476
X3.348Y-5.1476
X3.448Y-5.1476
X3.548Y-5.1476
T7
X5.5711Y-2.959
T0
M30
