G04 #@! TF.GenerationSoftware,KiCad,Pcbnew,5.1.5+dfsg1-2build2*
G04 #@! TF.CreationDate,2021-04-12T07:14:12+01:00*
G04 #@! TF.ProjectId,alarm_sensors,616c6172-6d5f-4736-956e-736f72732e6b,rev?*
G04 #@! TF.SameCoordinates,Original*
G04 #@! TF.FileFunction,Soldermask,Bot*
G04 #@! TF.FilePolarity,Negative*
%FSLAX46Y46*%
G04 Gerber Fmt 4.6, Leading zero omitted, Abs format (unit mm)*
G04 Created by KiCad (PCBNEW 5.1.5+dfsg1-2build2) date 2021-04-12 07:14:12*
%MOMM*%
%LPD*%
G04 APERTURE LIST*
%ADD10C,0.100000*%
G04 APERTURE END LIST*
D10*
G36*
X200357892Y-129833911D02*
G01*
X200531273Y-129905728D01*
X200687311Y-130009989D01*
X200820011Y-130142689D01*
X200924272Y-130298727D01*
X200996089Y-130472108D01*
X201032700Y-130656167D01*
X201032700Y-130843833D01*
X200996089Y-131027892D01*
X200924272Y-131201273D01*
X200820011Y-131357311D01*
X200687311Y-131490011D01*
X200531273Y-131594272D01*
X200531272Y-131594273D01*
X200531271Y-131594273D01*
X200357892Y-131666089D01*
X200173834Y-131702700D01*
X199986166Y-131702700D01*
X199802108Y-131666089D01*
X199628729Y-131594273D01*
X199628728Y-131594273D01*
X199628727Y-131594272D01*
X199472689Y-131490011D01*
X199339989Y-131357311D01*
X199235728Y-131201273D01*
X199163911Y-131027892D01*
X199127300Y-130843833D01*
X199127300Y-130656167D01*
X199163911Y-130472108D01*
X199235728Y-130298727D01*
X199339989Y-130142689D01*
X199472689Y-130009989D01*
X199628727Y-129905728D01*
X199802108Y-129833911D01*
X199986166Y-129797300D01*
X200173834Y-129797300D01*
X200357892Y-129833911D01*
G37*
G36*
X135817892Y-129833911D02*
G01*
X135991273Y-129905728D01*
X136147311Y-130009989D01*
X136280011Y-130142689D01*
X136384272Y-130298727D01*
X136456089Y-130472108D01*
X136492700Y-130656167D01*
X136492700Y-130843833D01*
X136456089Y-131027892D01*
X136384272Y-131201273D01*
X136280011Y-131357311D01*
X136147311Y-131490011D01*
X135991273Y-131594272D01*
X135991272Y-131594273D01*
X135991271Y-131594273D01*
X135817892Y-131666089D01*
X135633834Y-131702700D01*
X135446166Y-131702700D01*
X135262108Y-131666089D01*
X135088729Y-131594273D01*
X135088728Y-131594273D01*
X135088727Y-131594272D01*
X134932689Y-131490011D01*
X134799989Y-131357311D01*
X134695728Y-131201273D01*
X134623911Y-131027892D01*
X134587300Y-130843833D01*
X134587300Y-130656167D01*
X134623911Y-130472108D01*
X134695728Y-130298727D01*
X134799989Y-130142689D01*
X134932689Y-130009989D01*
X135088727Y-129905728D01*
X135262108Y-129833911D01*
X135446166Y-129797300D01*
X135633834Y-129797300D01*
X135817892Y-129833911D01*
G37*
G36*
X144527892Y-129833911D02*
G01*
X144701273Y-129905728D01*
X144857311Y-130009989D01*
X144990011Y-130142689D01*
X145094272Y-130298727D01*
X145166089Y-130472108D01*
X145202700Y-130656167D01*
X145202700Y-130843833D01*
X145166089Y-131027892D01*
X145094272Y-131201273D01*
X144990011Y-131357311D01*
X144857311Y-131490011D01*
X144701273Y-131594272D01*
X144701272Y-131594273D01*
X144701271Y-131594273D01*
X144527892Y-131666089D01*
X144343834Y-131702700D01*
X144156166Y-131702700D01*
X143972108Y-131666089D01*
X143798729Y-131594273D01*
X143798728Y-131594273D01*
X143798727Y-131594272D01*
X143642689Y-131490011D01*
X143509989Y-131357311D01*
X143405728Y-131201273D01*
X143333911Y-131027892D01*
X143297300Y-130843833D01*
X143297300Y-130656167D01*
X143333911Y-130472108D01*
X143405728Y-130298727D01*
X143509989Y-130142689D01*
X143642689Y-130009989D01*
X143798727Y-129905728D01*
X143972108Y-129833911D01*
X144156166Y-129797300D01*
X144343834Y-129797300D01*
X144527892Y-129833911D01*
G37*
G36*
X147067892Y-129833911D02*
G01*
X147241273Y-129905728D01*
X147397311Y-130009989D01*
X147530011Y-130142689D01*
X147634272Y-130298727D01*
X147706089Y-130472108D01*
X147742700Y-130656167D01*
X147742700Y-130843833D01*
X147706089Y-131027892D01*
X147634272Y-131201273D01*
X147530011Y-131357311D01*
X147397311Y-131490011D01*
X147241273Y-131594272D01*
X147241272Y-131594273D01*
X147241271Y-131594273D01*
X147067892Y-131666089D01*
X146883834Y-131702700D01*
X146696166Y-131702700D01*
X146512108Y-131666089D01*
X146338729Y-131594273D01*
X146338728Y-131594273D01*
X146338727Y-131594272D01*
X146182689Y-131490011D01*
X146049989Y-131357311D01*
X145945728Y-131201273D01*
X145873911Y-131027892D01*
X145837300Y-130843833D01*
X145837300Y-130656167D01*
X145873911Y-130472108D01*
X145945728Y-130298727D01*
X146049989Y-130142689D01*
X146182689Y-130009989D01*
X146338727Y-129905728D01*
X146512108Y-129833911D01*
X146696166Y-129797300D01*
X146883834Y-129797300D01*
X147067892Y-129833911D01*
G37*
G36*
X149607892Y-129833911D02*
G01*
X149781273Y-129905728D01*
X149937311Y-130009989D01*
X150070011Y-130142689D01*
X150174272Y-130298727D01*
X150246089Y-130472108D01*
X150282700Y-130656167D01*
X150282700Y-130843833D01*
X150246089Y-131027892D01*
X150174272Y-131201273D01*
X150070011Y-131357311D01*
X149937311Y-131490011D01*
X149781273Y-131594272D01*
X149781272Y-131594273D01*
X149781271Y-131594273D01*
X149607892Y-131666089D01*
X149423834Y-131702700D01*
X149236166Y-131702700D01*
X149052108Y-131666089D01*
X148878729Y-131594273D01*
X148878728Y-131594273D01*
X148878727Y-131594272D01*
X148722689Y-131490011D01*
X148589989Y-131357311D01*
X148485728Y-131201273D01*
X148413911Y-131027892D01*
X148377300Y-130843833D01*
X148377300Y-130656167D01*
X148413911Y-130472108D01*
X148485728Y-130298727D01*
X148589989Y-130142689D01*
X148722689Y-130009989D01*
X148878727Y-129905728D01*
X149052108Y-129833911D01*
X149236166Y-129797300D01*
X149423834Y-129797300D01*
X149607892Y-129833911D01*
G37*
G36*
X152147892Y-129833911D02*
G01*
X152321273Y-129905728D01*
X152477311Y-130009989D01*
X152610011Y-130142689D01*
X152714272Y-130298727D01*
X152786089Y-130472108D01*
X152822700Y-130656167D01*
X152822700Y-130843833D01*
X152786089Y-131027892D01*
X152714272Y-131201273D01*
X152610011Y-131357311D01*
X152477311Y-131490011D01*
X152321273Y-131594272D01*
X152321272Y-131594273D01*
X152321271Y-131594273D01*
X152147892Y-131666089D01*
X151963834Y-131702700D01*
X151776166Y-131702700D01*
X151592108Y-131666089D01*
X151418729Y-131594273D01*
X151418728Y-131594273D01*
X151418727Y-131594272D01*
X151262689Y-131490011D01*
X151129989Y-131357311D01*
X151025728Y-131201273D01*
X150953911Y-131027892D01*
X150917300Y-130843833D01*
X150917300Y-130656167D01*
X150953911Y-130472108D01*
X151025728Y-130298727D01*
X151129989Y-130142689D01*
X151262689Y-130009989D01*
X151418727Y-129905728D01*
X151592108Y-129833911D01*
X151776166Y-129797300D01*
X151963834Y-129797300D01*
X152147892Y-129833911D01*
G37*
G36*
X112897892Y-129833911D02*
G01*
X113071273Y-129905728D01*
X113227311Y-130009989D01*
X113360011Y-130142689D01*
X113464272Y-130298727D01*
X113536089Y-130472108D01*
X113572700Y-130656167D01*
X113572700Y-130843833D01*
X113536089Y-131027892D01*
X113464272Y-131201273D01*
X113360011Y-131357311D01*
X113227311Y-131490011D01*
X113071273Y-131594272D01*
X113071272Y-131594273D01*
X113071271Y-131594273D01*
X112897892Y-131666089D01*
X112713834Y-131702700D01*
X112526166Y-131702700D01*
X112342108Y-131666089D01*
X112168729Y-131594273D01*
X112168728Y-131594273D01*
X112168727Y-131594272D01*
X112012689Y-131490011D01*
X111879989Y-131357311D01*
X111775728Y-131201273D01*
X111703911Y-131027892D01*
X111667300Y-130843833D01*
X111667300Y-130656167D01*
X111703911Y-130472108D01*
X111775728Y-130298727D01*
X111879989Y-130142689D01*
X112012689Y-130009989D01*
X112168727Y-129905728D01*
X112342108Y-129833911D01*
X112526166Y-129797300D01*
X112713834Y-129797300D01*
X112897892Y-129833911D01*
G37*
G36*
X110357892Y-129833911D02*
G01*
X110531273Y-129905728D01*
X110687311Y-130009989D01*
X110820011Y-130142689D01*
X110924272Y-130298727D01*
X110996089Y-130472108D01*
X111032700Y-130656167D01*
X111032700Y-130843833D01*
X110996089Y-131027892D01*
X110924272Y-131201273D01*
X110820011Y-131357311D01*
X110687311Y-131490011D01*
X110531273Y-131594272D01*
X110531272Y-131594273D01*
X110531271Y-131594273D01*
X110357892Y-131666089D01*
X110173834Y-131702700D01*
X109986166Y-131702700D01*
X109802108Y-131666089D01*
X109628729Y-131594273D01*
X109628728Y-131594273D01*
X109628727Y-131594272D01*
X109472689Y-131490011D01*
X109339989Y-131357311D01*
X109235728Y-131201273D01*
X109163911Y-131027892D01*
X109127300Y-130843833D01*
X109127300Y-130656167D01*
X109163911Y-130472108D01*
X109235728Y-130298727D01*
X109339989Y-130142689D01*
X109472689Y-130009989D01*
X109628727Y-129905728D01*
X109802108Y-129833911D01*
X109986166Y-129797300D01*
X110173834Y-129797300D01*
X110357892Y-129833911D01*
G37*
G36*
X107817892Y-129833911D02*
G01*
X107991273Y-129905728D01*
X108147311Y-130009989D01*
X108280011Y-130142689D01*
X108384272Y-130298727D01*
X108456089Y-130472108D01*
X108492700Y-130656167D01*
X108492700Y-130843833D01*
X108456089Y-131027892D01*
X108384272Y-131201273D01*
X108280011Y-131357311D01*
X108147311Y-131490011D01*
X107991273Y-131594272D01*
X107991272Y-131594273D01*
X107991271Y-131594273D01*
X107817892Y-131666089D01*
X107633834Y-131702700D01*
X107446166Y-131702700D01*
X107262108Y-131666089D01*
X107088729Y-131594273D01*
X107088728Y-131594273D01*
X107088727Y-131594272D01*
X106932689Y-131490011D01*
X106799989Y-131357311D01*
X106695728Y-131201273D01*
X106623911Y-131027892D01*
X106587300Y-130843833D01*
X106587300Y-130656167D01*
X106623911Y-130472108D01*
X106695728Y-130298727D01*
X106799989Y-130142689D01*
X106932689Y-130009989D01*
X107088727Y-129905728D01*
X107262108Y-129833911D01*
X107446166Y-129797300D01*
X107633834Y-129797300D01*
X107817892Y-129833911D01*
G37*
G36*
X105277892Y-129833911D02*
G01*
X105451273Y-129905728D01*
X105607311Y-130009989D01*
X105740011Y-130142689D01*
X105844272Y-130298727D01*
X105916089Y-130472108D01*
X105952700Y-130656167D01*
X105952700Y-130843833D01*
X105916089Y-131027892D01*
X105844272Y-131201273D01*
X105740011Y-131357311D01*
X105607311Y-131490011D01*
X105451273Y-131594272D01*
X105451272Y-131594273D01*
X105451271Y-131594273D01*
X105277892Y-131666089D01*
X105093834Y-131702700D01*
X104906166Y-131702700D01*
X104722108Y-131666089D01*
X104548729Y-131594273D01*
X104548728Y-131594273D01*
X104548727Y-131594272D01*
X104392689Y-131490011D01*
X104259989Y-131357311D01*
X104155728Y-131201273D01*
X104083911Y-131027892D01*
X104047300Y-130843833D01*
X104047300Y-130656167D01*
X104083911Y-130472108D01*
X104155728Y-130298727D01*
X104259989Y-130142689D01*
X104392689Y-130009989D01*
X104548727Y-129905728D01*
X104722108Y-129833911D01*
X104906166Y-129797300D01*
X105093834Y-129797300D01*
X105277892Y-129833911D01*
G37*
G36*
X133277892Y-129833911D02*
G01*
X133451273Y-129905728D01*
X133607311Y-130009989D01*
X133740011Y-130142689D01*
X133844272Y-130298727D01*
X133916089Y-130472108D01*
X133952700Y-130656167D01*
X133952700Y-130843833D01*
X133916089Y-131027892D01*
X133844272Y-131201273D01*
X133740011Y-131357311D01*
X133607311Y-131490011D01*
X133451273Y-131594272D01*
X133451272Y-131594273D01*
X133451271Y-131594273D01*
X133277892Y-131666089D01*
X133093834Y-131702700D01*
X132906166Y-131702700D01*
X132722108Y-131666089D01*
X132548729Y-131594273D01*
X132548728Y-131594273D01*
X132548727Y-131594272D01*
X132392689Y-131490011D01*
X132259989Y-131357311D01*
X132155728Y-131201273D01*
X132083911Y-131027892D01*
X132047300Y-130843833D01*
X132047300Y-130656167D01*
X132083911Y-130472108D01*
X132155728Y-130298727D01*
X132259989Y-130142689D01*
X132392689Y-130009989D01*
X132548727Y-129905728D01*
X132722108Y-129833911D01*
X132906166Y-129797300D01*
X133093834Y-129797300D01*
X133277892Y-129833911D01*
G37*
G36*
X155777892Y-129833911D02*
G01*
X155951273Y-129905728D01*
X156107311Y-130009989D01*
X156240011Y-130142689D01*
X156344272Y-130298727D01*
X156416089Y-130472108D01*
X156452700Y-130656167D01*
X156452700Y-130843833D01*
X156416089Y-131027892D01*
X156344272Y-131201273D01*
X156240011Y-131357311D01*
X156107311Y-131490011D01*
X155951273Y-131594272D01*
X155951272Y-131594273D01*
X155951271Y-131594273D01*
X155777892Y-131666089D01*
X155593834Y-131702700D01*
X155406166Y-131702700D01*
X155222108Y-131666089D01*
X155048729Y-131594273D01*
X155048728Y-131594273D01*
X155048727Y-131594272D01*
X154892689Y-131490011D01*
X154759989Y-131357311D01*
X154655728Y-131201273D01*
X154583911Y-131027892D01*
X154547300Y-130843833D01*
X154547300Y-130656167D01*
X154583911Y-130472108D01*
X154655728Y-130298727D01*
X154759989Y-130142689D01*
X154892689Y-130009989D01*
X155048727Y-129905728D01*
X155222108Y-129833911D01*
X155406166Y-129797300D01*
X155593834Y-129797300D01*
X155777892Y-129833911D01*
G37*
G36*
X138357892Y-129833911D02*
G01*
X138531273Y-129905728D01*
X138687311Y-130009989D01*
X138820011Y-130142689D01*
X138924272Y-130298727D01*
X138996089Y-130472108D01*
X139032700Y-130656167D01*
X139032700Y-130843833D01*
X138996089Y-131027892D01*
X138924272Y-131201273D01*
X138820011Y-131357311D01*
X138687311Y-131490011D01*
X138531273Y-131594272D01*
X138531272Y-131594273D01*
X138531271Y-131594273D01*
X138357892Y-131666089D01*
X138173834Y-131702700D01*
X137986166Y-131702700D01*
X137802108Y-131666089D01*
X137628729Y-131594273D01*
X137628728Y-131594273D01*
X137628727Y-131594272D01*
X137472689Y-131490011D01*
X137339989Y-131357311D01*
X137235728Y-131201273D01*
X137163911Y-131027892D01*
X137127300Y-130843833D01*
X137127300Y-130656167D01*
X137163911Y-130472108D01*
X137235728Y-130298727D01*
X137339989Y-130142689D01*
X137472689Y-130009989D01*
X137628727Y-129905728D01*
X137802108Y-129833911D01*
X137986166Y-129797300D01*
X138173834Y-129797300D01*
X138357892Y-129833911D01*
G37*
G36*
X140897892Y-129833911D02*
G01*
X141071273Y-129905728D01*
X141227311Y-130009989D01*
X141360011Y-130142689D01*
X141464272Y-130298727D01*
X141536089Y-130472108D01*
X141572700Y-130656167D01*
X141572700Y-130843833D01*
X141536089Y-131027892D01*
X141464272Y-131201273D01*
X141360011Y-131357311D01*
X141227311Y-131490011D01*
X141071273Y-131594272D01*
X141071272Y-131594273D01*
X141071271Y-131594273D01*
X140897892Y-131666089D01*
X140713834Y-131702700D01*
X140526166Y-131702700D01*
X140342108Y-131666089D01*
X140168729Y-131594273D01*
X140168728Y-131594273D01*
X140168727Y-131594272D01*
X140012689Y-131490011D01*
X139879989Y-131357311D01*
X139775728Y-131201273D01*
X139703911Y-131027892D01*
X139667300Y-130843833D01*
X139667300Y-130656167D01*
X139703911Y-130472108D01*
X139775728Y-130298727D01*
X139879989Y-130142689D01*
X140012689Y-130009989D01*
X140168727Y-129905728D01*
X140342108Y-129833911D01*
X140526166Y-129797300D01*
X140713834Y-129797300D01*
X140897892Y-129833911D01*
G37*
G36*
X191647892Y-129833911D02*
G01*
X191821273Y-129905728D01*
X191977311Y-130009989D01*
X192110011Y-130142689D01*
X192214272Y-130298727D01*
X192286089Y-130472108D01*
X192322700Y-130656167D01*
X192322700Y-130843833D01*
X192286089Y-131027892D01*
X192214272Y-131201273D01*
X192110011Y-131357311D01*
X191977311Y-131490011D01*
X191821273Y-131594272D01*
X191821272Y-131594273D01*
X191821271Y-131594273D01*
X191647892Y-131666089D01*
X191463834Y-131702700D01*
X191276166Y-131702700D01*
X191092108Y-131666089D01*
X190918729Y-131594273D01*
X190918728Y-131594273D01*
X190918727Y-131594272D01*
X190762689Y-131490011D01*
X190629989Y-131357311D01*
X190525728Y-131201273D01*
X190453911Y-131027892D01*
X190417300Y-130843833D01*
X190417300Y-130656167D01*
X190453911Y-130472108D01*
X190525728Y-130298727D01*
X190629989Y-130142689D01*
X190762689Y-130009989D01*
X190918727Y-129905728D01*
X191092108Y-129833911D01*
X191276166Y-129797300D01*
X191463834Y-129797300D01*
X191647892Y-129833911D01*
G37*
G36*
X189107892Y-129833911D02*
G01*
X189281273Y-129905728D01*
X189437311Y-130009989D01*
X189570011Y-130142689D01*
X189674272Y-130298727D01*
X189746089Y-130472108D01*
X189782700Y-130656167D01*
X189782700Y-130843833D01*
X189746089Y-131027892D01*
X189674272Y-131201273D01*
X189570011Y-131357311D01*
X189437311Y-131490011D01*
X189281273Y-131594272D01*
X189281272Y-131594273D01*
X189281271Y-131594273D01*
X189107892Y-131666089D01*
X188923834Y-131702700D01*
X188736166Y-131702700D01*
X188552108Y-131666089D01*
X188378729Y-131594273D01*
X188378728Y-131594273D01*
X188378727Y-131594272D01*
X188222689Y-131490011D01*
X188089989Y-131357311D01*
X187985728Y-131201273D01*
X187913911Y-131027892D01*
X187877300Y-130843833D01*
X187877300Y-130656167D01*
X187913911Y-130472108D01*
X187985728Y-130298727D01*
X188089989Y-130142689D01*
X188222689Y-130009989D01*
X188378727Y-129905728D01*
X188552108Y-129833911D01*
X188736166Y-129797300D01*
X188923834Y-129797300D01*
X189107892Y-129833911D01*
G37*
G36*
X186567892Y-129833911D02*
G01*
X186741273Y-129905728D01*
X186897311Y-130009989D01*
X187030011Y-130142689D01*
X187134272Y-130298727D01*
X187206089Y-130472108D01*
X187242700Y-130656167D01*
X187242700Y-130843833D01*
X187206089Y-131027892D01*
X187134272Y-131201273D01*
X187030011Y-131357311D01*
X186897311Y-131490011D01*
X186741273Y-131594272D01*
X186741272Y-131594273D01*
X186741271Y-131594273D01*
X186567892Y-131666089D01*
X186383834Y-131702700D01*
X186196166Y-131702700D01*
X186012108Y-131666089D01*
X185838729Y-131594273D01*
X185838728Y-131594273D01*
X185838727Y-131594272D01*
X185682689Y-131490011D01*
X185549989Y-131357311D01*
X185445728Y-131201273D01*
X185373911Y-131027892D01*
X185337300Y-130843833D01*
X185337300Y-130656167D01*
X185373911Y-130472108D01*
X185445728Y-130298727D01*
X185549989Y-130142689D01*
X185682689Y-130009989D01*
X185838727Y-129905728D01*
X186012108Y-129833911D01*
X186196166Y-129797300D01*
X186383834Y-129797300D01*
X186567892Y-129833911D01*
G37*
G36*
X184027892Y-129833911D02*
G01*
X184201273Y-129905728D01*
X184357311Y-130009989D01*
X184490011Y-130142689D01*
X184594272Y-130298727D01*
X184666089Y-130472108D01*
X184702700Y-130656167D01*
X184702700Y-130843833D01*
X184666089Y-131027892D01*
X184594272Y-131201273D01*
X184490011Y-131357311D01*
X184357311Y-131490011D01*
X184201273Y-131594272D01*
X184201272Y-131594273D01*
X184201271Y-131594273D01*
X184027892Y-131666089D01*
X183843834Y-131702700D01*
X183656166Y-131702700D01*
X183472108Y-131666089D01*
X183298729Y-131594273D01*
X183298728Y-131594273D01*
X183298727Y-131594272D01*
X183142689Y-131490011D01*
X183009989Y-131357311D01*
X182905728Y-131201273D01*
X182833911Y-131027892D01*
X182797300Y-130843833D01*
X182797300Y-130656167D01*
X182833911Y-130472108D01*
X182905728Y-130298727D01*
X183009989Y-130142689D01*
X183142689Y-130009989D01*
X183298727Y-129905728D01*
X183472108Y-129833911D01*
X183656166Y-129797300D01*
X183843834Y-129797300D01*
X184027892Y-129833911D01*
G37*
G36*
X202897892Y-129833911D02*
G01*
X203071273Y-129905728D01*
X203227311Y-130009989D01*
X203360011Y-130142689D01*
X203464272Y-130298727D01*
X203536089Y-130472108D01*
X203572700Y-130656167D01*
X203572700Y-130843833D01*
X203536089Y-131027892D01*
X203464272Y-131201273D01*
X203360011Y-131357311D01*
X203227311Y-131490011D01*
X203071273Y-131594272D01*
X203071272Y-131594273D01*
X203071271Y-131594273D01*
X202897892Y-131666089D01*
X202713834Y-131702700D01*
X202526166Y-131702700D01*
X202342108Y-131666089D01*
X202168729Y-131594273D01*
X202168728Y-131594273D01*
X202168727Y-131594272D01*
X202012689Y-131490011D01*
X201879989Y-131357311D01*
X201775728Y-131201273D01*
X201703911Y-131027892D01*
X201667300Y-130843833D01*
X201667300Y-130656167D01*
X201703911Y-130472108D01*
X201775728Y-130298727D01*
X201879989Y-130142689D01*
X202012689Y-130009989D01*
X202168727Y-129905728D01*
X202342108Y-129833911D01*
X202526166Y-129797300D01*
X202713834Y-129797300D01*
X202897892Y-129833911D01*
G37*
G36*
X197817892Y-129833911D02*
G01*
X197991273Y-129905728D01*
X198147311Y-130009989D01*
X198280011Y-130142689D01*
X198384272Y-130298727D01*
X198456089Y-130472108D01*
X198492700Y-130656167D01*
X198492700Y-130843833D01*
X198456089Y-131027892D01*
X198384272Y-131201273D01*
X198280011Y-131357311D01*
X198147311Y-131490011D01*
X197991273Y-131594272D01*
X197991272Y-131594273D01*
X197991271Y-131594273D01*
X197817892Y-131666089D01*
X197633834Y-131702700D01*
X197446166Y-131702700D01*
X197262108Y-131666089D01*
X197088729Y-131594273D01*
X197088728Y-131594273D01*
X197088727Y-131594272D01*
X196932689Y-131490011D01*
X196799989Y-131357311D01*
X196695728Y-131201273D01*
X196623911Y-131027892D01*
X196587300Y-130843833D01*
X196587300Y-130656167D01*
X196623911Y-130472108D01*
X196695728Y-130298727D01*
X196799989Y-130142689D01*
X196932689Y-130009989D01*
X197088727Y-129905728D01*
X197262108Y-129833911D01*
X197446166Y-129797300D01*
X197633834Y-129797300D01*
X197817892Y-129833911D01*
G37*
G36*
X85317892Y-129833911D02*
G01*
X85491273Y-129905728D01*
X85647311Y-130009989D01*
X85780011Y-130142689D01*
X85884272Y-130298727D01*
X85956089Y-130472108D01*
X85992700Y-130656167D01*
X85992700Y-130843833D01*
X85956089Y-131027892D01*
X85884272Y-131201273D01*
X85780011Y-131357311D01*
X85647311Y-131490011D01*
X85491273Y-131594272D01*
X85491272Y-131594273D01*
X85491271Y-131594273D01*
X85317892Y-131666089D01*
X85133834Y-131702700D01*
X84946166Y-131702700D01*
X84762108Y-131666089D01*
X84588729Y-131594273D01*
X84588728Y-131594273D01*
X84588727Y-131594272D01*
X84432689Y-131490011D01*
X84299989Y-131357311D01*
X84195728Y-131201273D01*
X84123911Y-131027892D01*
X84087300Y-130843833D01*
X84087300Y-130656167D01*
X84123911Y-130472108D01*
X84195728Y-130298727D01*
X84299989Y-130142689D01*
X84432689Y-130009989D01*
X84588727Y-129905728D01*
X84762108Y-129833911D01*
X84946166Y-129797300D01*
X85133834Y-129797300D01*
X85317892Y-129833911D01*
G37*
G36*
X175317892Y-129833911D02*
G01*
X175491273Y-129905728D01*
X175647311Y-130009989D01*
X175780011Y-130142689D01*
X175884272Y-130298727D01*
X175956089Y-130472108D01*
X175992700Y-130656167D01*
X175992700Y-130843833D01*
X175956089Y-131027892D01*
X175884272Y-131201273D01*
X175780011Y-131357311D01*
X175647311Y-131490011D01*
X175491273Y-131594272D01*
X175491272Y-131594273D01*
X175491271Y-131594273D01*
X175317892Y-131666089D01*
X175133834Y-131702700D01*
X174946166Y-131702700D01*
X174762108Y-131666089D01*
X174588729Y-131594273D01*
X174588728Y-131594273D01*
X174588727Y-131594272D01*
X174432689Y-131490011D01*
X174299989Y-131357311D01*
X174195728Y-131201273D01*
X174123911Y-131027892D01*
X174087300Y-130843833D01*
X174087300Y-130656167D01*
X174123911Y-130472108D01*
X174195728Y-130298727D01*
X174299989Y-130142689D01*
X174432689Y-130009989D01*
X174588727Y-129905728D01*
X174762108Y-129833911D01*
X174946166Y-129797300D01*
X175133834Y-129797300D01*
X175317892Y-129833911D01*
G37*
G36*
X158317892Y-129833911D02*
G01*
X158491273Y-129905728D01*
X158647311Y-130009989D01*
X158780011Y-130142689D01*
X158884272Y-130298727D01*
X158956089Y-130472108D01*
X158992700Y-130656167D01*
X158992700Y-130843833D01*
X158956089Y-131027892D01*
X158884272Y-131201273D01*
X158780011Y-131357311D01*
X158647311Y-131490011D01*
X158491273Y-131594272D01*
X158491272Y-131594273D01*
X158491271Y-131594273D01*
X158317892Y-131666089D01*
X158133834Y-131702700D01*
X157946166Y-131702700D01*
X157762108Y-131666089D01*
X157588729Y-131594273D01*
X157588728Y-131594273D01*
X157588727Y-131594272D01*
X157432689Y-131490011D01*
X157299989Y-131357311D01*
X157195728Y-131201273D01*
X157123911Y-131027892D01*
X157087300Y-130843833D01*
X157087300Y-130656167D01*
X157123911Y-130472108D01*
X157195728Y-130298727D01*
X157299989Y-130142689D01*
X157432689Y-130009989D01*
X157588727Y-129905728D01*
X157762108Y-129833911D01*
X157946166Y-129797300D01*
X158133834Y-129797300D01*
X158317892Y-129833911D01*
G37*
G36*
X160857892Y-129833911D02*
G01*
X161031273Y-129905728D01*
X161187311Y-130009989D01*
X161320011Y-130142689D01*
X161424272Y-130298727D01*
X161496089Y-130472108D01*
X161532700Y-130656167D01*
X161532700Y-130843833D01*
X161496089Y-131027892D01*
X161424272Y-131201273D01*
X161320011Y-131357311D01*
X161187311Y-131490011D01*
X161031273Y-131594272D01*
X161031272Y-131594273D01*
X161031271Y-131594273D01*
X160857892Y-131666089D01*
X160673834Y-131702700D01*
X160486166Y-131702700D01*
X160302108Y-131666089D01*
X160128729Y-131594273D01*
X160128728Y-131594273D01*
X160128727Y-131594272D01*
X159972689Y-131490011D01*
X159839989Y-131357311D01*
X159735728Y-131201273D01*
X159663911Y-131027892D01*
X159627300Y-130843833D01*
X159627300Y-130656167D01*
X159663911Y-130472108D01*
X159735728Y-130298727D01*
X159839989Y-130142689D01*
X159972689Y-130009989D01*
X160128727Y-129905728D01*
X160302108Y-129833911D01*
X160486166Y-129797300D01*
X160673834Y-129797300D01*
X160857892Y-129833911D01*
G37*
G36*
X163397892Y-129833911D02*
G01*
X163571273Y-129905728D01*
X163727311Y-130009989D01*
X163860011Y-130142689D01*
X163964272Y-130298727D01*
X164036089Y-130472108D01*
X164072700Y-130656167D01*
X164072700Y-130843833D01*
X164036089Y-131027892D01*
X163964272Y-131201273D01*
X163860011Y-131357311D01*
X163727311Y-131490011D01*
X163571273Y-131594272D01*
X163571272Y-131594273D01*
X163571271Y-131594273D01*
X163397892Y-131666089D01*
X163213834Y-131702700D01*
X163026166Y-131702700D01*
X162842108Y-131666089D01*
X162668729Y-131594273D01*
X162668728Y-131594273D01*
X162668727Y-131594272D01*
X162512689Y-131490011D01*
X162379989Y-131357311D01*
X162275728Y-131201273D01*
X162203911Y-131027892D01*
X162167300Y-130843833D01*
X162167300Y-130656167D01*
X162203911Y-130472108D01*
X162275728Y-130298727D01*
X162379989Y-130142689D01*
X162512689Y-130009989D01*
X162668727Y-129905728D01*
X162842108Y-129833911D01*
X163026166Y-129797300D01*
X163213834Y-129797300D01*
X163397892Y-129833911D01*
G37*
G36*
X101647892Y-129833911D02*
G01*
X101821273Y-129905728D01*
X101977311Y-130009989D01*
X102110011Y-130142689D01*
X102214272Y-130298727D01*
X102286089Y-130472108D01*
X102322700Y-130656167D01*
X102322700Y-130843833D01*
X102286089Y-131027892D01*
X102214272Y-131201273D01*
X102110011Y-131357311D01*
X101977311Y-131490011D01*
X101821273Y-131594272D01*
X101821272Y-131594273D01*
X101821271Y-131594273D01*
X101647892Y-131666089D01*
X101463834Y-131702700D01*
X101276166Y-131702700D01*
X101092108Y-131666089D01*
X100918729Y-131594273D01*
X100918728Y-131594273D01*
X100918727Y-131594272D01*
X100762689Y-131490011D01*
X100629989Y-131357311D01*
X100525728Y-131201273D01*
X100453911Y-131027892D01*
X100417300Y-130843833D01*
X100417300Y-130656167D01*
X100453911Y-130472108D01*
X100525728Y-130298727D01*
X100629989Y-130142689D01*
X100762689Y-130009989D01*
X100918727Y-129905728D01*
X101092108Y-129833911D01*
X101276166Y-129797300D01*
X101463834Y-129797300D01*
X101647892Y-129833911D01*
G37*
G36*
X99107892Y-129833911D02*
G01*
X99281273Y-129905728D01*
X99437311Y-130009989D01*
X99570011Y-130142689D01*
X99674272Y-130298727D01*
X99746089Y-130472108D01*
X99782700Y-130656167D01*
X99782700Y-130843833D01*
X99746089Y-131027892D01*
X99674272Y-131201273D01*
X99570011Y-131357311D01*
X99437311Y-131490011D01*
X99281273Y-131594272D01*
X99281272Y-131594273D01*
X99281271Y-131594273D01*
X99107892Y-131666089D01*
X98923834Y-131702700D01*
X98736166Y-131702700D01*
X98552108Y-131666089D01*
X98378729Y-131594273D01*
X98378728Y-131594273D01*
X98378727Y-131594272D01*
X98222689Y-131490011D01*
X98089989Y-131357311D01*
X97985728Y-131201273D01*
X97913911Y-131027892D01*
X97877300Y-130843833D01*
X97877300Y-130656167D01*
X97913911Y-130472108D01*
X97985728Y-130298727D01*
X98089989Y-130142689D01*
X98222689Y-130009989D01*
X98378727Y-129905728D01*
X98552108Y-129833911D01*
X98736166Y-129797300D01*
X98923834Y-129797300D01*
X99107892Y-129833911D01*
G37*
G36*
X96567892Y-129833911D02*
G01*
X96741273Y-129905728D01*
X96897311Y-130009989D01*
X97030011Y-130142689D01*
X97134272Y-130298727D01*
X97206089Y-130472108D01*
X97242700Y-130656167D01*
X97242700Y-130843833D01*
X97206089Y-131027892D01*
X97134272Y-131201273D01*
X97030011Y-131357311D01*
X96897311Y-131490011D01*
X96741273Y-131594272D01*
X96741272Y-131594273D01*
X96741271Y-131594273D01*
X96567892Y-131666089D01*
X96383834Y-131702700D01*
X96196166Y-131702700D01*
X96012108Y-131666089D01*
X95838729Y-131594273D01*
X95838728Y-131594273D01*
X95838727Y-131594272D01*
X95682689Y-131490011D01*
X95549989Y-131357311D01*
X95445728Y-131201273D01*
X95373911Y-131027892D01*
X95337300Y-130843833D01*
X95337300Y-130656167D01*
X95373911Y-130472108D01*
X95445728Y-130298727D01*
X95549989Y-130142689D01*
X95682689Y-130009989D01*
X95838727Y-129905728D01*
X96012108Y-129833911D01*
X96196166Y-129797300D01*
X96383834Y-129797300D01*
X96567892Y-129833911D01*
G37*
G36*
X94027892Y-129833911D02*
G01*
X94201273Y-129905728D01*
X94357311Y-130009989D01*
X94490011Y-130142689D01*
X94594272Y-130298727D01*
X94666089Y-130472108D01*
X94702700Y-130656167D01*
X94702700Y-130843833D01*
X94666089Y-131027892D01*
X94594272Y-131201273D01*
X94490011Y-131357311D01*
X94357311Y-131490011D01*
X94201273Y-131594272D01*
X94201272Y-131594273D01*
X94201271Y-131594273D01*
X94027892Y-131666089D01*
X93843834Y-131702700D01*
X93656166Y-131702700D01*
X93472108Y-131666089D01*
X93298729Y-131594273D01*
X93298728Y-131594273D01*
X93298727Y-131594272D01*
X93142689Y-131490011D01*
X93009989Y-131357311D01*
X92905728Y-131201273D01*
X92833911Y-131027892D01*
X92797300Y-130843833D01*
X92797300Y-130656167D01*
X92833911Y-130472108D01*
X92905728Y-130298727D01*
X93009989Y-130142689D01*
X93142689Y-130009989D01*
X93298727Y-129905728D01*
X93472108Y-129833911D01*
X93656166Y-129797300D01*
X93843834Y-129797300D01*
X94027892Y-129833911D01*
G37*
G36*
X90397892Y-129833911D02*
G01*
X90571273Y-129905728D01*
X90727311Y-130009989D01*
X90860011Y-130142689D01*
X90964272Y-130298727D01*
X91036089Y-130472108D01*
X91072700Y-130656167D01*
X91072700Y-130843833D01*
X91036089Y-131027892D01*
X90964272Y-131201273D01*
X90860011Y-131357311D01*
X90727311Y-131490011D01*
X90571273Y-131594272D01*
X90571272Y-131594273D01*
X90571271Y-131594273D01*
X90397892Y-131666089D01*
X90213834Y-131702700D01*
X90026166Y-131702700D01*
X89842108Y-131666089D01*
X89668729Y-131594273D01*
X89668728Y-131594273D01*
X89668727Y-131594272D01*
X89512689Y-131490011D01*
X89379989Y-131357311D01*
X89275728Y-131201273D01*
X89203911Y-131027892D01*
X89167300Y-130843833D01*
X89167300Y-130656167D01*
X89203911Y-130472108D01*
X89275728Y-130298727D01*
X89379989Y-130142689D01*
X89512689Y-130009989D01*
X89668727Y-129905728D01*
X89842108Y-129833911D01*
X90026166Y-129797300D01*
X90213834Y-129797300D01*
X90397892Y-129833911D01*
G37*
G36*
X87857892Y-129833911D02*
G01*
X88031273Y-129905728D01*
X88187311Y-130009989D01*
X88320011Y-130142689D01*
X88424272Y-130298727D01*
X88496089Y-130472108D01*
X88532700Y-130656167D01*
X88532700Y-130843833D01*
X88496089Y-131027892D01*
X88424272Y-131201273D01*
X88320011Y-131357311D01*
X88187311Y-131490011D01*
X88031273Y-131594272D01*
X88031272Y-131594273D01*
X88031271Y-131594273D01*
X87857892Y-131666089D01*
X87673834Y-131702700D01*
X87486166Y-131702700D01*
X87302108Y-131666089D01*
X87128729Y-131594273D01*
X87128728Y-131594273D01*
X87128727Y-131594272D01*
X86972689Y-131490011D01*
X86839989Y-131357311D01*
X86735728Y-131201273D01*
X86663911Y-131027892D01*
X86627300Y-130843833D01*
X86627300Y-130656167D01*
X86663911Y-130472108D01*
X86735728Y-130298727D01*
X86839989Y-130142689D01*
X86972689Y-130009989D01*
X87128727Y-129905728D01*
X87302108Y-129833911D01*
X87486166Y-129797300D01*
X87673834Y-129797300D01*
X87857892Y-129833911D01*
G37*
G36*
X82777892Y-129833911D02*
G01*
X82951273Y-129905728D01*
X83107311Y-130009989D01*
X83240011Y-130142689D01*
X83344272Y-130298727D01*
X83416089Y-130472108D01*
X83452700Y-130656167D01*
X83452700Y-130843833D01*
X83416089Y-131027892D01*
X83344272Y-131201273D01*
X83240011Y-131357311D01*
X83107311Y-131490011D01*
X82951273Y-131594272D01*
X82951272Y-131594273D01*
X82951271Y-131594273D01*
X82777892Y-131666089D01*
X82593834Y-131702700D01*
X82406166Y-131702700D01*
X82222108Y-131666089D01*
X82048729Y-131594273D01*
X82048728Y-131594273D01*
X82048727Y-131594272D01*
X81892689Y-131490011D01*
X81759989Y-131357311D01*
X81655728Y-131201273D01*
X81583911Y-131027892D01*
X81547300Y-130843833D01*
X81547300Y-130656167D01*
X81583911Y-130472108D01*
X81655728Y-130298727D01*
X81759989Y-130142689D01*
X81892689Y-130009989D01*
X82048727Y-129905728D01*
X82222108Y-129833911D01*
X82406166Y-129797300D01*
X82593834Y-129797300D01*
X82777892Y-129833911D01*
G37*
G36*
X122027892Y-129833911D02*
G01*
X122201273Y-129905728D01*
X122357311Y-130009989D01*
X122490011Y-130142689D01*
X122594272Y-130298727D01*
X122666089Y-130472108D01*
X122702700Y-130656167D01*
X122702700Y-130843833D01*
X122666089Y-131027892D01*
X122594272Y-131201273D01*
X122490011Y-131357311D01*
X122357311Y-131490011D01*
X122201273Y-131594272D01*
X122201272Y-131594273D01*
X122201271Y-131594273D01*
X122027892Y-131666089D01*
X121843834Y-131702700D01*
X121656166Y-131702700D01*
X121472108Y-131666089D01*
X121298729Y-131594273D01*
X121298728Y-131594273D01*
X121298727Y-131594272D01*
X121142689Y-131490011D01*
X121009989Y-131357311D01*
X120905728Y-131201273D01*
X120833911Y-131027892D01*
X120797300Y-130843833D01*
X120797300Y-130656167D01*
X120833911Y-130472108D01*
X120905728Y-130298727D01*
X121009989Y-130142689D01*
X121142689Y-130009989D01*
X121298727Y-129905728D01*
X121472108Y-129833911D01*
X121656166Y-129797300D01*
X121843834Y-129797300D01*
X122027892Y-129833911D01*
G37*
G36*
X124567892Y-129833911D02*
G01*
X124741273Y-129905728D01*
X124897311Y-130009989D01*
X125030011Y-130142689D01*
X125134272Y-130298727D01*
X125206089Y-130472108D01*
X125242700Y-130656167D01*
X125242700Y-130843833D01*
X125206089Y-131027892D01*
X125134272Y-131201273D01*
X125030011Y-131357311D01*
X124897311Y-131490011D01*
X124741273Y-131594272D01*
X124741272Y-131594273D01*
X124741271Y-131594273D01*
X124567892Y-131666089D01*
X124383834Y-131702700D01*
X124196166Y-131702700D01*
X124012108Y-131666089D01*
X123838729Y-131594273D01*
X123838728Y-131594273D01*
X123838727Y-131594272D01*
X123682689Y-131490011D01*
X123549989Y-131357311D01*
X123445728Y-131201273D01*
X123373911Y-131027892D01*
X123337300Y-130843833D01*
X123337300Y-130656167D01*
X123373911Y-130472108D01*
X123445728Y-130298727D01*
X123549989Y-130142689D01*
X123682689Y-130009989D01*
X123838727Y-129905728D01*
X124012108Y-129833911D01*
X124196166Y-129797300D01*
X124383834Y-129797300D01*
X124567892Y-129833911D01*
G37*
G36*
X127107892Y-129833911D02*
G01*
X127281273Y-129905728D01*
X127437311Y-130009989D01*
X127570011Y-130142689D01*
X127674272Y-130298727D01*
X127746089Y-130472108D01*
X127782700Y-130656167D01*
X127782700Y-130843833D01*
X127746089Y-131027892D01*
X127674272Y-131201273D01*
X127570011Y-131357311D01*
X127437311Y-131490011D01*
X127281273Y-131594272D01*
X127281272Y-131594273D01*
X127281271Y-131594273D01*
X127107892Y-131666089D01*
X126923834Y-131702700D01*
X126736166Y-131702700D01*
X126552108Y-131666089D01*
X126378729Y-131594273D01*
X126378728Y-131594273D01*
X126378727Y-131594272D01*
X126222689Y-131490011D01*
X126089989Y-131357311D01*
X125985728Y-131201273D01*
X125913911Y-131027892D01*
X125877300Y-130843833D01*
X125877300Y-130656167D01*
X125913911Y-130472108D01*
X125985728Y-130298727D01*
X126089989Y-130142689D01*
X126222689Y-130009989D01*
X126378727Y-129905728D01*
X126552108Y-129833911D01*
X126736166Y-129797300D01*
X126923834Y-129797300D01*
X127107892Y-129833911D01*
G37*
G36*
X129647892Y-129833911D02*
G01*
X129821273Y-129905728D01*
X129977311Y-130009989D01*
X130110011Y-130142689D01*
X130214272Y-130298727D01*
X130286089Y-130472108D01*
X130322700Y-130656167D01*
X130322700Y-130843833D01*
X130286089Y-131027892D01*
X130214272Y-131201273D01*
X130110011Y-131357311D01*
X129977311Y-131490011D01*
X129821273Y-131594272D01*
X129821272Y-131594273D01*
X129821271Y-131594273D01*
X129647892Y-131666089D01*
X129463834Y-131702700D01*
X129276166Y-131702700D01*
X129092108Y-131666089D01*
X128918729Y-131594273D01*
X128918728Y-131594273D01*
X128918727Y-131594272D01*
X128762689Y-131490011D01*
X128629989Y-131357311D01*
X128525728Y-131201273D01*
X128453911Y-131027892D01*
X128417300Y-130843833D01*
X128417300Y-130656167D01*
X128453911Y-130472108D01*
X128525728Y-130298727D01*
X128629989Y-130142689D01*
X128762689Y-130009989D01*
X128918727Y-129905728D01*
X129092108Y-129833911D01*
X129276166Y-129797300D01*
X129463834Y-129797300D01*
X129647892Y-129833911D01*
G37*
G36*
X180397892Y-129833911D02*
G01*
X180571273Y-129905728D01*
X180727311Y-130009989D01*
X180860011Y-130142689D01*
X180964272Y-130298727D01*
X181036089Y-130472108D01*
X181072700Y-130656167D01*
X181072700Y-130843833D01*
X181036089Y-131027892D01*
X180964272Y-131201273D01*
X180860011Y-131357311D01*
X180727311Y-131490011D01*
X180571273Y-131594272D01*
X180571272Y-131594273D01*
X180571271Y-131594273D01*
X180397892Y-131666089D01*
X180213834Y-131702700D01*
X180026166Y-131702700D01*
X179842108Y-131666089D01*
X179668729Y-131594273D01*
X179668728Y-131594273D01*
X179668727Y-131594272D01*
X179512689Y-131490011D01*
X179379989Y-131357311D01*
X179275728Y-131201273D01*
X179203911Y-131027892D01*
X179167300Y-130843833D01*
X179167300Y-130656167D01*
X179203911Y-130472108D01*
X179275728Y-130298727D01*
X179379989Y-130142689D01*
X179512689Y-130009989D01*
X179668727Y-129905728D01*
X179842108Y-129833911D01*
X180026166Y-129797300D01*
X180213834Y-129797300D01*
X180397892Y-129833911D01*
G37*
G36*
X177857892Y-129833911D02*
G01*
X178031273Y-129905728D01*
X178187311Y-130009989D01*
X178320011Y-130142689D01*
X178424272Y-130298727D01*
X178496089Y-130472108D01*
X178532700Y-130656167D01*
X178532700Y-130843833D01*
X178496089Y-131027892D01*
X178424272Y-131201273D01*
X178320011Y-131357311D01*
X178187311Y-131490011D01*
X178031273Y-131594272D01*
X178031272Y-131594273D01*
X178031271Y-131594273D01*
X177857892Y-131666089D01*
X177673834Y-131702700D01*
X177486166Y-131702700D01*
X177302108Y-131666089D01*
X177128729Y-131594273D01*
X177128728Y-131594273D01*
X177128727Y-131594272D01*
X176972689Y-131490011D01*
X176839989Y-131357311D01*
X176735728Y-131201273D01*
X176663911Y-131027892D01*
X176627300Y-130843833D01*
X176627300Y-130656167D01*
X176663911Y-130472108D01*
X176735728Y-130298727D01*
X176839989Y-130142689D01*
X176972689Y-130009989D01*
X177128727Y-129905728D01*
X177302108Y-129833911D01*
X177486166Y-129797300D01*
X177673834Y-129797300D01*
X177857892Y-129833911D01*
G37*
G36*
X172777892Y-129833911D02*
G01*
X172951273Y-129905728D01*
X173107311Y-130009989D01*
X173240011Y-130142689D01*
X173344272Y-130298727D01*
X173416089Y-130472108D01*
X173452700Y-130656167D01*
X173452700Y-130843833D01*
X173416089Y-131027892D01*
X173344272Y-131201273D01*
X173240011Y-131357311D01*
X173107311Y-131490011D01*
X172951273Y-131594272D01*
X172951272Y-131594273D01*
X172951271Y-131594273D01*
X172777892Y-131666089D01*
X172593834Y-131702700D01*
X172406166Y-131702700D01*
X172222108Y-131666089D01*
X172048729Y-131594273D01*
X172048728Y-131594273D01*
X172048727Y-131594272D01*
X171892689Y-131490011D01*
X171759989Y-131357311D01*
X171655728Y-131201273D01*
X171583911Y-131027892D01*
X171547300Y-130843833D01*
X171547300Y-130656167D01*
X171583911Y-130472108D01*
X171655728Y-130298727D01*
X171759989Y-130142689D01*
X171892689Y-130009989D01*
X172048727Y-129905728D01*
X172222108Y-129833911D01*
X172406166Y-129797300D01*
X172593834Y-129797300D01*
X172777892Y-129833911D01*
G37*
G36*
X195277892Y-129833911D02*
G01*
X195451273Y-129905728D01*
X195607311Y-130009989D01*
X195740011Y-130142689D01*
X195844272Y-130298727D01*
X195916089Y-130472108D01*
X195952700Y-130656167D01*
X195952700Y-130843833D01*
X195916089Y-131027892D01*
X195844272Y-131201273D01*
X195740011Y-131357311D01*
X195607311Y-131490011D01*
X195451273Y-131594272D01*
X195451272Y-131594273D01*
X195451271Y-131594273D01*
X195277892Y-131666089D01*
X195093834Y-131702700D01*
X194906166Y-131702700D01*
X194722108Y-131666089D01*
X194548729Y-131594273D01*
X194548728Y-131594273D01*
X194548727Y-131594272D01*
X194392689Y-131490011D01*
X194259989Y-131357311D01*
X194155728Y-131201273D01*
X194083911Y-131027892D01*
X194047300Y-130843833D01*
X194047300Y-130656167D01*
X194083911Y-130472108D01*
X194155728Y-130298727D01*
X194259989Y-130142689D01*
X194392689Y-130009989D01*
X194548727Y-129905728D01*
X194722108Y-129833911D01*
X194906166Y-129797300D01*
X195093834Y-129797300D01*
X195277892Y-129833911D01*
G37*
G36*
X125844995Y-125043146D02*
G01*
X126018066Y-125114834D01*
X126018067Y-125114835D01*
X126173827Y-125218910D01*
X126306290Y-125351373D01*
X126306291Y-125351375D01*
X126410366Y-125507134D01*
X126482054Y-125680205D01*
X126518600Y-125863933D01*
X126518600Y-126051267D01*
X126482054Y-126234995D01*
X126410366Y-126408066D01*
X126410365Y-126408067D01*
X126306290Y-126563827D01*
X126173827Y-126696290D01*
X126095418Y-126748681D01*
X126018066Y-126800366D01*
X125844995Y-126872054D01*
X125661267Y-126908600D01*
X125473933Y-126908600D01*
X125290205Y-126872054D01*
X125117134Y-126800366D01*
X125039782Y-126748681D01*
X124961373Y-126696290D01*
X124828910Y-126563827D01*
X124724835Y-126408067D01*
X124724834Y-126408066D01*
X124653146Y-126234995D01*
X124616600Y-126051267D01*
X124616600Y-125863933D01*
X124653146Y-125680205D01*
X124724834Y-125507134D01*
X124828909Y-125351375D01*
X124828910Y-125351373D01*
X124961373Y-125218910D01*
X125117133Y-125114835D01*
X125117134Y-125114834D01*
X125290205Y-125043146D01*
X125473933Y-125006600D01*
X125661267Y-125006600D01*
X125844995Y-125043146D01*
G37*
G36*
X199098595Y-125043146D02*
G01*
X199271666Y-125114834D01*
X199271667Y-125114835D01*
X199427427Y-125218910D01*
X199559890Y-125351373D01*
X199559891Y-125351375D01*
X199663966Y-125507134D01*
X199735654Y-125680205D01*
X199772200Y-125863933D01*
X199772200Y-126051267D01*
X199735654Y-126234995D01*
X199663966Y-126408066D01*
X199663965Y-126408067D01*
X199559890Y-126563827D01*
X199427427Y-126696290D01*
X199349018Y-126748681D01*
X199271666Y-126800366D01*
X199098595Y-126872054D01*
X198914867Y-126908600D01*
X198727533Y-126908600D01*
X198543805Y-126872054D01*
X198370734Y-126800366D01*
X198293382Y-126748681D01*
X198214973Y-126696290D01*
X198082510Y-126563827D01*
X197978435Y-126408067D01*
X197978434Y-126408066D01*
X197906746Y-126234995D01*
X197870200Y-126051267D01*
X197870200Y-125863933D01*
X197906746Y-125680205D01*
X197978434Y-125507134D01*
X198082509Y-125351375D01*
X198082510Y-125351373D01*
X198214973Y-125218910D01*
X198370733Y-125114835D01*
X198370734Y-125114834D01*
X198543805Y-125043146D01*
X198727533Y-125006600D01*
X198914867Y-125006600D01*
X199098595Y-125043146D01*
G37*
G36*
X187833695Y-125043146D02*
G01*
X188006766Y-125114834D01*
X188006767Y-125114835D01*
X188162527Y-125218910D01*
X188294990Y-125351373D01*
X188294991Y-125351375D01*
X188399066Y-125507134D01*
X188470754Y-125680205D01*
X188507300Y-125863933D01*
X188507300Y-126051267D01*
X188470754Y-126234995D01*
X188399066Y-126408066D01*
X188399065Y-126408067D01*
X188294990Y-126563827D01*
X188162527Y-126696290D01*
X188084118Y-126748681D01*
X188006766Y-126800366D01*
X187833695Y-126872054D01*
X187649967Y-126908600D01*
X187462633Y-126908600D01*
X187278905Y-126872054D01*
X187105834Y-126800366D01*
X187028482Y-126748681D01*
X186950073Y-126696290D01*
X186817610Y-126563827D01*
X186713535Y-126408067D01*
X186713534Y-126408066D01*
X186641846Y-126234995D01*
X186605300Y-126051267D01*
X186605300Y-125863933D01*
X186641846Y-125680205D01*
X186713534Y-125507134D01*
X186817609Y-125351375D01*
X186817610Y-125351373D01*
X186950073Y-125218910D01*
X187105833Y-125114835D01*
X187105834Y-125114834D01*
X187278905Y-125043146D01*
X187462633Y-125006600D01*
X187649967Y-125006600D01*
X187833695Y-125043146D01*
G37*
G36*
X176594195Y-125043146D02*
G01*
X176767266Y-125114834D01*
X176767267Y-125114835D01*
X176923027Y-125218910D01*
X177055490Y-125351373D01*
X177055491Y-125351375D01*
X177159566Y-125507134D01*
X177231254Y-125680205D01*
X177267800Y-125863933D01*
X177267800Y-126051267D01*
X177231254Y-126234995D01*
X177159566Y-126408066D01*
X177159565Y-126408067D01*
X177055490Y-126563827D01*
X176923027Y-126696290D01*
X176844618Y-126748681D01*
X176767266Y-126800366D01*
X176594195Y-126872054D01*
X176410467Y-126908600D01*
X176223133Y-126908600D01*
X176039405Y-126872054D01*
X175866334Y-126800366D01*
X175788982Y-126748681D01*
X175710573Y-126696290D01*
X175578110Y-126563827D01*
X175474035Y-126408067D01*
X175474034Y-126408066D01*
X175402346Y-126234995D01*
X175365800Y-126051267D01*
X175365800Y-125863933D01*
X175402346Y-125680205D01*
X175474034Y-125507134D01*
X175578109Y-125351375D01*
X175578110Y-125351373D01*
X175710573Y-125218910D01*
X175866333Y-125114835D01*
X175866334Y-125114834D01*
X176039405Y-125043146D01*
X176223133Y-125006600D01*
X176410467Y-125006600D01*
X176594195Y-125043146D01*
G37*
G36*
X159576195Y-125043146D02*
G01*
X159749266Y-125114834D01*
X159749267Y-125114835D01*
X159905027Y-125218910D01*
X160037490Y-125351373D01*
X160037491Y-125351375D01*
X160141566Y-125507134D01*
X160213254Y-125680205D01*
X160249800Y-125863933D01*
X160249800Y-126051267D01*
X160213254Y-126234995D01*
X160141566Y-126408066D01*
X160141565Y-126408067D01*
X160037490Y-126563827D01*
X159905027Y-126696290D01*
X159826618Y-126748681D01*
X159749266Y-126800366D01*
X159576195Y-126872054D01*
X159392467Y-126908600D01*
X159205133Y-126908600D01*
X159021405Y-126872054D01*
X158848334Y-126800366D01*
X158770982Y-126748681D01*
X158692573Y-126696290D01*
X158560110Y-126563827D01*
X158456035Y-126408067D01*
X158456034Y-126408066D01*
X158384346Y-126234995D01*
X158347800Y-126051267D01*
X158347800Y-125863933D01*
X158384346Y-125680205D01*
X158456034Y-125507134D01*
X158560109Y-125351375D01*
X158560110Y-125351373D01*
X158692573Y-125218910D01*
X158848333Y-125114835D01*
X158848334Y-125114834D01*
X159021405Y-125043146D01*
X159205133Y-125006600D01*
X159392467Y-125006600D01*
X159576195Y-125043146D01*
G37*
G36*
X148349395Y-125043146D02*
G01*
X148522466Y-125114834D01*
X148522467Y-125114835D01*
X148678227Y-125218910D01*
X148810690Y-125351373D01*
X148810691Y-125351375D01*
X148914766Y-125507134D01*
X148986454Y-125680205D01*
X149023000Y-125863933D01*
X149023000Y-126051267D01*
X148986454Y-126234995D01*
X148914766Y-126408066D01*
X148914765Y-126408067D01*
X148810690Y-126563827D01*
X148678227Y-126696290D01*
X148599818Y-126748681D01*
X148522466Y-126800366D01*
X148349395Y-126872054D01*
X148165667Y-126908600D01*
X147978333Y-126908600D01*
X147794605Y-126872054D01*
X147621534Y-126800366D01*
X147544182Y-126748681D01*
X147465773Y-126696290D01*
X147333310Y-126563827D01*
X147229235Y-126408067D01*
X147229234Y-126408066D01*
X147157546Y-126234995D01*
X147121000Y-126051267D01*
X147121000Y-125863933D01*
X147157546Y-125680205D01*
X147229234Y-125507134D01*
X147333309Y-125351375D01*
X147333310Y-125351373D01*
X147465773Y-125218910D01*
X147621533Y-125114835D01*
X147621534Y-125114834D01*
X147794605Y-125043146D01*
X147978333Y-125006600D01*
X148165667Y-125006600D01*
X148349395Y-125043146D01*
G37*
G36*
X137071795Y-125043146D02*
G01*
X137244866Y-125114834D01*
X137244867Y-125114835D01*
X137400627Y-125218910D01*
X137533090Y-125351373D01*
X137533091Y-125351375D01*
X137637166Y-125507134D01*
X137708854Y-125680205D01*
X137745400Y-125863933D01*
X137745400Y-126051267D01*
X137708854Y-126234995D01*
X137637166Y-126408066D01*
X137637165Y-126408067D01*
X137533090Y-126563827D01*
X137400627Y-126696290D01*
X137322218Y-126748681D01*
X137244866Y-126800366D01*
X137071795Y-126872054D01*
X136888067Y-126908600D01*
X136700733Y-126908600D01*
X136517005Y-126872054D01*
X136343934Y-126800366D01*
X136266582Y-126748681D01*
X136188173Y-126696290D01*
X136055710Y-126563827D01*
X135951635Y-126408067D01*
X135951634Y-126408066D01*
X135879946Y-126234995D01*
X135843400Y-126051267D01*
X135843400Y-125863933D01*
X135879946Y-125680205D01*
X135951634Y-125507134D01*
X136055709Y-125351375D01*
X136055710Y-125351373D01*
X136188173Y-125218910D01*
X136343933Y-125114835D01*
X136343934Y-125114834D01*
X136517005Y-125043146D01*
X136700733Y-125006600D01*
X136888067Y-125006600D01*
X137071795Y-125043146D01*
G37*
G36*
X109106395Y-125043146D02*
G01*
X109279466Y-125114834D01*
X109279467Y-125114835D01*
X109435227Y-125218910D01*
X109567690Y-125351373D01*
X109567691Y-125351375D01*
X109671766Y-125507134D01*
X109743454Y-125680205D01*
X109780000Y-125863933D01*
X109780000Y-126051267D01*
X109743454Y-126234995D01*
X109671766Y-126408066D01*
X109671765Y-126408067D01*
X109567690Y-126563827D01*
X109435227Y-126696290D01*
X109356818Y-126748681D01*
X109279466Y-126800366D01*
X109106395Y-126872054D01*
X108922667Y-126908600D01*
X108735333Y-126908600D01*
X108551605Y-126872054D01*
X108378534Y-126800366D01*
X108301182Y-126748681D01*
X108222773Y-126696290D01*
X108090310Y-126563827D01*
X107986235Y-126408067D01*
X107986234Y-126408066D01*
X107914546Y-126234995D01*
X107878000Y-126051267D01*
X107878000Y-125863933D01*
X107914546Y-125680205D01*
X107986234Y-125507134D01*
X108090309Y-125351375D01*
X108090310Y-125351373D01*
X108222773Y-125218910D01*
X108378533Y-125114835D01*
X108378534Y-125114834D01*
X108551605Y-125043146D01*
X108735333Y-125006600D01*
X108922667Y-125006600D01*
X109106395Y-125043146D01*
G37*
G36*
X97828795Y-125043146D02*
G01*
X98001866Y-125114834D01*
X98001867Y-125114835D01*
X98157627Y-125218910D01*
X98290090Y-125351373D01*
X98290091Y-125351375D01*
X98394166Y-125507134D01*
X98465854Y-125680205D01*
X98502400Y-125863933D01*
X98502400Y-126051267D01*
X98465854Y-126234995D01*
X98394166Y-126408066D01*
X98394165Y-126408067D01*
X98290090Y-126563827D01*
X98157627Y-126696290D01*
X98079218Y-126748681D01*
X98001866Y-126800366D01*
X97828795Y-126872054D01*
X97645067Y-126908600D01*
X97457733Y-126908600D01*
X97274005Y-126872054D01*
X97100934Y-126800366D01*
X97023582Y-126748681D01*
X96945173Y-126696290D01*
X96812710Y-126563827D01*
X96708635Y-126408067D01*
X96708634Y-126408066D01*
X96636946Y-126234995D01*
X96600400Y-126051267D01*
X96600400Y-125863933D01*
X96636946Y-125680205D01*
X96708634Y-125507134D01*
X96812709Y-125351375D01*
X96812710Y-125351373D01*
X96945173Y-125218910D01*
X97100933Y-125114835D01*
X97100934Y-125114834D01*
X97274005Y-125043146D01*
X97457733Y-125006600D01*
X97645067Y-125006600D01*
X97828795Y-125043146D01*
G37*
G36*
X86576595Y-125043146D02*
G01*
X86749666Y-125114834D01*
X86749667Y-125114835D01*
X86905427Y-125218910D01*
X87037890Y-125351373D01*
X87037891Y-125351375D01*
X87141966Y-125507134D01*
X87213654Y-125680205D01*
X87250200Y-125863933D01*
X87250200Y-126051267D01*
X87213654Y-126234995D01*
X87141966Y-126408066D01*
X87141965Y-126408067D01*
X87037890Y-126563827D01*
X86905427Y-126696290D01*
X86827018Y-126748681D01*
X86749666Y-126800366D01*
X86576595Y-126872054D01*
X86392867Y-126908600D01*
X86205533Y-126908600D01*
X86021805Y-126872054D01*
X85848734Y-126800366D01*
X85771382Y-126748681D01*
X85692973Y-126696290D01*
X85560510Y-126563827D01*
X85456435Y-126408067D01*
X85456434Y-126408066D01*
X85384746Y-126234995D01*
X85348200Y-126051267D01*
X85348200Y-125863933D01*
X85384746Y-125680205D01*
X85456434Y-125507134D01*
X85560509Y-125351375D01*
X85560510Y-125351373D01*
X85692973Y-125218910D01*
X85848733Y-125114835D01*
X85848734Y-125114834D01*
X86021805Y-125043146D01*
X86205533Y-125006600D01*
X86392867Y-125006600D01*
X86576595Y-125043146D01*
G37*
G36*
X199772200Y-124368600D02*
G01*
X197870200Y-124368600D01*
X197870200Y-122466600D01*
X199772200Y-122466600D01*
X199772200Y-124368600D01*
G37*
G36*
X98502400Y-124368600D02*
G01*
X96600400Y-124368600D01*
X96600400Y-122466600D01*
X98502400Y-122466600D01*
X98502400Y-124368600D01*
G37*
G36*
X87250200Y-124368600D02*
G01*
X85348200Y-124368600D01*
X85348200Y-122466600D01*
X87250200Y-122466600D01*
X87250200Y-124368600D01*
G37*
G36*
X188507300Y-124368600D02*
G01*
X186605300Y-124368600D01*
X186605300Y-122466600D01*
X188507300Y-122466600D01*
X188507300Y-124368600D01*
G37*
G36*
X177267800Y-124368600D02*
G01*
X175365800Y-124368600D01*
X175365800Y-122466600D01*
X177267800Y-122466600D01*
X177267800Y-124368600D01*
G37*
G36*
X149023000Y-124368600D02*
G01*
X147121000Y-124368600D01*
X147121000Y-122466600D01*
X149023000Y-122466600D01*
X149023000Y-124368600D01*
G37*
G36*
X109780000Y-124368600D02*
G01*
X107878000Y-124368600D01*
X107878000Y-122466600D01*
X109780000Y-122466600D01*
X109780000Y-124368600D01*
G37*
G36*
X137745400Y-124368600D02*
G01*
X135843400Y-124368600D01*
X135843400Y-122466600D01*
X137745400Y-122466600D01*
X137745400Y-124368600D01*
G37*
G36*
X126518600Y-124368600D02*
G01*
X124616600Y-124368600D01*
X124616600Y-122466600D01*
X126518600Y-122466600D01*
X126518600Y-124368600D01*
G37*
G36*
X160249800Y-124368600D02*
G01*
X158347800Y-124368600D01*
X158347800Y-122466600D01*
X160249800Y-122466600D01*
X160249800Y-124368600D01*
G37*
G36*
X133248228Y-119766703D02*
G01*
X133403100Y-119830853D01*
X133542481Y-119923985D01*
X133661015Y-120042519D01*
X133754147Y-120181900D01*
X133818297Y-120336772D01*
X133851000Y-120501184D01*
X133851000Y-120668816D01*
X133818297Y-120833228D01*
X133754147Y-120988100D01*
X133661015Y-121127481D01*
X133542481Y-121246015D01*
X133403100Y-121339147D01*
X133248228Y-121403297D01*
X133083816Y-121436000D01*
X132916184Y-121436000D01*
X132751772Y-121403297D01*
X132596900Y-121339147D01*
X132457519Y-121246015D01*
X132338985Y-121127481D01*
X132245853Y-120988100D01*
X132181703Y-120833228D01*
X132149000Y-120668816D01*
X132149000Y-120501184D01*
X132181703Y-120336772D01*
X132245853Y-120181900D01*
X132338985Y-120042519D01*
X132457519Y-119923985D01*
X132596900Y-119830853D01*
X132751772Y-119766703D01*
X132916184Y-119734000D01*
X133083816Y-119734000D01*
X133248228Y-119766703D01*
G37*
G36*
X152118228Y-119766703D02*
G01*
X152273100Y-119830853D01*
X152412481Y-119923985D01*
X152531015Y-120042519D01*
X152624147Y-120181900D01*
X152688297Y-120336772D01*
X152721000Y-120501184D01*
X152721000Y-120668816D01*
X152688297Y-120833228D01*
X152624147Y-120988100D01*
X152531015Y-121127481D01*
X152412481Y-121246015D01*
X152273100Y-121339147D01*
X152118228Y-121403297D01*
X151953816Y-121436000D01*
X151786184Y-121436000D01*
X151621772Y-121403297D01*
X151466900Y-121339147D01*
X151327519Y-121246015D01*
X151208985Y-121127481D01*
X151115853Y-120988100D01*
X151051703Y-120833228D01*
X151019000Y-120668816D01*
X151019000Y-120501184D01*
X151051703Y-120336772D01*
X151115853Y-120181900D01*
X151208985Y-120042519D01*
X151327519Y-119923985D01*
X151466900Y-119830853D01*
X151621772Y-119766703D01*
X151786184Y-119734000D01*
X151953816Y-119734000D01*
X152118228Y-119766703D01*
G37*
G36*
X163368228Y-119766703D02*
G01*
X163523100Y-119830853D01*
X163662481Y-119923985D01*
X163781015Y-120042519D01*
X163874147Y-120181900D01*
X163938297Y-120336772D01*
X163971000Y-120501184D01*
X163971000Y-120668816D01*
X163938297Y-120833228D01*
X163874147Y-120988100D01*
X163781015Y-121127481D01*
X163662481Y-121246015D01*
X163523100Y-121339147D01*
X163368228Y-121403297D01*
X163203816Y-121436000D01*
X163036184Y-121436000D01*
X162871772Y-121403297D01*
X162716900Y-121339147D01*
X162577519Y-121246015D01*
X162458985Y-121127481D01*
X162365853Y-120988100D01*
X162301703Y-120833228D01*
X162269000Y-120668816D01*
X162269000Y-120501184D01*
X162301703Y-120336772D01*
X162365853Y-120181900D01*
X162458985Y-120042519D01*
X162577519Y-119923985D01*
X162716900Y-119830853D01*
X162871772Y-119766703D01*
X163036184Y-119734000D01*
X163203816Y-119734000D01*
X163368228Y-119766703D01*
G37*
G36*
X144498228Y-119766703D02*
G01*
X144653100Y-119830853D01*
X144792481Y-119923985D01*
X144911015Y-120042519D01*
X145004147Y-120181900D01*
X145068297Y-120336772D01*
X145101000Y-120501184D01*
X145101000Y-120668816D01*
X145068297Y-120833228D01*
X145004147Y-120988100D01*
X144911015Y-121127481D01*
X144792481Y-121246015D01*
X144653100Y-121339147D01*
X144498228Y-121403297D01*
X144333816Y-121436000D01*
X144166184Y-121436000D01*
X144001772Y-121403297D01*
X143846900Y-121339147D01*
X143707519Y-121246015D01*
X143588985Y-121127481D01*
X143495853Y-120988100D01*
X143431703Y-120833228D01*
X143399000Y-120668816D01*
X143399000Y-120501184D01*
X143431703Y-120336772D01*
X143495853Y-120181900D01*
X143588985Y-120042519D01*
X143707519Y-119923985D01*
X143846900Y-119830853D01*
X144001772Y-119766703D01*
X144166184Y-119734000D01*
X144333816Y-119734000D01*
X144498228Y-119766703D01*
G37*
G36*
X140868228Y-119766703D02*
G01*
X141023100Y-119830853D01*
X141162481Y-119923985D01*
X141281015Y-120042519D01*
X141374147Y-120181900D01*
X141438297Y-120336772D01*
X141471000Y-120501184D01*
X141471000Y-120668816D01*
X141438297Y-120833228D01*
X141374147Y-120988100D01*
X141281015Y-121127481D01*
X141162481Y-121246015D01*
X141023100Y-121339147D01*
X140868228Y-121403297D01*
X140703816Y-121436000D01*
X140536184Y-121436000D01*
X140371772Y-121403297D01*
X140216900Y-121339147D01*
X140077519Y-121246015D01*
X139958985Y-121127481D01*
X139865853Y-120988100D01*
X139801703Y-120833228D01*
X139769000Y-120668816D01*
X139769000Y-120501184D01*
X139801703Y-120336772D01*
X139865853Y-120181900D01*
X139958985Y-120042519D01*
X140077519Y-119923985D01*
X140216900Y-119830853D01*
X140371772Y-119766703D01*
X140536184Y-119734000D01*
X140703816Y-119734000D01*
X140868228Y-119766703D01*
G37*
G36*
X129618228Y-119766703D02*
G01*
X129773100Y-119830853D01*
X129912481Y-119923985D01*
X130031015Y-120042519D01*
X130124147Y-120181900D01*
X130188297Y-120336772D01*
X130221000Y-120501184D01*
X130221000Y-120668816D01*
X130188297Y-120833228D01*
X130124147Y-120988100D01*
X130031015Y-121127481D01*
X129912481Y-121246015D01*
X129773100Y-121339147D01*
X129618228Y-121403297D01*
X129453816Y-121436000D01*
X129286184Y-121436000D01*
X129121772Y-121403297D01*
X128966900Y-121339147D01*
X128827519Y-121246015D01*
X128708985Y-121127481D01*
X128615853Y-120988100D01*
X128551703Y-120833228D01*
X128519000Y-120668816D01*
X128519000Y-120501184D01*
X128551703Y-120336772D01*
X128615853Y-120181900D01*
X128708985Y-120042519D01*
X128827519Y-119923985D01*
X128966900Y-119830853D01*
X129121772Y-119766703D01*
X129286184Y-119734000D01*
X129453816Y-119734000D01*
X129618228Y-119766703D01*
G37*
G36*
X121998228Y-119766703D02*
G01*
X122153100Y-119830853D01*
X122292481Y-119923985D01*
X122411015Y-120042519D01*
X122504147Y-120181900D01*
X122568297Y-120336772D01*
X122601000Y-120501184D01*
X122601000Y-120668816D01*
X122568297Y-120833228D01*
X122504147Y-120988100D01*
X122411015Y-121127481D01*
X122292481Y-121246015D01*
X122153100Y-121339147D01*
X121998228Y-121403297D01*
X121833816Y-121436000D01*
X121666184Y-121436000D01*
X121501772Y-121403297D01*
X121346900Y-121339147D01*
X121207519Y-121246015D01*
X121088985Y-121127481D01*
X120995853Y-120988100D01*
X120931703Y-120833228D01*
X120899000Y-120668816D01*
X120899000Y-120501184D01*
X120931703Y-120336772D01*
X120995853Y-120181900D01*
X121088985Y-120042519D01*
X121207519Y-119923985D01*
X121346900Y-119830853D01*
X121501772Y-119766703D01*
X121666184Y-119734000D01*
X121833816Y-119734000D01*
X121998228Y-119766703D01*
G37*
G36*
X155748228Y-119766703D02*
G01*
X155903100Y-119830853D01*
X156042481Y-119923985D01*
X156161015Y-120042519D01*
X156254147Y-120181900D01*
X156318297Y-120336772D01*
X156351000Y-120501184D01*
X156351000Y-120668816D01*
X156318297Y-120833228D01*
X156254147Y-120988100D01*
X156161015Y-121127481D01*
X156042481Y-121246015D01*
X155903100Y-121339147D01*
X155748228Y-121403297D01*
X155583816Y-121436000D01*
X155416184Y-121436000D01*
X155251772Y-121403297D01*
X155096900Y-121339147D01*
X154957519Y-121246015D01*
X154838985Y-121127481D01*
X154745853Y-120988100D01*
X154681703Y-120833228D01*
X154649000Y-120668816D01*
X154649000Y-120501184D01*
X154681703Y-120336772D01*
X154745853Y-120181900D01*
X154838985Y-120042519D01*
X154957519Y-119923985D01*
X155096900Y-119830853D01*
X155251772Y-119766703D01*
X155416184Y-119734000D01*
X155583816Y-119734000D01*
X155748228Y-119766703D01*
G37*
G36*
X140868228Y-117226703D02*
G01*
X141023100Y-117290853D01*
X141162481Y-117383985D01*
X141281015Y-117502519D01*
X141374147Y-117641900D01*
X141438297Y-117796772D01*
X141471000Y-117961184D01*
X141471000Y-118128816D01*
X141438297Y-118293228D01*
X141374147Y-118448100D01*
X141281015Y-118587481D01*
X141162481Y-118706015D01*
X141023100Y-118799147D01*
X140868228Y-118863297D01*
X140703816Y-118896000D01*
X140536184Y-118896000D01*
X140371772Y-118863297D01*
X140216900Y-118799147D01*
X140077519Y-118706015D01*
X139958985Y-118587481D01*
X139865853Y-118448100D01*
X139801703Y-118293228D01*
X139769000Y-118128816D01*
X139769000Y-117961184D01*
X139801703Y-117796772D01*
X139865853Y-117641900D01*
X139958985Y-117502519D01*
X140077519Y-117383985D01*
X140216900Y-117290853D01*
X140371772Y-117226703D01*
X140536184Y-117194000D01*
X140703816Y-117194000D01*
X140868228Y-117226703D01*
G37*
G36*
X129618228Y-117226703D02*
G01*
X129773100Y-117290853D01*
X129912481Y-117383985D01*
X130031015Y-117502519D01*
X130124147Y-117641900D01*
X130188297Y-117796772D01*
X130221000Y-117961184D01*
X130221000Y-118128816D01*
X130188297Y-118293228D01*
X130124147Y-118448100D01*
X130031015Y-118587481D01*
X129912481Y-118706015D01*
X129773100Y-118799147D01*
X129618228Y-118863297D01*
X129453816Y-118896000D01*
X129286184Y-118896000D01*
X129121772Y-118863297D01*
X128966900Y-118799147D01*
X128827519Y-118706015D01*
X128708985Y-118587481D01*
X128615853Y-118448100D01*
X128551703Y-118293228D01*
X128519000Y-118128816D01*
X128519000Y-117961184D01*
X128551703Y-117796772D01*
X128615853Y-117641900D01*
X128708985Y-117502519D01*
X128827519Y-117383985D01*
X128966900Y-117290853D01*
X129121772Y-117226703D01*
X129286184Y-117194000D01*
X129453816Y-117194000D01*
X129618228Y-117226703D01*
G37*
G36*
X121998228Y-117226703D02*
G01*
X122153100Y-117290853D01*
X122292481Y-117383985D01*
X122411015Y-117502519D01*
X122504147Y-117641900D01*
X122568297Y-117796772D01*
X122601000Y-117961184D01*
X122601000Y-118128816D01*
X122568297Y-118293228D01*
X122504147Y-118448100D01*
X122411015Y-118587481D01*
X122292481Y-118706015D01*
X122153100Y-118799147D01*
X121998228Y-118863297D01*
X121833816Y-118896000D01*
X121666184Y-118896000D01*
X121501772Y-118863297D01*
X121346900Y-118799147D01*
X121207519Y-118706015D01*
X121088985Y-118587481D01*
X120995853Y-118448100D01*
X120931703Y-118293228D01*
X120899000Y-118128816D01*
X120899000Y-117961184D01*
X120931703Y-117796772D01*
X120995853Y-117641900D01*
X121088985Y-117502519D01*
X121207519Y-117383985D01*
X121346900Y-117290853D01*
X121501772Y-117226703D01*
X121666184Y-117194000D01*
X121833816Y-117194000D01*
X121998228Y-117226703D01*
G37*
G36*
X163368228Y-117226703D02*
G01*
X163523100Y-117290853D01*
X163662481Y-117383985D01*
X163781015Y-117502519D01*
X163874147Y-117641900D01*
X163938297Y-117796772D01*
X163971000Y-117961184D01*
X163971000Y-118128816D01*
X163938297Y-118293228D01*
X163874147Y-118448100D01*
X163781015Y-118587481D01*
X163662481Y-118706015D01*
X163523100Y-118799147D01*
X163368228Y-118863297D01*
X163203816Y-118896000D01*
X163036184Y-118896000D01*
X162871772Y-118863297D01*
X162716900Y-118799147D01*
X162577519Y-118706015D01*
X162458985Y-118587481D01*
X162365853Y-118448100D01*
X162301703Y-118293228D01*
X162269000Y-118128816D01*
X162269000Y-117961184D01*
X162301703Y-117796772D01*
X162365853Y-117641900D01*
X162458985Y-117502519D01*
X162577519Y-117383985D01*
X162716900Y-117290853D01*
X162871772Y-117226703D01*
X163036184Y-117194000D01*
X163203816Y-117194000D01*
X163368228Y-117226703D01*
G37*
G36*
X155748228Y-117226703D02*
G01*
X155903100Y-117290853D01*
X156042481Y-117383985D01*
X156161015Y-117502519D01*
X156254147Y-117641900D01*
X156318297Y-117796772D01*
X156351000Y-117961184D01*
X156351000Y-118128816D01*
X156318297Y-118293228D01*
X156254147Y-118448100D01*
X156161015Y-118587481D01*
X156042481Y-118706015D01*
X155903100Y-118799147D01*
X155748228Y-118863297D01*
X155583816Y-118896000D01*
X155416184Y-118896000D01*
X155251772Y-118863297D01*
X155096900Y-118799147D01*
X154957519Y-118706015D01*
X154838985Y-118587481D01*
X154745853Y-118448100D01*
X154681703Y-118293228D01*
X154649000Y-118128816D01*
X154649000Y-117961184D01*
X154681703Y-117796772D01*
X154745853Y-117641900D01*
X154838985Y-117502519D01*
X154957519Y-117383985D01*
X155096900Y-117290853D01*
X155251772Y-117226703D01*
X155416184Y-117194000D01*
X155583816Y-117194000D01*
X155748228Y-117226703D01*
G37*
G36*
X152118228Y-117226703D02*
G01*
X152273100Y-117290853D01*
X152412481Y-117383985D01*
X152531015Y-117502519D01*
X152624147Y-117641900D01*
X152688297Y-117796772D01*
X152721000Y-117961184D01*
X152721000Y-118128816D01*
X152688297Y-118293228D01*
X152624147Y-118448100D01*
X152531015Y-118587481D01*
X152412481Y-118706015D01*
X152273100Y-118799147D01*
X152118228Y-118863297D01*
X151953816Y-118896000D01*
X151786184Y-118896000D01*
X151621772Y-118863297D01*
X151466900Y-118799147D01*
X151327519Y-118706015D01*
X151208985Y-118587481D01*
X151115853Y-118448100D01*
X151051703Y-118293228D01*
X151019000Y-118128816D01*
X151019000Y-117961184D01*
X151051703Y-117796772D01*
X151115853Y-117641900D01*
X151208985Y-117502519D01*
X151327519Y-117383985D01*
X151466900Y-117290853D01*
X151621772Y-117226703D01*
X151786184Y-117194000D01*
X151953816Y-117194000D01*
X152118228Y-117226703D01*
G37*
G36*
X144498228Y-117226703D02*
G01*
X144653100Y-117290853D01*
X144792481Y-117383985D01*
X144911015Y-117502519D01*
X145004147Y-117641900D01*
X145068297Y-117796772D01*
X145101000Y-117961184D01*
X145101000Y-118128816D01*
X145068297Y-118293228D01*
X145004147Y-118448100D01*
X144911015Y-118587481D01*
X144792481Y-118706015D01*
X144653100Y-118799147D01*
X144498228Y-118863297D01*
X144333816Y-118896000D01*
X144166184Y-118896000D01*
X144001772Y-118863297D01*
X143846900Y-118799147D01*
X143707519Y-118706015D01*
X143588985Y-118587481D01*
X143495853Y-118448100D01*
X143431703Y-118293228D01*
X143399000Y-118128816D01*
X143399000Y-117961184D01*
X143431703Y-117796772D01*
X143495853Y-117641900D01*
X143588985Y-117502519D01*
X143707519Y-117383985D01*
X143846900Y-117290853D01*
X144001772Y-117226703D01*
X144166184Y-117194000D01*
X144333816Y-117194000D01*
X144498228Y-117226703D01*
G37*
G36*
X133248228Y-117226703D02*
G01*
X133403100Y-117290853D01*
X133542481Y-117383985D01*
X133661015Y-117502519D01*
X133754147Y-117641900D01*
X133818297Y-117796772D01*
X133851000Y-117961184D01*
X133851000Y-118128816D01*
X133818297Y-118293228D01*
X133754147Y-118448100D01*
X133661015Y-118587481D01*
X133542481Y-118706015D01*
X133403100Y-118799147D01*
X133248228Y-118863297D01*
X133083816Y-118896000D01*
X132916184Y-118896000D01*
X132751772Y-118863297D01*
X132596900Y-118799147D01*
X132457519Y-118706015D01*
X132338985Y-118587481D01*
X132245853Y-118448100D01*
X132181703Y-118293228D01*
X132149000Y-118128816D01*
X132149000Y-117961184D01*
X132181703Y-117796772D01*
X132245853Y-117641900D01*
X132338985Y-117502519D01*
X132457519Y-117383985D01*
X132596900Y-117290853D01*
X132751772Y-117226703D01*
X132916184Y-117194000D01*
X133083816Y-117194000D01*
X133248228Y-117226703D01*
G37*
G36*
X201598254Y-114527818D02*
G01*
X201971511Y-114682426D01*
X201971513Y-114682427D01*
X202213301Y-114843985D01*
X202307436Y-114906884D01*
X202593116Y-115192564D01*
X202817574Y-115528489D01*
X202972182Y-115901746D01*
X203051000Y-116297993D01*
X203051000Y-116702007D01*
X202972182Y-117098254D01*
X202892405Y-117290852D01*
X202817573Y-117471513D01*
X202593116Y-117807436D01*
X202307436Y-118093116D01*
X201971513Y-118317573D01*
X201971512Y-118317574D01*
X201971511Y-118317574D01*
X201598254Y-118472182D01*
X201202007Y-118551000D01*
X200797993Y-118551000D01*
X200401746Y-118472182D01*
X200028489Y-118317574D01*
X200028488Y-118317574D01*
X200028487Y-118317573D01*
X199692564Y-118093116D01*
X199406884Y-117807436D01*
X199182427Y-117471513D01*
X199107595Y-117290852D01*
X199027818Y-117098254D01*
X198949000Y-116702007D01*
X198949000Y-116297993D01*
X199027818Y-115901746D01*
X199182426Y-115528489D01*
X199406884Y-115192564D01*
X199692564Y-114906884D01*
X199786699Y-114843985D01*
X200028487Y-114682427D01*
X200028489Y-114682426D01*
X200401746Y-114527818D01*
X200797993Y-114449000D01*
X201202007Y-114449000D01*
X201598254Y-114527818D01*
G37*
G36*
X84598254Y-114527818D02*
G01*
X84971511Y-114682426D01*
X84971513Y-114682427D01*
X85213301Y-114843985D01*
X85307436Y-114906884D01*
X85593116Y-115192564D01*
X85817574Y-115528489D01*
X85972182Y-115901746D01*
X86051000Y-116297993D01*
X86051000Y-116702007D01*
X85972182Y-117098254D01*
X85892405Y-117290852D01*
X85817573Y-117471513D01*
X85593116Y-117807436D01*
X85307436Y-118093116D01*
X84971513Y-118317573D01*
X84971512Y-118317574D01*
X84971511Y-118317574D01*
X84598254Y-118472182D01*
X84202007Y-118551000D01*
X83797993Y-118551000D01*
X83401746Y-118472182D01*
X83028489Y-118317574D01*
X83028488Y-118317574D01*
X83028487Y-118317573D01*
X82692564Y-118093116D01*
X82406884Y-117807436D01*
X82182427Y-117471513D01*
X82107595Y-117290852D01*
X82027818Y-117098254D01*
X81949000Y-116702007D01*
X81949000Y-116297993D01*
X82027818Y-115901746D01*
X82182426Y-115528489D01*
X82406884Y-115192564D01*
X82692564Y-114906884D01*
X82786699Y-114843985D01*
X83028487Y-114682427D01*
X83028489Y-114682426D01*
X83401746Y-114527818D01*
X83797993Y-114449000D01*
X84202007Y-114449000D01*
X84598254Y-114527818D01*
G37*
G36*
X152118228Y-114686703D02*
G01*
X152273100Y-114750853D01*
X152412481Y-114843985D01*
X152531015Y-114962519D01*
X152624147Y-115101900D01*
X152688297Y-115256772D01*
X152721000Y-115421184D01*
X152721000Y-115588816D01*
X152688297Y-115753228D01*
X152624147Y-115908100D01*
X152531015Y-116047481D01*
X152412481Y-116166015D01*
X152273100Y-116259147D01*
X152118228Y-116323297D01*
X151953816Y-116356000D01*
X151786184Y-116356000D01*
X151621772Y-116323297D01*
X151466900Y-116259147D01*
X151327519Y-116166015D01*
X151208985Y-116047481D01*
X151115853Y-115908100D01*
X151051703Y-115753228D01*
X151019000Y-115588816D01*
X151019000Y-115421184D01*
X151051703Y-115256772D01*
X151115853Y-115101900D01*
X151208985Y-114962519D01*
X151327519Y-114843985D01*
X151466900Y-114750853D01*
X151621772Y-114686703D01*
X151786184Y-114654000D01*
X151953816Y-114654000D01*
X152118228Y-114686703D01*
G37*
G36*
X144498228Y-114686703D02*
G01*
X144653100Y-114750853D01*
X144792481Y-114843985D01*
X144911015Y-114962519D01*
X145004147Y-115101900D01*
X145068297Y-115256772D01*
X145101000Y-115421184D01*
X145101000Y-115588816D01*
X145068297Y-115753228D01*
X145004147Y-115908100D01*
X144911015Y-116047481D01*
X144792481Y-116166015D01*
X144653100Y-116259147D01*
X144498228Y-116323297D01*
X144333816Y-116356000D01*
X144166184Y-116356000D01*
X144001772Y-116323297D01*
X143846900Y-116259147D01*
X143707519Y-116166015D01*
X143588985Y-116047481D01*
X143495853Y-115908100D01*
X143431703Y-115753228D01*
X143399000Y-115588816D01*
X143399000Y-115421184D01*
X143431703Y-115256772D01*
X143495853Y-115101900D01*
X143588985Y-114962519D01*
X143707519Y-114843985D01*
X143846900Y-114750853D01*
X144001772Y-114686703D01*
X144166184Y-114654000D01*
X144333816Y-114654000D01*
X144498228Y-114686703D01*
G37*
G36*
X155748228Y-114686703D02*
G01*
X155903100Y-114750853D01*
X156042481Y-114843985D01*
X156161015Y-114962519D01*
X156254147Y-115101900D01*
X156318297Y-115256772D01*
X156351000Y-115421184D01*
X156351000Y-115588816D01*
X156318297Y-115753228D01*
X156254147Y-115908100D01*
X156161015Y-116047481D01*
X156042481Y-116166015D01*
X155903100Y-116259147D01*
X155748228Y-116323297D01*
X155583816Y-116356000D01*
X155416184Y-116356000D01*
X155251772Y-116323297D01*
X155096900Y-116259147D01*
X154957519Y-116166015D01*
X154838985Y-116047481D01*
X154745853Y-115908100D01*
X154681703Y-115753228D01*
X154649000Y-115588816D01*
X154649000Y-115421184D01*
X154681703Y-115256772D01*
X154745853Y-115101900D01*
X154838985Y-114962519D01*
X154957519Y-114843985D01*
X155096900Y-114750853D01*
X155251772Y-114686703D01*
X155416184Y-114654000D01*
X155583816Y-114654000D01*
X155748228Y-114686703D01*
G37*
G36*
X140868228Y-114686703D02*
G01*
X141023100Y-114750853D01*
X141162481Y-114843985D01*
X141281015Y-114962519D01*
X141374147Y-115101900D01*
X141438297Y-115256772D01*
X141471000Y-115421184D01*
X141471000Y-115588816D01*
X141438297Y-115753228D01*
X141374147Y-115908100D01*
X141281015Y-116047481D01*
X141162481Y-116166015D01*
X141023100Y-116259147D01*
X140868228Y-116323297D01*
X140703816Y-116356000D01*
X140536184Y-116356000D01*
X140371772Y-116323297D01*
X140216900Y-116259147D01*
X140077519Y-116166015D01*
X139958985Y-116047481D01*
X139865853Y-115908100D01*
X139801703Y-115753228D01*
X139769000Y-115588816D01*
X139769000Y-115421184D01*
X139801703Y-115256772D01*
X139865853Y-115101900D01*
X139958985Y-114962519D01*
X140077519Y-114843985D01*
X140216900Y-114750853D01*
X140371772Y-114686703D01*
X140536184Y-114654000D01*
X140703816Y-114654000D01*
X140868228Y-114686703D01*
G37*
G36*
X163368228Y-114686703D02*
G01*
X163523100Y-114750853D01*
X163662481Y-114843985D01*
X163781015Y-114962519D01*
X163874147Y-115101900D01*
X163938297Y-115256772D01*
X163971000Y-115421184D01*
X163971000Y-115588816D01*
X163938297Y-115753228D01*
X163874147Y-115908100D01*
X163781015Y-116047481D01*
X163662481Y-116166015D01*
X163523100Y-116259147D01*
X163368228Y-116323297D01*
X163203816Y-116356000D01*
X163036184Y-116356000D01*
X162871772Y-116323297D01*
X162716900Y-116259147D01*
X162577519Y-116166015D01*
X162458985Y-116047481D01*
X162365853Y-115908100D01*
X162301703Y-115753228D01*
X162269000Y-115588816D01*
X162269000Y-115421184D01*
X162301703Y-115256772D01*
X162365853Y-115101900D01*
X162458985Y-114962519D01*
X162577519Y-114843985D01*
X162716900Y-114750853D01*
X162871772Y-114686703D01*
X163036184Y-114654000D01*
X163203816Y-114654000D01*
X163368228Y-114686703D01*
G37*
G36*
X133248228Y-114686703D02*
G01*
X133403100Y-114750853D01*
X133542481Y-114843985D01*
X133661015Y-114962519D01*
X133754147Y-115101900D01*
X133818297Y-115256772D01*
X133851000Y-115421184D01*
X133851000Y-115588816D01*
X133818297Y-115753228D01*
X133754147Y-115908100D01*
X133661015Y-116047481D01*
X133542481Y-116166015D01*
X133403100Y-116259147D01*
X133248228Y-116323297D01*
X133083816Y-116356000D01*
X132916184Y-116356000D01*
X132751772Y-116323297D01*
X132596900Y-116259147D01*
X132457519Y-116166015D01*
X132338985Y-116047481D01*
X132245853Y-115908100D01*
X132181703Y-115753228D01*
X132149000Y-115588816D01*
X132149000Y-115421184D01*
X132181703Y-115256772D01*
X132245853Y-115101900D01*
X132338985Y-114962519D01*
X132457519Y-114843985D01*
X132596900Y-114750853D01*
X132751772Y-114686703D01*
X132916184Y-114654000D01*
X133083816Y-114654000D01*
X133248228Y-114686703D01*
G37*
G36*
X129618228Y-114686703D02*
G01*
X129773100Y-114750853D01*
X129912481Y-114843985D01*
X130031015Y-114962519D01*
X130124147Y-115101900D01*
X130188297Y-115256772D01*
X130221000Y-115421184D01*
X130221000Y-115588816D01*
X130188297Y-115753228D01*
X130124147Y-115908100D01*
X130031015Y-116047481D01*
X129912481Y-116166015D01*
X129773100Y-116259147D01*
X129618228Y-116323297D01*
X129453816Y-116356000D01*
X129286184Y-116356000D01*
X129121772Y-116323297D01*
X128966900Y-116259147D01*
X128827519Y-116166015D01*
X128708985Y-116047481D01*
X128615853Y-115908100D01*
X128551703Y-115753228D01*
X128519000Y-115588816D01*
X128519000Y-115421184D01*
X128551703Y-115256772D01*
X128615853Y-115101900D01*
X128708985Y-114962519D01*
X128827519Y-114843985D01*
X128966900Y-114750853D01*
X129121772Y-114686703D01*
X129286184Y-114654000D01*
X129453816Y-114654000D01*
X129618228Y-114686703D01*
G37*
G36*
X121998228Y-114686703D02*
G01*
X122153100Y-114750853D01*
X122292481Y-114843985D01*
X122411015Y-114962519D01*
X122504147Y-115101900D01*
X122568297Y-115256772D01*
X122601000Y-115421184D01*
X122601000Y-115588816D01*
X122568297Y-115753228D01*
X122504147Y-115908100D01*
X122411015Y-116047481D01*
X122292481Y-116166015D01*
X122153100Y-116259147D01*
X121998228Y-116323297D01*
X121833816Y-116356000D01*
X121666184Y-116356000D01*
X121501772Y-116323297D01*
X121346900Y-116259147D01*
X121207519Y-116166015D01*
X121088985Y-116047481D01*
X120995853Y-115908100D01*
X120931703Y-115753228D01*
X120899000Y-115588816D01*
X120899000Y-115421184D01*
X120931703Y-115256772D01*
X120995853Y-115101900D01*
X121088985Y-114962519D01*
X121207519Y-114843985D01*
X121346900Y-114750853D01*
X121501772Y-114686703D01*
X121666184Y-114654000D01*
X121833816Y-114654000D01*
X121998228Y-114686703D01*
G37*
G36*
X129618228Y-112146703D02*
G01*
X129773100Y-112210853D01*
X129912481Y-112303985D01*
X130031015Y-112422519D01*
X130124147Y-112561900D01*
X130188297Y-112716772D01*
X130221000Y-112881184D01*
X130221000Y-113048816D01*
X130188297Y-113213228D01*
X130124147Y-113368100D01*
X130031015Y-113507481D01*
X129912481Y-113626015D01*
X129773100Y-113719147D01*
X129618228Y-113783297D01*
X129453816Y-113816000D01*
X129286184Y-113816000D01*
X129121772Y-113783297D01*
X128966900Y-113719147D01*
X128827519Y-113626015D01*
X128708985Y-113507481D01*
X128615853Y-113368100D01*
X128551703Y-113213228D01*
X128519000Y-113048816D01*
X128519000Y-112881184D01*
X128551703Y-112716772D01*
X128615853Y-112561900D01*
X128708985Y-112422519D01*
X128827519Y-112303985D01*
X128966900Y-112210853D01*
X129121772Y-112146703D01*
X129286184Y-112114000D01*
X129453816Y-112114000D01*
X129618228Y-112146703D01*
G37*
G36*
X133248228Y-112146703D02*
G01*
X133403100Y-112210853D01*
X133542481Y-112303985D01*
X133661015Y-112422519D01*
X133754147Y-112561900D01*
X133818297Y-112716772D01*
X133851000Y-112881184D01*
X133851000Y-113048816D01*
X133818297Y-113213228D01*
X133754147Y-113368100D01*
X133661015Y-113507481D01*
X133542481Y-113626015D01*
X133403100Y-113719147D01*
X133248228Y-113783297D01*
X133083816Y-113816000D01*
X132916184Y-113816000D01*
X132751772Y-113783297D01*
X132596900Y-113719147D01*
X132457519Y-113626015D01*
X132338985Y-113507481D01*
X132245853Y-113368100D01*
X132181703Y-113213228D01*
X132149000Y-113048816D01*
X132149000Y-112881184D01*
X132181703Y-112716772D01*
X132245853Y-112561900D01*
X132338985Y-112422519D01*
X132457519Y-112303985D01*
X132596900Y-112210853D01*
X132751772Y-112146703D01*
X132916184Y-112114000D01*
X133083816Y-112114000D01*
X133248228Y-112146703D01*
G37*
G36*
X140868228Y-112146703D02*
G01*
X141023100Y-112210853D01*
X141162481Y-112303985D01*
X141281015Y-112422519D01*
X141374147Y-112561900D01*
X141438297Y-112716772D01*
X141471000Y-112881184D01*
X141471000Y-113048816D01*
X141438297Y-113213228D01*
X141374147Y-113368100D01*
X141281015Y-113507481D01*
X141162481Y-113626015D01*
X141023100Y-113719147D01*
X140868228Y-113783297D01*
X140703816Y-113816000D01*
X140536184Y-113816000D01*
X140371772Y-113783297D01*
X140216900Y-113719147D01*
X140077519Y-113626015D01*
X139958985Y-113507481D01*
X139865853Y-113368100D01*
X139801703Y-113213228D01*
X139769000Y-113048816D01*
X139769000Y-112881184D01*
X139801703Y-112716772D01*
X139865853Y-112561900D01*
X139958985Y-112422519D01*
X140077519Y-112303985D01*
X140216900Y-112210853D01*
X140371772Y-112146703D01*
X140536184Y-112114000D01*
X140703816Y-112114000D01*
X140868228Y-112146703D01*
G37*
G36*
X144498228Y-112146703D02*
G01*
X144653100Y-112210853D01*
X144792481Y-112303985D01*
X144911015Y-112422519D01*
X145004147Y-112561900D01*
X145068297Y-112716772D01*
X145101000Y-112881184D01*
X145101000Y-113048816D01*
X145068297Y-113213228D01*
X145004147Y-113368100D01*
X144911015Y-113507481D01*
X144792481Y-113626015D01*
X144653100Y-113719147D01*
X144498228Y-113783297D01*
X144333816Y-113816000D01*
X144166184Y-113816000D01*
X144001772Y-113783297D01*
X143846900Y-113719147D01*
X143707519Y-113626015D01*
X143588985Y-113507481D01*
X143495853Y-113368100D01*
X143431703Y-113213228D01*
X143399000Y-113048816D01*
X143399000Y-112881184D01*
X143431703Y-112716772D01*
X143495853Y-112561900D01*
X143588985Y-112422519D01*
X143707519Y-112303985D01*
X143846900Y-112210853D01*
X144001772Y-112146703D01*
X144166184Y-112114000D01*
X144333816Y-112114000D01*
X144498228Y-112146703D01*
G37*
G36*
X152118228Y-112146703D02*
G01*
X152273100Y-112210853D01*
X152412481Y-112303985D01*
X152531015Y-112422519D01*
X152624147Y-112561900D01*
X152688297Y-112716772D01*
X152721000Y-112881184D01*
X152721000Y-113048816D01*
X152688297Y-113213228D01*
X152624147Y-113368100D01*
X152531015Y-113507481D01*
X152412481Y-113626015D01*
X152273100Y-113719147D01*
X152118228Y-113783297D01*
X151953816Y-113816000D01*
X151786184Y-113816000D01*
X151621772Y-113783297D01*
X151466900Y-113719147D01*
X151327519Y-113626015D01*
X151208985Y-113507481D01*
X151115853Y-113368100D01*
X151051703Y-113213228D01*
X151019000Y-113048816D01*
X151019000Y-112881184D01*
X151051703Y-112716772D01*
X151115853Y-112561900D01*
X151208985Y-112422519D01*
X151327519Y-112303985D01*
X151466900Y-112210853D01*
X151621772Y-112146703D01*
X151786184Y-112114000D01*
X151953816Y-112114000D01*
X152118228Y-112146703D01*
G37*
G36*
X155748228Y-112146703D02*
G01*
X155903100Y-112210853D01*
X156042481Y-112303985D01*
X156161015Y-112422519D01*
X156254147Y-112561900D01*
X156318297Y-112716772D01*
X156351000Y-112881184D01*
X156351000Y-113048816D01*
X156318297Y-113213228D01*
X156254147Y-113368100D01*
X156161015Y-113507481D01*
X156042481Y-113626015D01*
X155903100Y-113719147D01*
X155748228Y-113783297D01*
X155583816Y-113816000D01*
X155416184Y-113816000D01*
X155251772Y-113783297D01*
X155096900Y-113719147D01*
X154957519Y-113626015D01*
X154838985Y-113507481D01*
X154745853Y-113368100D01*
X154681703Y-113213228D01*
X154649000Y-113048816D01*
X154649000Y-112881184D01*
X154681703Y-112716772D01*
X154745853Y-112561900D01*
X154838985Y-112422519D01*
X154957519Y-112303985D01*
X155096900Y-112210853D01*
X155251772Y-112146703D01*
X155416184Y-112114000D01*
X155583816Y-112114000D01*
X155748228Y-112146703D01*
G37*
G36*
X163368228Y-112146703D02*
G01*
X163523100Y-112210853D01*
X163662481Y-112303985D01*
X163781015Y-112422519D01*
X163874147Y-112561900D01*
X163938297Y-112716772D01*
X163971000Y-112881184D01*
X163971000Y-113048816D01*
X163938297Y-113213228D01*
X163874147Y-113368100D01*
X163781015Y-113507481D01*
X163662481Y-113626015D01*
X163523100Y-113719147D01*
X163368228Y-113783297D01*
X163203816Y-113816000D01*
X163036184Y-113816000D01*
X162871772Y-113783297D01*
X162716900Y-113719147D01*
X162577519Y-113626015D01*
X162458985Y-113507481D01*
X162365853Y-113368100D01*
X162301703Y-113213228D01*
X162269000Y-113048816D01*
X162269000Y-112881184D01*
X162301703Y-112716772D01*
X162365853Y-112561900D01*
X162458985Y-112422519D01*
X162577519Y-112303985D01*
X162716900Y-112210853D01*
X162871772Y-112146703D01*
X163036184Y-112114000D01*
X163203816Y-112114000D01*
X163368228Y-112146703D01*
G37*
G36*
X121998228Y-112146703D02*
G01*
X122153100Y-112210853D01*
X122292481Y-112303985D01*
X122411015Y-112422519D01*
X122504147Y-112561900D01*
X122568297Y-112716772D01*
X122601000Y-112881184D01*
X122601000Y-113048816D01*
X122568297Y-113213228D01*
X122504147Y-113368100D01*
X122411015Y-113507481D01*
X122292481Y-113626015D01*
X122153100Y-113719147D01*
X121998228Y-113783297D01*
X121833816Y-113816000D01*
X121666184Y-113816000D01*
X121501772Y-113783297D01*
X121346900Y-113719147D01*
X121207519Y-113626015D01*
X121088985Y-113507481D01*
X120995853Y-113368100D01*
X120931703Y-113213228D01*
X120899000Y-113048816D01*
X120899000Y-112881184D01*
X120931703Y-112716772D01*
X120995853Y-112561900D01*
X121088985Y-112422519D01*
X121207519Y-112303985D01*
X121346900Y-112210853D01*
X121501772Y-112146703D01*
X121666184Y-112114000D01*
X121833816Y-112114000D01*
X121998228Y-112146703D01*
G37*
G36*
X140868228Y-109606703D02*
G01*
X141023100Y-109670853D01*
X141162481Y-109763985D01*
X141281015Y-109882519D01*
X141374147Y-110021900D01*
X141438297Y-110176772D01*
X141471000Y-110341184D01*
X141471000Y-110508816D01*
X141438297Y-110673228D01*
X141374147Y-110828100D01*
X141281015Y-110967481D01*
X141162481Y-111086015D01*
X141023100Y-111179147D01*
X140868228Y-111243297D01*
X140703816Y-111276000D01*
X140536184Y-111276000D01*
X140371772Y-111243297D01*
X140216900Y-111179147D01*
X140077519Y-111086015D01*
X139958985Y-110967481D01*
X139865853Y-110828100D01*
X139801703Y-110673228D01*
X139769000Y-110508816D01*
X139769000Y-110341184D01*
X139801703Y-110176772D01*
X139865853Y-110021900D01*
X139958985Y-109882519D01*
X140077519Y-109763985D01*
X140216900Y-109670853D01*
X140371772Y-109606703D01*
X140536184Y-109574000D01*
X140703816Y-109574000D01*
X140868228Y-109606703D01*
G37*
G36*
X144498228Y-109606703D02*
G01*
X144653100Y-109670853D01*
X144792481Y-109763985D01*
X144911015Y-109882519D01*
X145004147Y-110021900D01*
X145068297Y-110176772D01*
X145101000Y-110341184D01*
X145101000Y-110508816D01*
X145068297Y-110673228D01*
X145004147Y-110828100D01*
X144911015Y-110967481D01*
X144792481Y-111086015D01*
X144653100Y-111179147D01*
X144498228Y-111243297D01*
X144333816Y-111276000D01*
X144166184Y-111276000D01*
X144001772Y-111243297D01*
X143846900Y-111179147D01*
X143707519Y-111086015D01*
X143588985Y-110967481D01*
X143495853Y-110828100D01*
X143431703Y-110673228D01*
X143399000Y-110508816D01*
X143399000Y-110341184D01*
X143431703Y-110176772D01*
X143495853Y-110021900D01*
X143588985Y-109882519D01*
X143707519Y-109763985D01*
X143846900Y-109670853D01*
X144001772Y-109606703D01*
X144166184Y-109574000D01*
X144333816Y-109574000D01*
X144498228Y-109606703D01*
G37*
G36*
X133248228Y-109606703D02*
G01*
X133403100Y-109670853D01*
X133542481Y-109763985D01*
X133661015Y-109882519D01*
X133754147Y-110021900D01*
X133818297Y-110176772D01*
X133851000Y-110341184D01*
X133851000Y-110508816D01*
X133818297Y-110673228D01*
X133754147Y-110828100D01*
X133661015Y-110967481D01*
X133542481Y-111086015D01*
X133403100Y-111179147D01*
X133248228Y-111243297D01*
X133083816Y-111276000D01*
X132916184Y-111276000D01*
X132751772Y-111243297D01*
X132596900Y-111179147D01*
X132457519Y-111086015D01*
X132338985Y-110967481D01*
X132245853Y-110828100D01*
X132181703Y-110673228D01*
X132149000Y-110508816D01*
X132149000Y-110341184D01*
X132181703Y-110176772D01*
X132245853Y-110021900D01*
X132338985Y-109882519D01*
X132457519Y-109763985D01*
X132596900Y-109670853D01*
X132751772Y-109606703D01*
X132916184Y-109574000D01*
X133083816Y-109574000D01*
X133248228Y-109606703D01*
G37*
G36*
X152118228Y-109606703D02*
G01*
X152273100Y-109670853D01*
X152412481Y-109763985D01*
X152531015Y-109882519D01*
X152624147Y-110021900D01*
X152688297Y-110176772D01*
X152721000Y-110341184D01*
X152721000Y-110508816D01*
X152688297Y-110673228D01*
X152624147Y-110828100D01*
X152531015Y-110967481D01*
X152412481Y-111086015D01*
X152273100Y-111179147D01*
X152118228Y-111243297D01*
X151953816Y-111276000D01*
X151786184Y-111276000D01*
X151621772Y-111243297D01*
X151466900Y-111179147D01*
X151327519Y-111086015D01*
X151208985Y-110967481D01*
X151115853Y-110828100D01*
X151051703Y-110673228D01*
X151019000Y-110508816D01*
X151019000Y-110341184D01*
X151051703Y-110176772D01*
X151115853Y-110021900D01*
X151208985Y-109882519D01*
X151327519Y-109763985D01*
X151466900Y-109670853D01*
X151621772Y-109606703D01*
X151786184Y-109574000D01*
X151953816Y-109574000D01*
X152118228Y-109606703D01*
G37*
G36*
X129618228Y-109606703D02*
G01*
X129773100Y-109670853D01*
X129912481Y-109763985D01*
X130031015Y-109882519D01*
X130124147Y-110021900D01*
X130188297Y-110176772D01*
X130221000Y-110341184D01*
X130221000Y-110508816D01*
X130188297Y-110673228D01*
X130124147Y-110828100D01*
X130031015Y-110967481D01*
X129912481Y-111086015D01*
X129773100Y-111179147D01*
X129618228Y-111243297D01*
X129453816Y-111276000D01*
X129286184Y-111276000D01*
X129121772Y-111243297D01*
X128966900Y-111179147D01*
X128827519Y-111086015D01*
X128708985Y-110967481D01*
X128615853Y-110828100D01*
X128551703Y-110673228D01*
X128519000Y-110508816D01*
X128519000Y-110341184D01*
X128551703Y-110176772D01*
X128615853Y-110021900D01*
X128708985Y-109882519D01*
X128827519Y-109763985D01*
X128966900Y-109670853D01*
X129121772Y-109606703D01*
X129286184Y-109574000D01*
X129453816Y-109574000D01*
X129618228Y-109606703D01*
G37*
G36*
X155748228Y-109606703D02*
G01*
X155903100Y-109670853D01*
X156042481Y-109763985D01*
X156161015Y-109882519D01*
X156254147Y-110021900D01*
X156318297Y-110176772D01*
X156351000Y-110341184D01*
X156351000Y-110508816D01*
X156318297Y-110673228D01*
X156254147Y-110828100D01*
X156161015Y-110967481D01*
X156042481Y-111086015D01*
X155903100Y-111179147D01*
X155748228Y-111243297D01*
X155583816Y-111276000D01*
X155416184Y-111276000D01*
X155251772Y-111243297D01*
X155096900Y-111179147D01*
X154957519Y-111086015D01*
X154838985Y-110967481D01*
X154745853Y-110828100D01*
X154681703Y-110673228D01*
X154649000Y-110508816D01*
X154649000Y-110341184D01*
X154681703Y-110176772D01*
X154745853Y-110021900D01*
X154838985Y-109882519D01*
X154957519Y-109763985D01*
X155096900Y-109670853D01*
X155251772Y-109606703D01*
X155416184Y-109574000D01*
X155583816Y-109574000D01*
X155748228Y-109606703D01*
G37*
G36*
X121998228Y-109606703D02*
G01*
X122153100Y-109670853D01*
X122292481Y-109763985D01*
X122411015Y-109882519D01*
X122504147Y-110021900D01*
X122568297Y-110176772D01*
X122601000Y-110341184D01*
X122601000Y-110508816D01*
X122568297Y-110673228D01*
X122504147Y-110828100D01*
X122411015Y-110967481D01*
X122292481Y-111086015D01*
X122153100Y-111179147D01*
X121998228Y-111243297D01*
X121833816Y-111276000D01*
X121666184Y-111276000D01*
X121501772Y-111243297D01*
X121346900Y-111179147D01*
X121207519Y-111086015D01*
X121088985Y-110967481D01*
X120995853Y-110828100D01*
X120931703Y-110673228D01*
X120899000Y-110508816D01*
X120899000Y-110341184D01*
X120931703Y-110176772D01*
X120995853Y-110021900D01*
X121088985Y-109882519D01*
X121207519Y-109763985D01*
X121346900Y-109670853D01*
X121501772Y-109606703D01*
X121666184Y-109574000D01*
X121833816Y-109574000D01*
X121998228Y-109606703D01*
G37*
G36*
X163368228Y-109606703D02*
G01*
X163523100Y-109670853D01*
X163662481Y-109763985D01*
X163781015Y-109882519D01*
X163874147Y-110021900D01*
X163938297Y-110176772D01*
X163971000Y-110341184D01*
X163971000Y-110508816D01*
X163938297Y-110673228D01*
X163874147Y-110828100D01*
X163781015Y-110967481D01*
X163662481Y-111086015D01*
X163523100Y-111179147D01*
X163368228Y-111243297D01*
X163203816Y-111276000D01*
X163036184Y-111276000D01*
X162871772Y-111243297D01*
X162716900Y-111179147D01*
X162577519Y-111086015D01*
X162458985Y-110967481D01*
X162365853Y-110828100D01*
X162301703Y-110673228D01*
X162269000Y-110508816D01*
X162269000Y-110341184D01*
X162301703Y-110176772D01*
X162365853Y-110021900D01*
X162458985Y-109882519D01*
X162577519Y-109763985D01*
X162716900Y-109670853D01*
X162871772Y-109606703D01*
X163036184Y-109574000D01*
X163203816Y-109574000D01*
X163368228Y-109606703D01*
G37*
G36*
X152118228Y-107066703D02*
G01*
X152273100Y-107130853D01*
X152412481Y-107223985D01*
X152531015Y-107342519D01*
X152624147Y-107481900D01*
X152688297Y-107636772D01*
X152721000Y-107801184D01*
X152721000Y-107968816D01*
X152688297Y-108133228D01*
X152624147Y-108288100D01*
X152531015Y-108427481D01*
X152412481Y-108546015D01*
X152273100Y-108639147D01*
X152118228Y-108703297D01*
X151953816Y-108736000D01*
X151786184Y-108736000D01*
X151621772Y-108703297D01*
X151466900Y-108639147D01*
X151327519Y-108546015D01*
X151208985Y-108427481D01*
X151115853Y-108288100D01*
X151051703Y-108133228D01*
X151019000Y-107968816D01*
X151019000Y-107801184D01*
X151051703Y-107636772D01*
X151115853Y-107481900D01*
X151208985Y-107342519D01*
X151327519Y-107223985D01*
X151466900Y-107130853D01*
X151621772Y-107066703D01*
X151786184Y-107034000D01*
X151953816Y-107034000D01*
X152118228Y-107066703D01*
G37*
G36*
X155748228Y-107066703D02*
G01*
X155903100Y-107130853D01*
X156042481Y-107223985D01*
X156161015Y-107342519D01*
X156254147Y-107481900D01*
X156318297Y-107636772D01*
X156351000Y-107801184D01*
X156351000Y-107968816D01*
X156318297Y-108133228D01*
X156254147Y-108288100D01*
X156161015Y-108427481D01*
X156042481Y-108546015D01*
X155903100Y-108639147D01*
X155748228Y-108703297D01*
X155583816Y-108736000D01*
X155416184Y-108736000D01*
X155251772Y-108703297D01*
X155096900Y-108639147D01*
X154957519Y-108546015D01*
X154838985Y-108427481D01*
X154745853Y-108288100D01*
X154681703Y-108133228D01*
X154649000Y-107968816D01*
X154649000Y-107801184D01*
X154681703Y-107636772D01*
X154745853Y-107481900D01*
X154838985Y-107342519D01*
X154957519Y-107223985D01*
X155096900Y-107130853D01*
X155251772Y-107066703D01*
X155416184Y-107034000D01*
X155583816Y-107034000D01*
X155748228Y-107066703D01*
G37*
G36*
X140868228Y-107066703D02*
G01*
X141023100Y-107130853D01*
X141162481Y-107223985D01*
X141281015Y-107342519D01*
X141374147Y-107481900D01*
X141438297Y-107636772D01*
X141471000Y-107801184D01*
X141471000Y-107968816D01*
X141438297Y-108133228D01*
X141374147Y-108288100D01*
X141281015Y-108427481D01*
X141162481Y-108546015D01*
X141023100Y-108639147D01*
X140868228Y-108703297D01*
X140703816Y-108736000D01*
X140536184Y-108736000D01*
X140371772Y-108703297D01*
X140216900Y-108639147D01*
X140077519Y-108546015D01*
X139958985Y-108427481D01*
X139865853Y-108288100D01*
X139801703Y-108133228D01*
X139769000Y-107968816D01*
X139769000Y-107801184D01*
X139801703Y-107636772D01*
X139865853Y-107481900D01*
X139958985Y-107342519D01*
X140077519Y-107223985D01*
X140216900Y-107130853D01*
X140371772Y-107066703D01*
X140536184Y-107034000D01*
X140703816Y-107034000D01*
X140868228Y-107066703D01*
G37*
G36*
X144498228Y-107066703D02*
G01*
X144653100Y-107130853D01*
X144792481Y-107223985D01*
X144911015Y-107342519D01*
X145004147Y-107481900D01*
X145068297Y-107636772D01*
X145101000Y-107801184D01*
X145101000Y-107968816D01*
X145068297Y-108133228D01*
X145004147Y-108288100D01*
X144911015Y-108427481D01*
X144792481Y-108546015D01*
X144653100Y-108639147D01*
X144498228Y-108703297D01*
X144333816Y-108736000D01*
X144166184Y-108736000D01*
X144001772Y-108703297D01*
X143846900Y-108639147D01*
X143707519Y-108546015D01*
X143588985Y-108427481D01*
X143495853Y-108288100D01*
X143431703Y-108133228D01*
X143399000Y-107968816D01*
X143399000Y-107801184D01*
X143431703Y-107636772D01*
X143495853Y-107481900D01*
X143588985Y-107342519D01*
X143707519Y-107223985D01*
X143846900Y-107130853D01*
X144001772Y-107066703D01*
X144166184Y-107034000D01*
X144333816Y-107034000D01*
X144498228Y-107066703D01*
G37*
G36*
X129618228Y-107066703D02*
G01*
X129773100Y-107130853D01*
X129912481Y-107223985D01*
X130031015Y-107342519D01*
X130124147Y-107481900D01*
X130188297Y-107636772D01*
X130221000Y-107801184D01*
X130221000Y-107968816D01*
X130188297Y-108133228D01*
X130124147Y-108288100D01*
X130031015Y-108427481D01*
X129912481Y-108546015D01*
X129773100Y-108639147D01*
X129618228Y-108703297D01*
X129453816Y-108736000D01*
X129286184Y-108736000D01*
X129121772Y-108703297D01*
X128966900Y-108639147D01*
X128827519Y-108546015D01*
X128708985Y-108427481D01*
X128615853Y-108288100D01*
X128551703Y-108133228D01*
X128519000Y-107968816D01*
X128519000Y-107801184D01*
X128551703Y-107636772D01*
X128615853Y-107481900D01*
X128708985Y-107342519D01*
X128827519Y-107223985D01*
X128966900Y-107130853D01*
X129121772Y-107066703D01*
X129286184Y-107034000D01*
X129453816Y-107034000D01*
X129618228Y-107066703D01*
G37*
G36*
X133248228Y-107066703D02*
G01*
X133403100Y-107130853D01*
X133542481Y-107223985D01*
X133661015Y-107342519D01*
X133754147Y-107481900D01*
X133818297Y-107636772D01*
X133851000Y-107801184D01*
X133851000Y-107968816D01*
X133818297Y-108133228D01*
X133754147Y-108288100D01*
X133661015Y-108427481D01*
X133542481Y-108546015D01*
X133403100Y-108639147D01*
X133248228Y-108703297D01*
X133083816Y-108736000D01*
X132916184Y-108736000D01*
X132751772Y-108703297D01*
X132596900Y-108639147D01*
X132457519Y-108546015D01*
X132338985Y-108427481D01*
X132245853Y-108288100D01*
X132181703Y-108133228D01*
X132149000Y-107968816D01*
X132149000Y-107801184D01*
X132181703Y-107636772D01*
X132245853Y-107481900D01*
X132338985Y-107342519D01*
X132457519Y-107223985D01*
X132596900Y-107130853D01*
X132751772Y-107066703D01*
X132916184Y-107034000D01*
X133083816Y-107034000D01*
X133248228Y-107066703D01*
G37*
G36*
X121998228Y-107066703D02*
G01*
X122153100Y-107130853D01*
X122292481Y-107223985D01*
X122411015Y-107342519D01*
X122504147Y-107481900D01*
X122568297Y-107636772D01*
X122601000Y-107801184D01*
X122601000Y-107968816D01*
X122568297Y-108133228D01*
X122504147Y-108288100D01*
X122411015Y-108427481D01*
X122292481Y-108546015D01*
X122153100Y-108639147D01*
X121998228Y-108703297D01*
X121833816Y-108736000D01*
X121666184Y-108736000D01*
X121501772Y-108703297D01*
X121346900Y-108639147D01*
X121207519Y-108546015D01*
X121088985Y-108427481D01*
X120995853Y-108288100D01*
X120931703Y-108133228D01*
X120899000Y-107968816D01*
X120899000Y-107801184D01*
X120931703Y-107636772D01*
X120995853Y-107481900D01*
X121088985Y-107342519D01*
X121207519Y-107223985D01*
X121346900Y-107130853D01*
X121501772Y-107066703D01*
X121666184Y-107034000D01*
X121833816Y-107034000D01*
X121998228Y-107066703D01*
G37*
G36*
X163368228Y-107066703D02*
G01*
X163523100Y-107130853D01*
X163662481Y-107223985D01*
X163781015Y-107342519D01*
X163874147Y-107481900D01*
X163938297Y-107636772D01*
X163971000Y-107801184D01*
X163971000Y-107968816D01*
X163938297Y-108133228D01*
X163874147Y-108288100D01*
X163781015Y-108427481D01*
X163662481Y-108546015D01*
X163523100Y-108639147D01*
X163368228Y-108703297D01*
X163203816Y-108736000D01*
X163036184Y-108736000D01*
X162871772Y-108703297D01*
X162716900Y-108639147D01*
X162577519Y-108546015D01*
X162458985Y-108427481D01*
X162365853Y-108288100D01*
X162301703Y-108133228D01*
X162269000Y-107968816D01*
X162269000Y-107801184D01*
X162301703Y-107636772D01*
X162365853Y-107481900D01*
X162458985Y-107342519D01*
X162577519Y-107223985D01*
X162716900Y-107130853D01*
X162871772Y-107066703D01*
X163036184Y-107034000D01*
X163203816Y-107034000D01*
X163368228Y-107066703D01*
G37*
G36*
X122601000Y-106196000D02*
G01*
X120899000Y-106196000D01*
X120899000Y-104494000D01*
X122601000Y-104494000D01*
X122601000Y-106196000D01*
G37*
G36*
X163368228Y-104526703D02*
G01*
X163523100Y-104590853D01*
X163662481Y-104683985D01*
X163781015Y-104802519D01*
X163874147Y-104941900D01*
X163938297Y-105096772D01*
X163971000Y-105261184D01*
X163971000Y-105428816D01*
X163938297Y-105593228D01*
X163874147Y-105748100D01*
X163781015Y-105887481D01*
X163662481Y-106006015D01*
X163523100Y-106099147D01*
X163368228Y-106163297D01*
X163203816Y-106196000D01*
X163036184Y-106196000D01*
X162871772Y-106163297D01*
X162716900Y-106099147D01*
X162577519Y-106006015D01*
X162458985Y-105887481D01*
X162365853Y-105748100D01*
X162301703Y-105593228D01*
X162269000Y-105428816D01*
X162269000Y-105261184D01*
X162301703Y-105096772D01*
X162365853Y-104941900D01*
X162458985Y-104802519D01*
X162577519Y-104683985D01*
X162716900Y-104590853D01*
X162871772Y-104526703D01*
X163036184Y-104494000D01*
X163203816Y-104494000D01*
X163368228Y-104526703D01*
G37*
G36*
X156351000Y-106196000D02*
G01*
X154649000Y-106196000D01*
X154649000Y-104494000D01*
X156351000Y-104494000D01*
X156351000Y-106196000D01*
G37*
G36*
X152118228Y-104526703D02*
G01*
X152273100Y-104590853D01*
X152412481Y-104683985D01*
X152531015Y-104802519D01*
X152624147Y-104941900D01*
X152688297Y-105096772D01*
X152721000Y-105261184D01*
X152721000Y-105428816D01*
X152688297Y-105593228D01*
X152624147Y-105748100D01*
X152531015Y-105887481D01*
X152412481Y-106006015D01*
X152273100Y-106099147D01*
X152118228Y-106163297D01*
X151953816Y-106196000D01*
X151786184Y-106196000D01*
X151621772Y-106163297D01*
X151466900Y-106099147D01*
X151327519Y-106006015D01*
X151208985Y-105887481D01*
X151115853Y-105748100D01*
X151051703Y-105593228D01*
X151019000Y-105428816D01*
X151019000Y-105261184D01*
X151051703Y-105096772D01*
X151115853Y-104941900D01*
X151208985Y-104802519D01*
X151327519Y-104683985D01*
X151466900Y-104590853D01*
X151621772Y-104526703D01*
X151786184Y-104494000D01*
X151953816Y-104494000D01*
X152118228Y-104526703D01*
G37*
G36*
X133851000Y-106196000D02*
G01*
X132149000Y-106196000D01*
X132149000Y-104494000D01*
X133851000Y-104494000D01*
X133851000Y-106196000D01*
G37*
G36*
X129618228Y-104526703D02*
G01*
X129773100Y-104590853D01*
X129912481Y-104683985D01*
X130031015Y-104802519D01*
X130124147Y-104941900D01*
X130188297Y-105096772D01*
X130221000Y-105261184D01*
X130221000Y-105428816D01*
X130188297Y-105593228D01*
X130124147Y-105748100D01*
X130031015Y-105887481D01*
X129912481Y-106006015D01*
X129773100Y-106099147D01*
X129618228Y-106163297D01*
X129453816Y-106196000D01*
X129286184Y-106196000D01*
X129121772Y-106163297D01*
X128966900Y-106099147D01*
X128827519Y-106006015D01*
X128708985Y-105887481D01*
X128615853Y-105748100D01*
X128551703Y-105593228D01*
X128519000Y-105428816D01*
X128519000Y-105261184D01*
X128551703Y-105096772D01*
X128615853Y-104941900D01*
X128708985Y-104802519D01*
X128827519Y-104683985D01*
X128966900Y-104590853D01*
X129121772Y-104526703D01*
X129286184Y-104494000D01*
X129453816Y-104494000D01*
X129618228Y-104526703D01*
G37*
G36*
X145101000Y-106196000D02*
G01*
X143399000Y-106196000D01*
X143399000Y-104494000D01*
X145101000Y-104494000D01*
X145101000Y-106196000D01*
G37*
G36*
X140868228Y-104526703D02*
G01*
X141023100Y-104590853D01*
X141162481Y-104683985D01*
X141281015Y-104802519D01*
X141374147Y-104941900D01*
X141438297Y-105096772D01*
X141471000Y-105261184D01*
X141471000Y-105428816D01*
X141438297Y-105593228D01*
X141374147Y-105748100D01*
X141281015Y-105887481D01*
X141162481Y-106006015D01*
X141023100Y-106099147D01*
X140868228Y-106163297D01*
X140703816Y-106196000D01*
X140536184Y-106196000D01*
X140371772Y-106163297D01*
X140216900Y-106099147D01*
X140077519Y-106006015D01*
X139958985Y-105887481D01*
X139865853Y-105748100D01*
X139801703Y-105593228D01*
X139769000Y-105428816D01*
X139769000Y-105261184D01*
X139801703Y-105096772D01*
X139865853Y-104941900D01*
X139958985Y-104802519D01*
X140077519Y-104683985D01*
X140216900Y-104590853D01*
X140371772Y-104526703D01*
X140536184Y-104494000D01*
X140703816Y-104494000D01*
X140868228Y-104526703D01*
G37*
G36*
X191618228Y-104421703D02*
G01*
X191773100Y-104485853D01*
X191912481Y-104578985D01*
X192031015Y-104697519D01*
X192124147Y-104836900D01*
X192188297Y-104991772D01*
X192221000Y-105156184D01*
X192221000Y-105323816D01*
X192188297Y-105488228D01*
X192124147Y-105643100D01*
X192031015Y-105782481D01*
X191912481Y-105901015D01*
X191773100Y-105994147D01*
X191618228Y-106058297D01*
X191453816Y-106091000D01*
X191286184Y-106091000D01*
X191121772Y-106058297D01*
X190966900Y-105994147D01*
X190827519Y-105901015D01*
X190708985Y-105782481D01*
X190615853Y-105643100D01*
X190551703Y-105488228D01*
X190519000Y-105323816D01*
X190519000Y-105156184D01*
X190551703Y-104991772D01*
X190615853Y-104836900D01*
X190708985Y-104697519D01*
X190827519Y-104578985D01*
X190966900Y-104485853D01*
X191121772Y-104421703D01*
X191286184Y-104389000D01*
X191453816Y-104389000D01*
X191618228Y-104421703D01*
G37*
G36*
X82748228Y-104421703D02*
G01*
X82903100Y-104485853D01*
X83042481Y-104578985D01*
X83161015Y-104697519D01*
X83254147Y-104836900D01*
X83318297Y-104991772D01*
X83351000Y-105156184D01*
X83351000Y-105323816D01*
X83318297Y-105488228D01*
X83254147Y-105643100D01*
X83161015Y-105782481D01*
X83042481Y-105901015D01*
X82903100Y-105994147D01*
X82748228Y-106058297D01*
X82583816Y-106091000D01*
X82416184Y-106091000D01*
X82251772Y-106058297D01*
X82096900Y-105994147D01*
X81957519Y-105901015D01*
X81838985Y-105782481D01*
X81745853Y-105643100D01*
X81681703Y-105488228D01*
X81649000Y-105323816D01*
X81649000Y-105156184D01*
X81681703Y-104991772D01*
X81745853Y-104836900D01*
X81838985Y-104697519D01*
X81957519Y-104578985D01*
X82096900Y-104485853D01*
X82251772Y-104421703D01*
X82416184Y-104389000D01*
X82583816Y-104389000D01*
X82748228Y-104421703D01*
G37*
G36*
X90368228Y-104421703D02*
G01*
X90523100Y-104485853D01*
X90662481Y-104578985D01*
X90781015Y-104697519D01*
X90874147Y-104836900D01*
X90938297Y-104991772D01*
X90971000Y-105156184D01*
X90971000Y-105323816D01*
X90938297Y-105488228D01*
X90874147Y-105643100D01*
X90781015Y-105782481D01*
X90662481Y-105901015D01*
X90523100Y-105994147D01*
X90368228Y-106058297D01*
X90203816Y-106091000D01*
X90036184Y-106091000D01*
X89871772Y-106058297D01*
X89716900Y-105994147D01*
X89577519Y-105901015D01*
X89458985Y-105782481D01*
X89365853Y-105643100D01*
X89301703Y-105488228D01*
X89269000Y-105323816D01*
X89269000Y-105156184D01*
X89301703Y-104991772D01*
X89365853Y-104836900D01*
X89458985Y-104697519D01*
X89577519Y-104578985D01*
X89716900Y-104485853D01*
X89871772Y-104421703D01*
X90036184Y-104389000D01*
X90203816Y-104389000D01*
X90368228Y-104421703D01*
G37*
G36*
X202868228Y-104421703D02*
G01*
X203023100Y-104485853D01*
X203162481Y-104578985D01*
X203281015Y-104697519D01*
X203374147Y-104836900D01*
X203438297Y-104991772D01*
X203471000Y-105156184D01*
X203471000Y-105323816D01*
X203438297Y-105488228D01*
X203374147Y-105643100D01*
X203281015Y-105782481D01*
X203162481Y-105901015D01*
X203023100Y-105994147D01*
X202868228Y-106058297D01*
X202703816Y-106091000D01*
X202536184Y-106091000D01*
X202371772Y-106058297D01*
X202216900Y-105994147D01*
X202077519Y-105901015D01*
X201958985Y-105782481D01*
X201865853Y-105643100D01*
X201801703Y-105488228D01*
X201769000Y-105323816D01*
X201769000Y-105156184D01*
X201801703Y-104991772D01*
X201865853Y-104836900D01*
X201958985Y-104697519D01*
X202077519Y-104578985D01*
X202216900Y-104485853D01*
X202371772Y-104421703D01*
X202536184Y-104389000D01*
X202703816Y-104389000D01*
X202868228Y-104421703D01*
G37*
G36*
X183998228Y-104421703D02*
G01*
X184153100Y-104485853D01*
X184292481Y-104578985D01*
X184411015Y-104697519D01*
X184504147Y-104836900D01*
X184568297Y-104991772D01*
X184601000Y-105156184D01*
X184601000Y-105323816D01*
X184568297Y-105488228D01*
X184504147Y-105643100D01*
X184411015Y-105782481D01*
X184292481Y-105901015D01*
X184153100Y-105994147D01*
X183998228Y-106058297D01*
X183833816Y-106091000D01*
X183666184Y-106091000D01*
X183501772Y-106058297D01*
X183346900Y-105994147D01*
X183207519Y-105901015D01*
X183088985Y-105782481D01*
X182995853Y-105643100D01*
X182931703Y-105488228D01*
X182899000Y-105323816D01*
X182899000Y-105156184D01*
X182931703Y-104991772D01*
X182995853Y-104836900D01*
X183088985Y-104697519D01*
X183207519Y-104578985D01*
X183346900Y-104485853D01*
X183501772Y-104421703D01*
X183666184Y-104389000D01*
X183833816Y-104389000D01*
X183998228Y-104421703D01*
G37*
G36*
X180368228Y-104421703D02*
G01*
X180523100Y-104485853D01*
X180662481Y-104578985D01*
X180781015Y-104697519D01*
X180874147Y-104836900D01*
X180938297Y-104991772D01*
X180971000Y-105156184D01*
X180971000Y-105323816D01*
X180938297Y-105488228D01*
X180874147Y-105643100D01*
X180781015Y-105782481D01*
X180662481Y-105901015D01*
X180523100Y-105994147D01*
X180368228Y-106058297D01*
X180203816Y-106091000D01*
X180036184Y-106091000D01*
X179871772Y-106058297D01*
X179716900Y-105994147D01*
X179577519Y-105901015D01*
X179458985Y-105782481D01*
X179365853Y-105643100D01*
X179301703Y-105488228D01*
X179269000Y-105323816D01*
X179269000Y-105156184D01*
X179301703Y-104991772D01*
X179365853Y-104836900D01*
X179458985Y-104697519D01*
X179577519Y-104578985D01*
X179716900Y-104485853D01*
X179871772Y-104421703D01*
X180036184Y-104389000D01*
X180203816Y-104389000D01*
X180368228Y-104421703D01*
G37*
G36*
X172748228Y-104421703D02*
G01*
X172903100Y-104485853D01*
X173042481Y-104578985D01*
X173161015Y-104697519D01*
X173254147Y-104836900D01*
X173318297Y-104991772D01*
X173351000Y-105156184D01*
X173351000Y-105323816D01*
X173318297Y-105488228D01*
X173254147Y-105643100D01*
X173161015Y-105782481D01*
X173042481Y-105901015D01*
X172903100Y-105994147D01*
X172748228Y-106058297D01*
X172583816Y-106091000D01*
X172416184Y-106091000D01*
X172251772Y-106058297D01*
X172096900Y-105994147D01*
X171957519Y-105901015D01*
X171838985Y-105782481D01*
X171745853Y-105643100D01*
X171681703Y-105488228D01*
X171649000Y-105323816D01*
X171649000Y-105156184D01*
X171681703Y-104991772D01*
X171745853Y-104836900D01*
X171838985Y-104697519D01*
X171957519Y-104578985D01*
X172096900Y-104485853D01*
X172251772Y-104421703D01*
X172416184Y-104389000D01*
X172583816Y-104389000D01*
X172748228Y-104421703D01*
G37*
G36*
X112868228Y-104421703D02*
G01*
X113023100Y-104485853D01*
X113162481Y-104578985D01*
X113281015Y-104697519D01*
X113374147Y-104836900D01*
X113438297Y-104991772D01*
X113471000Y-105156184D01*
X113471000Y-105323816D01*
X113438297Y-105488228D01*
X113374147Y-105643100D01*
X113281015Y-105782481D01*
X113162481Y-105901015D01*
X113023100Y-105994147D01*
X112868228Y-106058297D01*
X112703816Y-106091000D01*
X112536184Y-106091000D01*
X112371772Y-106058297D01*
X112216900Y-105994147D01*
X112077519Y-105901015D01*
X111958985Y-105782481D01*
X111865853Y-105643100D01*
X111801703Y-105488228D01*
X111769000Y-105323816D01*
X111769000Y-105156184D01*
X111801703Y-104991772D01*
X111865853Y-104836900D01*
X111958985Y-104697519D01*
X112077519Y-104578985D01*
X112216900Y-104485853D01*
X112371772Y-104421703D01*
X112536184Y-104389000D01*
X112703816Y-104389000D01*
X112868228Y-104421703D01*
G37*
G36*
X195248228Y-104421703D02*
G01*
X195403100Y-104485853D01*
X195542481Y-104578985D01*
X195661015Y-104697519D01*
X195754147Y-104836900D01*
X195818297Y-104991772D01*
X195851000Y-105156184D01*
X195851000Y-105323816D01*
X195818297Y-105488228D01*
X195754147Y-105643100D01*
X195661015Y-105782481D01*
X195542481Y-105901015D01*
X195403100Y-105994147D01*
X195248228Y-106058297D01*
X195083816Y-106091000D01*
X194916184Y-106091000D01*
X194751772Y-106058297D01*
X194596900Y-105994147D01*
X194457519Y-105901015D01*
X194338985Y-105782481D01*
X194245853Y-105643100D01*
X194181703Y-105488228D01*
X194149000Y-105323816D01*
X194149000Y-105156184D01*
X194181703Y-104991772D01*
X194245853Y-104836900D01*
X194338985Y-104697519D01*
X194457519Y-104578985D01*
X194596900Y-104485853D01*
X194751772Y-104421703D01*
X194916184Y-104389000D01*
X195083816Y-104389000D01*
X195248228Y-104421703D01*
G37*
G36*
X101618228Y-104421703D02*
G01*
X101773100Y-104485853D01*
X101912481Y-104578985D01*
X102031015Y-104697519D01*
X102124147Y-104836900D01*
X102188297Y-104991772D01*
X102221000Y-105156184D01*
X102221000Y-105323816D01*
X102188297Y-105488228D01*
X102124147Y-105643100D01*
X102031015Y-105782481D01*
X101912481Y-105901015D01*
X101773100Y-105994147D01*
X101618228Y-106058297D01*
X101453816Y-106091000D01*
X101286184Y-106091000D01*
X101121772Y-106058297D01*
X100966900Y-105994147D01*
X100827519Y-105901015D01*
X100708985Y-105782481D01*
X100615853Y-105643100D01*
X100551703Y-105488228D01*
X100519000Y-105323816D01*
X100519000Y-105156184D01*
X100551703Y-104991772D01*
X100615853Y-104836900D01*
X100708985Y-104697519D01*
X100827519Y-104578985D01*
X100966900Y-104485853D01*
X101121772Y-104421703D01*
X101286184Y-104389000D01*
X101453816Y-104389000D01*
X101618228Y-104421703D01*
G37*
G36*
X93998228Y-104421703D02*
G01*
X94153100Y-104485853D01*
X94292481Y-104578985D01*
X94411015Y-104697519D01*
X94504147Y-104836900D01*
X94568297Y-104991772D01*
X94601000Y-105156184D01*
X94601000Y-105323816D01*
X94568297Y-105488228D01*
X94504147Y-105643100D01*
X94411015Y-105782481D01*
X94292481Y-105901015D01*
X94153100Y-105994147D01*
X93998228Y-106058297D01*
X93833816Y-106091000D01*
X93666184Y-106091000D01*
X93501772Y-106058297D01*
X93346900Y-105994147D01*
X93207519Y-105901015D01*
X93088985Y-105782481D01*
X92995853Y-105643100D01*
X92931703Y-105488228D01*
X92899000Y-105323816D01*
X92899000Y-105156184D01*
X92931703Y-104991772D01*
X92995853Y-104836900D01*
X93088985Y-104697519D01*
X93207519Y-104578985D01*
X93346900Y-104485853D01*
X93501772Y-104421703D01*
X93666184Y-104389000D01*
X93833816Y-104389000D01*
X93998228Y-104421703D01*
G37*
G36*
X105248228Y-104421703D02*
G01*
X105403100Y-104485853D01*
X105542481Y-104578985D01*
X105661015Y-104697519D01*
X105754147Y-104836900D01*
X105818297Y-104991772D01*
X105851000Y-105156184D01*
X105851000Y-105323816D01*
X105818297Y-105488228D01*
X105754147Y-105643100D01*
X105661015Y-105782481D01*
X105542481Y-105901015D01*
X105403100Y-105994147D01*
X105248228Y-106058297D01*
X105083816Y-106091000D01*
X104916184Y-106091000D01*
X104751772Y-106058297D01*
X104596900Y-105994147D01*
X104457519Y-105901015D01*
X104338985Y-105782481D01*
X104245853Y-105643100D01*
X104181703Y-105488228D01*
X104149000Y-105323816D01*
X104149000Y-105156184D01*
X104181703Y-104991772D01*
X104245853Y-104836900D01*
X104338985Y-104697519D01*
X104457519Y-104578985D01*
X104596900Y-104485853D01*
X104751772Y-104421703D01*
X104916184Y-104389000D01*
X105083816Y-104389000D01*
X105248228Y-104421703D01*
G37*
G36*
X202868228Y-101881703D02*
G01*
X203023100Y-101945853D01*
X203162481Y-102038985D01*
X203281015Y-102157519D01*
X203374147Y-102296900D01*
X203438297Y-102451772D01*
X203471000Y-102616184D01*
X203471000Y-102783816D01*
X203438297Y-102948228D01*
X203374147Y-103103100D01*
X203281015Y-103242481D01*
X203162481Y-103361015D01*
X203023100Y-103454147D01*
X202868228Y-103518297D01*
X202703816Y-103551000D01*
X202536184Y-103551000D01*
X202371772Y-103518297D01*
X202216900Y-103454147D01*
X202077519Y-103361015D01*
X201958985Y-103242481D01*
X201865853Y-103103100D01*
X201801703Y-102948228D01*
X201769000Y-102783816D01*
X201769000Y-102616184D01*
X201801703Y-102451772D01*
X201865853Y-102296900D01*
X201958985Y-102157519D01*
X202077519Y-102038985D01*
X202216900Y-101945853D01*
X202371772Y-101881703D01*
X202536184Y-101849000D01*
X202703816Y-101849000D01*
X202868228Y-101881703D01*
G37*
G36*
X82748228Y-101881703D02*
G01*
X82903100Y-101945853D01*
X83042481Y-102038985D01*
X83161015Y-102157519D01*
X83254147Y-102296900D01*
X83318297Y-102451772D01*
X83351000Y-102616184D01*
X83351000Y-102783816D01*
X83318297Y-102948228D01*
X83254147Y-103103100D01*
X83161015Y-103242481D01*
X83042481Y-103361015D01*
X82903100Y-103454147D01*
X82748228Y-103518297D01*
X82583816Y-103551000D01*
X82416184Y-103551000D01*
X82251772Y-103518297D01*
X82096900Y-103454147D01*
X81957519Y-103361015D01*
X81838985Y-103242481D01*
X81745853Y-103103100D01*
X81681703Y-102948228D01*
X81649000Y-102783816D01*
X81649000Y-102616184D01*
X81681703Y-102451772D01*
X81745853Y-102296900D01*
X81838985Y-102157519D01*
X81957519Y-102038985D01*
X82096900Y-101945853D01*
X82251772Y-101881703D01*
X82416184Y-101849000D01*
X82583816Y-101849000D01*
X82748228Y-101881703D01*
G37*
G36*
X90368228Y-101881703D02*
G01*
X90523100Y-101945853D01*
X90662481Y-102038985D01*
X90781015Y-102157519D01*
X90874147Y-102296900D01*
X90938297Y-102451772D01*
X90971000Y-102616184D01*
X90971000Y-102783816D01*
X90938297Y-102948228D01*
X90874147Y-103103100D01*
X90781015Y-103242481D01*
X90662481Y-103361015D01*
X90523100Y-103454147D01*
X90368228Y-103518297D01*
X90203816Y-103551000D01*
X90036184Y-103551000D01*
X89871772Y-103518297D01*
X89716900Y-103454147D01*
X89577519Y-103361015D01*
X89458985Y-103242481D01*
X89365853Y-103103100D01*
X89301703Y-102948228D01*
X89269000Y-102783816D01*
X89269000Y-102616184D01*
X89301703Y-102451772D01*
X89365853Y-102296900D01*
X89458985Y-102157519D01*
X89577519Y-102038985D01*
X89716900Y-101945853D01*
X89871772Y-101881703D01*
X90036184Y-101849000D01*
X90203816Y-101849000D01*
X90368228Y-101881703D01*
G37*
G36*
X105248228Y-101881703D02*
G01*
X105403100Y-101945853D01*
X105542481Y-102038985D01*
X105661015Y-102157519D01*
X105754147Y-102296900D01*
X105818297Y-102451772D01*
X105851000Y-102616184D01*
X105851000Y-102783816D01*
X105818297Y-102948228D01*
X105754147Y-103103100D01*
X105661015Y-103242481D01*
X105542481Y-103361015D01*
X105403100Y-103454147D01*
X105248228Y-103518297D01*
X105083816Y-103551000D01*
X104916184Y-103551000D01*
X104751772Y-103518297D01*
X104596900Y-103454147D01*
X104457519Y-103361015D01*
X104338985Y-103242481D01*
X104245853Y-103103100D01*
X104181703Y-102948228D01*
X104149000Y-102783816D01*
X104149000Y-102616184D01*
X104181703Y-102451772D01*
X104245853Y-102296900D01*
X104338985Y-102157519D01*
X104457519Y-102038985D01*
X104596900Y-101945853D01*
X104751772Y-101881703D01*
X104916184Y-101849000D01*
X105083816Y-101849000D01*
X105248228Y-101881703D01*
G37*
G36*
X180368228Y-101881703D02*
G01*
X180523100Y-101945853D01*
X180662481Y-102038985D01*
X180781015Y-102157519D01*
X180874147Y-102296900D01*
X180938297Y-102451772D01*
X180971000Y-102616184D01*
X180971000Y-102783816D01*
X180938297Y-102948228D01*
X180874147Y-103103100D01*
X180781015Y-103242481D01*
X180662481Y-103361015D01*
X180523100Y-103454147D01*
X180368228Y-103518297D01*
X180203816Y-103551000D01*
X180036184Y-103551000D01*
X179871772Y-103518297D01*
X179716900Y-103454147D01*
X179577519Y-103361015D01*
X179458985Y-103242481D01*
X179365853Y-103103100D01*
X179301703Y-102948228D01*
X179269000Y-102783816D01*
X179269000Y-102616184D01*
X179301703Y-102451772D01*
X179365853Y-102296900D01*
X179458985Y-102157519D01*
X179577519Y-102038985D01*
X179716900Y-101945853D01*
X179871772Y-101881703D01*
X180036184Y-101849000D01*
X180203816Y-101849000D01*
X180368228Y-101881703D01*
G37*
G36*
X172748228Y-101881703D02*
G01*
X172903100Y-101945853D01*
X173042481Y-102038985D01*
X173161015Y-102157519D01*
X173254147Y-102296900D01*
X173318297Y-102451772D01*
X173351000Y-102616184D01*
X173351000Y-102783816D01*
X173318297Y-102948228D01*
X173254147Y-103103100D01*
X173161015Y-103242481D01*
X173042481Y-103361015D01*
X172903100Y-103454147D01*
X172748228Y-103518297D01*
X172583816Y-103551000D01*
X172416184Y-103551000D01*
X172251772Y-103518297D01*
X172096900Y-103454147D01*
X171957519Y-103361015D01*
X171838985Y-103242481D01*
X171745853Y-103103100D01*
X171681703Y-102948228D01*
X171649000Y-102783816D01*
X171649000Y-102616184D01*
X171681703Y-102451772D01*
X171745853Y-102296900D01*
X171838985Y-102157519D01*
X171957519Y-102038985D01*
X172096900Y-101945853D01*
X172251772Y-101881703D01*
X172416184Y-101849000D01*
X172583816Y-101849000D01*
X172748228Y-101881703D01*
G37*
G36*
X191618228Y-101881703D02*
G01*
X191773100Y-101945853D01*
X191912481Y-102038985D01*
X192031015Y-102157519D01*
X192124147Y-102296900D01*
X192188297Y-102451772D01*
X192221000Y-102616184D01*
X192221000Y-102783816D01*
X192188297Y-102948228D01*
X192124147Y-103103100D01*
X192031015Y-103242481D01*
X191912481Y-103361015D01*
X191773100Y-103454147D01*
X191618228Y-103518297D01*
X191453816Y-103551000D01*
X191286184Y-103551000D01*
X191121772Y-103518297D01*
X190966900Y-103454147D01*
X190827519Y-103361015D01*
X190708985Y-103242481D01*
X190615853Y-103103100D01*
X190551703Y-102948228D01*
X190519000Y-102783816D01*
X190519000Y-102616184D01*
X190551703Y-102451772D01*
X190615853Y-102296900D01*
X190708985Y-102157519D01*
X190827519Y-102038985D01*
X190966900Y-101945853D01*
X191121772Y-101881703D01*
X191286184Y-101849000D01*
X191453816Y-101849000D01*
X191618228Y-101881703D01*
G37*
G36*
X183998228Y-101881703D02*
G01*
X184153100Y-101945853D01*
X184292481Y-102038985D01*
X184411015Y-102157519D01*
X184504147Y-102296900D01*
X184568297Y-102451772D01*
X184601000Y-102616184D01*
X184601000Y-102783816D01*
X184568297Y-102948228D01*
X184504147Y-103103100D01*
X184411015Y-103242481D01*
X184292481Y-103361015D01*
X184153100Y-103454147D01*
X183998228Y-103518297D01*
X183833816Y-103551000D01*
X183666184Y-103551000D01*
X183501772Y-103518297D01*
X183346900Y-103454147D01*
X183207519Y-103361015D01*
X183088985Y-103242481D01*
X182995853Y-103103100D01*
X182931703Y-102948228D01*
X182899000Y-102783816D01*
X182899000Y-102616184D01*
X182931703Y-102451772D01*
X182995853Y-102296900D01*
X183088985Y-102157519D01*
X183207519Y-102038985D01*
X183346900Y-101945853D01*
X183501772Y-101881703D01*
X183666184Y-101849000D01*
X183833816Y-101849000D01*
X183998228Y-101881703D01*
G37*
G36*
X101618228Y-101881703D02*
G01*
X101773100Y-101945853D01*
X101912481Y-102038985D01*
X102031015Y-102157519D01*
X102124147Y-102296900D01*
X102188297Y-102451772D01*
X102221000Y-102616184D01*
X102221000Y-102783816D01*
X102188297Y-102948228D01*
X102124147Y-103103100D01*
X102031015Y-103242481D01*
X101912481Y-103361015D01*
X101773100Y-103454147D01*
X101618228Y-103518297D01*
X101453816Y-103551000D01*
X101286184Y-103551000D01*
X101121772Y-103518297D01*
X100966900Y-103454147D01*
X100827519Y-103361015D01*
X100708985Y-103242481D01*
X100615853Y-103103100D01*
X100551703Y-102948228D01*
X100519000Y-102783816D01*
X100519000Y-102616184D01*
X100551703Y-102451772D01*
X100615853Y-102296900D01*
X100708985Y-102157519D01*
X100827519Y-102038985D01*
X100966900Y-101945853D01*
X101121772Y-101881703D01*
X101286184Y-101849000D01*
X101453816Y-101849000D01*
X101618228Y-101881703D01*
G37*
G36*
X93998228Y-101881703D02*
G01*
X94153100Y-101945853D01*
X94292481Y-102038985D01*
X94411015Y-102157519D01*
X94504147Y-102296900D01*
X94568297Y-102451772D01*
X94601000Y-102616184D01*
X94601000Y-102783816D01*
X94568297Y-102948228D01*
X94504147Y-103103100D01*
X94411015Y-103242481D01*
X94292481Y-103361015D01*
X94153100Y-103454147D01*
X93998228Y-103518297D01*
X93833816Y-103551000D01*
X93666184Y-103551000D01*
X93501772Y-103518297D01*
X93346900Y-103454147D01*
X93207519Y-103361015D01*
X93088985Y-103242481D01*
X92995853Y-103103100D01*
X92931703Y-102948228D01*
X92899000Y-102783816D01*
X92899000Y-102616184D01*
X92931703Y-102451772D01*
X92995853Y-102296900D01*
X93088985Y-102157519D01*
X93207519Y-102038985D01*
X93346900Y-101945853D01*
X93501772Y-101881703D01*
X93666184Y-101849000D01*
X93833816Y-101849000D01*
X93998228Y-101881703D01*
G37*
G36*
X112868228Y-101881703D02*
G01*
X113023100Y-101945853D01*
X113162481Y-102038985D01*
X113281015Y-102157519D01*
X113374147Y-102296900D01*
X113438297Y-102451772D01*
X113471000Y-102616184D01*
X113471000Y-102783816D01*
X113438297Y-102948228D01*
X113374147Y-103103100D01*
X113281015Y-103242481D01*
X113162481Y-103361015D01*
X113023100Y-103454147D01*
X112868228Y-103518297D01*
X112703816Y-103551000D01*
X112536184Y-103551000D01*
X112371772Y-103518297D01*
X112216900Y-103454147D01*
X112077519Y-103361015D01*
X111958985Y-103242481D01*
X111865853Y-103103100D01*
X111801703Y-102948228D01*
X111769000Y-102783816D01*
X111769000Y-102616184D01*
X111801703Y-102451772D01*
X111865853Y-102296900D01*
X111958985Y-102157519D01*
X112077519Y-102038985D01*
X112216900Y-101945853D01*
X112371772Y-101881703D01*
X112536184Y-101849000D01*
X112703816Y-101849000D01*
X112868228Y-101881703D01*
G37*
G36*
X195248228Y-101881703D02*
G01*
X195403100Y-101945853D01*
X195542481Y-102038985D01*
X195661015Y-102157519D01*
X195754147Y-102296900D01*
X195818297Y-102451772D01*
X195851000Y-102616184D01*
X195851000Y-102783816D01*
X195818297Y-102948228D01*
X195754147Y-103103100D01*
X195661015Y-103242481D01*
X195542481Y-103361015D01*
X195403100Y-103454147D01*
X195248228Y-103518297D01*
X195083816Y-103551000D01*
X194916184Y-103551000D01*
X194751772Y-103518297D01*
X194596900Y-103454147D01*
X194457519Y-103361015D01*
X194338985Y-103242481D01*
X194245853Y-103103100D01*
X194181703Y-102948228D01*
X194149000Y-102783816D01*
X194149000Y-102616184D01*
X194181703Y-102451772D01*
X194245853Y-102296900D01*
X194338985Y-102157519D01*
X194457519Y-102038985D01*
X194596900Y-101945853D01*
X194751772Y-101881703D01*
X194916184Y-101849000D01*
X195083816Y-101849000D01*
X195248228Y-101881703D01*
G37*
G36*
X93998228Y-99341703D02*
G01*
X94153100Y-99405853D01*
X94292481Y-99498985D01*
X94411015Y-99617519D01*
X94504147Y-99756900D01*
X94568297Y-99911772D01*
X94601000Y-100076184D01*
X94601000Y-100243816D01*
X94568297Y-100408228D01*
X94504147Y-100563100D01*
X94411015Y-100702481D01*
X94292481Y-100821015D01*
X94153100Y-100914147D01*
X93998228Y-100978297D01*
X93833816Y-101011000D01*
X93666184Y-101011000D01*
X93501772Y-100978297D01*
X93346900Y-100914147D01*
X93207519Y-100821015D01*
X93088985Y-100702481D01*
X92995853Y-100563100D01*
X92931703Y-100408228D01*
X92899000Y-100243816D01*
X92899000Y-100076184D01*
X92931703Y-99911772D01*
X92995853Y-99756900D01*
X93088985Y-99617519D01*
X93207519Y-99498985D01*
X93346900Y-99405853D01*
X93501772Y-99341703D01*
X93666184Y-99309000D01*
X93833816Y-99309000D01*
X93998228Y-99341703D01*
G37*
G36*
X112868228Y-99341703D02*
G01*
X113023100Y-99405853D01*
X113162481Y-99498985D01*
X113281015Y-99617519D01*
X113374147Y-99756900D01*
X113438297Y-99911772D01*
X113471000Y-100076184D01*
X113471000Y-100243816D01*
X113438297Y-100408228D01*
X113374147Y-100563100D01*
X113281015Y-100702481D01*
X113162481Y-100821015D01*
X113023100Y-100914147D01*
X112868228Y-100978297D01*
X112703816Y-101011000D01*
X112536184Y-101011000D01*
X112371772Y-100978297D01*
X112216900Y-100914147D01*
X112077519Y-100821015D01*
X111958985Y-100702481D01*
X111865853Y-100563100D01*
X111801703Y-100408228D01*
X111769000Y-100243816D01*
X111769000Y-100076184D01*
X111801703Y-99911772D01*
X111865853Y-99756900D01*
X111958985Y-99617519D01*
X112077519Y-99498985D01*
X112216900Y-99405853D01*
X112371772Y-99341703D01*
X112536184Y-99309000D01*
X112703816Y-99309000D01*
X112868228Y-99341703D01*
G37*
G36*
X105248228Y-99341703D02*
G01*
X105403100Y-99405853D01*
X105542481Y-99498985D01*
X105661015Y-99617519D01*
X105754147Y-99756900D01*
X105818297Y-99911772D01*
X105851000Y-100076184D01*
X105851000Y-100243816D01*
X105818297Y-100408228D01*
X105754147Y-100563100D01*
X105661015Y-100702481D01*
X105542481Y-100821015D01*
X105403100Y-100914147D01*
X105248228Y-100978297D01*
X105083816Y-101011000D01*
X104916184Y-101011000D01*
X104751772Y-100978297D01*
X104596900Y-100914147D01*
X104457519Y-100821015D01*
X104338985Y-100702481D01*
X104245853Y-100563100D01*
X104181703Y-100408228D01*
X104149000Y-100243816D01*
X104149000Y-100076184D01*
X104181703Y-99911772D01*
X104245853Y-99756900D01*
X104338985Y-99617519D01*
X104457519Y-99498985D01*
X104596900Y-99405853D01*
X104751772Y-99341703D01*
X104916184Y-99309000D01*
X105083816Y-99309000D01*
X105248228Y-99341703D01*
G37*
G36*
X180368228Y-99341703D02*
G01*
X180523100Y-99405853D01*
X180662481Y-99498985D01*
X180781015Y-99617519D01*
X180874147Y-99756900D01*
X180938297Y-99911772D01*
X180971000Y-100076184D01*
X180971000Y-100243816D01*
X180938297Y-100408228D01*
X180874147Y-100563100D01*
X180781015Y-100702481D01*
X180662481Y-100821015D01*
X180523100Y-100914147D01*
X180368228Y-100978297D01*
X180203816Y-101011000D01*
X180036184Y-101011000D01*
X179871772Y-100978297D01*
X179716900Y-100914147D01*
X179577519Y-100821015D01*
X179458985Y-100702481D01*
X179365853Y-100563100D01*
X179301703Y-100408228D01*
X179269000Y-100243816D01*
X179269000Y-100076184D01*
X179301703Y-99911772D01*
X179365853Y-99756900D01*
X179458985Y-99617519D01*
X179577519Y-99498985D01*
X179716900Y-99405853D01*
X179871772Y-99341703D01*
X180036184Y-99309000D01*
X180203816Y-99309000D01*
X180368228Y-99341703D01*
G37*
G36*
X172748228Y-99341703D02*
G01*
X172903100Y-99405853D01*
X173042481Y-99498985D01*
X173161015Y-99617519D01*
X173254147Y-99756900D01*
X173318297Y-99911772D01*
X173351000Y-100076184D01*
X173351000Y-100243816D01*
X173318297Y-100408228D01*
X173254147Y-100563100D01*
X173161015Y-100702481D01*
X173042481Y-100821015D01*
X172903100Y-100914147D01*
X172748228Y-100978297D01*
X172583816Y-101011000D01*
X172416184Y-101011000D01*
X172251772Y-100978297D01*
X172096900Y-100914147D01*
X171957519Y-100821015D01*
X171838985Y-100702481D01*
X171745853Y-100563100D01*
X171681703Y-100408228D01*
X171649000Y-100243816D01*
X171649000Y-100076184D01*
X171681703Y-99911772D01*
X171745853Y-99756900D01*
X171838985Y-99617519D01*
X171957519Y-99498985D01*
X172096900Y-99405853D01*
X172251772Y-99341703D01*
X172416184Y-99309000D01*
X172583816Y-99309000D01*
X172748228Y-99341703D01*
G37*
G36*
X191618228Y-99341703D02*
G01*
X191773100Y-99405853D01*
X191912481Y-99498985D01*
X192031015Y-99617519D01*
X192124147Y-99756900D01*
X192188297Y-99911772D01*
X192221000Y-100076184D01*
X192221000Y-100243816D01*
X192188297Y-100408228D01*
X192124147Y-100563100D01*
X192031015Y-100702481D01*
X191912481Y-100821015D01*
X191773100Y-100914147D01*
X191618228Y-100978297D01*
X191453816Y-101011000D01*
X191286184Y-101011000D01*
X191121772Y-100978297D01*
X190966900Y-100914147D01*
X190827519Y-100821015D01*
X190708985Y-100702481D01*
X190615853Y-100563100D01*
X190551703Y-100408228D01*
X190519000Y-100243816D01*
X190519000Y-100076184D01*
X190551703Y-99911772D01*
X190615853Y-99756900D01*
X190708985Y-99617519D01*
X190827519Y-99498985D01*
X190966900Y-99405853D01*
X191121772Y-99341703D01*
X191286184Y-99309000D01*
X191453816Y-99309000D01*
X191618228Y-99341703D01*
G37*
G36*
X202868228Y-99341703D02*
G01*
X203023100Y-99405853D01*
X203162481Y-99498985D01*
X203281015Y-99617519D01*
X203374147Y-99756900D01*
X203438297Y-99911772D01*
X203471000Y-100076184D01*
X203471000Y-100243816D01*
X203438297Y-100408228D01*
X203374147Y-100563100D01*
X203281015Y-100702481D01*
X203162481Y-100821015D01*
X203023100Y-100914147D01*
X202868228Y-100978297D01*
X202703816Y-101011000D01*
X202536184Y-101011000D01*
X202371772Y-100978297D01*
X202216900Y-100914147D01*
X202077519Y-100821015D01*
X201958985Y-100702481D01*
X201865853Y-100563100D01*
X201801703Y-100408228D01*
X201769000Y-100243816D01*
X201769000Y-100076184D01*
X201801703Y-99911772D01*
X201865853Y-99756900D01*
X201958985Y-99617519D01*
X202077519Y-99498985D01*
X202216900Y-99405853D01*
X202371772Y-99341703D01*
X202536184Y-99309000D01*
X202703816Y-99309000D01*
X202868228Y-99341703D01*
G37*
G36*
X101618228Y-99341703D02*
G01*
X101773100Y-99405853D01*
X101912481Y-99498985D01*
X102031015Y-99617519D01*
X102124147Y-99756900D01*
X102188297Y-99911772D01*
X102221000Y-100076184D01*
X102221000Y-100243816D01*
X102188297Y-100408228D01*
X102124147Y-100563100D01*
X102031015Y-100702481D01*
X101912481Y-100821015D01*
X101773100Y-100914147D01*
X101618228Y-100978297D01*
X101453816Y-101011000D01*
X101286184Y-101011000D01*
X101121772Y-100978297D01*
X100966900Y-100914147D01*
X100827519Y-100821015D01*
X100708985Y-100702481D01*
X100615853Y-100563100D01*
X100551703Y-100408228D01*
X100519000Y-100243816D01*
X100519000Y-100076184D01*
X100551703Y-99911772D01*
X100615853Y-99756900D01*
X100708985Y-99617519D01*
X100827519Y-99498985D01*
X100966900Y-99405853D01*
X101121772Y-99341703D01*
X101286184Y-99309000D01*
X101453816Y-99309000D01*
X101618228Y-99341703D01*
G37*
G36*
X195248228Y-99341703D02*
G01*
X195403100Y-99405853D01*
X195542481Y-99498985D01*
X195661015Y-99617519D01*
X195754147Y-99756900D01*
X195818297Y-99911772D01*
X195851000Y-100076184D01*
X195851000Y-100243816D01*
X195818297Y-100408228D01*
X195754147Y-100563100D01*
X195661015Y-100702481D01*
X195542481Y-100821015D01*
X195403100Y-100914147D01*
X195248228Y-100978297D01*
X195083816Y-101011000D01*
X194916184Y-101011000D01*
X194751772Y-100978297D01*
X194596900Y-100914147D01*
X194457519Y-100821015D01*
X194338985Y-100702481D01*
X194245853Y-100563100D01*
X194181703Y-100408228D01*
X194149000Y-100243816D01*
X194149000Y-100076184D01*
X194181703Y-99911772D01*
X194245853Y-99756900D01*
X194338985Y-99617519D01*
X194457519Y-99498985D01*
X194596900Y-99405853D01*
X194751772Y-99341703D01*
X194916184Y-99309000D01*
X195083816Y-99309000D01*
X195248228Y-99341703D01*
G37*
G36*
X82748228Y-99341703D02*
G01*
X82903100Y-99405853D01*
X83042481Y-99498985D01*
X83161015Y-99617519D01*
X83254147Y-99756900D01*
X83318297Y-99911772D01*
X83351000Y-100076184D01*
X83351000Y-100243816D01*
X83318297Y-100408228D01*
X83254147Y-100563100D01*
X83161015Y-100702481D01*
X83042481Y-100821015D01*
X82903100Y-100914147D01*
X82748228Y-100978297D01*
X82583816Y-101011000D01*
X82416184Y-101011000D01*
X82251772Y-100978297D01*
X82096900Y-100914147D01*
X81957519Y-100821015D01*
X81838985Y-100702481D01*
X81745853Y-100563100D01*
X81681703Y-100408228D01*
X81649000Y-100243816D01*
X81649000Y-100076184D01*
X81681703Y-99911772D01*
X81745853Y-99756900D01*
X81838985Y-99617519D01*
X81957519Y-99498985D01*
X82096900Y-99405853D01*
X82251772Y-99341703D01*
X82416184Y-99309000D01*
X82583816Y-99309000D01*
X82748228Y-99341703D01*
G37*
G36*
X90368228Y-99341703D02*
G01*
X90523100Y-99405853D01*
X90662481Y-99498985D01*
X90781015Y-99617519D01*
X90874147Y-99756900D01*
X90938297Y-99911772D01*
X90971000Y-100076184D01*
X90971000Y-100243816D01*
X90938297Y-100408228D01*
X90874147Y-100563100D01*
X90781015Y-100702481D01*
X90662481Y-100821015D01*
X90523100Y-100914147D01*
X90368228Y-100978297D01*
X90203816Y-101011000D01*
X90036184Y-101011000D01*
X89871772Y-100978297D01*
X89716900Y-100914147D01*
X89577519Y-100821015D01*
X89458985Y-100702481D01*
X89365853Y-100563100D01*
X89301703Y-100408228D01*
X89269000Y-100243816D01*
X89269000Y-100076184D01*
X89301703Y-99911772D01*
X89365853Y-99756900D01*
X89458985Y-99617519D01*
X89577519Y-99498985D01*
X89716900Y-99405853D01*
X89871772Y-99341703D01*
X90036184Y-99309000D01*
X90203816Y-99309000D01*
X90368228Y-99341703D01*
G37*
G36*
X183998228Y-99341703D02*
G01*
X184153100Y-99405853D01*
X184292481Y-99498985D01*
X184411015Y-99617519D01*
X184504147Y-99756900D01*
X184568297Y-99911772D01*
X184601000Y-100076184D01*
X184601000Y-100243816D01*
X184568297Y-100408228D01*
X184504147Y-100563100D01*
X184411015Y-100702481D01*
X184292481Y-100821015D01*
X184153100Y-100914147D01*
X183998228Y-100978297D01*
X183833816Y-101011000D01*
X183666184Y-101011000D01*
X183501772Y-100978297D01*
X183346900Y-100914147D01*
X183207519Y-100821015D01*
X183088985Y-100702481D01*
X182995853Y-100563100D01*
X182931703Y-100408228D01*
X182899000Y-100243816D01*
X182899000Y-100076184D01*
X182931703Y-99911772D01*
X182995853Y-99756900D01*
X183088985Y-99617519D01*
X183207519Y-99498985D01*
X183346900Y-99405853D01*
X183501772Y-99341703D01*
X183666184Y-99309000D01*
X183833816Y-99309000D01*
X183998228Y-99341703D01*
G37*
G36*
X143389943Y-94566248D02*
G01*
X143945189Y-94796238D01*
X143998369Y-94831772D01*
X144444899Y-95130134D01*
X144869866Y-95555101D01*
X144869867Y-95555103D01*
X145203762Y-96054811D01*
X145433752Y-96610057D01*
X145551000Y-97199501D01*
X145551000Y-97800499D01*
X145433752Y-98389943D01*
X145203762Y-98945189D01*
X145203761Y-98945190D01*
X144869866Y-99444899D01*
X144444899Y-99869866D01*
X144382182Y-99911772D01*
X143945189Y-100203762D01*
X143389943Y-100433752D01*
X142800499Y-100551000D01*
X142199501Y-100551000D01*
X141610057Y-100433752D01*
X141054811Y-100203762D01*
X140617818Y-99911772D01*
X140555101Y-99869866D01*
X140130134Y-99444899D01*
X139796239Y-98945190D01*
X139796238Y-98945189D01*
X139566248Y-98389943D01*
X139449000Y-97800499D01*
X139449000Y-97199501D01*
X139566248Y-96610057D01*
X139796238Y-96054811D01*
X140130133Y-95555103D01*
X140130134Y-95555101D01*
X140555101Y-95130134D01*
X141001631Y-94831772D01*
X141054811Y-94796238D01*
X141610057Y-94566248D01*
X142199501Y-94449000D01*
X142800499Y-94449000D01*
X143389943Y-94566248D01*
G37*
G36*
X112868228Y-96801703D02*
G01*
X113023100Y-96865853D01*
X113162481Y-96958985D01*
X113281015Y-97077519D01*
X113374147Y-97216900D01*
X113438297Y-97371772D01*
X113471000Y-97536184D01*
X113471000Y-97703816D01*
X113438297Y-97868228D01*
X113374147Y-98023100D01*
X113281015Y-98162481D01*
X113162481Y-98281015D01*
X113023100Y-98374147D01*
X112868228Y-98438297D01*
X112703816Y-98471000D01*
X112536184Y-98471000D01*
X112371772Y-98438297D01*
X112216900Y-98374147D01*
X112077519Y-98281015D01*
X111958985Y-98162481D01*
X111865853Y-98023100D01*
X111801703Y-97868228D01*
X111769000Y-97703816D01*
X111769000Y-97536184D01*
X111801703Y-97371772D01*
X111865853Y-97216900D01*
X111958985Y-97077519D01*
X112077519Y-96958985D01*
X112216900Y-96865853D01*
X112371772Y-96801703D01*
X112536184Y-96769000D01*
X112703816Y-96769000D01*
X112868228Y-96801703D01*
G37*
G36*
X101618228Y-96801703D02*
G01*
X101773100Y-96865853D01*
X101912481Y-96958985D01*
X102031015Y-97077519D01*
X102124147Y-97216900D01*
X102188297Y-97371772D01*
X102221000Y-97536184D01*
X102221000Y-97703816D01*
X102188297Y-97868228D01*
X102124147Y-98023100D01*
X102031015Y-98162481D01*
X101912481Y-98281015D01*
X101773100Y-98374147D01*
X101618228Y-98438297D01*
X101453816Y-98471000D01*
X101286184Y-98471000D01*
X101121772Y-98438297D01*
X100966900Y-98374147D01*
X100827519Y-98281015D01*
X100708985Y-98162481D01*
X100615853Y-98023100D01*
X100551703Y-97868228D01*
X100519000Y-97703816D01*
X100519000Y-97536184D01*
X100551703Y-97371772D01*
X100615853Y-97216900D01*
X100708985Y-97077519D01*
X100827519Y-96958985D01*
X100966900Y-96865853D01*
X101121772Y-96801703D01*
X101286184Y-96769000D01*
X101453816Y-96769000D01*
X101618228Y-96801703D01*
G37*
G36*
X105248228Y-96801703D02*
G01*
X105403100Y-96865853D01*
X105542481Y-96958985D01*
X105661015Y-97077519D01*
X105754147Y-97216900D01*
X105818297Y-97371772D01*
X105851000Y-97536184D01*
X105851000Y-97703816D01*
X105818297Y-97868228D01*
X105754147Y-98023100D01*
X105661015Y-98162481D01*
X105542481Y-98281015D01*
X105403100Y-98374147D01*
X105248228Y-98438297D01*
X105083816Y-98471000D01*
X104916184Y-98471000D01*
X104751772Y-98438297D01*
X104596900Y-98374147D01*
X104457519Y-98281015D01*
X104338985Y-98162481D01*
X104245853Y-98023100D01*
X104181703Y-97868228D01*
X104149000Y-97703816D01*
X104149000Y-97536184D01*
X104181703Y-97371772D01*
X104245853Y-97216900D01*
X104338985Y-97077519D01*
X104457519Y-96958985D01*
X104596900Y-96865853D01*
X104751772Y-96801703D01*
X104916184Y-96769000D01*
X105083816Y-96769000D01*
X105248228Y-96801703D01*
G37*
G36*
X202868228Y-96801703D02*
G01*
X203023100Y-96865853D01*
X203162481Y-96958985D01*
X203281015Y-97077519D01*
X203374147Y-97216900D01*
X203438297Y-97371772D01*
X203471000Y-97536184D01*
X203471000Y-97703816D01*
X203438297Y-97868228D01*
X203374147Y-98023100D01*
X203281015Y-98162481D01*
X203162481Y-98281015D01*
X203023100Y-98374147D01*
X202868228Y-98438297D01*
X202703816Y-98471000D01*
X202536184Y-98471000D01*
X202371772Y-98438297D01*
X202216900Y-98374147D01*
X202077519Y-98281015D01*
X201958985Y-98162481D01*
X201865853Y-98023100D01*
X201801703Y-97868228D01*
X201769000Y-97703816D01*
X201769000Y-97536184D01*
X201801703Y-97371772D01*
X201865853Y-97216900D01*
X201958985Y-97077519D01*
X202077519Y-96958985D01*
X202216900Y-96865853D01*
X202371772Y-96801703D01*
X202536184Y-96769000D01*
X202703816Y-96769000D01*
X202868228Y-96801703D01*
G37*
G36*
X195248228Y-96801703D02*
G01*
X195403100Y-96865853D01*
X195542481Y-96958985D01*
X195661015Y-97077519D01*
X195754147Y-97216900D01*
X195818297Y-97371772D01*
X195851000Y-97536184D01*
X195851000Y-97703816D01*
X195818297Y-97868228D01*
X195754147Y-98023100D01*
X195661015Y-98162481D01*
X195542481Y-98281015D01*
X195403100Y-98374147D01*
X195248228Y-98438297D01*
X195083816Y-98471000D01*
X194916184Y-98471000D01*
X194751772Y-98438297D01*
X194596900Y-98374147D01*
X194457519Y-98281015D01*
X194338985Y-98162481D01*
X194245853Y-98023100D01*
X194181703Y-97868228D01*
X194149000Y-97703816D01*
X194149000Y-97536184D01*
X194181703Y-97371772D01*
X194245853Y-97216900D01*
X194338985Y-97077519D01*
X194457519Y-96958985D01*
X194596900Y-96865853D01*
X194751772Y-96801703D01*
X194916184Y-96769000D01*
X195083816Y-96769000D01*
X195248228Y-96801703D01*
G37*
G36*
X191618228Y-96801703D02*
G01*
X191773100Y-96865853D01*
X191912481Y-96958985D01*
X192031015Y-97077519D01*
X192124147Y-97216900D01*
X192188297Y-97371772D01*
X192221000Y-97536184D01*
X192221000Y-97703816D01*
X192188297Y-97868228D01*
X192124147Y-98023100D01*
X192031015Y-98162481D01*
X191912481Y-98281015D01*
X191773100Y-98374147D01*
X191618228Y-98438297D01*
X191453816Y-98471000D01*
X191286184Y-98471000D01*
X191121772Y-98438297D01*
X190966900Y-98374147D01*
X190827519Y-98281015D01*
X190708985Y-98162481D01*
X190615853Y-98023100D01*
X190551703Y-97868228D01*
X190519000Y-97703816D01*
X190519000Y-97536184D01*
X190551703Y-97371772D01*
X190615853Y-97216900D01*
X190708985Y-97077519D01*
X190827519Y-96958985D01*
X190966900Y-96865853D01*
X191121772Y-96801703D01*
X191286184Y-96769000D01*
X191453816Y-96769000D01*
X191618228Y-96801703D01*
G37*
G36*
X183998228Y-96801703D02*
G01*
X184153100Y-96865853D01*
X184292481Y-96958985D01*
X184411015Y-97077519D01*
X184504147Y-97216900D01*
X184568297Y-97371772D01*
X184601000Y-97536184D01*
X184601000Y-97703816D01*
X184568297Y-97868228D01*
X184504147Y-98023100D01*
X184411015Y-98162481D01*
X184292481Y-98281015D01*
X184153100Y-98374147D01*
X183998228Y-98438297D01*
X183833816Y-98471000D01*
X183666184Y-98471000D01*
X183501772Y-98438297D01*
X183346900Y-98374147D01*
X183207519Y-98281015D01*
X183088985Y-98162481D01*
X182995853Y-98023100D01*
X182931703Y-97868228D01*
X182899000Y-97703816D01*
X182899000Y-97536184D01*
X182931703Y-97371772D01*
X182995853Y-97216900D01*
X183088985Y-97077519D01*
X183207519Y-96958985D01*
X183346900Y-96865853D01*
X183501772Y-96801703D01*
X183666184Y-96769000D01*
X183833816Y-96769000D01*
X183998228Y-96801703D01*
G37*
G36*
X180368228Y-96801703D02*
G01*
X180523100Y-96865853D01*
X180662481Y-96958985D01*
X180781015Y-97077519D01*
X180874147Y-97216900D01*
X180938297Y-97371772D01*
X180971000Y-97536184D01*
X180971000Y-97703816D01*
X180938297Y-97868228D01*
X180874147Y-98023100D01*
X180781015Y-98162481D01*
X180662481Y-98281015D01*
X180523100Y-98374147D01*
X180368228Y-98438297D01*
X180203816Y-98471000D01*
X180036184Y-98471000D01*
X179871772Y-98438297D01*
X179716900Y-98374147D01*
X179577519Y-98281015D01*
X179458985Y-98162481D01*
X179365853Y-98023100D01*
X179301703Y-97868228D01*
X179269000Y-97703816D01*
X179269000Y-97536184D01*
X179301703Y-97371772D01*
X179365853Y-97216900D01*
X179458985Y-97077519D01*
X179577519Y-96958985D01*
X179716900Y-96865853D01*
X179871772Y-96801703D01*
X180036184Y-96769000D01*
X180203816Y-96769000D01*
X180368228Y-96801703D01*
G37*
G36*
X172748228Y-96801703D02*
G01*
X172903100Y-96865853D01*
X173042481Y-96958985D01*
X173161015Y-97077519D01*
X173254147Y-97216900D01*
X173318297Y-97371772D01*
X173351000Y-97536184D01*
X173351000Y-97703816D01*
X173318297Y-97868228D01*
X173254147Y-98023100D01*
X173161015Y-98162481D01*
X173042481Y-98281015D01*
X172903100Y-98374147D01*
X172748228Y-98438297D01*
X172583816Y-98471000D01*
X172416184Y-98471000D01*
X172251772Y-98438297D01*
X172096900Y-98374147D01*
X171957519Y-98281015D01*
X171838985Y-98162481D01*
X171745853Y-98023100D01*
X171681703Y-97868228D01*
X171649000Y-97703816D01*
X171649000Y-97536184D01*
X171681703Y-97371772D01*
X171745853Y-97216900D01*
X171838985Y-97077519D01*
X171957519Y-96958985D01*
X172096900Y-96865853D01*
X172251772Y-96801703D01*
X172416184Y-96769000D01*
X172583816Y-96769000D01*
X172748228Y-96801703D01*
G37*
G36*
X93998228Y-96801703D02*
G01*
X94153100Y-96865853D01*
X94292481Y-96958985D01*
X94411015Y-97077519D01*
X94504147Y-97216900D01*
X94568297Y-97371772D01*
X94601000Y-97536184D01*
X94601000Y-97703816D01*
X94568297Y-97868228D01*
X94504147Y-98023100D01*
X94411015Y-98162481D01*
X94292481Y-98281015D01*
X94153100Y-98374147D01*
X93998228Y-98438297D01*
X93833816Y-98471000D01*
X93666184Y-98471000D01*
X93501772Y-98438297D01*
X93346900Y-98374147D01*
X93207519Y-98281015D01*
X93088985Y-98162481D01*
X92995853Y-98023100D01*
X92931703Y-97868228D01*
X92899000Y-97703816D01*
X92899000Y-97536184D01*
X92931703Y-97371772D01*
X92995853Y-97216900D01*
X93088985Y-97077519D01*
X93207519Y-96958985D01*
X93346900Y-96865853D01*
X93501772Y-96801703D01*
X93666184Y-96769000D01*
X93833816Y-96769000D01*
X93998228Y-96801703D01*
G37*
G36*
X82748228Y-96801703D02*
G01*
X82903100Y-96865853D01*
X83042481Y-96958985D01*
X83161015Y-97077519D01*
X83254147Y-97216900D01*
X83318297Y-97371772D01*
X83351000Y-97536184D01*
X83351000Y-97703816D01*
X83318297Y-97868228D01*
X83254147Y-98023100D01*
X83161015Y-98162481D01*
X83042481Y-98281015D01*
X82903100Y-98374147D01*
X82748228Y-98438297D01*
X82583816Y-98471000D01*
X82416184Y-98471000D01*
X82251772Y-98438297D01*
X82096900Y-98374147D01*
X81957519Y-98281015D01*
X81838985Y-98162481D01*
X81745853Y-98023100D01*
X81681703Y-97868228D01*
X81649000Y-97703816D01*
X81649000Y-97536184D01*
X81681703Y-97371772D01*
X81745853Y-97216900D01*
X81838985Y-97077519D01*
X81957519Y-96958985D01*
X82096900Y-96865853D01*
X82251772Y-96801703D01*
X82416184Y-96769000D01*
X82583816Y-96769000D01*
X82748228Y-96801703D01*
G37*
G36*
X90368228Y-96801703D02*
G01*
X90523100Y-96865853D01*
X90662481Y-96958985D01*
X90781015Y-97077519D01*
X90874147Y-97216900D01*
X90938297Y-97371772D01*
X90971000Y-97536184D01*
X90971000Y-97703816D01*
X90938297Y-97868228D01*
X90874147Y-98023100D01*
X90781015Y-98162481D01*
X90662481Y-98281015D01*
X90523100Y-98374147D01*
X90368228Y-98438297D01*
X90203816Y-98471000D01*
X90036184Y-98471000D01*
X89871772Y-98438297D01*
X89716900Y-98374147D01*
X89577519Y-98281015D01*
X89458985Y-98162481D01*
X89365853Y-98023100D01*
X89301703Y-97868228D01*
X89269000Y-97703816D01*
X89269000Y-97536184D01*
X89301703Y-97371772D01*
X89365853Y-97216900D01*
X89458985Y-97077519D01*
X89577519Y-96958985D01*
X89716900Y-96865853D01*
X89871772Y-96801703D01*
X90036184Y-96769000D01*
X90203816Y-96769000D01*
X90368228Y-96801703D01*
G37*
G36*
X183998228Y-94261703D02*
G01*
X184153100Y-94325853D01*
X184292481Y-94418985D01*
X184411015Y-94537519D01*
X184504147Y-94676900D01*
X184568297Y-94831772D01*
X184601000Y-94996184D01*
X184601000Y-95163816D01*
X184568297Y-95328228D01*
X184504147Y-95483100D01*
X184411015Y-95622481D01*
X184292481Y-95741015D01*
X184153100Y-95834147D01*
X183998228Y-95898297D01*
X183833816Y-95931000D01*
X183666184Y-95931000D01*
X183501772Y-95898297D01*
X183346900Y-95834147D01*
X183207519Y-95741015D01*
X183088985Y-95622481D01*
X182995853Y-95483100D01*
X182931703Y-95328228D01*
X182899000Y-95163816D01*
X182899000Y-94996184D01*
X182931703Y-94831772D01*
X182995853Y-94676900D01*
X183088985Y-94537519D01*
X183207519Y-94418985D01*
X183346900Y-94325853D01*
X183501772Y-94261703D01*
X183666184Y-94229000D01*
X183833816Y-94229000D01*
X183998228Y-94261703D01*
G37*
G36*
X202868228Y-94261703D02*
G01*
X203023100Y-94325853D01*
X203162481Y-94418985D01*
X203281015Y-94537519D01*
X203374147Y-94676900D01*
X203438297Y-94831772D01*
X203471000Y-94996184D01*
X203471000Y-95163816D01*
X203438297Y-95328228D01*
X203374147Y-95483100D01*
X203281015Y-95622481D01*
X203162481Y-95741015D01*
X203023100Y-95834147D01*
X202868228Y-95898297D01*
X202703816Y-95931000D01*
X202536184Y-95931000D01*
X202371772Y-95898297D01*
X202216900Y-95834147D01*
X202077519Y-95741015D01*
X201958985Y-95622481D01*
X201865853Y-95483100D01*
X201801703Y-95328228D01*
X201769000Y-95163816D01*
X201769000Y-94996184D01*
X201801703Y-94831772D01*
X201865853Y-94676900D01*
X201958985Y-94537519D01*
X202077519Y-94418985D01*
X202216900Y-94325853D01*
X202371772Y-94261703D01*
X202536184Y-94229000D01*
X202703816Y-94229000D01*
X202868228Y-94261703D01*
G37*
G36*
X105248228Y-94261703D02*
G01*
X105403100Y-94325853D01*
X105542481Y-94418985D01*
X105661015Y-94537519D01*
X105754147Y-94676900D01*
X105818297Y-94831772D01*
X105851000Y-94996184D01*
X105851000Y-95163816D01*
X105818297Y-95328228D01*
X105754147Y-95483100D01*
X105661015Y-95622481D01*
X105542481Y-95741015D01*
X105403100Y-95834147D01*
X105248228Y-95898297D01*
X105083816Y-95931000D01*
X104916184Y-95931000D01*
X104751772Y-95898297D01*
X104596900Y-95834147D01*
X104457519Y-95741015D01*
X104338985Y-95622481D01*
X104245853Y-95483100D01*
X104181703Y-95328228D01*
X104149000Y-95163816D01*
X104149000Y-94996184D01*
X104181703Y-94831772D01*
X104245853Y-94676900D01*
X104338985Y-94537519D01*
X104457519Y-94418985D01*
X104596900Y-94325853D01*
X104751772Y-94261703D01*
X104916184Y-94229000D01*
X105083816Y-94229000D01*
X105248228Y-94261703D01*
G37*
G36*
X195248228Y-94261703D02*
G01*
X195403100Y-94325853D01*
X195542481Y-94418985D01*
X195661015Y-94537519D01*
X195754147Y-94676900D01*
X195818297Y-94831772D01*
X195851000Y-94996184D01*
X195851000Y-95163816D01*
X195818297Y-95328228D01*
X195754147Y-95483100D01*
X195661015Y-95622481D01*
X195542481Y-95741015D01*
X195403100Y-95834147D01*
X195248228Y-95898297D01*
X195083816Y-95931000D01*
X194916184Y-95931000D01*
X194751772Y-95898297D01*
X194596900Y-95834147D01*
X194457519Y-95741015D01*
X194338985Y-95622481D01*
X194245853Y-95483100D01*
X194181703Y-95328228D01*
X194149000Y-95163816D01*
X194149000Y-94996184D01*
X194181703Y-94831772D01*
X194245853Y-94676900D01*
X194338985Y-94537519D01*
X194457519Y-94418985D01*
X194596900Y-94325853D01*
X194751772Y-94261703D01*
X194916184Y-94229000D01*
X195083816Y-94229000D01*
X195248228Y-94261703D01*
G37*
G36*
X191618228Y-94261703D02*
G01*
X191773100Y-94325853D01*
X191912481Y-94418985D01*
X192031015Y-94537519D01*
X192124147Y-94676900D01*
X192188297Y-94831772D01*
X192221000Y-94996184D01*
X192221000Y-95163816D01*
X192188297Y-95328228D01*
X192124147Y-95483100D01*
X192031015Y-95622481D01*
X191912481Y-95741015D01*
X191773100Y-95834147D01*
X191618228Y-95898297D01*
X191453816Y-95931000D01*
X191286184Y-95931000D01*
X191121772Y-95898297D01*
X190966900Y-95834147D01*
X190827519Y-95741015D01*
X190708985Y-95622481D01*
X190615853Y-95483100D01*
X190551703Y-95328228D01*
X190519000Y-95163816D01*
X190519000Y-94996184D01*
X190551703Y-94831772D01*
X190615853Y-94676900D01*
X190708985Y-94537519D01*
X190827519Y-94418985D01*
X190966900Y-94325853D01*
X191121772Y-94261703D01*
X191286184Y-94229000D01*
X191453816Y-94229000D01*
X191618228Y-94261703D01*
G37*
G36*
X180368228Y-94261703D02*
G01*
X180523100Y-94325853D01*
X180662481Y-94418985D01*
X180781015Y-94537519D01*
X180874147Y-94676900D01*
X180938297Y-94831772D01*
X180971000Y-94996184D01*
X180971000Y-95163816D01*
X180938297Y-95328228D01*
X180874147Y-95483100D01*
X180781015Y-95622481D01*
X180662481Y-95741015D01*
X180523100Y-95834147D01*
X180368228Y-95898297D01*
X180203816Y-95931000D01*
X180036184Y-95931000D01*
X179871772Y-95898297D01*
X179716900Y-95834147D01*
X179577519Y-95741015D01*
X179458985Y-95622481D01*
X179365853Y-95483100D01*
X179301703Y-95328228D01*
X179269000Y-95163816D01*
X179269000Y-94996184D01*
X179301703Y-94831772D01*
X179365853Y-94676900D01*
X179458985Y-94537519D01*
X179577519Y-94418985D01*
X179716900Y-94325853D01*
X179871772Y-94261703D01*
X180036184Y-94229000D01*
X180203816Y-94229000D01*
X180368228Y-94261703D01*
G37*
G36*
X93998228Y-94261703D02*
G01*
X94153100Y-94325853D01*
X94292481Y-94418985D01*
X94411015Y-94537519D01*
X94504147Y-94676900D01*
X94568297Y-94831772D01*
X94601000Y-94996184D01*
X94601000Y-95163816D01*
X94568297Y-95328228D01*
X94504147Y-95483100D01*
X94411015Y-95622481D01*
X94292481Y-95741015D01*
X94153100Y-95834147D01*
X93998228Y-95898297D01*
X93833816Y-95931000D01*
X93666184Y-95931000D01*
X93501772Y-95898297D01*
X93346900Y-95834147D01*
X93207519Y-95741015D01*
X93088985Y-95622481D01*
X92995853Y-95483100D01*
X92931703Y-95328228D01*
X92899000Y-95163816D01*
X92899000Y-94996184D01*
X92931703Y-94831772D01*
X92995853Y-94676900D01*
X93088985Y-94537519D01*
X93207519Y-94418985D01*
X93346900Y-94325853D01*
X93501772Y-94261703D01*
X93666184Y-94229000D01*
X93833816Y-94229000D01*
X93998228Y-94261703D01*
G37*
G36*
X101618228Y-94261703D02*
G01*
X101773100Y-94325853D01*
X101912481Y-94418985D01*
X102031015Y-94537519D01*
X102124147Y-94676900D01*
X102188297Y-94831772D01*
X102221000Y-94996184D01*
X102221000Y-95163816D01*
X102188297Y-95328228D01*
X102124147Y-95483100D01*
X102031015Y-95622481D01*
X101912481Y-95741015D01*
X101773100Y-95834147D01*
X101618228Y-95898297D01*
X101453816Y-95931000D01*
X101286184Y-95931000D01*
X101121772Y-95898297D01*
X100966900Y-95834147D01*
X100827519Y-95741015D01*
X100708985Y-95622481D01*
X100615853Y-95483100D01*
X100551703Y-95328228D01*
X100519000Y-95163816D01*
X100519000Y-94996184D01*
X100551703Y-94831772D01*
X100615853Y-94676900D01*
X100708985Y-94537519D01*
X100827519Y-94418985D01*
X100966900Y-94325853D01*
X101121772Y-94261703D01*
X101286184Y-94229000D01*
X101453816Y-94229000D01*
X101618228Y-94261703D01*
G37*
G36*
X112868228Y-94261703D02*
G01*
X113023100Y-94325853D01*
X113162481Y-94418985D01*
X113281015Y-94537519D01*
X113374147Y-94676900D01*
X113438297Y-94831772D01*
X113471000Y-94996184D01*
X113471000Y-95163816D01*
X113438297Y-95328228D01*
X113374147Y-95483100D01*
X113281015Y-95622481D01*
X113162481Y-95741015D01*
X113023100Y-95834147D01*
X112868228Y-95898297D01*
X112703816Y-95931000D01*
X112536184Y-95931000D01*
X112371772Y-95898297D01*
X112216900Y-95834147D01*
X112077519Y-95741015D01*
X111958985Y-95622481D01*
X111865853Y-95483100D01*
X111801703Y-95328228D01*
X111769000Y-95163816D01*
X111769000Y-94996184D01*
X111801703Y-94831772D01*
X111865853Y-94676900D01*
X111958985Y-94537519D01*
X112077519Y-94418985D01*
X112216900Y-94325853D01*
X112371772Y-94261703D01*
X112536184Y-94229000D01*
X112703816Y-94229000D01*
X112868228Y-94261703D01*
G37*
G36*
X90368228Y-94261703D02*
G01*
X90523100Y-94325853D01*
X90662481Y-94418985D01*
X90781015Y-94537519D01*
X90874147Y-94676900D01*
X90938297Y-94831772D01*
X90971000Y-94996184D01*
X90971000Y-95163816D01*
X90938297Y-95328228D01*
X90874147Y-95483100D01*
X90781015Y-95622481D01*
X90662481Y-95741015D01*
X90523100Y-95834147D01*
X90368228Y-95898297D01*
X90203816Y-95931000D01*
X90036184Y-95931000D01*
X89871772Y-95898297D01*
X89716900Y-95834147D01*
X89577519Y-95741015D01*
X89458985Y-95622481D01*
X89365853Y-95483100D01*
X89301703Y-95328228D01*
X89269000Y-95163816D01*
X89269000Y-94996184D01*
X89301703Y-94831772D01*
X89365853Y-94676900D01*
X89458985Y-94537519D01*
X89577519Y-94418985D01*
X89716900Y-94325853D01*
X89871772Y-94261703D01*
X90036184Y-94229000D01*
X90203816Y-94229000D01*
X90368228Y-94261703D01*
G37*
G36*
X172748228Y-94261703D02*
G01*
X172903100Y-94325853D01*
X173042481Y-94418985D01*
X173161015Y-94537519D01*
X173254147Y-94676900D01*
X173318297Y-94831772D01*
X173351000Y-94996184D01*
X173351000Y-95163816D01*
X173318297Y-95328228D01*
X173254147Y-95483100D01*
X173161015Y-95622481D01*
X173042481Y-95741015D01*
X172903100Y-95834147D01*
X172748228Y-95898297D01*
X172583816Y-95931000D01*
X172416184Y-95931000D01*
X172251772Y-95898297D01*
X172096900Y-95834147D01*
X171957519Y-95741015D01*
X171838985Y-95622481D01*
X171745853Y-95483100D01*
X171681703Y-95328228D01*
X171649000Y-95163816D01*
X171649000Y-94996184D01*
X171681703Y-94831772D01*
X171745853Y-94676900D01*
X171838985Y-94537519D01*
X171957519Y-94418985D01*
X172096900Y-94325853D01*
X172251772Y-94261703D01*
X172416184Y-94229000D01*
X172583816Y-94229000D01*
X172748228Y-94261703D01*
G37*
G36*
X82748228Y-94261703D02*
G01*
X82903100Y-94325853D01*
X83042481Y-94418985D01*
X83161015Y-94537519D01*
X83254147Y-94676900D01*
X83318297Y-94831772D01*
X83351000Y-94996184D01*
X83351000Y-95163816D01*
X83318297Y-95328228D01*
X83254147Y-95483100D01*
X83161015Y-95622481D01*
X83042481Y-95741015D01*
X82903100Y-95834147D01*
X82748228Y-95898297D01*
X82583816Y-95931000D01*
X82416184Y-95931000D01*
X82251772Y-95898297D01*
X82096900Y-95834147D01*
X81957519Y-95741015D01*
X81838985Y-95622481D01*
X81745853Y-95483100D01*
X81681703Y-95328228D01*
X81649000Y-95163816D01*
X81649000Y-94996184D01*
X81681703Y-94831772D01*
X81745853Y-94676900D01*
X81838985Y-94537519D01*
X81957519Y-94418985D01*
X82096900Y-94325853D01*
X82251772Y-94261703D01*
X82416184Y-94229000D01*
X82583816Y-94229000D01*
X82748228Y-94261703D01*
G37*
G36*
X158852800Y-94688700D02*
G01*
X156950800Y-94688700D01*
X156950800Y-92786700D01*
X158852800Y-92786700D01*
X158852800Y-94688700D01*
G37*
G36*
X164479612Y-92854327D02*
G01*
X164628912Y-92884024D01*
X164792884Y-92951944D01*
X164940454Y-93050547D01*
X165065953Y-93176046D01*
X165164556Y-93323616D01*
X165232476Y-93487588D01*
X165267100Y-93661659D01*
X165267100Y-93839141D01*
X165232476Y-94013212D01*
X165164556Y-94177184D01*
X165065953Y-94324754D01*
X164940454Y-94450253D01*
X164792884Y-94548856D01*
X164628912Y-94616776D01*
X164479612Y-94646473D01*
X164454842Y-94651400D01*
X164277358Y-94651400D01*
X164252588Y-94646473D01*
X164103288Y-94616776D01*
X163939316Y-94548856D01*
X163791746Y-94450253D01*
X163666247Y-94324754D01*
X163567644Y-94177184D01*
X163499724Y-94013212D01*
X163465100Y-93839141D01*
X163465100Y-93661659D01*
X163499724Y-93487588D01*
X163567644Y-93323616D01*
X163666247Y-93176046D01*
X163791746Y-93050547D01*
X163939316Y-92951944D01*
X164103288Y-92884024D01*
X164252588Y-92854327D01*
X164277358Y-92849400D01*
X164454842Y-92849400D01*
X164479612Y-92854327D01*
G37*
G36*
X180368228Y-91721703D02*
G01*
X180523100Y-91785853D01*
X180662481Y-91878985D01*
X180781015Y-91997519D01*
X180874147Y-92136900D01*
X180938297Y-92291772D01*
X180971000Y-92456184D01*
X180971000Y-92623816D01*
X180938297Y-92788228D01*
X180874147Y-92943100D01*
X180781015Y-93082481D01*
X180662481Y-93201015D01*
X180523100Y-93294147D01*
X180368228Y-93358297D01*
X180203816Y-93391000D01*
X180036184Y-93391000D01*
X179871772Y-93358297D01*
X179716900Y-93294147D01*
X179577519Y-93201015D01*
X179458985Y-93082481D01*
X179365853Y-92943100D01*
X179301703Y-92788228D01*
X179269000Y-92623816D01*
X179269000Y-92456184D01*
X179301703Y-92291772D01*
X179365853Y-92136900D01*
X179458985Y-91997519D01*
X179577519Y-91878985D01*
X179716900Y-91785853D01*
X179871772Y-91721703D01*
X180036184Y-91689000D01*
X180203816Y-91689000D01*
X180368228Y-91721703D01*
G37*
G36*
X82748228Y-91721703D02*
G01*
X82903100Y-91785853D01*
X83042481Y-91878985D01*
X83161015Y-91997519D01*
X83254147Y-92136900D01*
X83318297Y-92291772D01*
X83351000Y-92456184D01*
X83351000Y-92623816D01*
X83318297Y-92788228D01*
X83254147Y-92943100D01*
X83161015Y-93082481D01*
X83042481Y-93201015D01*
X82903100Y-93294147D01*
X82748228Y-93358297D01*
X82583816Y-93391000D01*
X82416184Y-93391000D01*
X82251772Y-93358297D01*
X82096900Y-93294147D01*
X81957519Y-93201015D01*
X81838985Y-93082481D01*
X81745853Y-92943100D01*
X81681703Y-92788228D01*
X81649000Y-92623816D01*
X81649000Y-92456184D01*
X81681703Y-92291772D01*
X81745853Y-92136900D01*
X81838985Y-91997519D01*
X81957519Y-91878985D01*
X82096900Y-91785853D01*
X82251772Y-91721703D01*
X82416184Y-91689000D01*
X82583816Y-91689000D01*
X82748228Y-91721703D01*
G37*
G36*
X90368228Y-91721703D02*
G01*
X90523100Y-91785853D01*
X90662481Y-91878985D01*
X90781015Y-91997519D01*
X90874147Y-92136900D01*
X90938297Y-92291772D01*
X90971000Y-92456184D01*
X90971000Y-92623816D01*
X90938297Y-92788228D01*
X90874147Y-92943100D01*
X90781015Y-93082481D01*
X90662481Y-93201015D01*
X90523100Y-93294147D01*
X90368228Y-93358297D01*
X90203816Y-93391000D01*
X90036184Y-93391000D01*
X89871772Y-93358297D01*
X89716900Y-93294147D01*
X89577519Y-93201015D01*
X89458985Y-93082481D01*
X89365853Y-92943100D01*
X89301703Y-92788228D01*
X89269000Y-92623816D01*
X89269000Y-92456184D01*
X89301703Y-92291772D01*
X89365853Y-92136900D01*
X89458985Y-91997519D01*
X89577519Y-91878985D01*
X89716900Y-91785853D01*
X89871772Y-91721703D01*
X90036184Y-91689000D01*
X90203816Y-91689000D01*
X90368228Y-91721703D01*
G37*
G36*
X183998228Y-91721703D02*
G01*
X184153100Y-91785853D01*
X184292481Y-91878985D01*
X184411015Y-91997519D01*
X184504147Y-92136900D01*
X184568297Y-92291772D01*
X184601000Y-92456184D01*
X184601000Y-92623816D01*
X184568297Y-92788228D01*
X184504147Y-92943100D01*
X184411015Y-93082481D01*
X184292481Y-93201015D01*
X184153100Y-93294147D01*
X183998228Y-93358297D01*
X183833816Y-93391000D01*
X183666184Y-93391000D01*
X183501772Y-93358297D01*
X183346900Y-93294147D01*
X183207519Y-93201015D01*
X183088985Y-93082481D01*
X182995853Y-92943100D01*
X182931703Y-92788228D01*
X182899000Y-92623816D01*
X182899000Y-92456184D01*
X182931703Y-92291772D01*
X182995853Y-92136900D01*
X183088985Y-91997519D01*
X183207519Y-91878985D01*
X183346900Y-91785853D01*
X183501772Y-91721703D01*
X183666184Y-91689000D01*
X183833816Y-91689000D01*
X183998228Y-91721703D01*
G37*
G36*
X191618228Y-91721703D02*
G01*
X191773100Y-91785853D01*
X191912481Y-91878985D01*
X192031015Y-91997519D01*
X192124147Y-92136900D01*
X192188297Y-92291772D01*
X192221000Y-92456184D01*
X192221000Y-92623816D01*
X192188297Y-92788228D01*
X192124147Y-92943100D01*
X192031015Y-93082481D01*
X191912481Y-93201015D01*
X191773100Y-93294147D01*
X191618228Y-93358297D01*
X191453816Y-93391000D01*
X191286184Y-93391000D01*
X191121772Y-93358297D01*
X190966900Y-93294147D01*
X190827519Y-93201015D01*
X190708985Y-93082481D01*
X190615853Y-92943100D01*
X190551703Y-92788228D01*
X190519000Y-92623816D01*
X190519000Y-92456184D01*
X190551703Y-92291772D01*
X190615853Y-92136900D01*
X190708985Y-91997519D01*
X190827519Y-91878985D01*
X190966900Y-91785853D01*
X191121772Y-91721703D01*
X191286184Y-91689000D01*
X191453816Y-91689000D01*
X191618228Y-91721703D01*
G37*
G36*
X195248228Y-91721703D02*
G01*
X195403100Y-91785853D01*
X195542481Y-91878985D01*
X195661015Y-91997519D01*
X195754147Y-92136900D01*
X195818297Y-92291772D01*
X195851000Y-92456184D01*
X195851000Y-92623816D01*
X195818297Y-92788228D01*
X195754147Y-92943100D01*
X195661015Y-93082481D01*
X195542481Y-93201015D01*
X195403100Y-93294147D01*
X195248228Y-93358297D01*
X195083816Y-93391000D01*
X194916184Y-93391000D01*
X194751772Y-93358297D01*
X194596900Y-93294147D01*
X194457519Y-93201015D01*
X194338985Y-93082481D01*
X194245853Y-92943100D01*
X194181703Y-92788228D01*
X194149000Y-92623816D01*
X194149000Y-92456184D01*
X194181703Y-92291772D01*
X194245853Y-92136900D01*
X194338985Y-91997519D01*
X194457519Y-91878985D01*
X194596900Y-91785853D01*
X194751772Y-91721703D01*
X194916184Y-91689000D01*
X195083816Y-91689000D01*
X195248228Y-91721703D01*
G37*
G36*
X202868228Y-91721703D02*
G01*
X203023100Y-91785853D01*
X203162481Y-91878985D01*
X203281015Y-91997519D01*
X203374147Y-92136900D01*
X203438297Y-92291772D01*
X203471000Y-92456184D01*
X203471000Y-92623816D01*
X203438297Y-92788228D01*
X203374147Y-92943100D01*
X203281015Y-93082481D01*
X203162481Y-93201015D01*
X203023100Y-93294147D01*
X202868228Y-93358297D01*
X202703816Y-93391000D01*
X202536184Y-93391000D01*
X202371772Y-93358297D01*
X202216900Y-93294147D01*
X202077519Y-93201015D01*
X201958985Y-93082481D01*
X201865853Y-92943100D01*
X201801703Y-92788228D01*
X201769000Y-92623816D01*
X201769000Y-92456184D01*
X201801703Y-92291772D01*
X201865853Y-92136900D01*
X201958985Y-91997519D01*
X202077519Y-91878985D01*
X202216900Y-91785853D01*
X202371772Y-91721703D01*
X202536184Y-91689000D01*
X202703816Y-91689000D01*
X202868228Y-91721703D01*
G37*
G36*
X93998228Y-91721703D02*
G01*
X94153100Y-91785853D01*
X94292481Y-91878985D01*
X94411015Y-91997519D01*
X94504147Y-92136900D01*
X94568297Y-92291772D01*
X94601000Y-92456184D01*
X94601000Y-92623816D01*
X94568297Y-92788228D01*
X94504147Y-92943100D01*
X94411015Y-93082481D01*
X94292481Y-93201015D01*
X94153100Y-93294147D01*
X93998228Y-93358297D01*
X93833816Y-93391000D01*
X93666184Y-93391000D01*
X93501772Y-93358297D01*
X93346900Y-93294147D01*
X93207519Y-93201015D01*
X93088985Y-93082481D01*
X92995853Y-92943100D01*
X92931703Y-92788228D01*
X92899000Y-92623816D01*
X92899000Y-92456184D01*
X92931703Y-92291772D01*
X92995853Y-92136900D01*
X93088985Y-91997519D01*
X93207519Y-91878985D01*
X93346900Y-91785853D01*
X93501772Y-91721703D01*
X93666184Y-91689000D01*
X93833816Y-91689000D01*
X93998228Y-91721703D01*
G37*
G36*
X112868228Y-91721703D02*
G01*
X113023100Y-91785853D01*
X113162481Y-91878985D01*
X113281015Y-91997519D01*
X113374147Y-92136900D01*
X113438297Y-92291772D01*
X113471000Y-92456184D01*
X113471000Y-92623816D01*
X113438297Y-92788228D01*
X113374147Y-92943100D01*
X113281015Y-93082481D01*
X113162481Y-93201015D01*
X113023100Y-93294147D01*
X112868228Y-93358297D01*
X112703816Y-93391000D01*
X112536184Y-93391000D01*
X112371772Y-93358297D01*
X112216900Y-93294147D01*
X112077519Y-93201015D01*
X111958985Y-93082481D01*
X111865853Y-92943100D01*
X111801703Y-92788228D01*
X111769000Y-92623816D01*
X111769000Y-92456184D01*
X111801703Y-92291772D01*
X111865853Y-92136900D01*
X111958985Y-91997519D01*
X112077519Y-91878985D01*
X112216900Y-91785853D01*
X112371772Y-91721703D01*
X112536184Y-91689000D01*
X112703816Y-91689000D01*
X112868228Y-91721703D01*
G37*
G36*
X101618228Y-91721703D02*
G01*
X101773100Y-91785853D01*
X101912481Y-91878985D01*
X102031015Y-91997519D01*
X102124147Y-92136900D01*
X102188297Y-92291772D01*
X102221000Y-92456184D01*
X102221000Y-92623816D01*
X102188297Y-92788228D01*
X102124147Y-92943100D01*
X102031015Y-93082481D01*
X101912481Y-93201015D01*
X101773100Y-93294147D01*
X101618228Y-93358297D01*
X101453816Y-93391000D01*
X101286184Y-93391000D01*
X101121772Y-93358297D01*
X100966900Y-93294147D01*
X100827519Y-93201015D01*
X100708985Y-93082481D01*
X100615853Y-92943100D01*
X100551703Y-92788228D01*
X100519000Y-92623816D01*
X100519000Y-92456184D01*
X100551703Y-92291772D01*
X100615853Y-92136900D01*
X100708985Y-91997519D01*
X100827519Y-91878985D01*
X100966900Y-91785853D01*
X101121772Y-91721703D01*
X101286184Y-91689000D01*
X101453816Y-91689000D01*
X101618228Y-91721703D01*
G37*
G36*
X172748228Y-91721703D02*
G01*
X172903100Y-91785853D01*
X173042481Y-91878985D01*
X173161015Y-91997519D01*
X173254147Y-92136900D01*
X173318297Y-92291772D01*
X173351000Y-92456184D01*
X173351000Y-92623816D01*
X173318297Y-92788228D01*
X173254147Y-92943100D01*
X173161015Y-93082481D01*
X173042481Y-93201015D01*
X172903100Y-93294147D01*
X172748228Y-93358297D01*
X172583816Y-93391000D01*
X172416184Y-93391000D01*
X172251772Y-93358297D01*
X172096900Y-93294147D01*
X171957519Y-93201015D01*
X171838985Y-93082481D01*
X171745853Y-92943100D01*
X171681703Y-92788228D01*
X171649000Y-92623816D01*
X171649000Y-92456184D01*
X171681703Y-92291772D01*
X171745853Y-92136900D01*
X171838985Y-91997519D01*
X171957519Y-91878985D01*
X172096900Y-91785853D01*
X172251772Y-91721703D01*
X172416184Y-91689000D01*
X172583816Y-91689000D01*
X172748228Y-91721703D01*
G37*
G36*
X105248228Y-91721703D02*
G01*
X105403100Y-91785853D01*
X105542481Y-91878985D01*
X105661015Y-91997519D01*
X105754147Y-92136900D01*
X105818297Y-92291772D01*
X105851000Y-92456184D01*
X105851000Y-92623816D01*
X105818297Y-92788228D01*
X105754147Y-92943100D01*
X105661015Y-93082481D01*
X105542481Y-93201015D01*
X105403100Y-93294147D01*
X105248228Y-93358297D01*
X105083816Y-93391000D01*
X104916184Y-93391000D01*
X104751772Y-93358297D01*
X104596900Y-93294147D01*
X104457519Y-93201015D01*
X104338985Y-93082481D01*
X104245853Y-92943100D01*
X104181703Y-92788228D01*
X104149000Y-92623816D01*
X104149000Y-92456184D01*
X104181703Y-92291772D01*
X104245853Y-92136900D01*
X104338985Y-91997519D01*
X104457519Y-91878985D01*
X104596900Y-91785853D01*
X104751772Y-91721703D01*
X104916184Y-91689000D01*
X105083816Y-91689000D01*
X105248228Y-91721703D01*
G37*
G36*
X158179195Y-90283246D02*
G01*
X158352266Y-90354934D01*
X158352267Y-90354935D01*
X158508027Y-90459010D01*
X158640490Y-90591473D01*
X158640491Y-90591475D01*
X158744566Y-90747234D01*
X158816254Y-90920305D01*
X158852800Y-91104033D01*
X158852800Y-91291367D01*
X158816254Y-91475095D01*
X158744566Y-91648166D01*
X158695430Y-91721703D01*
X158640490Y-91803927D01*
X158508027Y-91936390D01*
X158429618Y-91988781D01*
X158352266Y-92040466D01*
X158179195Y-92112154D01*
X157995467Y-92148700D01*
X157808133Y-92148700D01*
X157624405Y-92112154D01*
X157451334Y-92040466D01*
X157373982Y-91988781D01*
X157295573Y-91936390D01*
X157163110Y-91803927D01*
X157108170Y-91721703D01*
X157059034Y-91648166D01*
X156987346Y-91475095D01*
X156950800Y-91291367D01*
X156950800Y-91104033D01*
X156987346Y-90920305D01*
X157059034Y-90747234D01*
X157163109Y-90591475D01*
X157163110Y-90591473D01*
X157295573Y-90459010D01*
X157451333Y-90354935D01*
X157451334Y-90354934D01*
X157624405Y-90283246D01*
X157808133Y-90246700D01*
X157995467Y-90246700D01*
X158179195Y-90283246D01*
G37*
G36*
X165267100Y-92111400D02*
G01*
X163465100Y-92111400D01*
X163465100Y-90309400D01*
X165267100Y-90309400D01*
X165267100Y-92111400D01*
G37*
G36*
X184601000Y-90851000D02*
G01*
X182899000Y-90851000D01*
X182899000Y-89149000D01*
X184601000Y-89149000D01*
X184601000Y-90851000D01*
G37*
G36*
X202868228Y-89181703D02*
G01*
X203023100Y-89245853D01*
X203162481Y-89338985D01*
X203281015Y-89457519D01*
X203374147Y-89596900D01*
X203438297Y-89751772D01*
X203471000Y-89916184D01*
X203471000Y-90083816D01*
X203438297Y-90248228D01*
X203374147Y-90403100D01*
X203281015Y-90542481D01*
X203162481Y-90661015D01*
X203023100Y-90754147D01*
X202868228Y-90818297D01*
X202703816Y-90851000D01*
X202536184Y-90851000D01*
X202371772Y-90818297D01*
X202216900Y-90754147D01*
X202077519Y-90661015D01*
X201958985Y-90542481D01*
X201865853Y-90403100D01*
X201801703Y-90248228D01*
X201769000Y-90083816D01*
X201769000Y-89916184D01*
X201801703Y-89751772D01*
X201865853Y-89596900D01*
X201958985Y-89457519D01*
X202077519Y-89338985D01*
X202216900Y-89245853D01*
X202371772Y-89181703D01*
X202536184Y-89149000D01*
X202703816Y-89149000D01*
X202868228Y-89181703D01*
G37*
G36*
X195851000Y-90851000D02*
G01*
X194149000Y-90851000D01*
X194149000Y-89149000D01*
X195851000Y-89149000D01*
X195851000Y-90851000D01*
G37*
G36*
X191618228Y-89181703D02*
G01*
X191773100Y-89245853D01*
X191912481Y-89338985D01*
X192031015Y-89457519D01*
X192124147Y-89596900D01*
X192188297Y-89751772D01*
X192221000Y-89916184D01*
X192221000Y-90083816D01*
X192188297Y-90248228D01*
X192124147Y-90403100D01*
X192031015Y-90542481D01*
X191912481Y-90661015D01*
X191773100Y-90754147D01*
X191618228Y-90818297D01*
X191453816Y-90851000D01*
X191286184Y-90851000D01*
X191121772Y-90818297D01*
X190966900Y-90754147D01*
X190827519Y-90661015D01*
X190708985Y-90542481D01*
X190615853Y-90403100D01*
X190551703Y-90248228D01*
X190519000Y-90083816D01*
X190519000Y-89916184D01*
X190551703Y-89751772D01*
X190615853Y-89596900D01*
X190708985Y-89457519D01*
X190827519Y-89338985D01*
X190966900Y-89245853D01*
X191121772Y-89181703D01*
X191286184Y-89149000D01*
X191453816Y-89149000D01*
X191618228Y-89181703D01*
G37*
G36*
X180368228Y-89181703D02*
G01*
X180523100Y-89245853D01*
X180662481Y-89338985D01*
X180781015Y-89457519D01*
X180874147Y-89596900D01*
X180938297Y-89751772D01*
X180971000Y-89916184D01*
X180971000Y-90083816D01*
X180938297Y-90248228D01*
X180874147Y-90403100D01*
X180781015Y-90542481D01*
X180662481Y-90661015D01*
X180523100Y-90754147D01*
X180368228Y-90818297D01*
X180203816Y-90851000D01*
X180036184Y-90851000D01*
X179871772Y-90818297D01*
X179716900Y-90754147D01*
X179577519Y-90661015D01*
X179458985Y-90542481D01*
X179365853Y-90403100D01*
X179301703Y-90248228D01*
X179269000Y-90083816D01*
X179269000Y-89916184D01*
X179301703Y-89751772D01*
X179365853Y-89596900D01*
X179458985Y-89457519D01*
X179577519Y-89338985D01*
X179716900Y-89245853D01*
X179871772Y-89181703D01*
X180036184Y-89149000D01*
X180203816Y-89149000D01*
X180368228Y-89181703D01*
G37*
G36*
X112868228Y-89181703D02*
G01*
X113023100Y-89245853D01*
X113162481Y-89338985D01*
X113281015Y-89457519D01*
X113374147Y-89596900D01*
X113438297Y-89751772D01*
X113471000Y-89916184D01*
X113471000Y-90083816D01*
X113438297Y-90248228D01*
X113374147Y-90403100D01*
X113281015Y-90542481D01*
X113162481Y-90661015D01*
X113023100Y-90754147D01*
X112868228Y-90818297D01*
X112703816Y-90851000D01*
X112536184Y-90851000D01*
X112371772Y-90818297D01*
X112216900Y-90754147D01*
X112077519Y-90661015D01*
X111958985Y-90542481D01*
X111865853Y-90403100D01*
X111801703Y-90248228D01*
X111769000Y-90083816D01*
X111769000Y-89916184D01*
X111801703Y-89751772D01*
X111865853Y-89596900D01*
X111958985Y-89457519D01*
X112077519Y-89338985D01*
X112216900Y-89245853D01*
X112371772Y-89181703D01*
X112536184Y-89149000D01*
X112703816Y-89149000D01*
X112868228Y-89181703D01*
G37*
G36*
X101618228Y-89181703D02*
G01*
X101773100Y-89245853D01*
X101912481Y-89338985D01*
X102031015Y-89457519D01*
X102124147Y-89596900D01*
X102188297Y-89751772D01*
X102221000Y-89916184D01*
X102221000Y-90083816D01*
X102188297Y-90248228D01*
X102124147Y-90403100D01*
X102031015Y-90542481D01*
X101912481Y-90661015D01*
X101773100Y-90754147D01*
X101618228Y-90818297D01*
X101453816Y-90851000D01*
X101286184Y-90851000D01*
X101121772Y-90818297D01*
X100966900Y-90754147D01*
X100827519Y-90661015D01*
X100708985Y-90542481D01*
X100615853Y-90403100D01*
X100551703Y-90248228D01*
X100519000Y-90083816D01*
X100519000Y-89916184D01*
X100551703Y-89751772D01*
X100615853Y-89596900D01*
X100708985Y-89457519D01*
X100827519Y-89338985D01*
X100966900Y-89245853D01*
X101121772Y-89181703D01*
X101286184Y-89149000D01*
X101453816Y-89149000D01*
X101618228Y-89181703D01*
G37*
G36*
X105851000Y-90851000D02*
G01*
X104149000Y-90851000D01*
X104149000Y-89149000D01*
X105851000Y-89149000D01*
X105851000Y-90851000D01*
G37*
G36*
X173351000Y-90851000D02*
G01*
X171649000Y-90851000D01*
X171649000Y-89149000D01*
X173351000Y-89149000D01*
X173351000Y-90851000D01*
G37*
G36*
X83351000Y-90851000D02*
G01*
X81649000Y-90851000D01*
X81649000Y-89149000D01*
X83351000Y-89149000D01*
X83351000Y-90851000D01*
G37*
G36*
X90368228Y-89181703D02*
G01*
X90523100Y-89245853D01*
X90662481Y-89338985D01*
X90781015Y-89457519D01*
X90874147Y-89596900D01*
X90938297Y-89751772D01*
X90971000Y-89916184D01*
X90971000Y-90083816D01*
X90938297Y-90248228D01*
X90874147Y-90403100D01*
X90781015Y-90542481D01*
X90662481Y-90661015D01*
X90523100Y-90754147D01*
X90368228Y-90818297D01*
X90203816Y-90851000D01*
X90036184Y-90851000D01*
X89871772Y-90818297D01*
X89716900Y-90754147D01*
X89577519Y-90661015D01*
X89458985Y-90542481D01*
X89365853Y-90403100D01*
X89301703Y-90248228D01*
X89269000Y-90083816D01*
X89269000Y-89916184D01*
X89301703Y-89751772D01*
X89365853Y-89596900D01*
X89458985Y-89457519D01*
X89577519Y-89338985D01*
X89716900Y-89245853D01*
X89871772Y-89181703D01*
X90036184Y-89149000D01*
X90203816Y-89149000D01*
X90368228Y-89181703D01*
G37*
G36*
X94601000Y-90851000D02*
G01*
X92899000Y-90851000D01*
X92899000Y-89149000D01*
X94601000Y-89149000D01*
X94601000Y-90851000D01*
G37*
G36*
X164441512Y-83557927D02*
G01*
X164590812Y-83587624D01*
X164754784Y-83655544D01*
X164902354Y-83754147D01*
X165027853Y-83879646D01*
X165126456Y-84027216D01*
X165194376Y-84191188D01*
X165229000Y-84365259D01*
X165229000Y-84542741D01*
X165194376Y-84716812D01*
X165126456Y-84880784D01*
X165027853Y-85028354D01*
X164902354Y-85153853D01*
X164754784Y-85252456D01*
X164590812Y-85320376D01*
X164441512Y-85350073D01*
X164416742Y-85355000D01*
X164239258Y-85355000D01*
X164214488Y-85350073D01*
X164065188Y-85320376D01*
X163901216Y-85252456D01*
X163753646Y-85153853D01*
X163628147Y-85028354D01*
X163529544Y-84880784D01*
X163461624Y-84716812D01*
X163427000Y-84542741D01*
X163427000Y-84365259D01*
X163461624Y-84191188D01*
X163529544Y-84027216D01*
X163628147Y-83879646D01*
X163753646Y-83754147D01*
X163901216Y-83655544D01*
X164065188Y-83587624D01*
X164214488Y-83557927D01*
X164239258Y-83553000D01*
X164416742Y-83553000D01*
X164441512Y-83557927D01*
G37*
G36*
X96998228Y-81181703D02*
G01*
X97153100Y-81245853D01*
X97292481Y-81338985D01*
X97411015Y-81457519D01*
X97504147Y-81596900D01*
X97568297Y-81751772D01*
X97601000Y-81916184D01*
X97601000Y-82083816D01*
X97568297Y-82248228D01*
X97504147Y-82403100D01*
X97411015Y-82542481D01*
X97292481Y-82661015D01*
X97153100Y-82754147D01*
X96998228Y-82818297D01*
X96833816Y-82851000D01*
X96666184Y-82851000D01*
X96501772Y-82818297D01*
X96346900Y-82754147D01*
X96207519Y-82661015D01*
X96088985Y-82542481D01*
X95995853Y-82403100D01*
X95931703Y-82248228D01*
X95899000Y-82083816D01*
X95899000Y-81916184D01*
X95931703Y-81751772D01*
X95995853Y-81596900D01*
X96088985Y-81457519D01*
X96207519Y-81338985D01*
X96346900Y-81245853D01*
X96501772Y-81181703D01*
X96666184Y-81149000D01*
X96833816Y-81149000D01*
X96998228Y-81181703D01*
G37*
G36*
X164441512Y-81017927D02*
G01*
X164590812Y-81047624D01*
X164754784Y-81115544D01*
X164902354Y-81214147D01*
X165027853Y-81339646D01*
X165126456Y-81487216D01*
X165194376Y-81651188D01*
X165229000Y-81825259D01*
X165229000Y-82002741D01*
X165194376Y-82176812D01*
X165126456Y-82340784D01*
X165027853Y-82488354D01*
X164902354Y-82613853D01*
X164754784Y-82712456D01*
X164590812Y-82780376D01*
X164441512Y-82810073D01*
X164416742Y-82815000D01*
X164239258Y-82815000D01*
X164214488Y-82810073D01*
X164065188Y-82780376D01*
X163901216Y-82712456D01*
X163753646Y-82613853D01*
X163628147Y-82488354D01*
X163529544Y-82340784D01*
X163461624Y-82176812D01*
X163427000Y-82002741D01*
X163427000Y-81825259D01*
X163461624Y-81651188D01*
X163529544Y-81487216D01*
X163628147Y-81339646D01*
X163753646Y-81214147D01*
X163901216Y-81115544D01*
X164065188Y-81047624D01*
X164214488Y-81017927D01*
X164239258Y-81013000D01*
X164416742Y-81013000D01*
X164441512Y-81017927D01*
G37*
G36*
X106736719Y-78963520D02*
G01*
X106925880Y-79020901D01*
X106925883Y-79020902D01*
X107018333Y-79070318D01*
X107100212Y-79114083D01*
X107253015Y-79239485D01*
X107378417Y-79392288D01*
X107471599Y-79566619D01*
X107528980Y-79755780D01*
X107543500Y-79903206D01*
X107543500Y-80096793D01*
X107528980Y-80244219D01*
X107506728Y-80317573D01*
X107471598Y-80433383D01*
X107450860Y-80472181D01*
X107378417Y-80607712D01*
X107253015Y-80760515D01*
X107100212Y-80885917D01*
X106925881Y-80979099D01*
X106736720Y-81036480D01*
X106540000Y-81055855D01*
X106343281Y-81036480D01*
X106154120Y-80979099D01*
X105979788Y-80885917D01*
X105826985Y-80760515D01*
X105701583Y-80607712D01*
X105608401Y-80433381D01*
X105551020Y-80244220D01*
X105536500Y-80096794D01*
X105536500Y-79903207D01*
X105551020Y-79755781D01*
X105608401Y-79566620D01*
X105608402Y-79566617D01*
X105663925Y-79462741D01*
X105701583Y-79392288D01*
X105826985Y-79239485D01*
X105979788Y-79114083D01*
X106154119Y-79020901D01*
X106343280Y-78963520D01*
X106540000Y-78944145D01*
X106736719Y-78963520D01*
G37*
G36*
X109276719Y-78963520D02*
G01*
X109465880Y-79020901D01*
X109465883Y-79020902D01*
X109558333Y-79070318D01*
X109640212Y-79114083D01*
X109793015Y-79239485D01*
X109918417Y-79392288D01*
X110011599Y-79566619D01*
X110068980Y-79755780D01*
X110083500Y-79903206D01*
X110083500Y-80096793D01*
X110068980Y-80244219D01*
X110046728Y-80317573D01*
X110011598Y-80433383D01*
X109990860Y-80472181D01*
X109918417Y-80607712D01*
X109793015Y-80760515D01*
X109640212Y-80885917D01*
X109465881Y-80979099D01*
X109276720Y-81036480D01*
X109080000Y-81055855D01*
X108883281Y-81036480D01*
X108694120Y-80979099D01*
X108519788Y-80885917D01*
X108366985Y-80760515D01*
X108241583Y-80607712D01*
X108148401Y-80433381D01*
X108091020Y-80244220D01*
X108076500Y-80096794D01*
X108076500Y-79903207D01*
X108091020Y-79755781D01*
X108148401Y-79566620D01*
X108148402Y-79566617D01*
X108203925Y-79462741D01*
X108241583Y-79392288D01*
X108366985Y-79239485D01*
X108519788Y-79114083D01*
X108694119Y-79020901D01*
X108883280Y-78963520D01*
X109080000Y-78944145D01*
X109276719Y-78963520D01*
G37*
G36*
X105003500Y-81051000D02*
G01*
X102996500Y-81051000D01*
X102996500Y-78949000D01*
X105003500Y-78949000D01*
X105003500Y-81051000D01*
G37*
G36*
X97601000Y-80851000D02*
G01*
X95899000Y-80851000D01*
X95899000Y-79149000D01*
X97601000Y-79149000D01*
X97601000Y-80851000D01*
G37*
G36*
X84598254Y-76527818D02*
G01*
X84971511Y-76682426D01*
X84971513Y-76682427D01*
X85307436Y-76906884D01*
X85593116Y-77192564D01*
X85737303Y-77408354D01*
X85817574Y-77528489D01*
X85972182Y-77901746D01*
X86051000Y-78297993D01*
X86051000Y-78702007D01*
X85972182Y-79098254D01*
X85821206Y-79462742D01*
X85817573Y-79471513D01*
X85593116Y-79807436D01*
X85307436Y-80093116D01*
X84971513Y-80317573D01*
X84971512Y-80317574D01*
X84971511Y-80317574D01*
X84598254Y-80472182D01*
X84202007Y-80551000D01*
X83797993Y-80551000D01*
X83401746Y-80472182D01*
X83028489Y-80317574D01*
X83028488Y-80317574D01*
X83028487Y-80317573D01*
X82692564Y-80093116D01*
X82406884Y-79807436D01*
X82182427Y-79471513D01*
X82178794Y-79462742D01*
X82027818Y-79098254D01*
X81949000Y-78702007D01*
X81949000Y-78297993D01*
X82027818Y-77901746D01*
X82182426Y-77528489D01*
X82262698Y-77408354D01*
X82406884Y-77192564D01*
X82692564Y-76906884D01*
X83028487Y-76682427D01*
X83028489Y-76682426D01*
X83401746Y-76527818D01*
X83797993Y-76449000D01*
X84202007Y-76449000D01*
X84598254Y-76527818D01*
G37*
G36*
X201598254Y-76527818D02*
G01*
X201971511Y-76682426D01*
X201971513Y-76682427D01*
X202307436Y-76906884D01*
X202593116Y-77192564D01*
X202737303Y-77408354D01*
X202817574Y-77528489D01*
X202972182Y-77901746D01*
X203051000Y-78297993D01*
X203051000Y-78702007D01*
X202972182Y-79098254D01*
X202821206Y-79462742D01*
X202817573Y-79471513D01*
X202593116Y-79807436D01*
X202307436Y-80093116D01*
X201971513Y-80317573D01*
X201971512Y-80317574D01*
X201971511Y-80317574D01*
X201598254Y-80472182D01*
X201202007Y-80551000D01*
X200797993Y-80551000D01*
X200401746Y-80472182D01*
X200028489Y-80317574D01*
X200028488Y-80317574D01*
X200028487Y-80317573D01*
X199692564Y-80093116D01*
X199406884Y-79807436D01*
X199182427Y-79471513D01*
X199178794Y-79462742D01*
X199027818Y-79098254D01*
X198949000Y-78702007D01*
X198949000Y-78297993D01*
X199027818Y-77901746D01*
X199182426Y-77528489D01*
X199262698Y-77408354D01*
X199406884Y-77192564D01*
X199692564Y-76906884D01*
X200028487Y-76682427D01*
X200028489Y-76682426D01*
X200401746Y-76527818D01*
X200797993Y-76449000D01*
X201202007Y-76449000D01*
X201598254Y-76527818D01*
G37*
G36*
X164441512Y-78477927D02*
G01*
X164590812Y-78507624D01*
X164754784Y-78575544D01*
X164902354Y-78674147D01*
X165027853Y-78799646D01*
X165126456Y-78947216D01*
X165194376Y-79111188D01*
X165229000Y-79285259D01*
X165229000Y-79462741D01*
X165194376Y-79636812D01*
X165126456Y-79800784D01*
X165027853Y-79948354D01*
X164902354Y-80073853D01*
X164754784Y-80172456D01*
X164590812Y-80240376D01*
X164441512Y-80270073D01*
X164416742Y-80275000D01*
X164239258Y-80275000D01*
X164214488Y-80270073D01*
X164065188Y-80240376D01*
X163901216Y-80172456D01*
X163753646Y-80073853D01*
X163628147Y-79948354D01*
X163529544Y-79800784D01*
X163461624Y-79636812D01*
X163427000Y-79462741D01*
X163427000Y-79285259D01*
X163461624Y-79111188D01*
X163529544Y-78947216D01*
X163628147Y-78799646D01*
X163753646Y-78674147D01*
X163901216Y-78575544D01*
X164065188Y-78507624D01*
X164214488Y-78477927D01*
X164239258Y-78473000D01*
X164416742Y-78473000D01*
X164441512Y-78477927D01*
G37*
G36*
X164441512Y-75937927D02*
G01*
X164590812Y-75967624D01*
X164754784Y-76035544D01*
X164902354Y-76134147D01*
X165027853Y-76259646D01*
X165126456Y-76407216D01*
X165194376Y-76571188D01*
X165229000Y-76745259D01*
X165229000Y-76922741D01*
X165194376Y-77096812D01*
X165126456Y-77260784D01*
X165027853Y-77408354D01*
X164902354Y-77533853D01*
X164754784Y-77632456D01*
X164590812Y-77700376D01*
X164441512Y-77730073D01*
X164416742Y-77735000D01*
X164239258Y-77735000D01*
X164214488Y-77730073D01*
X164065188Y-77700376D01*
X163901216Y-77632456D01*
X163753646Y-77533853D01*
X163628147Y-77408354D01*
X163529544Y-77260784D01*
X163461624Y-77096812D01*
X163427000Y-76922741D01*
X163427000Y-76745259D01*
X163461624Y-76571188D01*
X163529544Y-76407216D01*
X163628147Y-76259646D01*
X163753646Y-76134147D01*
X163901216Y-76035544D01*
X164065188Y-75967624D01*
X164214488Y-75937927D01*
X164239258Y-75933000D01*
X164416742Y-75933000D01*
X164441512Y-75937927D01*
G37*
G36*
X165229000Y-75195000D02*
G01*
X163427000Y-75195000D01*
X163427000Y-73393000D01*
X165229000Y-73393000D01*
X165229000Y-75195000D01*
G37*
G36*
X120386100Y-74192500D02*
G01*
X118684100Y-74192500D01*
X118684100Y-72490500D01*
X120386100Y-72490500D01*
X120386100Y-74192500D01*
G37*
G36*
X117783328Y-72523203D02*
G01*
X117938200Y-72587353D01*
X118077581Y-72680485D01*
X118196115Y-72799019D01*
X118289247Y-72938400D01*
X118353397Y-73093272D01*
X118386100Y-73257684D01*
X118386100Y-73425316D01*
X118353397Y-73589728D01*
X118289247Y-73744600D01*
X118196115Y-73883981D01*
X118077581Y-74002515D01*
X117938200Y-74095647D01*
X117783328Y-74159797D01*
X117618916Y-74192500D01*
X117451284Y-74192500D01*
X117286872Y-74159797D01*
X117132000Y-74095647D01*
X116992619Y-74002515D01*
X116874085Y-73883981D01*
X116780953Y-73744600D01*
X116716803Y-73589728D01*
X116684100Y-73425316D01*
X116684100Y-73257684D01*
X116716803Y-73093272D01*
X116780953Y-72938400D01*
X116874085Y-72799019D01*
X116992619Y-72680485D01*
X117132000Y-72587353D01*
X117286872Y-72523203D01*
X117451284Y-72490500D01*
X117618916Y-72490500D01*
X117783328Y-72523203D01*
G37*
G36*
X84303792Y-69148811D02*
G01*
X84477173Y-69220628D01*
X84633211Y-69324889D01*
X84765911Y-69457589D01*
X84870172Y-69613627D01*
X84870173Y-69613629D01*
X84941989Y-69787008D01*
X84978600Y-69971066D01*
X84978600Y-70158734D01*
X84941989Y-70342792D01*
X84898825Y-70447000D01*
X84870172Y-70516173D01*
X84765911Y-70672211D01*
X84633211Y-70804911D01*
X84477173Y-70909172D01*
X84477172Y-70909173D01*
X84477171Y-70909173D01*
X84303792Y-70980989D01*
X84119734Y-71017600D01*
X83932066Y-71017600D01*
X83748008Y-70980989D01*
X83574629Y-70909173D01*
X83574628Y-70909173D01*
X83574627Y-70909172D01*
X83418589Y-70804911D01*
X83285889Y-70672211D01*
X83181628Y-70516173D01*
X83152976Y-70447000D01*
X83109811Y-70342792D01*
X83073200Y-70158734D01*
X83073200Y-69971066D01*
X83109811Y-69787008D01*
X83181627Y-69613629D01*
X83181628Y-69613627D01*
X83285889Y-69457589D01*
X83418589Y-69324889D01*
X83574627Y-69220628D01*
X83748008Y-69148811D01*
X83932066Y-69112200D01*
X84119734Y-69112200D01*
X84303792Y-69148811D01*
G37*
G36*
X180433364Y-68385389D02*
G01*
X180624633Y-68464615D01*
X180624635Y-68464616D01*
X180796773Y-68579635D01*
X180943165Y-68726027D01*
X181058185Y-68898167D01*
X181137411Y-69089436D01*
X181177800Y-69292484D01*
X181177800Y-69499516D01*
X181137411Y-69702564D01*
X181102433Y-69787008D01*
X181058184Y-69893835D01*
X180943165Y-70065973D01*
X180796773Y-70212365D01*
X180624635Y-70327384D01*
X180624634Y-70327385D01*
X180624633Y-70327385D01*
X180433364Y-70406611D01*
X180230316Y-70447000D01*
X180023284Y-70447000D01*
X179820236Y-70406611D01*
X179628967Y-70327385D01*
X179628966Y-70327385D01*
X179628965Y-70327384D01*
X179456827Y-70212365D01*
X179310435Y-70065973D01*
X179195416Y-69893835D01*
X179151167Y-69787008D01*
X179116189Y-69702564D01*
X179075800Y-69499516D01*
X179075800Y-69292484D01*
X179116189Y-69089436D01*
X179195415Y-68898167D01*
X179310435Y-68726027D01*
X179456827Y-68579635D01*
X179628965Y-68464616D01*
X179628967Y-68464615D01*
X179820236Y-68385389D01*
X180023284Y-68345000D01*
X180230316Y-68345000D01*
X180433364Y-68385389D01*
G37*
G36*
X186933364Y-68385389D02*
G01*
X187124633Y-68464615D01*
X187124635Y-68464616D01*
X187296773Y-68579635D01*
X187443165Y-68726027D01*
X187558185Y-68898167D01*
X187637411Y-69089436D01*
X187677800Y-69292484D01*
X187677800Y-69499516D01*
X187637411Y-69702564D01*
X187602433Y-69787008D01*
X187558184Y-69893835D01*
X187443165Y-70065973D01*
X187296773Y-70212365D01*
X187124635Y-70327384D01*
X187124634Y-70327385D01*
X187124633Y-70327385D01*
X186933364Y-70406611D01*
X186730316Y-70447000D01*
X186523284Y-70447000D01*
X186320236Y-70406611D01*
X186128967Y-70327385D01*
X186128966Y-70327385D01*
X186128965Y-70327384D01*
X185956827Y-70212365D01*
X185810435Y-70065973D01*
X185695416Y-69893835D01*
X185651167Y-69787008D01*
X185616189Y-69702564D01*
X185575800Y-69499516D01*
X185575800Y-69292484D01*
X185616189Y-69089436D01*
X185695415Y-68898167D01*
X185810435Y-68726027D01*
X185956827Y-68579635D01*
X186128965Y-68464616D01*
X186128967Y-68464615D01*
X186320236Y-68385389D01*
X186523284Y-68345000D01*
X186730316Y-68345000D01*
X186933364Y-68385389D01*
G37*
G36*
X193031764Y-68385389D02*
G01*
X193223033Y-68464615D01*
X193223035Y-68464616D01*
X193395173Y-68579635D01*
X193541565Y-68726027D01*
X193656585Y-68898167D01*
X193735811Y-69089436D01*
X193776200Y-69292484D01*
X193776200Y-69499516D01*
X193735811Y-69702564D01*
X193700833Y-69787008D01*
X193656584Y-69893835D01*
X193541565Y-70065973D01*
X193395173Y-70212365D01*
X193223035Y-70327384D01*
X193223034Y-70327385D01*
X193223033Y-70327385D01*
X193031764Y-70406611D01*
X192828716Y-70447000D01*
X192621684Y-70447000D01*
X192418636Y-70406611D01*
X192227367Y-70327385D01*
X192227366Y-70327385D01*
X192227365Y-70327384D01*
X192055227Y-70212365D01*
X191908835Y-70065973D01*
X191793816Y-69893835D01*
X191749567Y-69787008D01*
X191714589Y-69702564D01*
X191674200Y-69499516D01*
X191674200Y-69292484D01*
X191714589Y-69089436D01*
X191793815Y-68898167D01*
X191908835Y-68726027D01*
X192055227Y-68579635D01*
X192227365Y-68464616D01*
X192227367Y-68464615D01*
X192418636Y-68385389D01*
X192621684Y-68345000D01*
X192828716Y-68345000D01*
X193031764Y-68385389D01*
G37*
G36*
X199531764Y-68385389D02*
G01*
X199723033Y-68464615D01*
X199723035Y-68464616D01*
X199895173Y-68579635D01*
X200041565Y-68726027D01*
X200156585Y-68898167D01*
X200235811Y-69089436D01*
X200276200Y-69292484D01*
X200276200Y-69499516D01*
X200235811Y-69702564D01*
X200200833Y-69787008D01*
X200156584Y-69893835D01*
X200041565Y-70065973D01*
X199895173Y-70212365D01*
X199723035Y-70327384D01*
X199723034Y-70327385D01*
X199723033Y-70327385D01*
X199531764Y-70406611D01*
X199328716Y-70447000D01*
X199121684Y-70447000D01*
X198918636Y-70406611D01*
X198727367Y-70327385D01*
X198727366Y-70327385D01*
X198727365Y-70327384D01*
X198555227Y-70212365D01*
X198408835Y-70065973D01*
X198293816Y-69893835D01*
X198249567Y-69787008D01*
X198214589Y-69702564D01*
X198174200Y-69499516D01*
X198174200Y-69292484D01*
X198214589Y-69089436D01*
X198293815Y-68898167D01*
X198408835Y-68726027D01*
X198555227Y-68579635D01*
X198727365Y-68464616D01*
X198727367Y-68464615D01*
X198918636Y-68385389D01*
X199121684Y-68345000D01*
X199328716Y-68345000D01*
X199531764Y-68385389D01*
G37*
G36*
X84303792Y-66608811D02*
G01*
X84477173Y-66680628D01*
X84633211Y-66784889D01*
X84765911Y-66917589D01*
X84870172Y-67073627D01*
X84941989Y-67247008D01*
X84978600Y-67431067D01*
X84978600Y-67618733D01*
X84941989Y-67802792D01*
X84870172Y-67976173D01*
X84765911Y-68132211D01*
X84633211Y-68264911D01*
X84477173Y-68369172D01*
X84477172Y-68369173D01*
X84477171Y-68369173D01*
X84303792Y-68440989D01*
X84119734Y-68477600D01*
X83932066Y-68477600D01*
X83748008Y-68440989D01*
X83574629Y-68369173D01*
X83574628Y-68369173D01*
X83574627Y-68369172D01*
X83418589Y-68264911D01*
X83285889Y-68132211D01*
X83181628Y-67976173D01*
X83109811Y-67802792D01*
X83073200Y-67618733D01*
X83073200Y-67431067D01*
X83109811Y-67247008D01*
X83181628Y-67073627D01*
X83285889Y-66917589D01*
X83418589Y-66784889D01*
X83574627Y-66680628D01*
X83748008Y-66608811D01*
X83932066Y-66572200D01*
X84119734Y-66572200D01*
X84303792Y-66608811D01*
G37*
G36*
X199531764Y-63885389D02*
G01*
X199723033Y-63964615D01*
X199723035Y-63964616D01*
X199895173Y-64079635D01*
X200041565Y-64226027D01*
X200142836Y-64377589D01*
X200156585Y-64398167D01*
X200235811Y-64589436D01*
X200276200Y-64792484D01*
X200276200Y-64999516D01*
X200235811Y-65202564D01*
X200156585Y-65393833D01*
X200156584Y-65393835D01*
X200041565Y-65565973D01*
X199895173Y-65712365D01*
X199723035Y-65827384D01*
X199723034Y-65827385D01*
X199723033Y-65827385D01*
X199531764Y-65906611D01*
X199328716Y-65947000D01*
X199121684Y-65947000D01*
X198918636Y-65906611D01*
X198727367Y-65827385D01*
X198727366Y-65827385D01*
X198727365Y-65827384D01*
X198555227Y-65712365D01*
X198408835Y-65565973D01*
X198293816Y-65393835D01*
X198293815Y-65393833D01*
X198214589Y-65202564D01*
X198174200Y-64999516D01*
X198174200Y-64792484D01*
X198214589Y-64589436D01*
X198293815Y-64398167D01*
X198307565Y-64377589D01*
X198408835Y-64226027D01*
X198555227Y-64079635D01*
X198727365Y-63964616D01*
X198727367Y-63964615D01*
X198918636Y-63885389D01*
X199121684Y-63845000D01*
X199328716Y-63845000D01*
X199531764Y-63885389D01*
G37*
G36*
X193031764Y-63885389D02*
G01*
X193223033Y-63964615D01*
X193223035Y-63964616D01*
X193395173Y-64079635D01*
X193541565Y-64226027D01*
X193642836Y-64377589D01*
X193656585Y-64398167D01*
X193735811Y-64589436D01*
X193776200Y-64792484D01*
X193776200Y-64999516D01*
X193735811Y-65202564D01*
X193656585Y-65393833D01*
X193656584Y-65393835D01*
X193541565Y-65565973D01*
X193395173Y-65712365D01*
X193223035Y-65827384D01*
X193223034Y-65827385D01*
X193223033Y-65827385D01*
X193031764Y-65906611D01*
X192828716Y-65947000D01*
X192621684Y-65947000D01*
X192418636Y-65906611D01*
X192227367Y-65827385D01*
X192227366Y-65827385D01*
X192227365Y-65827384D01*
X192055227Y-65712365D01*
X191908835Y-65565973D01*
X191793816Y-65393835D01*
X191793815Y-65393833D01*
X191714589Y-65202564D01*
X191674200Y-64999516D01*
X191674200Y-64792484D01*
X191714589Y-64589436D01*
X191793815Y-64398167D01*
X191807565Y-64377589D01*
X191908835Y-64226027D01*
X192055227Y-64079635D01*
X192227365Y-63964616D01*
X192227367Y-63964615D01*
X192418636Y-63885389D01*
X192621684Y-63845000D01*
X192828716Y-63845000D01*
X193031764Y-63885389D01*
G37*
G36*
X180433364Y-63885389D02*
G01*
X180624633Y-63964615D01*
X180624635Y-63964616D01*
X180796773Y-64079635D01*
X180943165Y-64226027D01*
X181044436Y-64377589D01*
X181058185Y-64398167D01*
X181137411Y-64589436D01*
X181177800Y-64792484D01*
X181177800Y-64999516D01*
X181137411Y-65202564D01*
X181058185Y-65393833D01*
X181058184Y-65393835D01*
X180943165Y-65565973D01*
X180796773Y-65712365D01*
X180624635Y-65827384D01*
X180624634Y-65827385D01*
X180624633Y-65827385D01*
X180433364Y-65906611D01*
X180230316Y-65947000D01*
X180023284Y-65947000D01*
X179820236Y-65906611D01*
X179628967Y-65827385D01*
X179628966Y-65827385D01*
X179628965Y-65827384D01*
X179456827Y-65712365D01*
X179310435Y-65565973D01*
X179195416Y-65393835D01*
X179195415Y-65393833D01*
X179116189Y-65202564D01*
X179075800Y-64999516D01*
X179075800Y-64792484D01*
X179116189Y-64589436D01*
X179195415Y-64398167D01*
X179209165Y-64377589D01*
X179310435Y-64226027D01*
X179456827Y-64079635D01*
X179628965Y-63964616D01*
X179628967Y-63964615D01*
X179820236Y-63885389D01*
X180023284Y-63845000D01*
X180230316Y-63845000D01*
X180433364Y-63885389D01*
G37*
G36*
X186933364Y-63885389D02*
G01*
X187124633Y-63964615D01*
X187124635Y-63964616D01*
X187296773Y-64079635D01*
X187443165Y-64226027D01*
X187544436Y-64377589D01*
X187558185Y-64398167D01*
X187637411Y-64589436D01*
X187677800Y-64792484D01*
X187677800Y-64999516D01*
X187637411Y-65202564D01*
X187558185Y-65393833D01*
X187558184Y-65393835D01*
X187443165Y-65565973D01*
X187296773Y-65712365D01*
X187124635Y-65827384D01*
X187124634Y-65827385D01*
X187124633Y-65827385D01*
X186933364Y-65906611D01*
X186730316Y-65947000D01*
X186523284Y-65947000D01*
X186320236Y-65906611D01*
X186128967Y-65827385D01*
X186128966Y-65827385D01*
X186128965Y-65827384D01*
X185956827Y-65712365D01*
X185810435Y-65565973D01*
X185695416Y-65393835D01*
X185695415Y-65393833D01*
X185616189Y-65202564D01*
X185575800Y-64999516D01*
X185575800Y-64792484D01*
X185616189Y-64589436D01*
X185695415Y-64398167D01*
X185709165Y-64377589D01*
X185810435Y-64226027D01*
X185956827Y-64079635D01*
X186128965Y-63964616D01*
X186128967Y-63964615D01*
X186320236Y-63885389D01*
X186523284Y-63845000D01*
X186730316Y-63845000D01*
X186933364Y-63885389D01*
G37*
G36*
X84303792Y-64068811D02*
G01*
X84477173Y-64140628D01*
X84633211Y-64244889D01*
X84765911Y-64377589D01*
X84870172Y-64533627D01*
X84941989Y-64707008D01*
X84978600Y-64891067D01*
X84978600Y-65078733D01*
X84941989Y-65262792D01*
X84870172Y-65436173D01*
X84765911Y-65592211D01*
X84633211Y-65724911D01*
X84477173Y-65829172D01*
X84477172Y-65829173D01*
X84477171Y-65829173D01*
X84303792Y-65900989D01*
X84119734Y-65937600D01*
X83932066Y-65937600D01*
X83748008Y-65900989D01*
X83574629Y-65829173D01*
X83574628Y-65829173D01*
X83574627Y-65829172D01*
X83418589Y-65724911D01*
X83285889Y-65592211D01*
X83181628Y-65436173D01*
X83109811Y-65262792D01*
X83073200Y-65078733D01*
X83073200Y-64891067D01*
X83109811Y-64707008D01*
X83181628Y-64533627D01*
X83285889Y-64377589D01*
X83418589Y-64244889D01*
X83574627Y-64140628D01*
X83748008Y-64068811D01*
X83932066Y-64032200D01*
X84119734Y-64032200D01*
X84303792Y-64068811D01*
G37*
G36*
X107065331Y-61608211D02*
G01*
X107393092Y-61743974D01*
X107688070Y-61941072D01*
X107938928Y-62191930D01*
X108136026Y-62486908D01*
X108271789Y-62814669D01*
X108341000Y-63162616D01*
X108341000Y-63517384D01*
X108271789Y-63865331D01*
X108136026Y-64193092D01*
X107938928Y-64488070D01*
X107688070Y-64738928D01*
X107393092Y-64936026D01*
X107065331Y-65071789D01*
X106717384Y-65141000D01*
X106362616Y-65141000D01*
X106014669Y-65071789D01*
X105686908Y-64936026D01*
X105391930Y-64738928D01*
X105141072Y-64488070D01*
X104943974Y-64193092D01*
X104808211Y-63865331D01*
X104739000Y-63517384D01*
X104739000Y-63162616D01*
X104808211Y-62814669D01*
X104943974Y-62486908D01*
X105141072Y-62191930D01*
X105391930Y-61941072D01*
X105686908Y-61743974D01*
X106014669Y-61608211D01*
X106362616Y-61539000D01*
X106717384Y-61539000D01*
X107065331Y-61608211D01*
G37*
G36*
X84303792Y-61528811D02*
G01*
X84477173Y-61600628D01*
X84633211Y-61704889D01*
X84765911Y-61837589D01*
X84870172Y-61993627D01*
X84941989Y-62167008D01*
X84978600Y-62351067D01*
X84978600Y-62538733D01*
X84941989Y-62722792D01*
X84870172Y-62896173D01*
X84765911Y-63052211D01*
X84633211Y-63184911D01*
X84477173Y-63289172D01*
X84477172Y-63289173D01*
X84477171Y-63289173D01*
X84303792Y-63360989D01*
X84119734Y-63397600D01*
X83932066Y-63397600D01*
X83748008Y-63360989D01*
X83574629Y-63289173D01*
X83574628Y-63289173D01*
X83574627Y-63289172D01*
X83418589Y-63184911D01*
X83285889Y-63052211D01*
X83181628Y-62896173D01*
X83109811Y-62722792D01*
X83073200Y-62538733D01*
X83073200Y-62351067D01*
X83109811Y-62167008D01*
X83181628Y-61993627D01*
X83285889Y-61837589D01*
X83418589Y-61704889D01*
X83574627Y-61600628D01*
X83748008Y-61528811D01*
X83932066Y-61492200D01*
X84119734Y-61492200D01*
X84303792Y-61528811D01*
G37*
M02*
