G04 #@! TF.GenerationSoftware,KiCad,Pcbnew,5.1.5+dfsg1-2build2*
G04 #@! TF.CreationDate,2021-04-12T07:14:12+01:00*
G04 #@! TF.ProjectId,alarm_sensors,616c6172-6d5f-4736-956e-736f72732e6b,rev?*
G04 #@! TF.SameCoordinates,Original*
G04 #@! TF.FileFunction,Copper,L1,Top*
G04 #@! TF.FilePolarity,Positive*
%FSLAX46Y46*%
G04 Gerber Fmt 4.6, Leading zero omitted, Abs format (unit mm)*
G04 Created by KiCad (PCBNEW 5.1.5+dfsg1-2build2) date 2021-04-12 07:14:12*
%MOMM*%
%LPD*%
G04 APERTURE LIST*
%ADD10C,1.803400*%
%ADD11C,0.100000*%
%ADD12C,2.000000*%
%ADD13C,1.800000*%
%ADD14R,1.800000X1.800000*%
%ADD15O,1.700000X1.700000*%
%ADD16R,1.700000X1.700000*%
%ADD17O,1.600000X1.600000*%
%ADD18R,1.600000X1.600000*%
%ADD19O,1.905000X2.000000*%
%ADD20R,1.905000X2.000000*%
%ADD21C,1.600000*%
%ADD22R,5.000000X5.000000*%
%ADD23R,2.000000X0.900000*%
%ADD24R,0.900000X2.000000*%
%ADD25C,0.800000*%
%ADD26C,5.000000*%
%ADD27C,0.500000*%
%ADD28C,1.000000*%
%ADD29C,0.250000*%
%ADD30C,0.254000*%
G04 APERTURE END LIST*
D10*
X172500000Y-130750000D03*
X175040000Y-130750000D03*
X177580000Y-130750000D03*
X180120000Y-130750000D03*
X84025900Y-70064900D03*
X84025900Y-67524900D03*
X84025900Y-64984900D03*
X84025900Y-62444900D03*
X129370000Y-130750000D03*
X126830000Y-130750000D03*
X124290000Y-130750000D03*
X121750000Y-130750000D03*
X82500000Y-130750000D03*
X85040000Y-130750000D03*
X87580000Y-130750000D03*
X90120000Y-130750000D03*
G04 #@! TA.AperFunction,SMDPad,CuDef*
D11*
G36*
X130862491Y-72169053D02*
G01*
X130883726Y-72172203D01*
X130904550Y-72177419D01*
X130924762Y-72184651D01*
X130944168Y-72193830D01*
X130962581Y-72204866D01*
X130979824Y-72217654D01*
X130995730Y-72232070D01*
X131010146Y-72247976D01*
X131022934Y-72265219D01*
X131033970Y-72283632D01*
X131043149Y-72303038D01*
X131050381Y-72323250D01*
X131055597Y-72344074D01*
X131058747Y-72365309D01*
X131059800Y-72386750D01*
X131059800Y-72899250D01*
X131058747Y-72920691D01*
X131055597Y-72941926D01*
X131050381Y-72962750D01*
X131043149Y-72982962D01*
X131033970Y-73002368D01*
X131022934Y-73020781D01*
X131010146Y-73038024D01*
X130995730Y-73053930D01*
X130979824Y-73068346D01*
X130962581Y-73081134D01*
X130944168Y-73092170D01*
X130924762Y-73101349D01*
X130904550Y-73108581D01*
X130883726Y-73113797D01*
X130862491Y-73116947D01*
X130841050Y-73118000D01*
X130403550Y-73118000D01*
X130382109Y-73116947D01*
X130360874Y-73113797D01*
X130340050Y-73108581D01*
X130319838Y-73101349D01*
X130300432Y-73092170D01*
X130282019Y-73081134D01*
X130264776Y-73068346D01*
X130248870Y-73053930D01*
X130234454Y-73038024D01*
X130221666Y-73020781D01*
X130210630Y-73002368D01*
X130201451Y-72982962D01*
X130194219Y-72962750D01*
X130189003Y-72941926D01*
X130185853Y-72920691D01*
X130184800Y-72899250D01*
X130184800Y-72386750D01*
X130185853Y-72365309D01*
X130189003Y-72344074D01*
X130194219Y-72323250D01*
X130201451Y-72303038D01*
X130210630Y-72283632D01*
X130221666Y-72265219D01*
X130234454Y-72247976D01*
X130248870Y-72232070D01*
X130264776Y-72217654D01*
X130282019Y-72204866D01*
X130300432Y-72193830D01*
X130319838Y-72184651D01*
X130340050Y-72177419D01*
X130360874Y-72172203D01*
X130382109Y-72169053D01*
X130403550Y-72168000D01*
X130841050Y-72168000D01*
X130862491Y-72169053D01*
G37*
G04 #@! TD.AperFunction*
G04 #@! TA.AperFunction,SMDPad,CuDef*
G36*
X129287491Y-72169053D02*
G01*
X129308726Y-72172203D01*
X129329550Y-72177419D01*
X129349762Y-72184651D01*
X129369168Y-72193830D01*
X129387581Y-72204866D01*
X129404824Y-72217654D01*
X129420730Y-72232070D01*
X129435146Y-72247976D01*
X129447934Y-72265219D01*
X129458970Y-72283632D01*
X129468149Y-72303038D01*
X129475381Y-72323250D01*
X129480597Y-72344074D01*
X129483747Y-72365309D01*
X129484800Y-72386750D01*
X129484800Y-72899250D01*
X129483747Y-72920691D01*
X129480597Y-72941926D01*
X129475381Y-72962750D01*
X129468149Y-72982962D01*
X129458970Y-73002368D01*
X129447934Y-73020781D01*
X129435146Y-73038024D01*
X129420730Y-73053930D01*
X129404824Y-73068346D01*
X129387581Y-73081134D01*
X129369168Y-73092170D01*
X129349762Y-73101349D01*
X129329550Y-73108581D01*
X129308726Y-73113797D01*
X129287491Y-73116947D01*
X129266050Y-73118000D01*
X128828550Y-73118000D01*
X128807109Y-73116947D01*
X128785874Y-73113797D01*
X128765050Y-73108581D01*
X128744838Y-73101349D01*
X128725432Y-73092170D01*
X128707019Y-73081134D01*
X128689776Y-73068346D01*
X128673870Y-73053930D01*
X128659454Y-73038024D01*
X128646666Y-73020781D01*
X128635630Y-73002368D01*
X128626451Y-72982962D01*
X128619219Y-72962750D01*
X128614003Y-72941926D01*
X128610853Y-72920691D01*
X128609800Y-72899250D01*
X128609800Y-72386750D01*
X128610853Y-72365309D01*
X128614003Y-72344074D01*
X128619219Y-72323250D01*
X128626451Y-72303038D01*
X128635630Y-72283632D01*
X128646666Y-72265219D01*
X128659454Y-72247976D01*
X128673870Y-72232070D01*
X128689776Y-72217654D01*
X128707019Y-72204866D01*
X128725432Y-72193830D01*
X128744838Y-72184651D01*
X128765050Y-72177419D01*
X128785874Y-72172203D01*
X128807109Y-72169053D01*
X128828550Y-72168000D01*
X129266050Y-72168000D01*
X129287491Y-72169053D01*
G37*
G04 #@! TD.AperFunction*
D12*
X186626800Y-64896000D03*
X186626800Y-69396000D03*
X180126800Y-64896000D03*
X180126800Y-69396000D03*
G04 #@! TA.AperFunction,SMDPad,CuDef*
D11*
G36*
X158179491Y-87916553D02*
G01*
X158200726Y-87919703D01*
X158221550Y-87924919D01*
X158241762Y-87932151D01*
X158261168Y-87941330D01*
X158279581Y-87952366D01*
X158296824Y-87965154D01*
X158312730Y-87979570D01*
X158327146Y-87995476D01*
X158339934Y-88012719D01*
X158350970Y-88031132D01*
X158360149Y-88050538D01*
X158367381Y-88070750D01*
X158372597Y-88091574D01*
X158375747Y-88112809D01*
X158376800Y-88134250D01*
X158376800Y-88571750D01*
X158375747Y-88593191D01*
X158372597Y-88614426D01*
X158367381Y-88635250D01*
X158360149Y-88655462D01*
X158350970Y-88674868D01*
X158339934Y-88693281D01*
X158327146Y-88710524D01*
X158312730Y-88726430D01*
X158296824Y-88740846D01*
X158279581Y-88753634D01*
X158261168Y-88764670D01*
X158241762Y-88773849D01*
X158221550Y-88781081D01*
X158200726Y-88786297D01*
X158179491Y-88789447D01*
X158158050Y-88790500D01*
X157645550Y-88790500D01*
X157624109Y-88789447D01*
X157602874Y-88786297D01*
X157582050Y-88781081D01*
X157561838Y-88773849D01*
X157542432Y-88764670D01*
X157524019Y-88753634D01*
X157506776Y-88740846D01*
X157490870Y-88726430D01*
X157476454Y-88710524D01*
X157463666Y-88693281D01*
X157452630Y-88674868D01*
X157443451Y-88655462D01*
X157436219Y-88635250D01*
X157431003Y-88614426D01*
X157427853Y-88593191D01*
X157426800Y-88571750D01*
X157426800Y-88134250D01*
X157427853Y-88112809D01*
X157431003Y-88091574D01*
X157436219Y-88070750D01*
X157443451Y-88050538D01*
X157452630Y-88031132D01*
X157463666Y-88012719D01*
X157476454Y-87995476D01*
X157490870Y-87979570D01*
X157506776Y-87965154D01*
X157524019Y-87952366D01*
X157542432Y-87941330D01*
X157561838Y-87932151D01*
X157582050Y-87924919D01*
X157602874Y-87919703D01*
X157624109Y-87916553D01*
X157645550Y-87915500D01*
X158158050Y-87915500D01*
X158179491Y-87916553D01*
G37*
G04 #@! TD.AperFunction*
G04 #@! TA.AperFunction,SMDPad,CuDef*
G36*
X158179491Y-86341553D02*
G01*
X158200726Y-86344703D01*
X158221550Y-86349919D01*
X158241762Y-86357151D01*
X158261168Y-86366330D01*
X158279581Y-86377366D01*
X158296824Y-86390154D01*
X158312730Y-86404570D01*
X158327146Y-86420476D01*
X158339934Y-86437719D01*
X158350970Y-86456132D01*
X158360149Y-86475538D01*
X158367381Y-86495750D01*
X158372597Y-86516574D01*
X158375747Y-86537809D01*
X158376800Y-86559250D01*
X158376800Y-86996750D01*
X158375747Y-87018191D01*
X158372597Y-87039426D01*
X158367381Y-87060250D01*
X158360149Y-87080462D01*
X158350970Y-87099868D01*
X158339934Y-87118281D01*
X158327146Y-87135524D01*
X158312730Y-87151430D01*
X158296824Y-87165846D01*
X158279581Y-87178634D01*
X158261168Y-87189670D01*
X158241762Y-87198849D01*
X158221550Y-87206081D01*
X158200726Y-87211297D01*
X158179491Y-87214447D01*
X158158050Y-87215500D01*
X157645550Y-87215500D01*
X157624109Y-87214447D01*
X157602874Y-87211297D01*
X157582050Y-87206081D01*
X157561838Y-87198849D01*
X157542432Y-87189670D01*
X157524019Y-87178634D01*
X157506776Y-87165846D01*
X157490870Y-87151430D01*
X157476454Y-87135524D01*
X157463666Y-87118281D01*
X157452630Y-87099868D01*
X157443451Y-87080462D01*
X157436219Y-87060250D01*
X157431003Y-87039426D01*
X157427853Y-87018191D01*
X157426800Y-86996750D01*
X157426800Y-86559250D01*
X157427853Y-86537809D01*
X157431003Y-86516574D01*
X157436219Y-86495750D01*
X157443451Y-86475538D01*
X157452630Y-86456132D01*
X157463666Y-86437719D01*
X157476454Y-86420476D01*
X157490870Y-86404570D01*
X157506776Y-86390154D01*
X157524019Y-86377366D01*
X157542432Y-86366330D01*
X157561838Y-86357151D01*
X157582050Y-86349919D01*
X157602874Y-86344703D01*
X157624109Y-86341553D01*
X157645550Y-86340500D01*
X158158050Y-86340500D01*
X158179491Y-86341553D01*
G37*
G04 #@! TD.AperFunction*
G04 #@! TA.AperFunction,SMDPad,CuDef*
G36*
X195288891Y-116707453D02*
G01*
X195310126Y-116710603D01*
X195330950Y-116715819D01*
X195351162Y-116723051D01*
X195370568Y-116732230D01*
X195388981Y-116743266D01*
X195406224Y-116756054D01*
X195422130Y-116770470D01*
X195436546Y-116786376D01*
X195449334Y-116803619D01*
X195460370Y-116822032D01*
X195469549Y-116841438D01*
X195476781Y-116861650D01*
X195481997Y-116882474D01*
X195485147Y-116903709D01*
X195486200Y-116925150D01*
X195486200Y-117362650D01*
X195485147Y-117384091D01*
X195481997Y-117405326D01*
X195476781Y-117426150D01*
X195469549Y-117446362D01*
X195460370Y-117465768D01*
X195449334Y-117484181D01*
X195436546Y-117501424D01*
X195422130Y-117517330D01*
X195406224Y-117531746D01*
X195388981Y-117544534D01*
X195370568Y-117555570D01*
X195351162Y-117564749D01*
X195330950Y-117571981D01*
X195310126Y-117577197D01*
X195288891Y-117580347D01*
X195267450Y-117581400D01*
X194754950Y-117581400D01*
X194733509Y-117580347D01*
X194712274Y-117577197D01*
X194691450Y-117571981D01*
X194671238Y-117564749D01*
X194651832Y-117555570D01*
X194633419Y-117544534D01*
X194616176Y-117531746D01*
X194600270Y-117517330D01*
X194585854Y-117501424D01*
X194573066Y-117484181D01*
X194562030Y-117465768D01*
X194552851Y-117446362D01*
X194545619Y-117426150D01*
X194540403Y-117405326D01*
X194537253Y-117384091D01*
X194536200Y-117362650D01*
X194536200Y-116925150D01*
X194537253Y-116903709D01*
X194540403Y-116882474D01*
X194545619Y-116861650D01*
X194552851Y-116841438D01*
X194562030Y-116822032D01*
X194573066Y-116803619D01*
X194585854Y-116786376D01*
X194600270Y-116770470D01*
X194616176Y-116756054D01*
X194633419Y-116743266D01*
X194651832Y-116732230D01*
X194671238Y-116723051D01*
X194691450Y-116715819D01*
X194712274Y-116710603D01*
X194733509Y-116707453D01*
X194754950Y-116706400D01*
X195267450Y-116706400D01*
X195288891Y-116707453D01*
G37*
G04 #@! TD.AperFunction*
G04 #@! TA.AperFunction,SMDPad,CuDef*
G36*
X195288891Y-115132453D02*
G01*
X195310126Y-115135603D01*
X195330950Y-115140819D01*
X195351162Y-115148051D01*
X195370568Y-115157230D01*
X195388981Y-115168266D01*
X195406224Y-115181054D01*
X195422130Y-115195470D01*
X195436546Y-115211376D01*
X195449334Y-115228619D01*
X195460370Y-115247032D01*
X195469549Y-115266438D01*
X195476781Y-115286650D01*
X195481997Y-115307474D01*
X195485147Y-115328709D01*
X195486200Y-115350150D01*
X195486200Y-115787650D01*
X195485147Y-115809091D01*
X195481997Y-115830326D01*
X195476781Y-115851150D01*
X195469549Y-115871362D01*
X195460370Y-115890768D01*
X195449334Y-115909181D01*
X195436546Y-115926424D01*
X195422130Y-115942330D01*
X195406224Y-115956746D01*
X195388981Y-115969534D01*
X195370568Y-115980570D01*
X195351162Y-115989749D01*
X195330950Y-115996981D01*
X195310126Y-116002197D01*
X195288891Y-116005347D01*
X195267450Y-116006400D01*
X194754950Y-116006400D01*
X194733509Y-116005347D01*
X194712274Y-116002197D01*
X194691450Y-115996981D01*
X194671238Y-115989749D01*
X194651832Y-115980570D01*
X194633419Y-115969534D01*
X194616176Y-115956746D01*
X194600270Y-115942330D01*
X194585854Y-115926424D01*
X194573066Y-115909181D01*
X194562030Y-115890768D01*
X194552851Y-115871362D01*
X194545619Y-115851150D01*
X194540403Y-115830326D01*
X194537253Y-115809091D01*
X194536200Y-115787650D01*
X194536200Y-115350150D01*
X194537253Y-115328709D01*
X194540403Y-115307474D01*
X194545619Y-115286650D01*
X194552851Y-115266438D01*
X194562030Y-115247032D01*
X194573066Y-115228619D01*
X194585854Y-115211376D01*
X194600270Y-115195470D01*
X194616176Y-115181054D01*
X194633419Y-115168266D01*
X194651832Y-115157230D01*
X194671238Y-115148051D01*
X194691450Y-115140819D01*
X194712274Y-115135603D01*
X194733509Y-115132453D01*
X194754950Y-115131400D01*
X195267450Y-115131400D01*
X195288891Y-115132453D01*
G37*
G04 #@! TD.AperFunction*
G04 #@! TA.AperFunction,SMDPad,CuDef*
G36*
X187846691Y-116732853D02*
G01*
X187867926Y-116736003D01*
X187888750Y-116741219D01*
X187908962Y-116748451D01*
X187928368Y-116757630D01*
X187946781Y-116768666D01*
X187964024Y-116781454D01*
X187979930Y-116795870D01*
X187994346Y-116811776D01*
X188007134Y-116829019D01*
X188018170Y-116847432D01*
X188027349Y-116866838D01*
X188034581Y-116887050D01*
X188039797Y-116907874D01*
X188042947Y-116929109D01*
X188044000Y-116950550D01*
X188044000Y-117388050D01*
X188042947Y-117409491D01*
X188039797Y-117430726D01*
X188034581Y-117451550D01*
X188027349Y-117471762D01*
X188018170Y-117491168D01*
X188007134Y-117509581D01*
X187994346Y-117526824D01*
X187979930Y-117542730D01*
X187964024Y-117557146D01*
X187946781Y-117569934D01*
X187928368Y-117580970D01*
X187908962Y-117590149D01*
X187888750Y-117597381D01*
X187867926Y-117602597D01*
X187846691Y-117605747D01*
X187825250Y-117606800D01*
X187312750Y-117606800D01*
X187291309Y-117605747D01*
X187270074Y-117602597D01*
X187249250Y-117597381D01*
X187229038Y-117590149D01*
X187209632Y-117580970D01*
X187191219Y-117569934D01*
X187173976Y-117557146D01*
X187158070Y-117542730D01*
X187143654Y-117526824D01*
X187130866Y-117509581D01*
X187119830Y-117491168D01*
X187110651Y-117471762D01*
X187103419Y-117451550D01*
X187098203Y-117430726D01*
X187095053Y-117409491D01*
X187094000Y-117388050D01*
X187094000Y-116950550D01*
X187095053Y-116929109D01*
X187098203Y-116907874D01*
X187103419Y-116887050D01*
X187110651Y-116866838D01*
X187119830Y-116847432D01*
X187130866Y-116829019D01*
X187143654Y-116811776D01*
X187158070Y-116795870D01*
X187173976Y-116781454D01*
X187191219Y-116768666D01*
X187209632Y-116757630D01*
X187229038Y-116748451D01*
X187249250Y-116741219D01*
X187270074Y-116736003D01*
X187291309Y-116732853D01*
X187312750Y-116731800D01*
X187825250Y-116731800D01*
X187846691Y-116732853D01*
G37*
G04 #@! TD.AperFunction*
G04 #@! TA.AperFunction,SMDPad,CuDef*
G36*
X187846691Y-115157853D02*
G01*
X187867926Y-115161003D01*
X187888750Y-115166219D01*
X187908962Y-115173451D01*
X187928368Y-115182630D01*
X187946781Y-115193666D01*
X187964024Y-115206454D01*
X187979930Y-115220870D01*
X187994346Y-115236776D01*
X188007134Y-115254019D01*
X188018170Y-115272432D01*
X188027349Y-115291838D01*
X188034581Y-115312050D01*
X188039797Y-115332874D01*
X188042947Y-115354109D01*
X188044000Y-115375550D01*
X188044000Y-115813050D01*
X188042947Y-115834491D01*
X188039797Y-115855726D01*
X188034581Y-115876550D01*
X188027349Y-115896762D01*
X188018170Y-115916168D01*
X188007134Y-115934581D01*
X187994346Y-115951824D01*
X187979930Y-115967730D01*
X187964024Y-115982146D01*
X187946781Y-115994934D01*
X187928368Y-116005970D01*
X187908962Y-116015149D01*
X187888750Y-116022381D01*
X187867926Y-116027597D01*
X187846691Y-116030747D01*
X187825250Y-116031800D01*
X187312750Y-116031800D01*
X187291309Y-116030747D01*
X187270074Y-116027597D01*
X187249250Y-116022381D01*
X187229038Y-116015149D01*
X187209632Y-116005970D01*
X187191219Y-115994934D01*
X187173976Y-115982146D01*
X187158070Y-115967730D01*
X187143654Y-115951824D01*
X187130866Y-115934581D01*
X187119830Y-115916168D01*
X187110651Y-115896762D01*
X187103419Y-115876550D01*
X187098203Y-115855726D01*
X187095053Y-115834491D01*
X187094000Y-115813050D01*
X187094000Y-115375550D01*
X187095053Y-115354109D01*
X187098203Y-115332874D01*
X187103419Y-115312050D01*
X187110651Y-115291838D01*
X187119830Y-115272432D01*
X187130866Y-115254019D01*
X187143654Y-115236776D01*
X187158070Y-115220870D01*
X187173976Y-115206454D01*
X187191219Y-115193666D01*
X187209632Y-115182630D01*
X187229038Y-115173451D01*
X187249250Y-115166219D01*
X187270074Y-115161003D01*
X187291309Y-115157853D01*
X187312750Y-115156800D01*
X187825250Y-115156800D01*
X187846691Y-115157853D01*
G37*
G04 #@! TD.AperFunction*
G04 #@! TA.AperFunction,SMDPad,CuDef*
G36*
X176607191Y-116745553D02*
G01*
X176628426Y-116748703D01*
X176649250Y-116753919D01*
X176669462Y-116761151D01*
X176688868Y-116770330D01*
X176707281Y-116781366D01*
X176724524Y-116794154D01*
X176740430Y-116808570D01*
X176754846Y-116824476D01*
X176767634Y-116841719D01*
X176778670Y-116860132D01*
X176787849Y-116879538D01*
X176795081Y-116899750D01*
X176800297Y-116920574D01*
X176803447Y-116941809D01*
X176804500Y-116963250D01*
X176804500Y-117400750D01*
X176803447Y-117422191D01*
X176800297Y-117443426D01*
X176795081Y-117464250D01*
X176787849Y-117484462D01*
X176778670Y-117503868D01*
X176767634Y-117522281D01*
X176754846Y-117539524D01*
X176740430Y-117555430D01*
X176724524Y-117569846D01*
X176707281Y-117582634D01*
X176688868Y-117593670D01*
X176669462Y-117602849D01*
X176649250Y-117610081D01*
X176628426Y-117615297D01*
X176607191Y-117618447D01*
X176585750Y-117619500D01*
X176073250Y-117619500D01*
X176051809Y-117618447D01*
X176030574Y-117615297D01*
X176009750Y-117610081D01*
X175989538Y-117602849D01*
X175970132Y-117593670D01*
X175951719Y-117582634D01*
X175934476Y-117569846D01*
X175918570Y-117555430D01*
X175904154Y-117539524D01*
X175891366Y-117522281D01*
X175880330Y-117503868D01*
X175871151Y-117484462D01*
X175863919Y-117464250D01*
X175858703Y-117443426D01*
X175855553Y-117422191D01*
X175854500Y-117400750D01*
X175854500Y-116963250D01*
X175855553Y-116941809D01*
X175858703Y-116920574D01*
X175863919Y-116899750D01*
X175871151Y-116879538D01*
X175880330Y-116860132D01*
X175891366Y-116841719D01*
X175904154Y-116824476D01*
X175918570Y-116808570D01*
X175934476Y-116794154D01*
X175951719Y-116781366D01*
X175970132Y-116770330D01*
X175989538Y-116761151D01*
X176009750Y-116753919D01*
X176030574Y-116748703D01*
X176051809Y-116745553D01*
X176073250Y-116744500D01*
X176585750Y-116744500D01*
X176607191Y-116745553D01*
G37*
G04 #@! TD.AperFunction*
G04 #@! TA.AperFunction,SMDPad,CuDef*
G36*
X176607191Y-115170553D02*
G01*
X176628426Y-115173703D01*
X176649250Y-115178919D01*
X176669462Y-115186151D01*
X176688868Y-115195330D01*
X176707281Y-115206366D01*
X176724524Y-115219154D01*
X176740430Y-115233570D01*
X176754846Y-115249476D01*
X176767634Y-115266719D01*
X176778670Y-115285132D01*
X176787849Y-115304538D01*
X176795081Y-115324750D01*
X176800297Y-115345574D01*
X176803447Y-115366809D01*
X176804500Y-115388250D01*
X176804500Y-115825750D01*
X176803447Y-115847191D01*
X176800297Y-115868426D01*
X176795081Y-115889250D01*
X176787849Y-115909462D01*
X176778670Y-115928868D01*
X176767634Y-115947281D01*
X176754846Y-115964524D01*
X176740430Y-115980430D01*
X176724524Y-115994846D01*
X176707281Y-116007634D01*
X176688868Y-116018670D01*
X176669462Y-116027849D01*
X176649250Y-116035081D01*
X176628426Y-116040297D01*
X176607191Y-116043447D01*
X176585750Y-116044500D01*
X176073250Y-116044500D01*
X176051809Y-116043447D01*
X176030574Y-116040297D01*
X176009750Y-116035081D01*
X175989538Y-116027849D01*
X175970132Y-116018670D01*
X175951719Y-116007634D01*
X175934476Y-115994846D01*
X175918570Y-115980430D01*
X175904154Y-115964524D01*
X175891366Y-115947281D01*
X175880330Y-115928868D01*
X175871151Y-115909462D01*
X175863919Y-115889250D01*
X175858703Y-115868426D01*
X175855553Y-115847191D01*
X175854500Y-115825750D01*
X175854500Y-115388250D01*
X175855553Y-115366809D01*
X175858703Y-115345574D01*
X175863919Y-115324750D01*
X175871151Y-115304538D01*
X175880330Y-115285132D01*
X175891366Y-115266719D01*
X175904154Y-115249476D01*
X175918570Y-115233570D01*
X175934476Y-115219154D01*
X175951719Y-115206366D01*
X175970132Y-115195330D01*
X175989538Y-115186151D01*
X176009750Y-115178919D01*
X176030574Y-115173703D01*
X176051809Y-115170553D01*
X176073250Y-115169500D01*
X176585750Y-115169500D01*
X176607191Y-115170553D01*
G37*
G04 #@! TD.AperFunction*
G04 #@! TA.AperFunction,SMDPad,CuDef*
G36*
X157303891Y-96959453D02*
G01*
X157325126Y-96962603D01*
X157345950Y-96967819D01*
X157366162Y-96975051D01*
X157385568Y-96984230D01*
X157403981Y-96995266D01*
X157421224Y-97008054D01*
X157437130Y-97022470D01*
X157451546Y-97038376D01*
X157464334Y-97055619D01*
X157475370Y-97074032D01*
X157484549Y-97093438D01*
X157491781Y-97113650D01*
X157496997Y-97134474D01*
X157500147Y-97155709D01*
X157501200Y-97177150D01*
X157501200Y-97689650D01*
X157500147Y-97711091D01*
X157496997Y-97732326D01*
X157491781Y-97753150D01*
X157484549Y-97773362D01*
X157475370Y-97792768D01*
X157464334Y-97811181D01*
X157451546Y-97828424D01*
X157437130Y-97844330D01*
X157421224Y-97858746D01*
X157403981Y-97871534D01*
X157385568Y-97882570D01*
X157366162Y-97891749D01*
X157345950Y-97898981D01*
X157325126Y-97904197D01*
X157303891Y-97907347D01*
X157282450Y-97908400D01*
X156844950Y-97908400D01*
X156823509Y-97907347D01*
X156802274Y-97904197D01*
X156781450Y-97898981D01*
X156761238Y-97891749D01*
X156741832Y-97882570D01*
X156723419Y-97871534D01*
X156706176Y-97858746D01*
X156690270Y-97844330D01*
X156675854Y-97828424D01*
X156663066Y-97811181D01*
X156652030Y-97792768D01*
X156642851Y-97773362D01*
X156635619Y-97753150D01*
X156630403Y-97732326D01*
X156627253Y-97711091D01*
X156626200Y-97689650D01*
X156626200Y-97177150D01*
X156627253Y-97155709D01*
X156630403Y-97134474D01*
X156635619Y-97113650D01*
X156642851Y-97093438D01*
X156652030Y-97074032D01*
X156663066Y-97055619D01*
X156675854Y-97038376D01*
X156690270Y-97022470D01*
X156706176Y-97008054D01*
X156723419Y-96995266D01*
X156741832Y-96984230D01*
X156761238Y-96975051D01*
X156781450Y-96967819D01*
X156802274Y-96962603D01*
X156823509Y-96959453D01*
X156844950Y-96958400D01*
X157282450Y-96958400D01*
X157303891Y-96959453D01*
G37*
G04 #@! TD.AperFunction*
G04 #@! TA.AperFunction,SMDPad,CuDef*
G36*
X155728891Y-96959453D02*
G01*
X155750126Y-96962603D01*
X155770950Y-96967819D01*
X155791162Y-96975051D01*
X155810568Y-96984230D01*
X155828981Y-96995266D01*
X155846224Y-97008054D01*
X155862130Y-97022470D01*
X155876546Y-97038376D01*
X155889334Y-97055619D01*
X155900370Y-97074032D01*
X155909549Y-97093438D01*
X155916781Y-97113650D01*
X155921997Y-97134474D01*
X155925147Y-97155709D01*
X155926200Y-97177150D01*
X155926200Y-97689650D01*
X155925147Y-97711091D01*
X155921997Y-97732326D01*
X155916781Y-97753150D01*
X155909549Y-97773362D01*
X155900370Y-97792768D01*
X155889334Y-97811181D01*
X155876546Y-97828424D01*
X155862130Y-97844330D01*
X155846224Y-97858746D01*
X155828981Y-97871534D01*
X155810568Y-97882570D01*
X155791162Y-97891749D01*
X155770950Y-97898981D01*
X155750126Y-97904197D01*
X155728891Y-97907347D01*
X155707450Y-97908400D01*
X155269950Y-97908400D01*
X155248509Y-97907347D01*
X155227274Y-97904197D01*
X155206450Y-97898981D01*
X155186238Y-97891749D01*
X155166832Y-97882570D01*
X155148419Y-97871534D01*
X155131176Y-97858746D01*
X155115270Y-97844330D01*
X155100854Y-97828424D01*
X155088066Y-97811181D01*
X155077030Y-97792768D01*
X155067851Y-97773362D01*
X155060619Y-97753150D01*
X155055403Y-97732326D01*
X155052253Y-97711091D01*
X155051200Y-97689650D01*
X155051200Y-97177150D01*
X155052253Y-97155709D01*
X155055403Y-97134474D01*
X155060619Y-97113650D01*
X155067851Y-97093438D01*
X155077030Y-97074032D01*
X155088066Y-97055619D01*
X155100854Y-97038376D01*
X155115270Y-97022470D01*
X155131176Y-97008054D01*
X155148419Y-96995266D01*
X155166832Y-96984230D01*
X155186238Y-96975051D01*
X155206450Y-96967819D01*
X155227274Y-96962603D01*
X155248509Y-96959453D01*
X155269950Y-96958400D01*
X155707450Y-96958400D01*
X155728891Y-96959453D01*
G37*
G04 #@! TD.AperFunction*
G04 #@! TA.AperFunction,SMDPad,CuDef*
G36*
X151131691Y-96959453D02*
G01*
X151152926Y-96962603D01*
X151173750Y-96967819D01*
X151193962Y-96975051D01*
X151213368Y-96984230D01*
X151231781Y-96995266D01*
X151249024Y-97008054D01*
X151264930Y-97022470D01*
X151279346Y-97038376D01*
X151292134Y-97055619D01*
X151303170Y-97074032D01*
X151312349Y-97093438D01*
X151319581Y-97113650D01*
X151324797Y-97134474D01*
X151327947Y-97155709D01*
X151329000Y-97177150D01*
X151329000Y-97689650D01*
X151327947Y-97711091D01*
X151324797Y-97732326D01*
X151319581Y-97753150D01*
X151312349Y-97773362D01*
X151303170Y-97792768D01*
X151292134Y-97811181D01*
X151279346Y-97828424D01*
X151264930Y-97844330D01*
X151249024Y-97858746D01*
X151231781Y-97871534D01*
X151213368Y-97882570D01*
X151193962Y-97891749D01*
X151173750Y-97898981D01*
X151152926Y-97904197D01*
X151131691Y-97907347D01*
X151110250Y-97908400D01*
X150672750Y-97908400D01*
X150651309Y-97907347D01*
X150630074Y-97904197D01*
X150609250Y-97898981D01*
X150589038Y-97891749D01*
X150569632Y-97882570D01*
X150551219Y-97871534D01*
X150533976Y-97858746D01*
X150518070Y-97844330D01*
X150503654Y-97828424D01*
X150490866Y-97811181D01*
X150479830Y-97792768D01*
X150470651Y-97773362D01*
X150463419Y-97753150D01*
X150458203Y-97732326D01*
X150455053Y-97711091D01*
X150454000Y-97689650D01*
X150454000Y-97177150D01*
X150455053Y-97155709D01*
X150458203Y-97134474D01*
X150463419Y-97113650D01*
X150470651Y-97093438D01*
X150479830Y-97074032D01*
X150490866Y-97055619D01*
X150503654Y-97038376D01*
X150518070Y-97022470D01*
X150533976Y-97008054D01*
X150551219Y-96995266D01*
X150569632Y-96984230D01*
X150589038Y-96975051D01*
X150609250Y-96967819D01*
X150630074Y-96962603D01*
X150651309Y-96959453D01*
X150672750Y-96958400D01*
X151110250Y-96958400D01*
X151131691Y-96959453D01*
G37*
G04 #@! TD.AperFunction*
G04 #@! TA.AperFunction,SMDPad,CuDef*
G36*
X149556691Y-96959453D02*
G01*
X149577926Y-96962603D01*
X149598750Y-96967819D01*
X149618962Y-96975051D01*
X149638368Y-96984230D01*
X149656781Y-96995266D01*
X149674024Y-97008054D01*
X149689930Y-97022470D01*
X149704346Y-97038376D01*
X149717134Y-97055619D01*
X149728170Y-97074032D01*
X149737349Y-97093438D01*
X149744581Y-97113650D01*
X149749797Y-97134474D01*
X149752947Y-97155709D01*
X149754000Y-97177150D01*
X149754000Y-97689650D01*
X149752947Y-97711091D01*
X149749797Y-97732326D01*
X149744581Y-97753150D01*
X149737349Y-97773362D01*
X149728170Y-97792768D01*
X149717134Y-97811181D01*
X149704346Y-97828424D01*
X149689930Y-97844330D01*
X149674024Y-97858746D01*
X149656781Y-97871534D01*
X149638368Y-97882570D01*
X149618962Y-97891749D01*
X149598750Y-97898981D01*
X149577926Y-97904197D01*
X149556691Y-97907347D01*
X149535250Y-97908400D01*
X149097750Y-97908400D01*
X149076309Y-97907347D01*
X149055074Y-97904197D01*
X149034250Y-97898981D01*
X149014038Y-97891749D01*
X148994632Y-97882570D01*
X148976219Y-97871534D01*
X148958976Y-97858746D01*
X148943070Y-97844330D01*
X148928654Y-97828424D01*
X148915866Y-97811181D01*
X148904830Y-97792768D01*
X148895651Y-97773362D01*
X148888419Y-97753150D01*
X148883203Y-97732326D01*
X148880053Y-97711091D01*
X148879000Y-97689650D01*
X148879000Y-97177150D01*
X148880053Y-97155709D01*
X148883203Y-97134474D01*
X148888419Y-97113650D01*
X148895651Y-97093438D01*
X148904830Y-97074032D01*
X148915866Y-97055619D01*
X148928654Y-97038376D01*
X148943070Y-97022470D01*
X148958976Y-97008054D01*
X148976219Y-96995266D01*
X148994632Y-96984230D01*
X149014038Y-96975051D01*
X149034250Y-96967819D01*
X149055074Y-96962603D01*
X149076309Y-96959453D01*
X149097750Y-96958400D01*
X149535250Y-96958400D01*
X149556691Y-96959453D01*
G37*
G04 #@! TD.AperFunction*
G04 #@! TA.AperFunction,SMDPad,CuDef*
G36*
X134812191Y-96972153D02*
G01*
X134833426Y-96975303D01*
X134854250Y-96980519D01*
X134874462Y-96987751D01*
X134893868Y-96996930D01*
X134912281Y-97007966D01*
X134929524Y-97020754D01*
X134945430Y-97035170D01*
X134959846Y-97051076D01*
X134972634Y-97068319D01*
X134983670Y-97086732D01*
X134992849Y-97106138D01*
X135000081Y-97126350D01*
X135005297Y-97147174D01*
X135008447Y-97168409D01*
X135009500Y-97189850D01*
X135009500Y-97702350D01*
X135008447Y-97723791D01*
X135005297Y-97745026D01*
X135000081Y-97765850D01*
X134992849Y-97786062D01*
X134983670Y-97805468D01*
X134972634Y-97823881D01*
X134959846Y-97841124D01*
X134945430Y-97857030D01*
X134929524Y-97871446D01*
X134912281Y-97884234D01*
X134893868Y-97895270D01*
X134874462Y-97904449D01*
X134854250Y-97911681D01*
X134833426Y-97916897D01*
X134812191Y-97920047D01*
X134790750Y-97921100D01*
X134353250Y-97921100D01*
X134331809Y-97920047D01*
X134310574Y-97916897D01*
X134289750Y-97911681D01*
X134269538Y-97904449D01*
X134250132Y-97895270D01*
X134231719Y-97884234D01*
X134214476Y-97871446D01*
X134198570Y-97857030D01*
X134184154Y-97841124D01*
X134171366Y-97823881D01*
X134160330Y-97805468D01*
X134151151Y-97786062D01*
X134143919Y-97765850D01*
X134138703Y-97745026D01*
X134135553Y-97723791D01*
X134134500Y-97702350D01*
X134134500Y-97189850D01*
X134135553Y-97168409D01*
X134138703Y-97147174D01*
X134143919Y-97126350D01*
X134151151Y-97106138D01*
X134160330Y-97086732D01*
X134171366Y-97068319D01*
X134184154Y-97051076D01*
X134198570Y-97035170D01*
X134214476Y-97020754D01*
X134231719Y-97007966D01*
X134250132Y-96996930D01*
X134269538Y-96987751D01*
X134289750Y-96980519D01*
X134310574Y-96975303D01*
X134331809Y-96972153D01*
X134353250Y-96971100D01*
X134790750Y-96971100D01*
X134812191Y-96972153D01*
G37*
G04 #@! TD.AperFunction*
G04 #@! TA.AperFunction,SMDPad,CuDef*
G36*
X133237191Y-96972153D02*
G01*
X133258426Y-96975303D01*
X133279250Y-96980519D01*
X133299462Y-96987751D01*
X133318868Y-96996930D01*
X133337281Y-97007966D01*
X133354524Y-97020754D01*
X133370430Y-97035170D01*
X133384846Y-97051076D01*
X133397634Y-97068319D01*
X133408670Y-97086732D01*
X133417849Y-97106138D01*
X133425081Y-97126350D01*
X133430297Y-97147174D01*
X133433447Y-97168409D01*
X133434500Y-97189850D01*
X133434500Y-97702350D01*
X133433447Y-97723791D01*
X133430297Y-97745026D01*
X133425081Y-97765850D01*
X133417849Y-97786062D01*
X133408670Y-97805468D01*
X133397634Y-97823881D01*
X133384846Y-97841124D01*
X133370430Y-97857030D01*
X133354524Y-97871446D01*
X133337281Y-97884234D01*
X133318868Y-97895270D01*
X133299462Y-97904449D01*
X133279250Y-97911681D01*
X133258426Y-97916897D01*
X133237191Y-97920047D01*
X133215750Y-97921100D01*
X132778250Y-97921100D01*
X132756809Y-97920047D01*
X132735574Y-97916897D01*
X132714750Y-97911681D01*
X132694538Y-97904449D01*
X132675132Y-97895270D01*
X132656719Y-97884234D01*
X132639476Y-97871446D01*
X132623570Y-97857030D01*
X132609154Y-97841124D01*
X132596366Y-97823881D01*
X132585330Y-97805468D01*
X132576151Y-97786062D01*
X132568919Y-97765850D01*
X132563703Y-97745026D01*
X132560553Y-97723791D01*
X132559500Y-97702350D01*
X132559500Y-97189850D01*
X132560553Y-97168409D01*
X132563703Y-97147174D01*
X132568919Y-97126350D01*
X132576151Y-97106138D01*
X132585330Y-97086732D01*
X132596366Y-97068319D01*
X132609154Y-97051076D01*
X132623570Y-97035170D01*
X132639476Y-97020754D01*
X132656719Y-97007966D01*
X132675132Y-96996930D01*
X132694538Y-96987751D01*
X132714750Y-96980519D01*
X132735574Y-96975303D01*
X132756809Y-96972153D01*
X132778250Y-96971100D01*
X133215750Y-96971100D01*
X133237191Y-96972153D01*
G37*
G04 #@! TD.AperFunction*
G04 #@! TA.AperFunction,SMDPad,CuDef*
G36*
X125807891Y-96972153D02*
G01*
X125829126Y-96975303D01*
X125849950Y-96980519D01*
X125870162Y-96987751D01*
X125889568Y-96996930D01*
X125907981Y-97007966D01*
X125925224Y-97020754D01*
X125941130Y-97035170D01*
X125955546Y-97051076D01*
X125968334Y-97068319D01*
X125979370Y-97086732D01*
X125988549Y-97106138D01*
X125995781Y-97126350D01*
X126000997Y-97147174D01*
X126004147Y-97168409D01*
X126005200Y-97189850D01*
X126005200Y-97702350D01*
X126004147Y-97723791D01*
X126000997Y-97745026D01*
X125995781Y-97765850D01*
X125988549Y-97786062D01*
X125979370Y-97805468D01*
X125968334Y-97823881D01*
X125955546Y-97841124D01*
X125941130Y-97857030D01*
X125925224Y-97871446D01*
X125907981Y-97884234D01*
X125889568Y-97895270D01*
X125870162Y-97904449D01*
X125849950Y-97911681D01*
X125829126Y-97916897D01*
X125807891Y-97920047D01*
X125786450Y-97921100D01*
X125348950Y-97921100D01*
X125327509Y-97920047D01*
X125306274Y-97916897D01*
X125285450Y-97911681D01*
X125265238Y-97904449D01*
X125245832Y-97895270D01*
X125227419Y-97884234D01*
X125210176Y-97871446D01*
X125194270Y-97857030D01*
X125179854Y-97841124D01*
X125167066Y-97823881D01*
X125156030Y-97805468D01*
X125146851Y-97786062D01*
X125139619Y-97765850D01*
X125134403Y-97745026D01*
X125131253Y-97723791D01*
X125130200Y-97702350D01*
X125130200Y-97189850D01*
X125131253Y-97168409D01*
X125134403Y-97147174D01*
X125139619Y-97126350D01*
X125146851Y-97106138D01*
X125156030Y-97086732D01*
X125167066Y-97068319D01*
X125179854Y-97051076D01*
X125194270Y-97035170D01*
X125210176Y-97020754D01*
X125227419Y-97007966D01*
X125245832Y-96996930D01*
X125265238Y-96987751D01*
X125285450Y-96980519D01*
X125306274Y-96975303D01*
X125327509Y-96972153D01*
X125348950Y-96971100D01*
X125786450Y-96971100D01*
X125807891Y-96972153D01*
G37*
G04 #@! TD.AperFunction*
G04 #@! TA.AperFunction,SMDPad,CuDef*
G36*
X124232891Y-96972153D02*
G01*
X124254126Y-96975303D01*
X124274950Y-96980519D01*
X124295162Y-96987751D01*
X124314568Y-96996930D01*
X124332981Y-97007966D01*
X124350224Y-97020754D01*
X124366130Y-97035170D01*
X124380546Y-97051076D01*
X124393334Y-97068319D01*
X124404370Y-97086732D01*
X124413549Y-97106138D01*
X124420781Y-97126350D01*
X124425997Y-97147174D01*
X124429147Y-97168409D01*
X124430200Y-97189850D01*
X124430200Y-97702350D01*
X124429147Y-97723791D01*
X124425997Y-97745026D01*
X124420781Y-97765850D01*
X124413549Y-97786062D01*
X124404370Y-97805468D01*
X124393334Y-97823881D01*
X124380546Y-97841124D01*
X124366130Y-97857030D01*
X124350224Y-97871446D01*
X124332981Y-97884234D01*
X124314568Y-97895270D01*
X124295162Y-97904449D01*
X124274950Y-97911681D01*
X124254126Y-97916897D01*
X124232891Y-97920047D01*
X124211450Y-97921100D01*
X123773950Y-97921100D01*
X123752509Y-97920047D01*
X123731274Y-97916897D01*
X123710450Y-97911681D01*
X123690238Y-97904449D01*
X123670832Y-97895270D01*
X123652419Y-97884234D01*
X123635176Y-97871446D01*
X123619270Y-97857030D01*
X123604854Y-97841124D01*
X123592066Y-97823881D01*
X123581030Y-97805468D01*
X123571851Y-97786062D01*
X123564619Y-97765850D01*
X123559403Y-97745026D01*
X123556253Y-97723791D01*
X123555200Y-97702350D01*
X123555200Y-97189850D01*
X123556253Y-97168409D01*
X123559403Y-97147174D01*
X123564619Y-97126350D01*
X123571851Y-97106138D01*
X123581030Y-97086732D01*
X123592066Y-97068319D01*
X123604854Y-97051076D01*
X123619270Y-97035170D01*
X123635176Y-97020754D01*
X123652419Y-97007966D01*
X123670832Y-96996930D01*
X123690238Y-96987751D01*
X123710450Y-96980519D01*
X123731274Y-96975303D01*
X123752509Y-96972153D01*
X123773950Y-96971100D01*
X124211450Y-96971100D01*
X124232891Y-96972153D01*
G37*
G04 #@! TD.AperFunction*
G04 #@! TA.AperFunction,SMDPad,CuDef*
G36*
X109119391Y-116821653D02*
G01*
X109140626Y-116824803D01*
X109161450Y-116830019D01*
X109181662Y-116837251D01*
X109201068Y-116846430D01*
X109219481Y-116857466D01*
X109236724Y-116870254D01*
X109252630Y-116884670D01*
X109267046Y-116900576D01*
X109279834Y-116917819D01*
X109290870Y-116936232D01*
X109300049Y-116955638D01*
X109307281Y-116975850D01*
X109312497Y-116996674D01*
X109315647Y-117017909D01*
X109316700Y-117039350D01*
X109316700Y-117476850D01*
X109315647Y-117498291D01*
X109312497Y-117519526D01*
X109307281Y-117540350D01*
X109300049Y-117560562D01*
X109290870Y-117579968D01*
X109279834Y-117598381D01*
X109267046Y-117615624D01*
X109252630Y-117631530D01*
X109236724Y-117645946D01*
X109219481Y-117658734D01*
X109201068Y-117669770D01*
X109181662Y-117678949D01*
X109161450Y-117686181D01*
X109140626Y-117691397D01*
X109119391Y-117694547D01*
X109097950Y-117695600D01*
X108585450Y-117695600D01*
X108564009Y-117694547D01*
X108542774Y-117691397D01*
X108521950Y-117686181D01*
X108501738Y-117678949D01*
X108482332Y-117669770D01*
X108463919Y-117658734D01*
X108446676Y-117645946D01*
X108430770Y-117631530D01*
X108416354Y-117615624D01*
X108403566Y-117598381D01*
X108392530Y-117579968D01*
X108383351Y-117560562D01*
X108376119Y-117540350D01*
X108370903Y-117519526D01*
X108367753Y-117498291D01*
X108366700Y-117476850D01*
X108366700Y-117039350D01*
X108367753Y-117017909D01*
X108370903Y-116996674D01*
X108376119Y-116975850D01*
X108383351Y-116955638D01*
X108392530Y-116936232D01*
X108403566Y-116917819D01*
X108416354Y-116900576D01*
X108430770Y-116884670D01*
X108446676Y-116870254D01*
X108463919Y-116857466D01*
X108482332Y-116846430D01*
X108501738Y-116837251D01*
X108521950Y-116830019D01*
X108542774Y-116824803D01*
X108564009Y-116821653D01*
X108585450Y-116820600D01*
X109097950Y-116820600D01*
X109119391Y-116821653D01*
G37*
G04 #@! TD.AperFunction*
G04 #@! TA.AperFunction,SMDPad,CuDef*
G36*
X109119391Y-115246653D02*
G01*
X109140626Y-115249803D01*
X109161450Y-115255019D01*
X109181662Y-115262251D01*
X109201068Y-115271430D01*
X109219481Y-115282466D01*
X109236724Y-115295254D01*
X109252630Y-115309670D01*
X109267046Y-115325576D01*
X109279834Y-115342819D01*
X109290870Y-115361232D01*
X109300049Y-115380638D01*
X109307281Y-115400850D01*
X109312497Y-115421674D01*
X109315647Y-115442909D01*
X109316700Y-115464350D01*
X109316700Y-115901850D01*
X109315647Y-115923291D01*
X109312497Y-115944526D01*
X109307281Y-115965350D01*
X109300049Y-115985562D01*
X109290870Y-116004968D01*
X109279834Y-116023381D01*
X109267046Y-116040624D01*
X109252630Y-116056530D01*
X109236724Y-116070946D01*
X109219481Y-116083734D01*
X109201068Y-116094770D01*
X109181662Y-116103949D01*
X109161450Y-116111181D01*
X109140626Y-116116397D01*
X109119391Y-116119547D01*
X109097950Y-116120600D01*
X108585450Y-116120600D01*
X108564009Y-116119547D01*
X108542774Y-116116397D01*
X108521950Y-116111181D01*
X108501738Y-116103949D01*
X108482332Y-116094770D01*
X108463919Y-116083734D01*
X108446676Y-116070946D01*
X108430770Y-116056530D01*
X108416354Y-116040624D01*
X108403566Y-116023381D01*
X108392530Y-116004968D01*
X108383351Y-115985562D01*
X108376119Y-115965350D01*
X108370903Y-115944526D01*
X108367753Y-115923291D01*
X108366700Y-115901850D01*
X108366700Y-115464350D01*
X108367753Y-115442909D01*
X108370903Y-115421674D01*
X108376119Y-115400850D01*
X108383351Y-115380638D01*
X108392530Y-115361232D01*
X108403566Y-115342819D01*
X108416354Y-115325576D01*
X108430770Y-115309670D01*
X108446676Y-115295254D01*
X108463919Y-115282466D01*
X108482332Y-115271430D01*
X108501738Y-115262251D01*
X108521950Y-115255019D01*
X108542774Y-115249803D01*
X108564009Y-115246653D01*
X108585450Y-115245600D01*
X109097950Y-115245600D01*
X109119391Y-115246653D01*
G37*
G04 #@! TD.AperFunction*
G04 #@! TA.AperFunction,SMDPad,CuDef*
G36*
X97829091Y-116834453D02*
G01*
X97850326Y-116837603D01*
X97871150Y-116842819D01*
X97891362Y-116850051D01*
X97910768Y-116859230D01*
X97929181Y-116870266D01*
X97946424Y-116883054D01*
X97962330Y-116897470D01*
X97976746Y-116913376D01*
X97989534Y-116930619D01*
X98000570Y-116949032D01*
X98009749Y-116968438D01*
X98016981Y-116988650D01*
X98022197Y-117009474D01*
X98025347Y-117030709D01*
X98026400Y-117052150D01*
X98026400Y-117489650D01*
X98025347Y-117511091D01*
X98022197Y-117532326D01*
X98016981Y-117553150D01*
X98009749Y-117573362D01*
X98000570Y-117592768D01*
X97989534Y-117611181D01*
X97976746Y-117628424D01*
X97962330Y-117644330D01*
X97946424Y-117658746D01*
X97929181Y-117671534D01*
X97910768Y-117682570D01*
X97891362Y-117691749D01*
X97871150Y-117698981D01*
X97850326Y-117704197D01*
X97829091Y-117707347D01*
X97807650Y-117708400D01*
X97295150Y-117708400D01*
X97273709Y-117707347D01*
X97252474Y-117704197D01*
X97231650Y-117698981D01*
X97211438Y-117691749D01*
X97192032Y-117682570D01*
X97173619Y-117671534D01*
X97156376Y-117658746D01*
X97140470Y-117644330D01*
X97126054Y-117628424D01*
X97113266Y-117611181D01*
X97102230Y-117592768D01*
X97093051Y-117573362D01*
X97085819Y-117553150D01*
X97080603Y-117532326D01*
X97077453Y-117511091D01*
X97076400Y-117489650D01*
X97076400Y-117052150D01*
X97077453Y-117030709D01*
X97080603Y-117009474D01*
X97085819Y-116988650D01*
X97093051Y-116968438D01*
X97102230Y-116949032D01*
X97113266Y-116930619D01*
X97126054Y-116913376D01*
X97140470Y-116897470D01*
X97156376Y-116883054D01*
X97173619Y-116870266D01*
X97192032Y-116859230D01*
X97211438Y-116850051D01*
X97231650Y-116842819D01*
X97252474Y-116837603D01*
X97273709Y-116834453D01*
X97295150Y-116833400D01*
X97807650Y-116833400D01*
X97829091Y-116834453D01*
G37*
G04 #@! TD.AperFunction*
G04 #@! TA.AperFunction,SMDPad,CuDef*
G36*
X97829091Y-115259453D02*
G01*
X97850326Y-115262603D01*
X97871150Y-115267819D01*
X97891362Y-115275051D01*
X97910768Y-115284230D01*
X97929181Y-115295266D01*
X97946424Y-115308054D01*
X97962330Y-115322470D01*
X97976746Y-115338376D01*
X97989534Y-115355619D01*
X98000570Y-115374032D01*
X98009749Y-115393438D01*
X98016981Y-115413650D01*
X98022197Y-115434474D01*
X98025347Y-115455709D01*
X98026400Y-115477150D01*
X98026400Y-115914650D01*
X98025347Y-115936091D01*
X98022197Y-115957326D01*
X98016981Y-115978150D01*
X98009749Y-115998362D01*
X98000570Y-116017768D01*
X97989534Y-116036181D01*
X97976746Y-116053424D01*
X97962330Y-116069330D01*
X97946424Y-116083746D01*
X97929181Y-116096534D01*
X97910768Y-116107570D01*
X97891362Y-116116749D01*
X97871150Y-116123981D01*
X97850326Y-116129197D01*
X97829091Y-116132347D01*
X97807650Y-116133400D01*
X97295150Y-116133400D01*
X97273709Y-116132347D01*
X97252474Y-116129197D01*
X97231650Y-116123981D01*
X97211438Y-116116749D01*
X97192032Y-116107570D01*
X97173619Y-116096534D01*
X97156376Y-116083746D01*
X97140470Y-116069330D01*
X97126054Y-116053424D01*
X97113266Y-116036181D01*
X97102230Y-116017768D01*
X97093051Y-115998362D01*
X97085819Y-115978150D01*
X97080603Y-115957326D01*
X97077453Y-115936091D01*
X97076400Y-115914650D01*
X97076400Y-115477150D01*
X97077453Y-115455709D01*
X97080603Y-115434474D01*
X97085819Y-115413650D01*
X97093051Y-115393438D01*
X97102230Y-115374032D01*
X97113266Y-115355619D01*
X97126054Y-115338376D01*
X97140470Y-115322470D01*
X97156376Y-115308054D01*
X97173619Y-115295266D01*
X97192032Y-115284230D01*
X97211438Y-115275051D01*
X97231650Y-115267819D01*
X97252474Y-115262603D01*
X97273709Y-115259453D01*
X97295150Y-115258400D01*
X97807650Y-115258400D01*
X97829091Y-115259453D01*
G37*
G04 #@! TD.AperFunction*
G04 #@! TA.AperFunction,SMDPad,CuDef*
G36*
X90399591Y-116935953D02*
G01*
X90420826Y-116939103D01*
X90441650Y-116944319D01*
X90461862Y-116951551D01*
X90481268Y-116960730D01*
X90499681Y-116971766D01*
X90516924Y-116984554D01*
X90532830Y-116998970D01*
X90547246Y-117014876D01*
X90560034Y-117032119D01*
X90571070Y-117050532D01*
X90580249Y-117069938D01*
X90587481Y-117090150D01*
X90592697Y-117110974D01*
X90595847Y-117132209D01*
X90596900Y-117153650D01*
X90596900Y-117591150D01*
X90595847Y-117612591D01*
X90592697Y-117633826D01*
X90587481Y-117654650D01*
X90580249Y-117674862D01*
X90571070Y-117694268D01*
X90560034Y-117712681D01*
X90547246Y-117729924D01*
X90532830Y-117745830D01*
X90516924Y-117760246D01*
X90499681Y-117773034D01*
X90481268Y-117784070D01*
X90461862Y-117793249D01*
X90441650Y-117800481D01*
X90420826Y-117805697D01*
X90399591Y-117808847D01*
X90378150Y-117809900D01*
X89865650Y-117809900D01*
X89844209Y-117808847D01*
X89822974Y-117805697D01*
X89802150Y-117800481D01*
X89781938Y-117793249D01*
X89762532Y-117784070D01*
X89744119Y-117773034D01*
X89726876Y-117760246D01*
X89710970Y-117745830D01*
X89696554Y-117729924D01*
X89683766Y-117712681D01*
X89672730Y-117694268D01*
X89663551Y-117674862D01*
X89656319Y-117654650D01*
X89651103Y-117633826D01*
X89647953Y-117612591D01*
X89646900Y-117591150D01*
X89646900Y-117153650D01*
X89647953Y-117132209D01*
X89651103Y-117110974D01*
X89656319Y-117090150D01*
X89663551Y-117069938D01*
X89672730Y-117050532D01*
X89683766Y-117032119D01*
X89696554Y-117014876D01*
X89710970Y-116998970D01*
X89726876Y-116984554D01*
X89744119Y-116971766D01*
X89762532Y-116960730D01*
X89781938Y-116951551D01*
X89802150Y-116944319D01*
X89822974Y-116939103D01*
X89844209Y-116935953D01*
X89865650Y-116934900D01*
X90378150Y-116934900D01*
X90399591Y-116935953D01*
G37*
G04 #@! TD.AperFunction*
G04 #@! TA.AperFunction,SMDPad,CuDef*
G36*
X90399591Y-115360953D02*
G01*
X90420826Y-115364103D01*
X90441650Y-115369319D01*
X90461862Y-115376551D01*
X90481268Y-115385730D01*
X90499681Y-115396766D01*
X90516924Y-115409554D01*
X90532830Y-115423970D01*
X90547246Y-115439876D01*
X90560034Y-115457119D01*
X90571070Y-115475532D01*
X90580249Y-115494938D01*
X90587481Y-115515150D01*
X90592697Y-115535974D01*
X90595847Y-115557209D01*
X90596900Y-115578650D01*
X90596900Y-116016150D01*
X90595847Y-116037591D01*
X90592697Y-116058826D01*
X90587481Y-116079650D01*
X90580249Y-116099862D01*
X90571070Y-116119268D01*
X90560034Y-116137681D01*
X90547246Y-116154924D01*
X90532830Y-116170830D01*
X90516924Y-116185246D01*
X90499681Y-116198034D01*
X90481268Y-116209070D01*
X90461862Y-116218249D01*
X90441650Y-116225481D01*
X90420826Y-116230697D01*
X90399591Y-116233847D01*
X90378150Y-116234900D01*
X89865650Y-116234900D01*
X89844209Y-116233847D01*
X89822974Y-116230697D01*
X89802150Y-116225481D01*
X89781938Y-116218249D01*
X89762532Y-116209070D01*
X89744119Y-116198034D01*
X89726876Y-116185246D01*
X89710970Y-116170830D01*
X89696554Y-116154924D01*
X89683766Y-116137681D01*
X89672730Y-116119268D01*
X89663551Y-116099862D01*
X89656319Y-116079650D01*
X89651103Y-116058826D01*
X89647953Y-116037591D01*
X89646900Y-116016150D01*
X89646900Y-115578650D01*
X89647953Y-115557209D01*
X89651103Y-115535974D01*
X89656319Y-115515150D01*
X89663551Y-115494938D01*
X89672730Y-115475532D01*
X89683766Y-115457119D01*
X89696554Y-115439876D01*
X89710970Y-115423970D01*
X89726876Y-115409554D01*
X89744119Y-115396766D01*
X89762532Y-115385730D01*
X89781938Y-115376551D01*
X89802150Y-115369319D01*
X89822974Y-115364103D01*
X89844209Y-115360953D01*
X89865650Y-115359900D01*
X90378150Y-115359900D01*
X90399591Y-115360953D01*
G37*
G04 #@! TD.AperFunction*
D13*
X157901800Y-91197700D03*
D14*
X157901800Y-93737700D03*
D13*
X198821200Y-125957600D03*
D14*
X198821200Y-123417600D03*
D13*
X187556300Y-125957600D03*
D14*
X187556300Y-123417600D03*
D13*
X176316800Y-125957600D03*
D14*
X176316800Y-123417600D03*
D13*
X159298800Y-125957600D03*
D14*
X159298800Y-123417600D03*
D13*
X148072000Y-125957600D03*
D14*
X148072000Y-123417600D03*
D13*
X136794400Y-125957600D03*
D14*
X136794400Y-123417600D03*
D13*
X125567600Y-125957600D03*
D14*
X125567600Y-123417600D03*
D13*
X108829000Y-125957600D03*
D14*
X108829000Y-123417600D03*
D13*
X97551400Y-125957600D03*
D14*
X97551400Y-123417600D03*
D13*
X86299200Y-125957600D03*
D14*
X86299200Y-123417600D03*
D12*
X199225200Y-64896000D03*
X199225200Y-69396000D03*
X192725200Y-64896000D03*
X192725200Y-69396000D03*
D15*
X164366100Y-93750400D03*
D16*
X164366100Y-91210400D03*
D15*
X164328000Y-84454000D03*
X164328000Y-81914000D03*
X164328000Y-79374000D03*
X164328000Y-76834000D03*
D16*
X164328000Y-74294000D03*
G04 #@! TA.AperFunction,SMDPad,CuDef*
D11*
G36*
X126480291Y-67278853D02*
G01*
X126501526Y-67282003D01*
X126522350Y-67287219D01*
X126542562Y-67294451D01*
X126561968Y-67303630D01*
X126580381Y-67314666D01*
X126597624Y-67327454D01*
X126613530Y-67341870D01*
X126627946Y-67357776D01*
X126640734Y-67375019D01*
X126651770Y-67393432D01*
X126660949Y-67412838D01*
X126668181Y-67433050D01*
X126673397Y-67453874D01*
X126676547Y-67475109D01*
X126677600Y-67496550D01*
X126677600Y-67934050D01*
X126676547Y-67955491D01*
X126673397Y-67976726D01*
X126668181Y-67997550D01*
X126660949Y-68017762D01*
X126651770Y-68037168D01*
X126640734Y-68055581D01*
X126627946Y-68072824D01*
X126613530Y-68088730D01*
X126597624Y-68103146D01*
X126580381Y-68115934D01*
X126561968Y-68126970D01*
X126542562Y-68136149D01*
X126522350Y-68143381D01*
X126501526Y-68148597D01*
X126480291Y-68151747D01*
X126458850Y-68152800D01*
X125946350Y-68152800D01*
X125924909Y-68151747D01*
X125903674Y-68148597D01*
X125882850Y-68143381D01*
X125862638Y-68136149D01*
X125843232Y-68126970D01*
X125824819Y-68115934D01*
X125807576Y-68103146D01*
X125791670Y-68088730D01*
X125777254Y-68072824D01*
X125764466Y-68055581D01*
X125753430Y-68037168D01*
X125744251Y-68017762D01*
X125737019Y-67997550D01*
X125731803Y-67976726D01*
X125728653Y-67955491D01*
X125727600Y-67934050D01*
X125727600Y-67496550D01*
X125728653Y-67475109D01*
X125731803Y-67453874D01*
X125737019Y-67433050D01*
X125744251Y-67412838D01*
X125753430Y-67393432D01*
X125764466Y-67375019D01*
X125777254Y-67357776D01*
X125791670Y-67341870D01*
X125807576Y-67327454D01*
X125824819Y-67314666D01*
X125843232Y-67303630D01*
X125862638Y-67294451D01*
X125882850Y-67287219D01*
X125903674Y-67282003D01*
X125924909Y-67278853D01*
X125946350Y-67277800D01*
X126458850Y-67277800D01*
X126480291Y-67278853D01*
G37*
G04 #@! TD.AperFunction*
G04 #@! TA.AperFunction,SMDPad,CuDef*
G36*
X126480291Y-68853853D02*
G01*
X126501526Y-68857003D01*
X126522350Y-68862219D01*
X126542562Y-68869451D01*
X126561968Y-68878630D01*
X126580381Y-68889666D01*
X126597624Y-68902454D01*
X126613530Y-68916870D01*
X126627946Y-68932776D01*
X126640734Y-68950019D01*
X126651770Y-68968432D01*
X126660949Y-68987838D01*
X126668181Y-69008050D01*
X126673397Y-69028874D01*
X126676547Y-69050109D01*
X126677600Y-69071550D01*
X126677600Y-69509050D01*
X126676547Y-69530491D01*
X126673397Y-69551726D01*
X126668181Y-69572550D01*
X126660949Y-69592762D01*
X126651770Y-69612168D01*
X126640734Y-69630581D01*
X126627946Y-69647824D01*
X126613530Y-69663730D01*
X126597624Y-69678146D01*
X126580381Y-69690934D01*
X126561968Y-69701970D01*
X126542562Y-69711149D01*
X126522350Y-69718381D01*
X126501526Y-69723597D01*
X126480291Y-69726747D01*
X126458850Y-69727800D01*
X125946350Y-69727800D01*
X125924909Y-69726747D01*
X125903674Y-69723597D01*
X125882850Y-69718381D01*
X125862638Y-69711149D01*
X125843232Y-69701970D01*
X125824819Y-69690934D01*
X125807576Y-69678146D01*
X125791670Y-69663730D01*
X125777254Y-69647824D01*
X125764466Y-69630581D01*
X125753430Y-69612168D01*
X125744251Y-69592762D01*
X125737019Y-69572550D01*
X125731803Y-69551726D01*
X125728653Y-69530491D01*
X125727600Y-69509050D01*
X125727600Y-69071550D01*
X125728653Y-69050109D01*
X125731803Y-69028874D01*
X125737019Y-69008050D01*
X125744251Y-68987838D01*
X125753430Y-68968432D01*
X125764466Y-68950019D01*
X125777254Y-68932776D01*
X125791670Y-68916870D01*
X125807576Y-68902454D01*
X125824819Y-68889666D01*
X125843232Y-68878630D01*
X125862638Y-68869451D01*
X125882850Y-68862219D01*
X125903674Y-68857003D01*
X125924909Y-68853853D01*
X125946350Y-68852800D01*
X126458850Y-68852800D01*
X126480291Y-68853853D01*
G37*
G04 #@! TD.AperFunction*
G04 #@! TA.AperFunction,SMDPad,CuDef*
G36*
X129325091Y-67278853D02*
G01*
X129346326Y-67282003D01*
X129367150Y-67287219D01*
X129387362Y-67294451D01*
X129406768Y-67303630D01*
X129425181Y-67314666D01*
X129442424Y-67327454D01*
X129458330Y-67341870D01*
X129472746Y-67357776D01*
X129485534Y-67375019D01*
X129496570Y-67393432D01*
X129505749Y-67412838D01*
X129512981Y-67433050D01*
X129518197Y-67453874D01*
X129521347Y-67475109D01*
X129522400Y-67496550D01*
X129522400Y-67934050D01*
X129521347Y-67955491D01*
X129518197Y-67976726D01*
X129512981Y-67997550D01*
X129505749Y-68017762D01*
X129496570Y-68037168D01*
X129485534Y-68055581D01*
X129472746Y-68072824D01*
X129458330Y-68088730D01*
X129442424Y-68103146D01*
X129425181Y-68115934D01*
X129406768Y-68126970D01*
X129387362Y-68136149D01*
X129367150Y-68143381D01*
X129346326Y-68148597D01*
X129325091Y-68151747D01*
X129303650Y-68152800D01*
X128791150Y-68152800D01*
X128769709Y-68151747D01*
X128748474Y-68148597D01*
X128727650Y-68143381D01*
X128707438Y-68136149D01*
X128688032Y-68126970D01*
X128669619Y-68115934D01*
X128652376Y-68103146D01*
X128636470Y-68088730D01*
X128622054Y-68072824D01*
X128609266Y-68055581D01*
X128598230Y-68037168D01*
X128589051Y-68017762D01*
X128581819Y-67997550D01*
X128576603Y-67976726D01*
X128573453Y-67955491D01*
X128572400Y-67934050D01*
X128572400Y-67496550D01*
X128573453Y-67475109D01*
X128576603Y-67453874D01*
X128581819Y-67433050D01*
X128589051Y-67412838D01*
X128598230Y-67393432D01*
X128609266Y-67375019D01*
X128622054Y-67357776D01*
X128636470Y-67341870D01*
X128652376Y-67327454D01*
X128669619Y-67314666D01*
X128688032Y-67303630D01*
X128707438Y-67294451D01*
X128727650Y-67287219D01*
X128748474Y-67282003D01*
X128769709Y-67278853D01*
X128791150Y-67277800D01*
X129303650Y-67277800D01*
X129325091Y-67278853D01*
G37*
G04 #@! TD.AperFunction*
G04 #@! TA.AperFunction,SMDPad,CuDef*
G36*
X129325091Y-68853853D02*
G01*
X129346326Y-68857003D01*
X129367150Y-68862219D01*
X129387362Y-68869451D01*
X129406768Y-68878630D01*
X129425181Y-68889666D01*
X129442424Y-68902454D01*
X129458330Y-68916870D01*
X129472746Y-68932776D01*
X129485534Y-68950019D01*
X129496570Y-68968432D01*
X129505749Y-68987838D01*
X129512981Y-69008050D01*
X129518197Y-69028874D01*
X129521347Y-69050109D01*
X129522400Y-69071550D01*
X129522400Y-69509050D01*
X129521347Y-69530491D01*
X129518197Y-69551726D01*
X129512981Y-69572550D01*
X129505749Y-69592762D01*
X129496570Y-69612168D01*
X129485534Y-69630581D01*
X129472746Y-69647824D01*
X129458330Y-69663730D01*
X129442424Y-69678146D01*
X129425181Y-69690934D01*
X129406768Y-69701970D01*
X129387362Y-69711149D01*
X129367150Y-69718381D01*
X129346326Y-69723597D01*
X129325091Y-69726747D01*
X129303650Y-69727800D01*
X128791150Y-69727800D01*
X128769709Y-69726747D01*
X128748474Y-69723597D01*
X128727650Y-69718381D01*
X128707438Y-69711149D01*
X128688032Y-69701970D01*
X128669619Y-69690934D01*
X128652376Y-69678146D01*
X128636470Y-69663730D01*
X128622054Y-69647824D01*
X128609266Y-69630581D01*
X128598230Y-69612168D01*
X128589051Y-69592762D01*
X128581819Y-69572550D01*
X128576603Y-69551726D01*
X128573453Y-69530491D01*
X128572400Y-69509050D01*
X128572400Y-69071550D01*
X128573453Y-69050109D01*
X128576603Y-69028874D01*
X128581819Y-69008050D01*
X128589051Y-68987838D01*
X128598230Y-68968432D01*
X128609266Y-68950019D01*
X128622054Y-68932776D01*
X128636470Y-68916870D01*
X128652376Y-68902454D01*
X128669619Y-68889666D01*
X128688032Y-68878630D01*
X128707438Y-68869451D01*
X128727650Y-68862219D01*
X128748474Y-68857003D01*
X128769709Y-68853853D01*
X128791150Y-68852800D01*
X129303650Y-68852800D01*
X129325091Y-68853853D01*
G37*
G04 #@! TD.AperFunction*
D17*
X101370000Y-90000000D03*
X93750000Y-105240000D03*
X101370000Y-92540000D03*
X93750000Y-102700000D03*
X101370000Y-95080000D03*
X93750000Y-100160000D03*
X101370000Y-97620000D03*
X93750000Y-97620000D03*
X101370000Y-100160000D03*
X93750000Y-95080000D03*
X101370000Y-102700000D03*
X93750000Y-92540000D03*
X101370000Y-105240000D03*
D18*
X93750000Y-90000000D03*
D17*
X163120000Y-105345000D03*
X155500000Y-120585000D03*
X163120000Y-107885000D03*
X155500000Y-118045000D03*
X163120000Y-110425000D03*
X155500000Y-115505000D03*
X163120000Y-112965000D03*
X155500000Y-112965000D03*
X163120000Y-115505000D03*
X155500000Y-110425000D03*
X163120000Y-118045000D03*
X155500000Y-107885000D03*
X163120000Y-120585000D03*
D18*
X155500000Y-105345000D03*
D17*
X202620000Y-90000000D03*
X195000000Y-105240000D03*
X202620000Y-92540000D03*
X195000000Y-102700000D03*
X202620000Y-95080000D03*
X195000000Y-100160000D03*
X202620000Y-97620000D03*
X195000000Y-97620000D03*
X202620000Y-100160000D03*
X195000000Y-95080000D03*
X202620000Y-102700000D03*
X195000000Y-92540000D03*
X202620000Y-105240000D03*
D18*
X195000000Y-90000000D03*
D17*
X191370000Y-90000000D03*
X183750000Y-105240000D03*
X191370000Y-92540000D03*
X183750000Y-102700000D03*
X191370000Y-95080000D03*
X183750000Y-100160000D03*
X191370000Y-97620000D03*
X183750000Y-97620000D03*
X191370000Y-100160000D03*
X183750000Y-95080000D03*
X191370000Y-102700000D03*
X183750000Y-92540000D03*
X191370000Y-105240000D03*
D18*
X183750000Y-90000000D03*
D17*
X140620000Y-105345000D03*
X133000000Y-120585000D03*
X140620000Y-107885000D03*
X133000000Y-118045000D03*
X140620000Y-110425000D03*
X133000000Y-115505000D03*
X140620000Y-112965000D03*
X133000000Y-112965000D03*
X140620000Y-115505000D03*
X133000000Y-110425000D03*
X140620000Y-118045000D03*
X133000000Y-107885000D03*
X140620000Y-120585000D03*
D18*
X133000000Y-105345000D03*
D17*
X180120000Y-90000000D03*
X172500000Y-105240000D03*
X180120000Y-92540000D03*
X172500000Y-102700000D03*
X180120000Y-95080000D03*
X172500000Y-100160000D03*
X180120000Y-97620000D03*
X172500000Y-97620000D03*
X180120000Y-100160000D03*
X172500000Y-95080000D03*
X180120000Y-102700000D03*
X172500000Y-92540000D03*
X180120000Y-105240000D03*
D18*
X172500000Y-90000000D03*
D17*
X112620000Y-90000000D03*
X105000000Y-105240000D03*
X112620000Y-92540000D03*
X105000000Y-102700000D03*
X112620000Y-95080000D03*
X105000000Y-100160000D03*
X112620000Y-97620000D03*
X105000000Y-97620000D03*
X112620000Y-100160000D03*
X105000000Y-95080000D03*
X112620000Y-102700000D03*
X105000000Y-92540000D03*
X112620000Y-105240000D03*
D18*
X105000000Y-90000000D03*
D17*
X129370000Y-105345000D03*
X121750000Y-120585000D03*
X129370000Y-107885000D03*
X121750000Y-118045000D03*
X129370000Y-110425000D03*
X121750000Y-115505000D03*
X129370000Y-112965000D03*
X121750000Y-112965000D03*
X129370000Y-115505000D03*
X121750000Y-110425000D03*
X129370000Y-118045000D03*
X121750000Y-107885000D03*
X129370000Y-120585000D03*
D18*
X121750000Y-105345000D03*
D17*
X151870000Y-105345000D03*
X144250000Y-120585000D03*
X151870000Y-107885000D03*
X144250000Y-118045000D03*
X151870000Y-110425000D03*
X144250000Y-115505000D03*
X151870000Y-112965000D03*
X144250000Y-112965000D03*
X151870000Y-115505000D03*
X144250000Y-110425000D03*
X151870000Y-118045000D03*
X144250000Y-107885000D03*
X151870000Y-120585000D03*
D18*
X144250000Y-105345000D03*
D10*
X93750000Y-130750000D03*
X96290000Y-130750000D03*
X98830000Y-130750000D03*
X101370000Y-130750000D03*
X163120000Y-130750000D03*
X160580000Y-130750000D03*
X158040000Y-130750000D03*
X155500000Y-130750000D03*
X195000000Y-130750000D03*
X197540000Y-130750000D03*
X200080000Y-130750000D03*
X202620000Y-130750000D03*
X183750000Y-130750000D03*
X186290000Y-130750000D03*
X188830000Y-130750000D03*
X191370000Y-130750000D03*
X140620000Y-130750000D03*
X138080000Y-130750000D03*
X135540000Y-130750000D03*
X133000000Y-130750000D03*
X105000000Y-130750000D03*
X107540000Y-130750000D03*
X110080000Y-130750000D03*
X112620000Y-130750000D03*
X151870000Y-130750000D03*
X149330000Y-130750000D03*
X146790000Y-130750000D03*
X144250000Y-130750000D03*
D17*
X90120000Y-90000000D03*
X82500000Y-105240000D03*
X90120000Y-92540000D03*
X82500000Y-102700000D03*
X90120000Y-95080000D03*
X82500000Y-100160000D03*
X90120000Y-97620000D03*
X82500000Y-97620000D03*
X90120000Y-100160000D03*
X82500000Y-95080000D03*
X90120000Y-102700000D03*
X82500000Y-92540000D03*
X90120000Y-105240000D03*
D18*
X82500000Y-90000000D03*
D19*
X109080000Y-80000000D03*
X106540000Y-80000000D03*
D20*
X104000000Y-80000000D03*
D18*
X119535100Y-73341500D03*
D21*
X117535100Y-73341500D03*
D18*
X96750000Y-80000000D03*
D21*
X96750000Y-82000000D03*
D22*
X141509400Y-75215400D03*
D23*
X134009400Y-67715400D03*
X134009400Y-68985400D03*
X134009400Y-70255400D03*
X134009400Y-71525400D03*
X134009400Y-72795400D03*
X134009400Y-74065400D03*
X134009400Y-75335400D03*
X134009400Y-76605400D03*
X134009400Y-77875400D03*
X134009400Y-79145400D03*
X134009400Y-80415400D03*
X134009400Y-81685400D03*
X134009400Y-82955400D03*
X134009400Y-84225400D03*
D24*
X136794400Y-85225400D03*
X138064400Y-85225400D03*
X139334400Y-85225400D03*
X140604400Y-85225400D03*
X141874400Y-85225400D03*
X143144400Y-85225400D03*
X144414400Y-85225400D03*
X145684400Y-85225400D03*
X146954400Y-85225400D03*
X148224400Y-85225400D03*
D23*
X151009400Y-84225400D03*
X151009400Y-82955400D03*
X151009400Y-81685400D03*
X151009400Y-80415400D03*
X151009400Y-79145400D03*
X151009400Y-77875400D03*
X151009400Y-76605400D03*
X151009400Y-75335400D03*
X151009400Y-74065400D03*
X151009400Y-72795400D03*
X151009400Y-71525400D03*
X151009400Y-70255400D03*
X151009400Y-68985400D03*
X151009400Y-67715400D03*
D25*
X154472800Y-67715400D03*
X119522400Y-86740000D03*
X136362600Y-75335400D03*
X158663800Y-84225400D03*
X153710800Y-84225400D03*
X138000900Y-71461900D03*
D26*
X141506100Y-75157600D03*
D25*
X91823700Y-123379500D03*
X103114000Y-123379500D03*
X114188400Y-123366800D03*
X131168300Y-123354100D03*
X142344300Y-123404900D03*
X153621900Y-123392200D03*
X164620100Y-123468400D03*
X181892100Y-123366800D03*
X193131600Y-123379500D03*
X197741700Y-111797100D03*
D27*
X141509400Y-79010400D02*
X141509400Y-75215400D01*
X136794400Y-83725400D02*
X141509400Y-79010400D01*
X136794400Y-85225400D02*
X136794400Y-83725400D01*
X141509400Y-67731400D02*
X141493400Y-67715400D01*
X141509400Y-75215400D02*
X141509400Y-67731400D01*
X141493400Y-67715400D02*
X151009400Y-67715400D01*
X134009400Y-67715400D02*
X141493400Y-67715400D01*
X129047500Y-67715400D02*
X129047400Y-67715300D01*
X134009400Y-67715400D02*
X129047500Y-67715400D01*
X129047400Y-67715300D02*
X126202600Y-67715300D01*
X117535100Y-72210130D02*
X117535100Y-73341500D01*
X122029930Y-67715300D02*
X117535100Y-72210130D01*
X126202600Y-67715300D02*
X122029930Y-67715300D01*
X154472800Y-67715400D02*
X151009400Y-67715400D01*
D28*
X106540000Y-80000000D02*
X106540000Y-67953700D01*
D27*
X126202600Y-69290300D02*
X129047400Y-69290300D01*
X134009400Y-68985400D02*
X130965100Y-68985400D01*
X130660200Y-69290300D02*
X129047400Y-69290300D01*
X130965100Y-68985400D02*
X130660200Y-69290300D01*
X119535100Y-72041500D02*
X119535100Y-73341500D01*
X122286300Y-69290300D02*
X119535100Y-72041500D01*
X126202600Y-69290300D02*
X122286300Y-69290300D01*
X114176600Y-80000000D02*
X109080000Y-80000000D01*
X119535100Y-74641500D02*
X114176600Y-80000000D01*
X119535100Y-73341500D02*
X119535100Y-74641500D01*
D29*
X129047300Y-69290400D02*
X129047400Y-69290300D01*
X129047300Y-72643000D02*
X129047300Y-69290400D01*
D27*
X198821200Y-125957600D02*
X187556300Y-125957600D01*
X187556300Y-125957600D02*
X176316800Y-125957600D01*
X176316800Y-125957600D02*
X159298800Y-125957600D01*
X159298800Y-125957600D02*
X148072000Y-125957600D01*
X148072000Y-125957600D02*
X136794400Y-125957600D01*
X136794400Y-125957600D02*
X125567600Y-125957600D01*
X107556208Y-125957600D02*
X97551400Y-125957600D01*
D29*
X108829000Y-125957600D02*
X107556208Y-125957600D01*
D27*
X97551400Y-125957600D02*
X86299200Y-125957600D01*
X119522400Y-125665500D02*
X119522400Y-86740000D01*
X119814500Y-125957600D02*
X119522400Y-125665500D01*
X125567600Y-125957600D02*
X119814500Y-125957600D01*
X119814500Y-125957600D02*
X108829000Y-125957600D01*
D29*
X91823700Y-123379500D02*
X91823700Y-91703700D01*
X91823700Y-91703700D02*
X90120000Y-90000000D01*
D28*
X93750000Y-132025196D02*
X93750000Y-133250000D01*
D29*
X93750000Y-130750000D02*
X93750000Y-132025196D01*
D28*
X85000000Y-133250000D02*
X93750000Y-133250000D01*
X82500000Y-130750000D02*
X85000000Y-133250000D01*
X192500000Y-133250000D02*
X183750000Y-133250000D01*
X195000000Y-130750000D02*
X192500000Y-133250000D01*
X183750000Y-133250000D02*
X172500000Y-133250000D01*
X172500000Y-133250000D02*
X155500000Y-133250000D01*
X144250000Y-130750000D02*
X144250000Y-133250000D01*
X155500000Y-133250000D02*
X144250000Y-133250000D01*
X121750000Y-130750000D02*
X121750000Y-133250000D01*
X133000000Y-130750000D02*
X133000000Y-133250000D01*
X133000000Y-133250000D02*
X121750000Y-133250000D01*
X144250000Y-133250000D02*
X133000000Y-133250000D01*
X105000000Y-132025196D02*
X105000000Y-133250000D01*
D29*
X105000000Y-130750000D02*
X105000000Y-132025196D01*
D28*
X105000000Y-133250000D02*
X93750000Y-133250000D01*
X121750000Y-133250000D02*
X105000000Y-133250000D01*
X155500000Y-133250000D02*
X155500000Y-130750000D01*
X183750000Y-133250000D02*
X183750000Y-130750000D01*
X172500000Y-133250000D02*
X172500000Y-130750000D01*
D29*
X160289400Y-72795400D02*
X151009400Y-72795400D01*
X164328000Y-76834000D02*
X160289400Y-72795400D01*
X134750000Y-81465000D02*
X133500000Y-81465000D01*
X105000000Y-88950000D02*
X105000000Y-90000000D01*
X134750000Y-78925000D02*
X133500000Y-78925000D01*
X82500000Y-88950000D02*
X82500000Y-90000000D01*
X88202500Y-83247500D02*
X82500000Y-88950000D01*
X134750000Y-80195000D02*
X133500000Y-80195000D01*
X93750000Y-88950000D02*
X93750000Y-90000000D01*
X98690500Y-84009500D02*
X93750000Y-88950000D01*
X195000000Y-88950000D02*
X195000000Y-90000000D01*
X201820001Y-106039999D02*
X202620000Y-105240000D01*
X201820001Y-106042399D02*
X201820001Y-106039999D01*
X196255800Y-111606600D02*
X201820001Y-106042399D01*
X196255800Y-118467197D02*
X196255800Y-111606600D01*
X200080000Y-122291397D02*
X196255800Y-118467197D01*
X200080000Y-130750000D02*
X200080000Y-122291397D01*
X103114000Y-91744000D02*
X103114000Y-123379500D01*
X101370000Y-90000000D02*
X103114000Y-91744000D01*
X114188400Y-91568400D02*
X114188400Y-123366800D01*
X112620000Y-90000000D02*
X114188400Y-91568400D01*
X131168300Y-107143300D02*
X131168300Y-123570000D01*
X129370000Y-105345000D02*
X131168300Y-107143300D01*
X142344300Y-107069300D02*
X140620000Y-105345000D01*
X142344300Y-123404900D02*
X142344300Y-107069300D01*
X153621900Y-107096900D02*
X151870000Y-105345000D01*
X153621900Y-123392200D02*
X153621900Y-107096900D01*
X164620100Y-106845100D02*
X163120000Y-105345000D01*
X164620100Y-123468400D02*
X164620100Y-106845100D01*
X181892100Y-91772100D02*
X180120000Y-90000000D01*
X181892100Y-123366800D02*
X181892100Y-91772100D01*
X193131600Y-91761600D02*
X191370000Y-90000000D01*
X193131600Y-123379500D02*
X193131600Y-91761600D01*
X202620000Y-124194987D02*
X202620000Y-130750000D01*
X197741700Y-119316687D02*
X202620000Y-124194987D01*
X197741700Y-111797100D02*
X197741700Y-119316687D01*
X160459400Y-71525400D02*
X151009400Y-71525400D01*
X163228000Y-74294000D02*
X160459400Y-71525400D01*
X164328000Y-74294000D02*
X163228000Y-74294000D01*
X132534900Y-70255400D02*
X134009400Y-70255400D01*
X130622300Y-72168000D02*
X132534900Y-70255400D01*
X130622300Y-72643000D02*
X130622300Y-72168000D01*
X136794400Y-70255400D02*
X138000900Y-71461900D01*
X134009400Y-70255400D02*
X136794400Y-70255400D01*
X160327500Y-79374000D02*
X164328000Y-79374000D01*
X159400400Y-80301100D02*
X160327500Y-79374000D01*
X164366100Y-90110400D02*
X159400400Y-85144700D01*
X164366100Y-91210400D02*
X164366100Y-90110400D01*
X151009400Y-84225400D02*
X153710800Y-84225400D01*
X159400400Y-84225400D02*
X158663800Y-84225400D01*
X159400400Y-85144700D02*
X159400400Y-84225400D01*
X159400400Y-84225400D02*
X159400400Y-80301100D01*
X128657300Y-83247500D02*
X88202500Y-83247500D01*
X132759400Y-79145400D02*
X128657300Y-83247500D01*
X134009400Y-79145400D02*
X132759400Y-79145400D01*
X90121900Y-111746300D02*
X90121900Y-115797400D01*
X87721600Y-109346000D02*
X90121900Y-111746300D01*
X87721600Y-94171600D02*
X87721600Y-109346000D01*
X83550000Y-90000000D02*
X87721600Y-94171600D01*
X82500000Y-90000000D02*
X83550000Y-90000000D01*
X94800000Y-90000000D02*
X93750000Y-90000000D01*
X97551400Y-92751400D02*
X94800000Y-90000000D01*
X97551400Y-115695900D02*
X97551400Y-92751400D01*
X129165300Y-84009500D02*
X98690500Y-84009500D01*
X132759400Y-80415400D02*
X129165300Y-84009500D01*
X134009400Y-80415400D02*
X132759400Y-80415400D01*
X106050000Y-90000000D02*
X105000000Y-90000000D01*
X108841700Y-92791700D02*
X106050000Y-90000000D01*
X108841700Y-115683100D02*
X108841700Y-92791700D01*
X129482800Y-84962000D02*
X108994100Y-84962000D01*
X132759400Y-81685400D02*
X129482800Y-84962000D01*
X134009400Y-81685400D02*
X132759400Y-81685400D01*
X108994100Y-84962000D02*
X105000000Y-88950000D01*
X108988000Y-84962000D02*
X108994100Y-84962000D01*
X123555200Y-97446100D02*
X123992700Y-97446100D01*
X121750000Y-99251300D02*
X123555200Y-97446100D01*
X121750000Y-105345000D02*
X121750000Y-99251300D01*
X132759400Y-82955400D02*
X134009400Y-82955400D01*
X123992700Y-91722100D02*
X132759400Y-82955400D01*
X123992700Y-97446100D02*
X123992700Y-91722100D01*
X132997000Y-97446100D02*
X132997000Y-94601400D01*
X138064400Y-89534000D02*
X138064400Y-85225400D01*
X132997000Y-94601400D02*
X138064400Y-89534000D01*
X132997000Y-105342000D02*
X133000000Y-105345000D01*
X132997000Y-97446100D02*
X132997000Y-105342000D01*
X149316500Y-101328500D02*
X149316500Y-97433400D01*
X145300000Y-105345000D02*
X149316500Y-101328500D01*
X144250000Y-105345000D02*
X145300000Y-105345000D01*
X149759400Y-76605400D02*
X151009400Y-76605400D01*
X149316600Y-77048200D02*
X149759400Y-76605400D01*
X149316600Y-97433300D02*
X149316600Y-77048200D01*
X149316500Y-97433400D02*
X149316600Y-97433300D01*
X154282300Y-81685400D02*
X151009400Y-81685400D01*
X155488700Y-82891800D02*
X154282300Y-81685400D01*
X155488700Y-97433400D02*
X155488700Y-82891800D01*
X172500000Y-85806998D02*
X172500000Y-90000000D01*
X164892001Y-78198999D02*
X172500000Y-85806998D01*
X163953997Y-78198999D02*
X164892001Y-78198999D01*
X159820398Y-74065400D02*
X163953997Y-78198999D01*
X151009400Y-74065400D02*
X159820398Y-74065400D01*
X173550000Y-90000000D02*
X172500000Y-90000000D01*
X176329500Y-92779500D02*
X173550000Y-90000000D01*
X176329500Y-115607000D02*
X176329500Y-92779500D01*
X183750000Y-88950000D02*
X183750000Y-90000000D01*
X165055400Y-70255400D02*
X183750000Y-88950000D01*
X151009400Y-70255400D02*
X165055400Y-70255400D01*
X184800000Y-90000000D02*
X183750000Y-90000000D01*
X187569000Y-92769000D02*
X184800000Y-90000000D01*
X187569000Y-115594300D02*
X187569000Y-92769000D01*
X175035400Y-68985400D02*
X151009400Y-68985400D01*
X195000000Y-88950000D02*
X175035400Y-68985400D01*
X196050000Y-90000000D02*
X195000000Y-90000000D01*
X198821200Y-92771200D02*
X196050000Y-90000000D01*
X198821200Y-107910900D02*
X198821200Y-92771200D01*
X195011200Y-111720900D02*
X198821200Y-107910900D01*
X195011200Y-115568900D02*
X195011200Y-111720900D01*
X157901800Y-81279000D02*
X157901800Y-86778000D01*
X154498200Y-77875400D02*
X157901800Y-81279000D01*
X151009400Y-77875400D02*
X154498200Y-77875400D01*
X134009400Y-75335400D02*
X136362600Y-75335400D01*
X90121900Y-121131600D02*
X90121900Y-117372400D01*
X87835900Y-123417600D02*
X90121900Y-121131600D01*
X86299200Y-123417600D02*
X87835900Y-123417600D01*
X97551400Y-123417600D02*
X97551400Y-117270900D01*
X108829000Y-117270800D02*
X108841700Y-117258100D01*
X108829000Y-123417600D02*
X108829000Y-117270800D01*
X125567600Y-123417600D02*
X125567600Y-98246300D01*
X125567700Y-98246200D02*
X125567700Y-97446100D01*
X125567600Y-98246300D02*
X125567700Y-98246200D01*
X136794400Y-123417600D02*
X136794400Y-104507300D01*
X134572000Y-102284900D02*
X134572000Y-97446100D01*
X136794400Y-104507300D02*
X134572000Y-102284900D01*
X150891500Y-97433400D02*
X150891500Y-101789400D01*
X148072000Y-104608900D02*
X150891500Y-101789400D01*
X148072000Y-123417600D02*
X148072000Y-104608900D01*
X157501200Y-97433400D02*
X157063700Y-97433400D01*
X159298800Y-99231000D02*
X157501200Y-97433400D01*
X159298800Y-123417600D02*
X159298800Y-99231000D01*
X176329500Y-123404900D02*
X176316800Y-123417600D01*
X176329500Y-117182000D02*
X176329500Y-123404900D01*
X187569000Y-123404900D02*
X187556300Y-123417600D01*
X187569000Y-117169300D02*
X187569000Y-123404900D01*
X197671200Y-123417600D02*
X198821200Y-123417600D01*
X195011200Y-120757600D02*
X197671200Y-123417600D01*
X195011200Y-117143900D02*
X195011200Y-120757600D01*
X157901800Y-91197700D02*
X157901800Y-88353000D01*
D30*
G36*
X111559500Y-76186614D02*
G01*
X101551696Y-76211385D01*
X101530676Y-63105098D01*
X104155000Y-63105098D01*
X104155000Y-63574902D01*
X104246654Y-64035679D01*
X104426440Y-64469721D01*
X104687450Y-64860349D01*
X105019651Y-65192550D01*
X105410279Y-65453560D01*
X105844321Y-65633346D01*
X106305098Y-65725000D01*
X106774902Y-65725000D01*
X107235679Y-65633346D01*
X107669721Y-65453560D01*
X108060349Y-65192550D01*
X108392550Y-64860349D01*
X108653560Y-64469721D01*
X108833346Y-64035679D01*
X108925000Y-63574902D01*
X108925000Y-63105098D01*
X108833346Y-62644321D01*
X108653560Y-62210279D01*
X108392550Y-61819651D01*
X108060349Y-61487450D01*
X107669721Y-61226440D01*
X107235679Y-61046654D01*
X106774902Y-60955000D01*
X106305098Y-60955000D01*
X105844321Y-61046654D01*
X105410279Y-61226440D01*
X105019651Y-61487450D01*
X104687450Y-61819651D01*
X104426440Y-62210279D01*
X104246654Y-62644321D01*
X104155000Y-63105098D01*
X101530676Y-63105098D01*
X101526754Y-60660000D01*
X111559500Y-60660000D01*
X111559500Y-76186614D01*
G37*
X111559500Y-76186614D02*
X101551696Y-76211385D01*
X101530676Y-63105098D01*
X104155000Y-63105098D01*
X104155000Y-63574902D01*
X104246654Y-64035679D01*
X104426440Y-64469721D01*
X104687450Y-64860349D01*
X105019651Y-65192550D01*
X105410279Y-65453560D01*
X105844321Y-65633346D01*
X106305098Y-65725000D01*
X106774902Y-65725000D01*
X107235679Y-65633346D01*
X107669721Y-65453560D01*
X108060349Y-65192550D01*
X108392550Y-64860349D01*
X108653560Y-64469721D01*
X108833346Y-64035679D01*
X108925000Y-63574902D01*
X108925000Y-63105098D01*
X108833346Y-62644321D01*
X108653560Y-62210279D01*
X108392550Y-61819651D01*
X108060349Y-61487450D01*
X107669721Y-61226440D01*
X107235679Y-61046654D01*
X106774902Y-60955000D01*
X106305098Y-60955000D01*
X105844321Y-61046654D01*
X105410279Y-61226440D01*
X105019651Y-61487450D01*
X104687450Y-61819651D01*
X104426440Y-62210279D01*
X104246654Y-62644321D01*
X104155000Y-63105098D01*
X101530676Y-63105098D01*
X101526754Y-60660000D01*
X111559500Y-60660000D01*
X111559500Y-76186614D01*
M02*
